<svg width="25" height="25" viewBox="0 0 25 25" fill="none" xmlns="http://www.w3.org/2000/svg">
<path d="M12.5 0C5.60708 0 0 5.60708 0 12.5C0 19.3929 5.60708 25 12.5 25C19.3929 25 25 19.3919 25 12.5C25 5.60806 19.3929 0 12.5 0ZM12.5 23.0635C6.67603 23.0635 1.93647 18.325 1.93647 12.5C1.93647 6.67505 6.67603 1.93647 12.5 1.93647C18.324 1.93647 23.0635 6.67505 23.0635 12.5C23.0635 18.325 18.325 23.0635 12.5 23.0635Z" fill="#5A7897"/>
<path d="M17.3412 11.4447H13.4683V7.57178C13.4683 7.0373 13.0355 6.60352 12.5 6.60352C11.9646 6.60352 11.5318 7.0373 11.5318 7.57178V11.4447H7.65881C7.12336 11.4447 6.69055 11.8785 6.69055 12.413C6.69055 12.9475 7.12336 13.3812 7.65881 13.3812H11.5318V17.2542C11.5318 17.7887 11.9646 18.2225 12.5 18.2225C13.0355 18.2225 13.4683 17.7887 13.4683 17.2542V13.3812H17.3412C17.8767 13.3812 18.3095 12.9475 18.3095 12.413C18.3095 11.8785 17.8767 11.4447 17.3412 11.4447Z" fill="#5A7897"/>
</svg>
