<svg width="35" height="19" viewBox="0 0 35 19" fill="none" xmlns="http://www.w3.org/2000/svg">
<path d="M0.21043 9.91966L10.9916 18.8258C11.2724 19.0577 11.7272 19.0577 12.0079 18.8258C12.2887 18.5938 12.2887 18.2181 12.0079 17.9862L2.45365 10.0936L33.7807 10.0936C34.178 10.0936 34.4995 9.82803 34.4995 9.49984C34.4995 9.17165 34.178 8.90608 33.7807 8.90608L2.45365 8.90608L12.0079 1.01352C12.2887 0.781569 12.2887 0.405842 12.0079 0.173948C11.8675 0.0580006 11.6836 0 11.4997 0C11.3158 0 11.1319 0.0580006 10.9915 0.173948L0.210365 9.08009C-0.0703506 9.31198 -0.0703506 9.68771 0.21043 9.91966Z" fill="#373842"/>
</svg>
