<svg width="258" height="178" viewBox="0 0 258 178" fill="none" xmlns="http://www.w3.org/2000/svg">
<g clip-path="url(#clip0)">
<g opacity="0.6">
<path opacity="0.6" d="M39.4813 80.5229L40.1566 49.83C40.1668 49.3855 40.3396 48.9602 40.6425 48.6346C40.9454 48.309 41.3573 48.1058 41.8001 48.0635C56.3321 46.6885 70.9615 46.6885 85.4935 48.0635C85.9436 48.1043 86.3623 48.3114 86.6679 48.6443C86.9734 48.9772 87.1439 49.412 87.146 49.8638V80.5521C87.1459 81.0179 86.9666 81.4659 86.6451 81.8032C86.3236 82.1404 85.8847 82.3411 85.4192 82.3637C70.367 83.0703 55.6164 83.104 41.2103 82.3637C40.7393 82.3415 40.2954 82.137 39.9727 81.7934C39.65 81.4498 39.4737 80.9941 39.4813 80.5229Z" fill="#36334A"/>
<path opacity="0.6" d="M39.4813 80.5229L40.1566 49.83C40.1668 49.3855 40.3396 48.9602 40.6425 48.6346C40.9454 48.309 41.3573 48.1058 41.8001 48.0635C56.3321 46.6885 70.9615 46.6885 85.4935 48.0635C85.9436 48.1043 86.3623 48.3114 86.6679 48.6443C86.9734 48.9772 87.1439 49.412 87.146 49.8638V80.5521C87.1459 81.0179 86.9666 81.4659 86.6451 81.8032C86.3236 82.1404 85.8847 82.3411 85.4192 82.3637C70.367 83.0703 55.6164 83.104 41.2103 82.3637C40.7393 82.3415 40.2954 82.137 39.9727 81.7934C39.65 81.4498 39.4737 80.9941 39.4813 80.5229Z" fill="#36334A"/>
<path opacity="0.2" d="M39.4813 80.5229L40.1566 49.83C40.1668 49.3855 40.3396 48.9602 40.6425 48.6346C40.9454 48.309 41.3573 48.1058 41.8001 48.0635C56.3321 46.6885 70.9615 46.6885 85.4935 48.0635C85.9436 48.1043 86.3623 48.3114 86.6679 48.6443C86.9734 48.9772 87.1439 49.412 87.146 49.8638V80.5521C87.1459 81.0179 86.9666 81.4659 86.6451 81.8032C86.3236 82.1404 85.8847 82.3411 85.4192 82.3637C70.367 83.0703 55.6164 83.104 41.2103 82.3637C40.7393 82.3415 40.2954 82.137 39.9727 81.7934C39.65 81.4498 39.4737 80.9941 39.4813 80.5229Z" fill="#FDAA46"/>
<path opacity="0.6" d="M60.6165 53.667H44.9699C44.6902 53.667 44.4634 53.8937 44.4634 54.1733V56.9863C44.4634 57.2659 44.6902 57.4926 44.9699 57.4926H60.6165C60.8963 57.4926 61.1231 57.2659 61.1231 56.9863V54.1733C61.1231 53.8937 60.8963 53.667 60.6165 53.667Z" fill="#FDAA46"/>
<path opacity="0.3" d="M82.1165 60.3055H45.0825C44.8027 60.3055 44.5759 60.5322 44.5759 60.8119V61.5995C44.5759 61.8791 44.8027 62.1058 45.0825 62.1058H82.1165C82.3962 62.1058 82.623 61.8791 82.623 61.5995V60.8119C82.623 60.5322 82.3962 60.3055 82.1165 60.3055Z" fill="#FDAA46"/>
<path opacity="0.3" d="M82.1165 65.0314H45.0825C44.8027 65.0314 44.5759 65.2581 44.5759 65.5377V66.3253C44.5759 66.605 44.8027 66.8317 45.0825 66.8317H82.1165C82.3962 66.8317 82.623 66.605 82.623 66.3253V65.5377C82.623 65.2581 82.3962 65.0314 82.1165 65.0314Z" fill="#FDAA46"/>
<path opacity="0.3" d="M69.284 69.7571H45.0825C44.8027 69.7571 44.5759 69.9838 44.5759 70.2634V71.051C44.5759 71.3307 44.8027 71.5574 45.0825 71.5574H69.284C69.5638 71.5574 69.7906 71.3307 69.7906 71.051V70.2634C69.7906 69.9838 69.5638 69.7571 69.284 69.7571Z" fill="#FDAA46"/>
</g>
<g opacity="0.6">
<path opacity="0.6" d="M149.57 33.49L150.246 2.79719C150.256 2.35269 150.429 1.92734 150.731 1.60175C151.034 1.27616 151.446 1.07295 151.889 1.03064C166.421 -0.344362 181.05 -0.344362 195.582 1.03064C196.033 1.07151 196.451 1.2786 196.757 1.6115C197.062 1.94439 197.233 2.37917 197.235 2.83094V33.5193C197.232 33.9832 197.051 34.4283 196.73 34.7632C196.409 35.098 195.972 35.2971 195.508 35.3196C180.456 36.0262 165.705 36.06 151.299 35.3196C150.83 35.2975 150.388 35.0945 150.066 34.7533C149.743 34.4122 149.566 33.9593 149.57 33.49Z" fill="#36334A"/>
<path opacity="0.6" d="M149.57 33.49L150.246 2.79719C150.256 2.35269 150.429 1.92734 150.731 1.60175C151.034 1.27616 151.446 1.07295 151.889 1.03064C166.421 -0.344362 181.05 -0.344362 195.582 1.03064C196.033 1.07151 196.451 1.2786 196.757 1.6115C197.062 1.94439 197.233 2.37917 197.235 2.83094V33.5193C197.232 33.9832 197.051 34.4283 196.73 34.7632C196.409 35.098 195.972 35.2971 195.508 35.3196C180.456 36.0262 165.705 36.06 151.299 35.3196C150.83 35.2975 150.388 35.0945 150.066 34.7533C149.743 34.4122 149.566 33.9593 149.57 33.49Z" fill="#36334A"/>
<path opacity="0.2" d="M149.57 33.49L150.246 2.79719C150.256 2.35269 150.429 1.92734 150.731 1.60175C151.034 1.27616 151.446 1.07295 151.889 1.03064C166.421 -0.344362 181.05 -0.344362 195.582 1.03064C196.033 1.07151 196.451 1.2786 196.757 1.6115C197.062 1.94439 197.233 2.37917 197.235 2.83094V33.5193C197.232 33.9832 197.051 34.4283 196.73 34.7632C196.409 35.098 195.972 35.2971 195.508 35.3196C180.456 36.0262 165.705 36.06 151.299 35.3196C150.83 35.2975 150.388 35.0945 150.066 34.7533C149.743 34.4122 149.566 33.9593 149.57 33.49Z" fill="#FDAA46"/>
<path opacity="0.6" d="M170.706 6.63416H155.059C154.779 6.63416 154.552 6.86085 154.552 7.14049V9.95346C154.552 10.2331 154.779 10.4598 155.059 10.4598H170.706C170.985 10.4598 171.212 10.2331 171.212 9.95346V7.14049C171.212 6.86085 170.985 6.63416 170.706 6.63416Z" fill="#FDAA46"/>
<path opacity="0.3" d="M192.206 13.2727H155.171C154.892 13.2727 154.665 13.4994 154.665 13.779V14.5667C154.665 14.8463 154.892 15.073 155.171 15.073H192.206C192.485 15.073 192.712 14.8463 192.712 14.5667V13.779C192.712 13.4994 192.485 13.2727 192.206 13.2727Z" fill="#FDAA46"/>
<path opacity="0.3" d="M192.206 17.9985H155.171C154.892 17.9985 154.665 18.2252 154.665 18.5049V19.2925C154.665 19.5721 154.892 19.7988 155.171 19.7988H192.206C192.485 19.7988 192.712 19.5721 192.712 19.2925V18.5049C192.712 18.2252 192.485 17.9985 192.206 17.9985Z" fill="#FDAA46"/>
<path opacity="0.3" d="M179.373 22.7242H155.171C154.892 22.7242 154.665 22.9509 154.665 23.2306V24.0182C154.665 24.2979 154.892 24.5245 155.171 24.5245H179.373C179.653 24.5245 179.88 24.2979 179.88 24.0182V23.2306C179.88 22.9509 179.653 22.7242 179.373 22.7242Z" fill="#FDAA46"/>
</g>
<path d="M258 154.711C258 156.846 256.408 158.912 253.428 160.877C251.298 162.281 248.461 163.631 244.987 164.914C235.082 168.58 220.016 171.703 201.497 173.978C199.937 174.169 198.354 174.355 196.746 174.537C177.059 176.733 153.85 178.002 129 178.002C57.7551 178.002 0 167.574 0 154.711C0 141.848 57.7551 131.419 129 131.419C200.245 131.419 258 141.845 258 154.711Z" fill="#373842"/>
<path opacity="0.1" d="M121.796 170.799C147.906 170.799 169.073 166.567 169.073 161.347C169.073 156.127 147.906 151.896 121.796 151.896C95.6852 151.896 74.5183 156.127 74.5183 161.347C74.5183 166.567 95.6852 170.799 121.796 170.799Z" fill="black"/>
<path opacity="0.1" d="M243.592 146.609C243.592 151.83 226.932 156.171 200.817 156.171C174.702 156.171 153.539 151.938 153.539 146.72C153.539 141.501 174.702 137.268 200.817 137.268C226.932 137.268 243.592 141.389 243.592 146.609Z" fill="black"/>
<path opacity="0.1" d="M252.752 160.562C250.762 162.07 248.155 163.526 244.987 164.912C235.082 168.578 220.016 171.701 201.497 173.976C199.937 174.167 198.354 174.353 196.746 174.535C192.055 173.063 189.335 171.321 189.335 169.449C189.335 164.228 210.497 159.997 236.613 159.997C242.281 159.997 247.716 160.197 252.752 160.562Z" fill="black"/>
<path d="M162.229 43.2072H160.939C160.655 43.2072 160.424 43.4379 160.424 43.7225V61.8245C160.424 62.1091 160.655 62.3398 160.939 62.3398H162.229C162.514 62.3398 162.745 62.1091 162.745 61.8245V43.7225C162.745 43.4379 162.514 43.2072 162.229 43.2072Z" fill="#373842"/>
<path d="M84.2102 28.2196H83.5821C83.3956 28.2196 83.2444 28.3707 83.2444 28.5572V34.1809C83.2444 34.3673 83.3956 34.5184 83.5821 34.5184H84.2102C84.3967 34.5184 84.5479 34.3673 84.5479 34.1809V28.5572C84.5479 28.3707 84.3967 28.2196 84.2102 28.2196Z" fill="#373842"/>
<path d="M84.2845 39.7506H83.5776C83.3674 39.7506 83.1971 39.9209 83.1971 40.1309V50.3341C83.1971 50.5442 83.3674 50.7144 83.5776 50.7144H84.2845C84.4946 50.7144 84.6649 50.5442 84.6649 50.3341V40.1309C84.6649 39.9209 84.4946 39.7506 84.2845 39.7506Z" fill="#373842"/>
<path d="M84.2553 54.5491H83.5821C83.3819 54.5491 83.2197 54.7113 83.2197 54.9114V65.2451C83.2197 65.4452 83.3819 65.6074 83.5821 65.6074H84.2553C84.4555 65.6074 84.6177 65.4452 84.6177 65.2451V54.9114C84.6177 54.7113 84.4555 54.5491 84.2553 54.5491Z" fill="#373842"/>
<path d="M153.641 7.40369H92.0178C87.5802 7.40369 83.9828 10.9995 83.9828 15.4353V157.207C83.9828 161.642 87.5802 165.238 92.0178 165.238H153.641C158.078 165.238 161.676 161.642 161.676 157.207V15.4353C161.676 10.9995 158.078 7.40369 153.641 7.40369Z" fill="#373842"/>
<path d="M125.612 12.116H115.906C115.591 12.116 115.335 12.3719 115.335 12.6876V13.7475C115.335 14.0632 115.591 14.3191 115.906 14.3191H125.612C125.928 14.3191 126.184 14.0632 126.184 13.7475V12.6876C126.184 12.3719 125.928 12.116 125.612 12.116Z" fill="#36334A"/>
<path d="M129.074 14.4676C129.764 14.4676 130.324 13.9085 130.324 13.2187C130.324 12.5289 129.764 11.9697 129.074 11.9697C128.384 11.9697 127.825 12.5289 127.825 13.2187C127.825 13.9085 128.384 14.4676 129.074 14.4676Z" fill="#36334A"/>
<path d="M156.878 17.6835V154.956C156.877 156.592 156.227 158.16 155.07 159.316C153.913 160.473 152.343 161.122 150.707 161.122H94.9512C93.315 161.122 91.7457 160.473 90.5885 159.316C89.4313 158.16 88.7809 156.592 88.7803 154.956V17.6835C88.7803 16.0475 89.4305 14.4786 90.5877 13.3218C91.745 12.1651 93.3146 11.5152 94.9512 11.5152H103.295V12.5864C103.296 13.9329 103.832 15.2238 104.784 16.1757C105.737 17.1276 107.029 17.6626 108.376 17.6632H136.742C138.09 17.6632 139.382 17.1281 140.335 16.1756C141.288 15.2231 141.823 13.9312 141.823 12.5841V11.5129H150.718C152.353 11.5159 153.92 12.1674 155.075 13.3244C156.23 14.4813 156.879 16.0491 156.878 17.6835Z" fill="#373842"/>
<path d="M97.7068 24.6348H90.7278V25.5349H97.7068V24.6348Z" fill="#373842"/>
<path d="M97.7068 26.2101H90.7278V27.1102H97.7068V26.2101Z" fill="#373842"/>
<path d="M97.7068 27.7854H90.7278V28.6856H97.7068V27.7854Z" fill="#373842"/>
<path d="M97.7068 24.6348H90.7278V25.5349H97.7068V24.6348Z" fill="#373842"/>
<path d="M97.7068 26.2101H90.7278V27.1102H97.7068V26.2101Z" fill="#373842"/>
<path d="M97.7068 27.7854H90.7278V28.6856H97.7068V27.7854Z" fill="#373842"/>
<path d="M153.688 26.8897H153.483L153.404 26.8244C153.663 26.5161 153.805 26.1265 153.805 25.724C153.803 25.3928 153.703 25.0697 153.518 24.7953C153.332 24.521 153.069 24.3078 152.763 24.1827C152.456 24.0577 152.119 24.0263 151.794 24.0927C151.47 24.159 151.172 24.3201 150.939 24.5555C150.706 24.7909 150.548 25.0901 150.485 25.4152C150.423 25.7403 150.458 26.0768 150.586 26.382C150.714 26.6873 150.93 26.9476 151.207 27.1301C151.483 27.3126 151.808 27.409 152.139 27.4072C152.54 27.4044 152.929 27.2629 153.238 27.0067L153.314 27.0697V27.2767L154.606 28.5729L154.994 28.1836L153.688 26.8897ZM152.139 26.8897C151.908 26.8906 151.682 26.8229 151.49 26.6954C151.297 26.5679 151.147 26.3861 151.058 26.1732C150.969 25.9603 150.946 25.7257 150.99 25.4993C151.035 25.2729 151.145 25.0648 151.308 24.9013C151.471 24.7378 151.679 24.6264 151.905 24.581C152.132 24.5357 152.366 24.5585 152.58 24.6466C152.793 24.7347 152.975 24.8841 153.104 25.0759C153.232 25.2677 153.301 25.4932 153.301 25.724C153.302 25.8769 153.272 26.0285 153.214 26.1701C153.156 26.3116 153.071 26.4403 152.963 26.5486C152.855 26.657 152.726 26.7429 152.585 26.8015C152.444 26.86 152.292 26.89 152.139 26.8897Z" fill="#373842"/>
<path d="M8.01466 152.267C8.69005 151.027 7.9246 149.508 7.04884 148.403C6.17309 147.298 5.11047 146.153 5.13298 144.737C5.16675 142.712 7.31675 141.515 9.0345 140.441C10.31 139.645 11.486 138.7 12.5375 137.626C12.9775 137.212 13.3417 136.725 13.6137 136.186C13.9694 135.394 13.9604 134.494 13.9378 133.627C13.8613 130.73 13.718 127.843 13.5078 124.965" stroke="#373842" stroke-width="4" stroke-miterlimit="10"/>
<path d="M16.7745 124.808C16.7506 124.279 16.5937 123.764 16.3182 123.312C16.0428 122.86 15.6577 122.484 15.1986 122.22L14.4917 123.617L14.5142 121.925C14.1761 121.826 13.8239 121.784 13.4719 121.799C12.85 121.83 12.2512 122.044 11.7511 122.415C11.2509 122.785 10.8717 123.296 10.6614 123.882C10.4511 124.467 10.419 125.102 10.5693 125.706C10.7195 126.31 11.0454 126.856 11.5057 127.275C11.966 127.694 12.5401 127.968 13.1557 128.061C13.7713 128.154 14.4007 128.063 14.9645 127.799C15.5284 127.535 16.0014 127.11 16.3239 126.578C16.6465 126.046 16.804 125.43 16.7768 124.808H16.7745Z" fill="#A3CAF7"/>
<path d="M11.1395 146.184C10.8081 146.826 10.2659 147.335 9.60388 147.625C8.94186 147.915 8.20021 147.969 7.50322 147.778C6.80623 147.586 6.19626 147.161 5.77554 146.574C5.35482 145.986 5.14892 145.272 5.19234 144.551C5.23576 143.829 5.52586 143.145 6.01403 142.612C6.5022 142.079 7.15877 141.73 7.8737 141.624C8.58863 141.517 9.31847 141.659 9.94092 142.027C10.5634 142.394 11.0406 142.964 11.2926 143.641L9.31817 145.246L11.4817 144.744C11.4837 145.245 11.3664 145.738 11.1395 146.184Z" fill="#A3CAF7"/>
<path d="M9.5793 140.052C8.79424 140.107 8.01683 139.867 7.39995 139.379C6.78308 138.89 6.37136 138.189 6.24578 137.412C6.12019 136.635 6.28982 135.84 6.72131 135.182C7.15279 134.524 7.81491 134.051 8.57747 133.857L8.55496 135.157L9.27087 133.742C9.68543 133.722 10.0999 133.783 10.4905 133.924C10.8811 134.064 11.2402 134.28 11.547 134.559C11.8539 134.839 12.1026 135.176 12.2787 135.552C12.4549 135.927 12.5551 136.334 12.5735 136.748C12.592 137.113 12.5463 137.478 12.4385 137.826C12.2489 138.446 11.8726 138.993 11.3609 139.391C10.8492 139.789 10.227 140.02 9.5793 140.052Z" fill="#A3CAF7"/>
<path d="M17.2495 134.95C16.7645 134.968 16.282 134.874 15.8394 134.674C15.3969 134.475 15.0064 134.177 14.6983 133.802C14.3903 133.427 14.1729 132.986 14.0633 132.513C13.9538 132.041 13.9548 131.549 14.0665 131.077C14.1781 130.605 14.3973 130.165 14.707 129.792C15.0167 129.418 15.4085 129.121 15.8519 128.924C16.2953 128.726 16.7783 128.634 17.2632 128.654C17.7481 128.674 18.2219 128.806 18.6476 129.039L18.0893 130.569L19.2374 129.466C19.8527 130.029 20.2195 130.814 20.2573 131.647C20.2723 131.939 20.2457 132.233 20.1785 132.518C20.0208 133.186 19.6497 133.785 19.1213 134.224C18.5928 134.663 17.9358 134.918 17.2495 134.95Z" fill="#A3CAF7"/>
<path opacity="0.1" d="M16.349 125.65C15.6196 125.728 14.9104 125.956 14.1787 126.001C13.4471 126.046 12.6433 125.87 12.1796 125.303C11.9319 124.997 11.8059 124.608 11.5965 124.275C11.3984 123.964 11.1271 123.707 10.8063 123.525C10.6156 123.923 10.5109 124.357 10.4989 124.799C10.4868 125.24 10.5677 125.679 10.7363 126.087C10.905 126.495 11.1575 126.864 11.4777 127.168C11.7978 127.472 12.1783 127.706 12.5946 127.854C13.0109 128.001 13.4536 128.06 13.894 128.026C14.3344 127.992 14.7627 127.865 15.1511 127.655C15.5395 127.444 15.8793 127.155 16.1485 126.805C16.4177 126.455 16.6103 126.052 16.7137 125.622C16.5906 125.627 16.4691 125.636 16.349 125.65Z" fill="black"/>
<path opacity="0.1" d="M17.2496 134.95C16.7047 134.978 16.1619 134.864 15.6744 134.619C15.1869 134.374 14.7713 134.007 14.4684 133.553C14.1655 133.099 13.9856 132.575 13.9462 132.031C13.9069 131.487 14.0096 130.942 14.2441 130.45C14.4946 130.617 14.7102 130.832 14.879 131.082C15.1041 131.422 15.2414 131.813 15.5048 132.126C15.9979 132.704 16.8376 132.893 17.6008 132.86C18.364 132.826 19.1002 132.608 19.8521 132.538C19.9579 132.538 20.0637 132.522 20.1718 132.52C20.014 133.187 19.6437 133.785 19.1167 134.223C18.5897 134.661 17.9344 134.917 17.2496 134.95Z" fill="black"/>
<path opacity="0.1" d="M9.57934 140.052C9.03948 140.079 8.50166 139.967 8.01756 139.727C7.53347 139.487 7.11937 139.126 6.81505 138.679C6.51073 138.233 6.32643 137.715 6.27985 137.177C6.23327 136.639 6.32598 136.097 6.54907 135.605C6.81121 135.776 7.04006 135.994 7.22446 136.247C7.46986 136.593 7.62295 136.991 7.91111 137.311C8.44467 137.905 9.3407 138.114 10.1467 138.094C10.9526 138.074 11.6843 137.887 12.461 137.826C12.2701 138.45 11.8904 138.999 11.3743 139.397C10.8581 139.796 10.231 140.025 9.57934 140.052Z" fill="black"/>
<path opacity="0.1" d="M11.1395 146.184C10.7977 146.948 10.1664 147.545 9.38445 147.843C8.60253 148.141 7.73406 148.117 6.97009 147.775C6.20612 147.434 5.60923 146.803 5.31073 146.021C5.01224 145.239 5.03658 144.371 5.37841 143.608C5.64152 143.777 5.87757 143.985 6.07857 144.224C6.38024 144.591 6.57836 145.007 6.92506 145.349C7.57119 145.984 8.61354 146.25 9.54333 146.27C10.0766 146.272 10.6095 146.243 11.1395 146.184Z" fill="black"/>
<path d="M3.2486 150.84C3.2486 150.84 5.74305 150.764 6.49498 150.228C7.24692 149.693 10.3222 149.056 10.5158 149.913C10.7094 150.77 14.2643 154.189 11.4501 154.202C8.63598 154.216 4.90781 153.752 4.15587 153.302C3.40394 152.852 3.2486 150.84 3.2486 150.84Z" fill="#656380"/>
<path opacity="0.2" d="M11.4996 153.903C8.68326 153.926 4.95734 153.466 4.20765 153.003C3.63582 152.654 3.40844 151.405 3.33189 150.831H3.2486C3.2486 150.831 3.40619 152.841 4.14912 153.307C4.89205 153.773 8.62697 154.225 11.4434 154.207C12.2561 154.207 12.5352 153.912 12.5195 153.484C12.4137 153.737 12.1052 153.899 11.4996 153.903Z" fill="black"/>
<path d="M58.8199 140.934C57.7528 138.958 58.964 136.537 60.3553 134.775C61.7466 133.013 63.4464 131.174 63.4103 128.924C63.3586 125.697 59.9321 123.791 57.1922 122.078C55.1613 120.809 53.2879 119.303 51.6112 117.593C50.9358 116.907 50.2897 116.173 49.8957 115.298C49.3284 114.035 49.3442 112.597 49.3802 111.218C49.4988 106.611 49.7239 102.009 50.0556 97.4142" stroke="#373842" stroke-width="4" stroke-miterlimit="10"/>
<path d="M44.8595 97.1734C44.8982 96.3306 45.1487 95.5111 45.5878 94.7905C46.0269 94.07 46.6405 93.4716 47.372 93.0507L48.4977 95.2808L48.4639 92.5804C49.4878 92.2776 50.5814 92.3079 51.5869 92.667C52.5924 93.026 53.4578 93.6953 54.0579 94.578C54.6581 95.4608 54.9621 96.5113 54.9259 97.578C54.8898 98.6447 54.5154 99.6723 53.8568 100.512C53.1983 101.353 52.2896 101.962 51.2621 102.252C50.2346 102.542 49.1414 102.498 48.1404 102.127C47.1393 101.756 46.2823 101.076 45.693 100.186C45.1037 99.296 44.8126 98.2418 44.8618 97.1756L44.8595 97.1734Z" fill="#A3CAF7"/>
<path d="M53.8378 131.239C54.366 132.266 55.2313 133.08 56.2887 133.545C57.346 134.009 58.531 134.096 59.6449 133.791C60.7588 133.486 61.7339 132.807 62.4065 131.869C63.0792 130.931 63.4086 129.789 63.3394 128.637C63.2703 127.485 62.8067 126.391 62.0266 125.54C61.2465 124.688 60.1972 124.131 59.0548 123.961C57.9124 123.791 56.7463 124.02 55.7522 124.607C54.758 125.195 53.9963 126.106 53.5947 127.189L56.7465 129.747L53.2863 128.946C53.2847 129.744 53.4739 130.53 53.8378 131.239Z" fill="#A3CAF7"/>
<path d="M56.3255 121.466C57.5606 121.523 58.7734 121.124 59.7331 120.345C60.6927 119.565 61.332 118.46 61.5292 117.24C61.7265 116.02 61.4678 114.77 60.8025 113.729C60.1372 112.687 59.1118 111.926 57.9217 111.592L57.9487 113.666L56.8095 111.416H56.796C56.1326 111.38 55.4686 111.476 54.8423 111.698C54.2161 111.92 53.64 112.263 53.1471 112.709C52.6543 113.154 52.2545 113.692 51.9707 114.293C51.687 114.893 51.5249 115.544 51.4939 116.208C51.4629 116.871 51.5635 117.534 51.7899 118.158C52.0163 118.783 52.3641 119.356 52.8132 119.846C53.2623 120.335 53.8039 120.731 54.4067 121.01C55.0095 121.289 55.6616 121.447 56.3255 121.473V121.466Z" fill="#A3CAF7"/>
<path d="M44.1009 113.336C44.88 113.373 45.6572 113.228 46.371 112.914C47.0848 112.599 47.7158 112.123 48.2142 111.524C48.7126 110.924 49.0648 110.217 49.2431 109.457C49.4213 108.698 49.4207 107.908 49.2413 107.149C49.0619 106.391 48.7086 105.684 48.2093 105.085C47.7099 104.486 47.0782 104.011 46.3639 103.697C45.6496 103.384 44.8723 103.241 44.0932 103.279C43.3141 103.317 42.5545 103.536 41.8743 103.918L42.7748 106.355L40.9445 104.597C40.2118 105.269 39.6944 106.143 39.4576 107.108C39.2208 108.074 39.2752 109.088 39.614 110.022C39.9528 110.957 40.5607 111.77 41.3612 112.36C42.1616 112.949 43.1188 113.289 44.1121 113.336H44.1009Z" fill="#A3CAF7"/>
<path opacity="0.1" d="M45.535 98.5146C46.6989 98.6406 47.8291 99.0029 48.9952 99.0749C50.1614 99.1469 51.4424 98.8679 52.1786 97.961C52.5771 97.4726 52.7752 96.856 53.1106 96.3227C53.4296 95.8279 53.8648 95.4185 54.3781 95.13C54.7025 95.7681 54.887 96.4679 54.9194 97.1829C54.9518 97.8979 54.8313 98.6116 54.5659 99.2764C54.3006 99.9411 53.8964 100.542 53.3805 101.038C52.8646 101.534 52.2487 101.915 51.574 102.154C50.8993 102.394 50.1812 102.487 49.4677 102.427C48.7541 102.367 48.0616 102.156 47.4362 101.808C46.8108 101.459 46.2669 100.981 45.8408 100.406C45.4148 99.8309 45.1163 99.1714 44.9654 98.4718C45.1568 98.4786 45.3459 98.4921 45.535 98.5146Z" fill="black"/>
<path opacity="0.1" d="M44.1009 113.336C44.9687 113.376 45.8322 113.191 46.6075 112.799C47.3828 112.407 48.0436 111.822 48.5257 111.099C49.0079 110.377 49.2949 109.542 49.359 108.676C49.4231 107.81 49.2621 106.942 48.8916 106.157C48.4908 106.425 48.1466 106.769 47.8785 107.17C47.5206 107.71 47.3022 108.335 46.8812 108.833C46.0978 109.755 44.756 110.057 43.5403 110C42.3246 109.944 41.1539 109.6 39.9382 109.49C39.7693 109.474 39.6005 109.463 39.4294 109.458C39.68 110.524 40.2717 111.48 41.1148 112.18C41.9578 112.879 43.0062 113.285 44.1009 113.336Z" fill="black"/>
<path opacity="0.1" d="M56.3255 121.466C57.1848 121.506 58.04 121.326 58.8097 120.942C59.5794 120.558 60.2379 119.983 60.7223 119.273C61.2067 118.562 61.501 117.739 61.5771 116.883C61.6531 116.026 61.5084 115.165 61.1568 114.38C60.7415 114.652 60.3804 114.999 60.0919 115.404C59.7002 115.955 59.4571 116.59 58.9978 117.1C58.1491 118.046 56.7217 118.379 55.434 118.349C54.1868 118.32 52.9868 118.016 51.7463 117.92C52.0513 118.91 52.6548 119.782 53.4744 120.417C54.294 121.052 55.2897 121.418 56.3255 121.466Z" fill="black"/>
<path opacity="0.1" d="M53.8378 131.24C54.4261 132.387 55.4322 133.264 56.6487 133.692C57.8653 134.12 59.1996 134.065 60.3767 133.538C61.5538 133.011 62.4839 132.054 62.9755 130.862C63.467 129.67 63.4825 128.335 63.0187 127.133C62.6034 127.405 62.2309 127.737 61.9133 128.118C61.4338 128.701 61.1186 129.363 60.5625 129.905C59.5336 130.915 57.8722 131.332 56.3931 131.372C55.5395 131.377 54.6863 131.332 53.8378 131.24Z" fill="black"/>
<path d="M66.4136 138.659C66.4136 138.659 62.4401 138.537 61.2356 137.685C60.0312 136.832 55.121 135.814 54.8239 137.18C54.5267 138.546 48.8534 143.981 53.356 144.017C57.8586 144.053 63.7818 143.319 64.9773 142.59C66.1727 141.861 66.4136 138.659 66.4136 138.659Z" fill="#656380"/>
<path opacity="0.2" d="M53.266 143.542C57.7528 143.578 63.6918 142.842 64.8872 142.116C65.7877 141.562 66.1592 139.573 66.2808 138.654H66.4136C66.4136 138.654 66.1614 141.859 64.966 142.586C63.7706 143.313 57.8316 144.049 53.3448 144.013C52.0503 144.013 51.6022 143.542 51.627 142.86C51.8071 143.277 52.3001 143.533 53.266 143.542Z" fill="black"/>
<path opacity="0.3" d="M156.878 92.443V154.961C156.877 156.596 156.227 158.164 155.07 159.321C153.913 160.477 152.343 161.127 150.707 161.127H94.9512C93.315 161.127 91.7457 160.477 90.5885 159.321C89.4313 158.164 88.7809 156.596 88.7803 154.961V92.5645C111.393 95.4159 134.276 95.3751 156.878 92.443Z" fill="#FDAA46"/>
<path opacity="0.3" d="M115.942 80.5588C116.44 80.5588 116.843 80.1558 116.843 79.6587C116.843 79.1616 116.44 78.7585 115.942 78.7585C115.445 78.7585 115.042 79.1616 115.042 79.6587C115.042 80.1558 115.445 80.5588 115.942 80.5588Z" fill="#FDAA46"/>
<path d="M119.995 80.5588C120.492 80.5588 120.895 80.1558 120.895 79.6587C120.895 79.1616 120.492 78.7585 119.995 78.7585C119.497 78.7585 119.094 79.1616 119.094 79.6587C119.094 80.1558 119.497 80.5588 119.995 80.5588Z" fill="#FDAA46"/>
<path opacity="0.3" d="M124.047 80.5588C124.544 80.5588 124.948 80.1558 124.948 79.6587C124.948 79.1616 124.544 78.7585 124.047 78.7585C123.55 78.7585 123.147 79.1616 123.147 79.6587C123.147 80.1558 123.55 80.5588 124.047 80.5588Z" fill="#FDAA46"/>
<path opacity="0.3" d="M128.1 80.5588C128.597 80.5588 129 80.1558 129 79.6587C129 79.1616 128.597 78.7585 128.1 78.7585C127.602 78.7585 127.199 79.1616 127.199 79.6587C127.199 80.1558 127.602 80.5588 128.1 80.5588Z" fill="#FDAA46"/>
<path opacity="0.3" d="M99.1409 68.3708L99.8163 37.6779C99.8264 37.2334 99.9993 36.8081 100.302 36.4825C100.605 36.1569 101.017 35.9537 101.46 35.9114C115.992 34.5364 130.621 34.5364 145.153 35.9114C145.603 35.9522 146.022 36.1593 146.328 36.4922C146.633 36.8251 146.804 37.2599 146.806 37.7117V68.4C146.806 68.8658 146.626 69.3138 146.305 69.6511C145.983 69.9883 145.544 70.189 145.079 70.2116C130.027 70.9182 115.276 70.9519 100.87 70.2116C100.399 70.1894 99.9551 69.9849 99.6324 69.6413C99.3096 69.2977 99.1334 68.842 99.1409 68.3708Z" fill="#FDAA46"/>
<path opacity="0.3" d="M156.878 36.303V71.1027C155.262 70.9632 153.651 70.8132 152.047 70.6527C151.575 70.6097 151.14 70.3831 150.835 70.0218C150.529 69.6604 150.378 69.1935 150.414 68.7218L152.555 38.0965C152.586 37.6528 152.779 37.236 153.098 36.9252C153.416 36.6144 153.838 36.4314 154.282 36.411C155.147 36.372 156.012 36.336 156.878 36.303Z" fill="#FDAA46"/>
<path opacity="0.3" d="M88.8007 36.303V71.1027C90.4171 70.9632 92.0275 70.8132 93.632 70.6527C94.1032 70.6097 94.5387 70.3831 94.8441 70.0218C95.1495 69.6604 95.3004 69.1935 95.2642 68.7218L93.1232 38.0965C93.0922 37.6528 92.8991 37.236 92.5808 36.9252C92.2624 36.6144 91.8409 36.4314 91.3964 36.411C90.5319 36.372 89.6667 36.336 88.8007 36.303Z" fill="#FDAA46"/>
<path d="M120.276 41.5149H104.63C104.35 41.5149 104.123 41.7416 104.123 42.0212V44.8342C104.123 45.1138 104.35 45.3405 104.63 45.3405H120.276C120.556 45.3405 120.783 45.1138 120.783 44.8342V42.0212C120.783 41.7416 120.556 41.5149 120.276 41.5149Z" fill="#FDAA46"/>
<path opacity="0.3" d="M141.776 48.1534H104.742C104.462 48.1534 104.236 48.3801 104.236 48.6598V49.4474C104.236 49.727 104.462 49.9537 104.742 49.9537H141.776C142.056 49.9537 142.283 49.727 142.283 49.4474V48.6598C142.283 48.3801 142.056 48.1534 141.776 48.1534Z" fill="#FDAA46"/>
<path opacity="0.3" d="M141.776 52.8793H104.742C104.462 52.8793 104.236 53.106 104.236 53.3856V54.1732C104.236 54.4529 104.462 54.6796 104.742 54.6796H141.776C142.056 54.6796 142.283 54.4529 142.283 54.1732V53.3856C142.283 53.106 142.056 52.8793 141.776 52.8793Z" fill="#FDAA46"/>
<path opacity="0.3" d="M128.944 57.6051H104.742C104.462 57.6051 104.236 57.8318 104.236 58.1114V58.8991C104.236 59.1787 104.462 59.4054 104.742 59.4054H128.944C129.223 59.4054 129.45 59.1787 129.45 58.8991V58.1114C129.45 57.8318 129.223 57.6051 128.944 57.6051Z" fill="#FDAA46"/>
<path d="M181.179 117.526C187.656 117.526 192.908 110.725 192.908 102.336C192.908 93.9466 187.656 87.1458 181.179 87.1458C174.701 87.1458 169.449 93.9466 169.449 102.336C169.449 110.725 174.701 117.526 181.179 117.526Z" fill="#373842"/>
<path opacity="0.1" d="M181.179 112.937C175.303 112.937 170.435 107.343 169.582 100.043C169.493 100.804 169.449 101.569 169.449 102.336C169.449 110.725 174.699 117.526 181.179 117.526C187.658 117.526 192.906 110.725 192.906 102.336C192.906 101.569 192.862 100.804 192.773 100.043C191.92 107.343 187.052 112.937 181.179 112.937Z" fill="black"/>
<path d="M205.045 146.821C204.792 147.856 203.707 148.684 202.503 149.263C199.975 150.48 196.857 150.838 193.831 150.966C193.059 151.012 192.284 150.997 191.514 150.924C189.938 150.735 188.461 150.059 187.543 149.099C187.466 149.048 187.402 148.979 187.359 148.898C187.316 148.816 187.294 148.725 187.295 148.633C187.297 148.541 187.322 148.45 187.368 148.37C187.414 148.29 187.48 148.224 187.559 148.176C189.168 146.407 191.856 145.325 194.565 144.544C196.618 143.95 200.193 142.417 202.444 142.624C204.606 142.824 205.362 145.514 205.045 146.821Z" fill="#373842"/>
<path opacity="0.1" d="M205.045 146.821C204.792 147.856 203.707 148.684 202.503 149.263C199.975 150.48 196.857 150.838 193.831 150.966C193.059 151.012 192.284 150.997 191.514 150.924C189.938 150.735 188.461 150.059 187.543 149.099C187.466 149.048 187.402 148.979 187.359 148.898C187.316 148.816 187.294 148.725 187.295 148.633C187.297 148.541 187.322 148.45 187.368 148.37C187.414 148.29 187.48 148.224 187.559 148.176C189.168 146.407 191.856 145.325 194.565 144.544C196.618 143.95 200.193 142.417 202.444 142.624C204.606 142.824 205.362 145.514 205.045 146.821Z" fill="black"/>
<path d="M172.901 139.089C172.518 139.838 172.287 140.654 172.221 141.492C172.154 142.33 172.254 143.173 172.513 143.972C173.044 145.576 174.04 146.986 175.375 148.023C178.646 150.645 183.148 151.005 187.343 150.969C191.014 150.934 194.681 150.681 198.322 150.21C199.538 150.053 200.765 149.868 201.888 149.382C203.257 148.79 204.459 147.706 204.948 146.297C205.436 144.888 205.09 143.162 203.933 142.221C202.915 141.396 201.512 141.283 200.204 141.204L192.712 140.759C193.453 140.012 194.437 139.588 195.337 139.044C196.53 138.321 197.325 137.111 198.194 136.019C199.491 134.388 201.024 132.963 202.548 131.543C202.793 132.939 203.674 134.086 204.716 135.049C205.758 136.013 206.956 136.789 208.037 137.707C210.655 139.928 212.539 142.944 215.295 144.996C217.189 144.499 218.959 143.615 220.495 142.401L219.426 140.464C219.337 140.264 219.198 140.091 219.023 139.96C218.719 139.773 218.33 139.87 217.976 139.816C217.037 139.676 216.625 138.592 216.258 137.714C215.245 135.31 213.305 133.438 211.65 131.429C210.427 129.94 209.343 128.343 208.41 126.658C207.852 125.654 207.343 124.608 206.589 123.732C205.835 122.857 204.775 122.186 203.626 122.184C202.611 122.184 201.674 122.697 200.801 123.215C198.144 124.794 195.588 126.536 193.147 128.431C191.87 129.424 190.598 130.47 189.094 131.08C188.464 131.334 187.797 131.51 187.192 131.822C186.131 132.367 185.325 133.29 184.459 134.111C181.377 137.043 177.144 138.936 172.901 139.089Z" fill="#373842"/>
<path d="M188.54 118.28C188.504 119.173 188.314 120.054 187.978 120.883C187.608 121.696 186.958 122.416 186.109 122.684C185.514 122.844 184.89 122.864 184.285 122.742C183.758 122.688 183.251 122.516 182.8 122.238C182.099 121.754 181.748 120.888 181.622 120.053C181.496 119.218 181.55 118.352 181.469 117.506C181.39 116.822 181.26 116.145 181.08 115.48C181.026 115.255 180.969 115.03 180.913 114.819C180.857 114.607 180.807 114.369 180.758 114.159C180.708 113.95 180.67 113.743 180.636 113.534C180.605 113.358 180.58 113.18 180.56 113.003C180.501 112.478 180.492 111.936 180.298 111.443C180.15 111.116 179.967 110.806 179.751 110.518C179.659 110.385 179.569 110.255 179.486 110.115C179.246 109.758 179.135 109.331 179.17 108.902C179.18 108.836 179.196 108.77 179.218 108.707C179.218 108.682 179.236 108.659 179.247 108.635C179.338 108.609 179.422 108.562 179.492 108.498C179.561 108.433 179.614 108.353 179.645 108.263C179.681 108.07 179.664 107.871 179.596 107.687C179.52 107.43 179.416 107.181 179.285 106.947C179.2 106.792 178.909 106.512 178.907 106.335C178.907 105.977 179.6 105.689 179.884 105.549C180.745 105.116 181.706 104.918 182.669 104.978C183.286 105.018 183.957 105.203 184.297 105.725C184.603 106.191 184.562 106.796 184.693 107.336C184.704 107.418 184.738 107.496 184.79 107.561C184.856 107.622 184.939 107.66 185.028 107.671C185.177 107.7 185.329 107.706 185.479 107.689C185.519 107.686 185.559 107.68 185.598 107.671C185.836 107.628 186.062 107.531 186.258 107.388C186.384 107.354 186.51 107.327 186.64 107.305H186.654C187.165 108.916 187.232 110.644 187.651 112.285C187.856 113.102 188.153 113.907 188.196 114.749C188.196 114.785 188.196 114.823 188.196 114.861C188.196 115.131 188.18 115.404 188.196 115.671C188.202 115.792 188.215 115.913 188.237 116.032C188.283 116.223 188.34 116.411 188.408 116.596C188.428 116.655 188.446 116.716 188.462 116.774C188.477 116.833 188.484 116.862 188.491 116.905C188.572 117.358 188.588 117.821 188.54 118.28Z" fill="#FBBEBE"/>
<path d="M181.381 107.739C184.705 107.739 187.399 105.046 187.399 101.724C187.399 98.4015 184.705 95.7084 181.381 95.7084C178.058 95.7084 175.363 98.4015 175.363 101.724C175.363 105.046 178.058 107.739 181.381 107.739Z" fill="#FBBEBE"/>
<path d="M219.586 134.496C219.412 132.855 218.828 131.284 217.888 129.928C218.038 130.855 218.195 131.782 218.357 132.709C218.162 132.765 217.955 132.764 217.761 132.704C217.567 132.645 217.394 132.53 217.265 132.374C217.012 132.057 216.818 131.697 216.693 131.311C216.01 129.615 215.116 128.012 214.032 126.538C210.205 126.219 206.416 124.632 203.046 122.78C199.675 120.928 196.517 118.714 193.198 116.788C192.621 116.439 192.019 116.132 191.397 115.869C190.357 115.453 189.189 115.237 188.203 114.744L188.005 114.641C187.781 114.52 187.57 114.379 187.374 114.218C187.268 114.131 187.168 114.039 187.073 113.941C186.55 113.399 186.228 112.696 185.92 112.012C185.389 110.842 185.202 109.429 184.673 108.259C184.915 108.032 185.188 107.84 185.483 107.687L185.611 107.622C185.821 107.527 186.039 107.451 186.262 107.397C186.388 107.363 186.514 107.336 186.645 107.314H186.658C187.254 107.216 187.865 107.264 188.439 107.453C189.277 107.737 189.983 108.304 190.69 108.837C191.816 109.683 192.966 110.478 193.98 111.445C194.56 112.003 195.092 112.613 195.718 113.119C196.236 113.522 196.784 113.885 197.356 114.206C200.738 116.22 204.121 118.234 207.505 120.249C208.651 120.924 209.797 121.612 210.918 122.335C212.618 123.431 214.259 124.619 215.898 125.807L218.793 127.907C219.11 128.108 219.389 128.365 219.615 128.665C219.816 129.005 219.94 129.384 219.98 129.777C220.221 131.359 220.086 132.976 219.586 134.496Z" fill="#FBBEBE"/>
<path d="M190.031 122.803C189.625 124.623 187.779 125.728 186.825 127.322C185.629 129.306 186.116 131.613 186.566 133.884L184.103 136.003C183.653 136.393 183.203 136.782 182.712 137.129C182.001 137.605 181.257 138.031 180.487 138.405L178.308 139.53C177.633 139.909 176.918 140.21 176.176 140.43C174.744 140.797 173.225 140.54 171.811 140.115C171.644 140.073 171.483 140.008 171.334 139.921C171.246 139.868 171.17 139.799 171.108 139.717C170.969 139.466 170.918 139.176 170.964 138.893C171.108 136.512 171.692 134.181 172.27 131.867C172.788 129.242 173.808 126.741 175.273 124.502C176.052 123.206 176.822 121.885 177.853 120.768C178.292 120.287 178.783 119.828 179.044 119.231C179.407 118.406 179.269 117.46 179.339 116.56C179.396 115.885 179.575 115.225 179.868 114.614C180.025 114.284 180.214 113.971 180.433 113.68L180.731 114.371L180.924 114.821L181.174 115.401C181.399 115.953 181.649 116.504 181.885 117.058C182.178 117.733 182.478 118.428 182.966 118.982C183.455 119.535 184.177 119.938 184.913 119.862C185.607 119.785 186.199 119.297 186.573 118.707C186.914 118.098 187.162 117.441 187.309 116.758C187.51 115.927 187.537 115.063 187.39 114.22C187.145 112.597 186.453 110.939 185.951 109.431C185.748 108.929 185.631 108.397 185.602 107.856C185.603 107.795 185.609 107.734 185.62 107.674C185.62 107.658 185.62 107.642 185.62 107.626C185.83 107.531 186.048 107.456 186.271 107.401C186.397 107.368 186.523 107.34 186.654 107.318C187.091 109.699 187.534 112.084 187.984 114.474C187.984 114.53 188.005 114.587 188.016 114.643C188.079 114.985 188.144 115.318 188.214 115.669C188.284 116.02 188.349 116.288 188.426 116.594C188.453 116.698 188.48 116.801 188.509 116.902C188.585 117.184 188.673 117.463 188.772 117.737C189.371 119.411 190.416 121.081 190.031 122.803Z" fill="#A3CAF7"/>
<path d="M214.453 148.376C214.434 148.727 214.502 149.077 214.651 149.396C215.027 150.084 215.93 150.239 216.713 150.296C221.281 150.671 225.876 150.53 230.412 149.877C230.659 149.859 230.898 149.781 231.108 149.652C231.754 149.202 231.356 148.099 230.658 147.746C229.96 147.393 229.118 147.478 228.346 147.325C227.574 147.172 226.867 146.781 226.182 146.387C224.615 145.487 223.071 144.549 221.549 143.574C220.649 142.991 219.575 142.372 218.555 142.716C215.783 143.668 214.435 145.397 214.453 148.376Z" fill="#A3CAF7"/>
<path d="M180.78 114.033C180.78 114.078 180.767 114.119 180.758 114.161C180.749 114.204 180.733 114.301 180.719 114.371C180.593 115.017 180.438 115.662 180.269 116.301C179.778 118.07 179.123 119.81 178.468 121.525C176.724 126.123 174.978 130.721 173.229 135.319C172.779 136.478 172.349 137.637 171.849 138.771L171.325 139.917C170.71 141.296 170.12 142.721 169.924 144.193C169.796 145.165 169.665 146.159 169.861 147.118C170.057 148.077 170.642 149.02 171.557 149.368C172.007 149.542 172.644 149.776 172.52 150.239C172.455 150.496 172.164 150.62 171.905 150.662C171.562 150.717 171.211 150.696 170.877 150.6C170.542 150.504 170.233 150.335 169.972 150.107C169.483 149.672 169.107 148.999 168.459 148.925C168.008 148.878 167.594 149.15 167.182 149.335C165.5 150.102 163.542 149.56 161.779 149.02C161.919 148.306 162.637 147.834 163.355 147.692C164.073 147.55 164.807 147.649 165.534 147.631C165.767 147.642 165.998 147.583 166.196 147.46C166.373 147.297 166.497 147.085 166.552 146.85C167.02 145.463 167.369 144.037 167.594 142.59C167.819 141.078 167.925 139.543 168.27 138.051C168.531 136.886 168.931 135.756 169.276 134.613C169.983 132.27 170.451 129.862 170.917 127.461C171.131 126.459 171.286 125.446 171.379 124.425C171.437 123.579 171.408 122.729 171.491 121.885C171.626 120.788 171.851 119.705 172.167 118.646C172.477 117.493 172.789 116.338 173.101 115.183C173.562 113.475 174.06 111.702 175.231 110.374C175.637 109.907 176.135 109.529 176.694 109.262C177.253 108.995 177.86 108.846 178.479 108.823C178.712 108.823 178.943 108.848 179.17 108.898L179.283 108.927C179.53 108.99 179.767 109.088 179.988 109.217C180.35 108.992 180.532 109.069 180.773 109.422C180.983 109.797 181.082 110.224 181.059 110.653C181.079 111.786 180.985 112.918 180.78 114.033Z" fill="#FBBEBE"/>
<path d="M181.179 115.386L181.163 115.401L181.08 115.482L180.26 116.301L179.857 114.614L178.479 108.83C178.712 108.83 178.943 108.855 179.17 108.905C179.18 108.838 179.196 108.772 179.218 108.709L179.283 108.934L179.751 110.509L180.636 113.525L180.78 114.022L181.179 115.386Z" fill="#A3CAF7"/>
<path d="M183.678 92.8549H176.025C174.533 92.8549 173.324 94.0639 173.324 95.5553V98.3098C173.324 99.8012 174.533 101.01 176.025 101.01H183.678C185.17 101.01 186.379 99.8012 186.379 98.3098V95.5553C186.379 94.0639 185.17 92.8549 183.678 92.8549Z" fill="#373842"/>
<path opacity="0.1" d="M170.978 88.8785H171.131C170.052 88.9219 169.032 89.3808 168.284 90.1591C167.536 90.9374 167.118 91.9748 167.118 93.0541C167.118 94.1333 167.536 95.1707 168.284 95.9491C169.032 96.7274 170.052 97.1863 171.131 97.2297H170.978C169.886 97.2043 168.847 96.7528 168.083 95.9717C167.32 95.1905 166.892 94.1417 166.892 93.0496C166.892 91.9575 167.32 90.9087 168.083 90.1275C168.847 89.3464 169.886 88.8948 170.978 88.8695V88.8785Z" fill="black"/>
<path opacity="0.1" d="M185.154 100.196H174.549C174.224 100.194 173.913 100.065 173.684 99.8358C173.454 99.6064 173.325 99.2957 173.324 98.9714V99.7861C173.325 100.11 173.454 100.421 173.684 100.65C173.913 100.88 174.224 101.009 174.549 101.01H185.154C185.479 101.009 185.79 100.88 186.019 100.65C186.249 100.421 186.378 100.11 186.379 99.7861V98.9714C186.378 99.2957 186.249 99.6064 186.019 99.8358C185.79 100.065 185.479 100.194 185.154 100.196Z" fill="black"/>
<path d="M196.848 164.912L197.523 134.219C197.533 133.774 197.706 133.349 198.009 133.023C198.312 132.698 198.724 132.495 199.167 132.452C213.699 131.077 228.328 131.077 242.86 132.452C243.31 132.493 243.729 132.7 244.034 133.033C244.34 133.366 244.51 133.801 244.512 134.253V164.941C244.51 165.405 244.329 165.85 244.008 166.185C243.687 166.52 243.249 166.719 242.786 166.741C227.733 167.448 212.983 167.482 198.577 166.741C198.108 166.719 197.666 166.516 197.343 166.175C197.021 165.834 196.843 165.381 196.848 164.912Z" fill="#F2F2F2"/>
<path d="M217.983 138.056H202.336C202.057 138.056 201.83 138.283 201.83 138.562V141.375C201.83 141.655 202.057 141.882 202.336 141.882H217.983C218.263 141.882 218.489 141.655 218.489 141.375V138.562C218.489 138.283 218.263 138.056 217.983 138.056Z" fill="#FDAA46"/>
<path opacity="0.3" d="M239.483 144.695H202.449C202.169 144.695 201.942 144.921 201.942 145.201V145.989C201.942 146.268 202.169 146.495 202.449 146.495H239.483C239.763 146.495 239.99 146.268 239.99 145.989V145.201C239.99 144.921 239.763 144.695 239.483 144.695Z" fill="#FDAA46"/>
<path opacity="0.3" d="M239.483 149.42H202.449C202.169 149.42 201.942 149.647 201.942 149.927V150.714C201.942 150.994 202.169 151.221 202.449 151.221H239.483C239.763 151.221 239.99 150.994 239.99 150.714V149.927C239.99 149.647 239.763 149.42 239.483 149.42Z" fill="#FDAA46"/>
<path opacity="0.3" d="M226.651 154.146H202.449C202.169 154.146 201.942 154.373 201.942 154.652V155.44C201.942 155.72 202.169 155.946 202.449 155.946H226.651C226.93 155.946 227.157 155.72 227.157 155.44V154.652C227.157 154.373 226.93 154.146 226.651 154.146Z" fill="#FDAA46"/>
<path d="M216.337 130.481C216.337 130.481 217.393 133.517 218.363 132.709L217.596 128.739L216.337 130.481Z" fill="#FBBEBE"/>
</g>
<defs>
<clipPath id="clip0">
<rect width="258" height="178" fill="white"/>
</clipPath>
</defs>
</svg>
