<svg width="12" height="12" viewBox="0 0 12 12" fill="none" xmlns="http://www.w3.org/2000/svg">
<g clip-path="url(#clip0)">
<path d="M11.7395 5.46188C11.9757 5.23168 12.0591 4.89384 11.9572 4.57978C11.8551 4.26572 11.5891 4.04153 11.2623 3.99396L8.3567 3.57177C8.23295 3.55375 8.12602 3.47613 8.07076 3.36392L6.77176 0.73108C6.6259 0.435285 6.32987 0.251465 5.99995 0.251465C5.67027 0.251465 5.37424 0.435285 5.22838 0.73108L3.92915 3.36392C3.87388 3.47613 3.76671 3.55375 3.64296 3.57177L0.737395 3.9942C0.410843 4.04153 0.144844 4.26572 0.0427215 4.57978C-0.0591608 4.89384 0.0242193 5.23168 0.260423 5.46188L2.36271 7.51106C2.45233 7.59852 2.49342 7.72443 2.47228 7.84746L1.97608 10.7413C1.92033 11.0664 2.05129 11.3886 2.31825 11.5827C2.58497 11.7771 2.93219 11.8024 3.22462 11.6483L5.8231 10.2821C5.93387 10.2239 6.06603 10.2239 6.1768 10.2821L8.77552 11.6483C8.90239 11.7151 9.03984 11.7481 9.17656 11.7481C9.35414 11.7481 9.53099 11.6926 9.68189 11.5827C9.94885 11.3886 10.0798 11.0664 10.0241 10.7413L9.52762 7.8477C9.50648 7.72443 9.54757 7.59876 9.6372 7.5113L11.7395 5.46188ZM9.05426 7.92892L9.55045 10.8225C9.57544 10.9681 9.51897 11.1072 9.39931 11.1942C9.27941 11.2809 9.13019 11.2915 8.99923 11.2233L6.40051 9.85675C6.27532 9.79115 6.1374 9.75799 5.99995 9.75799C5.86251 9.75799 5.72482 9.79115 5.59939 9.85699L3.00115 11.2233C2.86971 11.2915 2.72049 11.2809 2.60083 11.1942C2.48117 11.1072 2.42494 10.9683 2.44969 10.8225L2.94589 7.92892C2.9937 7.6497 2.90119 7.36472 2.69839 7.1672L0.595865 5.11778C0.489898 5.01446 0.453855 4.86885 0.49975 4.72828C0.545405 4.58747 0.660022 4.49087 0.806358 4.46949L3.71168 4.0473C3.9921 4.00669 4.23455 3.8308 4.35974 3.57658L5.65898 0.943736C5.72434 0.811096 5.85193 0.732042 5.99971 0.732042C6.14773 0.732042 6.27508 0.811096 6.34068 0.943736L7.63992 3.57658C7.76511 3.8308 8.00732 4.00669 8.28774 4.0473L11.1933 4.46949C11.3396 4.49087 11.4543 4.58747 11.4999 4.72828C11.5456 4.86885 11.5098 5.01446 11.4038 5.11778L9.30151 7.16696C9.09871 7.36472 9.0062 7.64946 9.05426 7.92892Z" fill="#373842"/>
</g>
<defs>
<clipPath id="clip0">
<rect width="12" height="12" fill="white"/>
</clipPath>
</defs>
</svg>
