<svg width="30" height="30" viewBox="0 0 30 30" fill="none" xmlns="http://www.w3.org/2000/svg">
<path d="M28.1836 5.50944H26.8652V3.3689C26.8649 3.01159 26.7228 2.66902 26.4701 2.41637C26.2174 2.16372 25.8749 2.02161 25.5176 2.02124H24.5721C24.2148 2.02161 23.8722 2.16372 23.6196 2.41637C23.3669 2.66902 23.2248 3.01159 23.2245 3.3689V5.50944H20.1687V3.3689C20.1683 3.01159 20.0262 2.66902 19.7735 2.41637C19.5209 2.16372 19.1783 2.02161 18.821 2.02124H17.8755C17.5183 2.02167 17.1757 2.1638 16.9231 2.41644C16.6705 2.66908 16.5283 3.01161 16.5279 3.3689V5.50944H13.4721V3.3689C13.4717 3.01161 13.3296 2.66908 13.0769 2.41644C12.8243 2.1638 12.4817 2.02167 12.1245 2.02124H11.1797C10.8224 2.02167 10.4799 2.1638 10.2272 2.41644C9.97459 2.66908 9.83247 3.01161 9.83203 3.3689V5.50944H6.77555V3.3689C6.77511 3.01161 6.63299 2.66908 6.38035 2.41644C6.12771 2.1638 5.78518 2.02167 5.42789 2.02124H4.48242C4.12513 2.02167 3.7826 2.1638 3.52996 2.41644C3.27732 2.66908 3.1352 3.01161 3.13477 3.3689V5.50944H1.81641C1.33484 5.51 0.873151 5.70155 0.53263 6.04207C0.192108 6.38259 0.00055827 6.84428 0 7.32585L0 26.3967C0.000496219 26.8161 0.167333 27.2182 0.463914 27.5148C0.760495 27.8114 1.1626 27.9782 1.58203 27.9787H28.418C28.8374 27.9782 29.2395 27.8114 29.5361 27.5148C29.8327 27.2182 29.9995 26.8161 30 26.3967V7.32585C29.9994 6.84428 29.8079 6.38259 29.4674 6.04207C29.1269 5.70155 28.6652 5.51 28.1836 5.50944ZM24.0448 3.3689C24.045 3.22909 24.1006 3.09507 24.1994 2.99621C24.2983 2.89736 24.4323 2.84174 24.5721 2.84155H25.5176C25.6574 2.84174 25.7914 2.89736 25.8903 2.99621C25.9891 3.09507 26.0447 3.22909 26.0449 3.3689V5.50944H24.0448V3.3689ZM17.3482 3.3689C17.3484 3.22909 17.404 3.09507 17.5029 2.99621C17.6017 2.89736 17.7357 2.84174 17.8755 2.84155H18.8203C18.9601 2.84174 19.0941 2.89736 19.193 2.99621C19.2919 3.09507 19.3475 3.22909 19.3477 3.3689V5.50944H17.3482V3.3689ZM10.6516 3.3689C10.6518 3.22909 10.7074 3.09507 10.8063 2.99621C10.9052 2.89736 11.0392 2.84174 11.179 2.84155H12.1245C12.2643 2.84174 12.3983 2.89736 12.4971 2.99621C12.596 3.09507 12.6516 3.22909 12.6518 3.3689V5.50944H10.6516V3.3689ZM3.95508 3.3689C3.95526 3.22909 4.01088 3.09507 4.10974 2.99621C4.2086 2.89736 4.34262 2.84174 4.48242 2.84155H5.42789C5.56769 2.84174 5.70172 2.89736 5.80057 2.99621C5.89943 3.09507 5.95505 3.22909 5.95523 3.3689V5.50944H3.95508V3.3689ZM0.820312 7.32585C0.820623 7.06176 0.925668 6.80858 1.1124 6.62185C1.29914 6.43511 1.55232 6.33007 1.81641 6.32976H28.1836C28.4477 6.33 28.7009 6.43503 28.8877 6.62178C29.0744 6.80853 29.1794 7.06175 29.1797 7.32585V9.99257H0.820312V7.32585ZM29.1797 26.3967C29.1794 26.5987 29.0991 26.7923 28.9563 26.9351C28.8135 27.0778 28.6199 27.1582 28.418 27.1584H1.58203C1.38009 27.1582 1.18649 27.0778 1.04369 26.9351C0.900893 26.7923 0.820561 26.5987 0.820312 26.3967V10.8129H29.1797V26.3967Z" fill="white"/>
</svg>
