<svg width="22" height="22" viewBox="0 0 22 22" fill="none" xmlns="http://www.w3.org/2000/svg">
<g clip-path="url(#clip0)">
<path d="M20.3051 13.8202C20.0025 13.8202 19.7572 14.0655 19.7572 14.3681V19.233C19.7562 20.1405 19.021 20.8759 18.1135 20.8767H2.73957C1.83209 20.8759 1.0969 20.1405 1.09583 19.233V4.9549C1.0969 4.04763 1.83209 3.31223 2.73957 3.31116H7.60445C7.90708 3.31116 8.15236 3.06588 8.15236 2.76325C8.15236 2.46082 7.90708 2.21533 7.60445 2.21533H2.73957C1.22724 2.21704 0.00171223 3.44257 0 4.9549V19.2332C0.00171223 20.7455 1.22724 21.9711 2.73957 21.9728H18.1135C19.6258 21.9711 20.8513 20.7455 20.8531 19.2332V14.3681C20.8531 14.0655 20.6078 13.8202 20.3051 13.8202Z" fill="#A2A2A2"/>
<path d="M20.636 0.805683C19.6731 -0.157233 18.112 -0.157233 17.1491 0.805683L7.37393 10.5808C7.30694 10.6478 7.25857 10.7308 7.23331 10.822L5.94785 15.4628C5.89499 15.6531 5.94871 15.8568 6.08825 15.9966C6.22801 16.1361 6.43177 16.1899 6.62204 16.1372L11.2628 14.8515C11.354 14.8263 11.4371 14.7779 11.504 14.7109L21.279 4.93559C22.2404 3.97203 22.2404 2.41218 21.279 1.44863L20.636 0.805683ZM8.56778 10.937L16.568 2.93656L19.1481 5.51667L11.1477 13.5171L8.56778 10.937ZM8.0524 11.9711L10.1137 14.0327L7.26242 14.8227L8.0524 11.9711ZM20.5042 4.1608L19.9231 4.74189L17.3428 2.16156L17.9241 1.58047C18.4589 1.04561 19.3262 1.04561 19.861 1.58047L20.5042 2.22341C21.0382 2.75891 21.0382 3.62551 20.5042 4.1608Z" fill="#A2A2A2"/>
</g>
<defs>
<clipPath id="clip0">
<rect width="22" height="22" fill="white"/>
</clipPath>
</defs>
</svg>
