<svg width="152" height="76" viewBox="0 0 152 76" fill="none" xmlns="http://www.w3.org/2000/svg">
<g clip-path="url(#clip0)">
<path opacity="0.3" d="M34.0016 65.0416C49.8463 65.0416 62.691 52.3181 62.691 36.6228C62.691 20.9275 49.8463 8.20398 34.0016 8.20398C18.1569 8.20398 5.31226 20.9275 5.31226 36.6228C5.31226 52.3181 18.1569 65.0416 34.0016 65.0416Z" stroke="#FF9800" stroke-width="4" stroke-miterlimit="10" stroke-dasharray="12 12"/>
<path opacity="0.3" d="M109.666 59.4202C125.511 59.4202 138.355 46.6967 138.355 31.0014C138.355 15.3062 125.511 2.58264 109.666 2.58264C93.8212 2.58264 80.9766 15.3062 80.9766 31.0014C80.9766 46.6967 93.8212 59.4202 109.666 59.4202Z" stroke="#FF9800" stroke-width="4" stroke-miterlimit="10" stroke-dasharray="12 12"/>
<path d="M120.757 41.9834C119.521 40.6817 118.832 38.9625 118.831 37.1756C118.838 35.943 119.167 34.7332 119.786 33.6641C120.406 32.595 121.294 31.703 122.365 31.0749C121.886 30.3859 121.628 29.5693 121.627 28.7327C121.627 26.3765 123.623 24.4668 126.085 24.4668C127.036 24.4572 127.965 24.7505 128.735 25.3035C129.505 25.8565 130.075 26.6399 130.361 27.5382C130.969 26.591 131.81 25.8122 132.805 25.275C133.8 24.7377 134.916 24.4596 136.049 24.4668C139.717 24.4668 142.692 27.3133 142.692 30.8235C142.692 31.5733 142.554 32.3168 142.285 33.0174C142.419 33.008 142.554 32.9971 142.692 32.9971C145.636 32.9971 148.023 35.2815 148.023 38.1C148.023 38.2721 148.014 38.4441 147.996 38.6153C150.351 39.5865 152 41.8272 152 44.4365C152 47.9357 149.036 50.7729 145.379 50.7729C144.995 50.7724 144.612 50.74 144.233 50.6761C144.252 50.8869 144.265 51.1008 144.265 51.3163C144.265 55.2434 140.939 58.4273 136.835 58.4273C135.329 58.4317 133.856 57.9907 132.605 57.1609C131.592 57.9834 130.322 58.4311 129.012 58.4273C125.946 58.4273 123.462 56.0491 123.462 53.1183C123.462 52.9918 123.473 52.8668 123.482 52.7419H123.462C120.18 52.7419 117.519 50.1952 117.519 47.0535C117.526 45.993 117.833 44.9556 118.405 44.0593C118.978 43.163 119.792 42.4438 120.757 41.9834V41.9834Z" fill="url(#paint0_linear)"/>
<path d="M134.414 34.8412H132.335V72.6647H134.414V34.8412Z" fill="url(#paint1_linear)"/>
<path d="M133.986 34.8412H132.835V72.6647H133.986V34.8412Z" fill="#373842"/>
<path d="M127.12 38.8817L126.298 39.6797L133.116 46.5696L133.938 45.7717L127.12 38.8817Z" fill="#373842"/>
<path d="M140.265 46.7072L133.196 51.6207L133.857 52.5538L140.926 47.6402L140.265 46.7072Z" fill="#373842"/>
<path d="M134.485 42.6469C135.194 41.8437 135.721 40.899 136.029 39.8769C136.338 38.8547 136.422 37.7788 136.274 36.7219C136.127 35.665 135.753 34.6517 135.176 33.7505C134.6 32.8493 133.835 32.0811 132.933 31.498C133.399 30.783 133.647 29.9494 133.645 29.098C133.645 26.6902 131.719 24.7384 129.342 24.7384C128.402 24.7453 127.491 25.0554 126.746 25.6218C126 26.1882 125.462 26.98 125.212 27.877C124.652 26.9254 123.851 26.1353 122.888 25.5848C121.925 25.0343 120.833 24.7425 119.721 24.7384C116.179 24.7384 113.307 27.6474 113.307 31.2357C113.306 32 113.439 32.7586 113.7 33.478C113.57 33.4686 113.44 33.4577 113.307 33.4577C110.47 33.4577 108.159 35.7999 108.159 38.673C108.159 38.851 108.168 39.0259 108.186 39.1992C107.029 39.713 106.047 40.5489 105.361 41.6051C104.674 42.6612 104.312 43.8923 104.319 45.1484C104.319 48.7257 107.182 51.6254 110.711 51.6254C111.081 51.6249 111.45 51.5919 111.814 51.527C111.796 51.7425 111.784 51.9611 111.784 52.1813C111.784 56.1943 114.995 59.4484 118.958 59.4484C120.423 59.4489 121.851 58.9963 123.043 58.1539C124.002 58.9875 125.234 59.4475 126.511 59.4484C129.471 59.4484 131.87 57.0172 131.87 54.0191C131.87 53.8895 131.859 53.7615 131.851 53.6335H131.87C135.04 53.6335 137.608 51.0305 137.608 47.8201C137.613 46.7578 137.325 45.7143 136.774 44.8025C136.224 43.8908 135.432 43.1454 134.485 42.6469V42.6469Z" fill="url(#paint2_linear)"/>
<path d="M123.035 34.8271H121.471V73.3612H123.035V34.8271Z" fill="url(#paint3_linear)"/>
<path d="M122.702 35.3689H121.916V73.3611H122.702V35.3689Z" fill="#373842"/>
<path d="M128.298 39.6512L121.842 46.5575L122.419 47.0869L128.875 40.1806L128.298 39.6512Z" fill="#373842"/>
<path d="M115.676 47.5324L115.207 48.158L121.9 53.082L122.369 52.4564L115.676 47.5324Z" fill="#373842"/>
<path d="M104.355 53.9146C103.513 53.0264 103.044 51.8539 103.044 50.6355C103.049 49.7956 103.273 48.9713 103.695 48.2429C104.117 47.5145 104.723 46.9067 105.452 46.4788C105.125 46.0081 104.95 45.4499 104.949 44.8783C104.949 43.2731 106.31 41.9709 107.987 41.9709C108.635 41.9644 109.268 42.1642 109.793 42.5409C110.317 42.9176 110.706 43.4512 110.902 44.0632C111.316 43.4178 111.889 42.8873 112.567 42.5213C113.245 42.1553 114.006 41.9659 114.778 41.9709C117.278 41.9709 119.305 43.9102 119.305 46.3024C119.305 46.8136 119.211 47.3206 119.028 47.7983C119.119 47.7983 119.21 47.7842 119.305 47.7842C121.312 47.7842 122.931 49.3457 122.931 51.2616C122.93 51.379 122.924 51.4962 122.912 51.6129C123.712 51.9325 124.398 52.4802 124.884 53.1865C125.37 53.8928 125.633 54.726 125.64 55.5806C125.64 57.965 123.621 59.8981 121.129 59.8981C120.865 59.8983 120.601 59.8763 120.341 59.8325C120.355 59.9762 120.363 60.1214 120.363 60.2682C120.363 62.9445 118.096 65.1087 115.3 65.1087C114.279 65.1134 113.28 64.8184 112.429 64.2609C111.738 64.8187 110.873 65.1212 109.981 65.1166C107.892 65.1166 106.198 63.4957 106.198 61.4971C106.198 61.4096 106.198 61.3253 106.212 61.241H106.198C103.961 61.241 102.148 59.5062 102.148 57.3654C102.154 56.6434 102.363 55.9374 102.753 55.3274C103.144 54.7174 103.698 54.228 104.355 53.9146V53.9146Z" fill="url(#paint4_linear)"/>
<path d="M113.662 49.0474H112.245V74.8226H113.662V49.0474Z" fill="url(#paint5_linear)"/>
<path d="M113.369 49.0474H112.585V74.8226H113.369V49.0474Z" fill="#373842"/>
<path d="M108.689 51.8L108.13 52.3433L112.776 57.0377L113.335 56.4944L108.689 51.8Z" fill="#373842"/>
<path d="M117.649 57.1322L112.833 60.4806L113.283 61.1158L118.099 57.7675L117.649 57.1322Z" fill="#373842"/>
<path d="M117.686 54.6796C118.163 54.141 118.517 53.5071 118.725 52.8209C118.933 52.1347 118.989 51.4123 118.89 50.7026C118.792 49.993 118.54 49.3126 118.152 48.7078C117.765 48.103 117.25 47.5877 116.644 47.1971C116.955 46.7162 117.119 46.1567 117.117 45.5856C117.134 44.8886 116.893 44.2095 116.439 43.6766C115.985 43.1437 115.35 42.7938 114.653 42.6929C113.957 42.592 113.247 42.7472 112.658 43.1291C112.069 43.511 111.642 44.0932 111.457 44.7659C111.081 44.1277 110.544 43.5976 109.898 43.2282C109.252 42.8588 108.52 42.6627 107.774 42.6594C105.397 42.6594 103.469 44.6113 103.469 47.0206C103.469 47.5337 103.558 48.043 103.732 48.5259C103.646 48.5259 103.558 48.5118 103.469 48.5118C103.01 48.5169 102.557 48.6115 102.135 48.7902C101.713 48.9689 101.33 49.2282 101.01 49.5533C100.689 49.8784 100.436 50.2629 100.265 50.6849C100.094 51.1069 100.009 51.558 100.014 52.0126C100.014 52.1313 100.014 52.25 100.031 52.3655C99.2545 52.7106 98.5957 53.2718 98.1351 53.9809C97.6744 54.6901 97.4317 55.5165 97.4366 56.3598C97.4366 58.7598 99.3582 60.7069 101.727 60.7069C101.976 60.7068 102.225 60.6849 102.47 60.6413C102.457 60.7866 102.449 60.9318 102.449 61.0801C102.449 63.7737 104.606 65.9582 107.263 65.9582C108.246 65.9586 109.205 65.6551 110.005 65.09C110.649 65.6493 111.476 65.9578 112.333 65.9582C112.811 65.9529 113.283 65.8544 113.722 65.6684C114.162 65.4823 114.56 65.2124 114.894 64.874C115.228 64.5355 115.491 64.1352 115.669 63.6959C115.847 63.2567 115.936 62.787 115.93 62.3137C115.93 62.2262 115.93 62.1404 115.918 62.0545H115.93C118.058 62.0545 119.783 60.3072 119.783 58.1508C119.786 57.4379 119.592 56.7377 119.223 56.1259C118.853 55.5142 118.322 55.014 117.686 54.6796V54.6796Z" fill="url(#paint6_linear)"/>
<path d="M110.002 49.4315H108.952V75.2958H110.002V49.4315Z" fill="url(#paint7_linear)"/>
<path d="M109.778 49.7953H109.25V75.2957H109.778V49.7953Z" fill="#373842"/>
<path d="M113.532 52.6676L109.199 57.3031L109.586 57.6585L113.92 53.023L113.532 52.6676Z" fill="#373842"/>
<path d="M105.06 57.9596L104.745 58.3795L109.238 61.6845L109.553 61.2646L105.06 57.9596Z" fill="#373842"/>
<path d="M108.336 36.7461H63.8828V75.939H108.336V36.7461Z" fill="url(#paint8_linear)"/>
<path d="M107.232 36.7461H34.7205V74.6899H107.232V36.7461Z" fill="white"/>
<path d="M110.701 40.4936H39.4509V22.0682H108.1C108.79 22.0682 109.452 22.3397 109.94 22.8229C110.427 23.306 110.701 23.9614 110.701 24.6447V40.4936Z" fill="url(#paint9_linear)"/>
<path d="M39.4495 22.7975H107.487C108.177 22.7975 108.839 23.0689 109.327 23.5521C109.814 24.0353 110.088 24.6906 110.088 25.3739V40.019H39.4495V22.7975Z" fill="#FDAA46"/>
<path opacity="0.7" d="M39.4495 22.7975H107.487C108.177 22.7975 108.839 23.0689 109.327 23.5521C109.814 24.0353 110.088 24.6906 110.088 25.3739V40.019H39.4495V22.7975Z" fill="white"/>
<path d="M39.2918 2.07996L14.7009 19.2343V33.6889V75.9376H63.8827V33.6889V19.2343L39.2918 2.07996Z" fill="url(#paint10_linear)"/>
<path d="M62.7792 18.9454L39.4494 2.07996L16.1196 18.9454V33.1533H62.7792V18.9454Z" fill="#FDAA46"/>
<path opacity="0.5" d="M62.7792 18.9454L39.4494 2.07996L16.1196 18.9454V33.1533H62.7792V18.9454Z" fill="white"/>
<path d="M62.7792 33.1548H16.1196V74.69H62.7792V33.1548Z" fill="white"/>
<path d="M65.7744 27.3758L39.4495 8.75523L12.8094 27.3758L11.0754 20.827L39.4495 0.370117L67.8236 20.827L65.7744 27.3758Z" fill="url(#paint11_linear)"/>
<path d="M65.5332 26.417L39.4495 7.6122L13.3674 26.417L12.2529 20.5287L39.4495 0.922852L66.6476 20.5287L65.5332 26.417Z" fill="#FDAA46"/>
<path opacity="0.2" d="M65.5332 26.417L39.4495 7.6122L13.3674 26.417L12.2529 20.5287L39.4495 0.922852L66.6476 20.5287L65.5332 26.417Z" fill="black"/>
<path d="M52.6907 42.2113H26.2083V74.6899H52.6907V42.2113Z" fill="#F2F2F2"/>
<path d="M52.6907 42.2113H26.2083V47.8326H52.6907V42.2113Z" fill="#FDAA46"/>
<path d="M52.6907 69.0686H26.2083V74.6899H52.6907V69.0686Z" fill="#FDAA46"/>
<path d="M83.7982 63.0117C83.8609 63.0117 83.9211 62.987 83.9654 62.9431C84.0097 62.8991 84.0347 62.8396 84.0347 62.7774C84.0347 62.7153 84.0097 62.6557 83.9654 62.6118C83.9211 62.5679 83.8609 62.5432 83.7982 62.5432C83.7355 62.5432 83.6754 62.5679 83.631 62.6118C83.5867 62.6557 83.5618 62.7153 83.5618 62.7774C83.5618 62.8396 83.5867 62.8991 83.631 62.9431C83.6754 62.987 83.7355 63.0117 83.7982 63.0117V63.0117Z" fill="#00FF00"/>
<path d="M90.2075 50.9556H77.2815V74.6899H90.2075V50.9556Z" fill="#F2F2F2"/>
<path d="M105.656 45.9589H93.5178V54.7031H105.656V45.9589Z" fill="#F2F2F2"/>
<path opacity="0.2" d="M105.656 45.9589H93.5178V49.8625H105.656V45.9589Z" fill="#FDAA46"/>
<path d="M17.3224 54.5126H16.1401V76H17.3224V54.5126Z" fill="url(#paint12_linear)"/>
<path d="M112.445 8.24139C110.216 5.94405 107.545 4.11169 104.59 2.85217C101.635 1.59265 98.4557 0.931424 95.2389 0.907416C92.0221 0.883409 88.8329 1.4971 85.8592 2.71238C82.8854 3.92765 80.1871 5.71994 77.9232 7.98375C68.7946 17.0996 68.6401 31.9414 77.5685 41.2431C81.4903 45.3347 86.7475 47.9193 92.4088 48.5392C98.07 49.1591 103.77 47.7742 108.499 44.63L125.934 62.5869C126.04 62.6971 126.168 62.7854 126.309 62.8468C126.451 62.9081 126.603 62.9412 126.757 62.9443C126.911 62.9473 127.064 62.9202 127.208 62.8645C127.351 62.8088 127.482 62.7256 127.594 62.6197L131.936 58.4833C132.048 58.3776 132.137 58.2512 132.199 58.1113C132.261 57.9714 132.294 57.8207 132.297 57.668C132.3 57.5153 132.273 57.3635 132.217 57.2212C132.16 57.079 132.076 56.9491 131.969 56.8391L114.535 38.8822C117.878 34.3461 119.501 28.7884 119.119 23.185C118.737 17.5816 116.374 12.2907 112.445 8.24139V8.24139ZM107.014 37.1161C104.556 39.459 101.451 41.027 98.0924 41.622C94.734 42.2169 91.2729 41.8119 88.1469 40.4583C85.0208 39.1048 82.3701 36.8633 80.53 34.0175C78.69 31.1717 77.7431 27.8492 77.8093 24.4704C77.8754 21.0915 78.9515 17.8079 80.9016 15.0349C82.8516 12.2618 85.588 10.1239 88.7647 8.89132C91.9414 7.65879 95.4157 7.38705 98.7484 8.11046C102.081 8.83388 105.122 10.5199 107.487 12.9555C109.058 14.5726 110.291 16.4804 111.118 18.5698C111.944 20.6592 112.346 22.8893 112.303 25.1328C112.259 27.3764 111.769 29.5894 110.862 31.6455C109.954 33.7016 108.647 35.5605 107.014 37.1161V37.1161Z" fill="url(#paint13_linear)"/>
<path d="M82.2832 20.0477C80.3427 20.0477 80.3396 23.0333 82.2832 23.0333C84.2268 23.0333 84.2252 20.0477 82.2832 20.0477Z" fill="url(#paint14_linear)"/>
<path d="M95.8051 10.4822C90.5843 10.3651 85.8316 12.9603 83.3063 16.8842C82.4819 18.1615 84.8228 19.2905 85.6425 18.0194C87.7343 14.7763 91.7098 12.7104 96.0053 12.8244C100.51 12.9368 104.611 15.4898 106.781 19.0328C107.606 20.3773 109.762 19.1546 108.944 17.818C106.31 13.513 101.199 10.6024 95.8051 10.4822Z" fill="url(#paint15_linear)"/>
<path d="M114.337 7.3327C112.107 5.03536 109.437 3.203 106.482 1.94348C103.527 0.683957 100.347 0.0227326 97.1305 -0.00127502C93.9137 -0.0252826 90.7245 0.588411 87.7508 1.80368C84.777 3.01896 82.0787 4.81125 79.8148 7.07506C70.6862 16.1909 70.5317 31.0327 79.4601 40.3344C83.3819 44.426 88.6391 47.0106 94.3004 47.6305C99.9616 48.2504 105.662 46.8656 110.391 43.7213L127.825 61.6782C127.932 61.7885 128.06 61.8768 128.201 61.9381C128.342 61.9994 128.494 62.0325 128.648 62.0356C128.803 62.0386 128.956 62.0115 129.099 61.9558C129.243 61.9001 129.374 61.8169 129.485 61.711L133.83 57.5731C133.941 57.4674 134.03 57.3409 134.092 57.201C134.154 57.0611 134.187 56.9105 134.19 56.7578C134.193 56.605 134.166 56.4532 134.11 56.311C134.054 56.1688 133.97 56.0389 133.863 55.9289L116.428 37.9719C119.771 33.4358 121.393 27.8783 121.011 22.2753C120.628 16.6722 118.265 11.3817 114.337 7.3327V7.3327ZM108.906 36.2075C106.447 38.5503 103.342 40.1184 99.984 40.7133C96.6256 41.3082 93.1645 40.9032 90.0385 39.5497C86.9124 38.1961 84.2617 35.9546 82.4216 33.1088C80.5816 30.263 79.6347 26.9405 79.7009 23.5617C79.767 20.1828 80.8431 16.8992 82.7932 14.1262C84.7432 11.3531 87.4796 9.21517 90.6563 7.98264C93.833 6.75011 97.3073 6.47836 100.64 7.20177C103.973 7.92519 107.014 9.61126 109.379 12.0468C110.949 13.6639 112.183 15.5717 113.009 17.6611C113.835 19.7505 114.238 21.9806 114.194 24.2241C114.15 26.4677 113.661 28.6807 112.753 30.7368C111.846 32.7929 110.539 34.6518 108.906 36.2075V36.2075Z" fill="#FDAA46"/>
<path d="M84.1748 19.1343C82.2343 19.1343 82.2312 22.1198 84.1748 22.1198C86.1184 22.1198 86.1168 19.1343 84.1748 19.1343Z" fill="#FDAA46"/>
<path d="M97.6967 9.57339C92.4759 9.45628 87.7232 12.0514 85.1979 15.9754C84.3735 17.2527 86.7144 18.3817 87.5341 17.1106C89.6259 13.8674 93.6014 11.8016 97.8969 11.9156C102.402 12.028 106.502 14.581 108.673 18.124C109.497 19.4684 111.654 18.2458 110.835 16.9092C108.201 12.6073 103.091 9.69518 97.6967 9.57339Z" fill="#FDAA46"/>
</g>
<defs>
<linearGradient id="paint0_linear" x1="134.761" y1="58.4226" x2="134.761" y2="24.4605" gradientUnits="userSpaceOnUse">
<stop stop-color="#808080" stop-opacity="0.25"/>
<stop offset="0.54" stop-color="#808080" stop-opacity="0.12"/>
<stop offset="1" stop-color="#808080" stop-opacity="0.1"/>
</linearGradient>
<linearGradient id="paint1_linear" x1="1891.55" y1="17636.8" x2="1891.55" y2="8474.41" gradientUnits="userSpaceOnUse">
<stop stop-color="#808080" stop-opacity="0.25"/>
<stop offset="0.54" stop-color="#808080" stop-opacity="0.12"/>
<stop offset="1" stop-color="#808080" stop-opacity="0.1"/>
</linearGradient>
<linearGradient id="paint2_linear" x1="30520" y1="21898.6" x2="30520" y2="14182.6" gradientUnits="userSpaceOnUse">
<stop stop-color="#808080" stop-opacity="0.25"/>
<stop offset="0.54" stop-color="#808080" stop-opacity="0.12"/>
<stop offset="1" stop-color="#808080" stop-opacity="0.1"/>
</linearGradient>
<linearGradient id="paint3_linear" x1="1334.21" y1="18138.9" x2="1334.21" y2="8629.45" gradientUnits="userSpaceOnUse">
<stop stop-color="#808080" stop-opacity="0.25"/>
<stop offset="0.54" stop-color="#808080" stop-opacity="0.12"/>
<stop offset="1" stop-color="#808080" stop-opacity="0.1"/>
</linearGradient>
<linearGradient id="paint4_linear" x1="20513.3" y1="15468.3" x2="20513.3" y2="12037.8" gradientUnits="userSpaceOnUse">
<stop stop-color="#808080" stop-opacity="0.25"/>
<stop offset="0.54" stop-color="#808080" stop-opacity="0.12"/>
<stop offset="1" stop-color="#808080" stop-opacity="0.1"/>
</linearGradient>
<linearGradient id="paint5_linear" x1="1127.7" y1="12400" x2="1127.7" y2="8145.3" gradientUnits="userSpaceOnUse">
<stop stop-color="#808080" stop-opacity="0.25"/>
<stop offset="0.54" stop-color="#808080" stop-opacity="0.12"/>
<stop offset="1" stop-color="#808080" stop-opacity="0.1"/>
</linearGradient>
<linearGradient id="paint6_linear" x1="18763.5" y1="15696.4" x2="18763.5" y2="12220" gradientUnits="userSpaceOnUse">
<stop stop-color="#808080" stop-opacity="0.25"/>
<stop offset="0.54" stop-color="#808080" stop-opacity="0.12"/>
<stop offset="1" stop-color="#808080" stop-opacity="0.1"/>
</linearGradient>
<linearGradient id="paint7_linear" x1="838.068" y1="12521.4" x2="838.068" y2="8237.27" gradientUnits="userSpaceOnUse">
<stop stop-color="#808080" stop-opacity="0.25"/>
<stop offset="0.54" stop-color="#808080" stop-opacity="0.12"/>
<stop offset="1" stop-color="#808080" stop-opacity="0.1"/>
</linearGradient>
<linearGradient id="paint8_linear" x1="24346.6" y1="19097.5" x2="24346.6" y2="9260.02" gradientUnits="userSpaceOnUse">
<stop stop-color="#808080" stop-opacity="0.25"/>
<stop offset="0.54" stop-color="#808080" stop-opacity="0.12"/>
<stop offset="1" stop-color="#808080" stop-opacity="0.1"/>
</linearGradient>
<linearGradient id="paint9_linear" x1="44397.9" y1="9396.72" x2="44397.9" y2="7222.52" gradientUnits="userSpaceOnUse">
<stop stop-color="#808080" stop-opacity="0.25"/>
<stop offset="0.54" stop-color="#808080" stop-opacity="0.12"/>
<stop offset="1" stop-color="#808080" stop-opacity="0.1"/>
</linearGradient>
<linearGradient id="paint10_linear" x1="12273.7" y1="35921.3" x2="12273.7" y2="986.602" gradientUnits="userSpaceOnUse">
<stop stop-color="#808080" stop-opacity="0.25"/>
<stop offset="0.54" stop-color="#808080" stop-opacity="0.12"/>
<stop offset="1" stop-color="#808080" stop-opacity="0.1"/>
</linearGradient>
<linearGradient id="paint11_linear" x1="14212.9" y1="4735.27" x2="14212.9" y2="64.3738" gradientUnits="userSpaceOnUse">
<stop stop-color="#808080" stop-opacity="0.25"/>
<stop offset="0.54" stop-color="#808080" stop-opacity="0.12"/>
<stop offset="1" stop-color="#808080" stop-opacity="0.1"/>
</linearGradient>
<linearGradient id="paint12_linear" x1="141.625" y1="10512.9" x2="141.625" y2="7555.99" gradientUnits="userSpaceOnUse">
<stop stop-color="#808080" stop-opacity="0.25"/>
<stop offset="0.54" stop-color="#808080" stop-opacity="0.12"/>
<stop offset="1" stop-color="#808080" stop-opacity="0.1"/>
</linearGradient>
<linearGradient id="paint13_linear" x1="101.638" y1="62.9491" x2="101.638" y2="0.908713" gradientUnits="userSpaceOnUse">
<stop stop-color="#B3B3B3" stop-opacity="0.25"/>
<stop offset="0.54" stop-color="#B3B3B3" stop-opacity="0.1"/>
<stop offset="1" stop-color="#B3B3B3" stop-opacity="0.05"/>
</linearGradient>
<linearGradient id="paint14_linear" x1="82.2832" y1="23.0348" x2="82.2832" y2="20.0477" gradientUnits="userSpaceOnUse">
<stop stop-opacity="0.12"/>
<stop offset="0.55" stop-opacity="0.09"/>
<stop offset="1" stop-opacity="0.02"/>
</linearGradient>
<linearGradient id="paint15_linear" x1="19736.9" y1="3437.52" x2="19736.9" y2="2903.14" gradientUnits="userSpaceOnUse">
<stop stop-opacity="0.12"/>
<stop offset="0.55" stop-opacity="0.09"/>
<stop offset="1" stop-opacity="0.02"/>
</linearGradient>
<clipPath id="clip0">
<rect width="152" height="76" fill="white"/>
</clipPath>
</defs>
</svg>
