<svg width="152" height="88" viewBox="0 0 152 88" fill="none" xmlns="http://www.w3.org/2000/svg">
<g clip-path="url(#clip0)">
<path d="M152 41.3156C152 44.8167 150.518 48.1889 147.85 50.758C145.183 53.3271 141.526 54.9039 137.61 55.173C137.478 55.182 137.344 55.1909 137.211 55.1962V42.0052C137.211 41.8734 137.178 41.7432 137.114 41.6242C137.051 41.5052 136.958 41.4003 136.843 41.3174C136.83 41.3053 136.815 41.2945 136.799 41.2853C136.784 41.2748 136.769 41.2653 136.753 41.2568C136.613 41.1763 136.452 41.1283 136.285 41.1174C136.119 41.1066 135.952 41.133 135.8 41.1945L135.634 40.8702C135.815 40.7965 136.012 40.7583 136.211 40.7579L124.828 32.0144C124.916 31.9253 125.007 31.838 125.099 31.7507C127.246 29.7337 130.021 28.3368 133.066 27.7406C136.112 27.1444 139.289 27.3762 142.185 28.4061C145.081 29.436 147.565 31.2166 149.315 33.5179C151.064 35.8192 152 38.5355 152 41.3156V41.3156Z" fill="#F2F2F2"/>
<path d="M3.95258 50.7926C3.89597 50.5347 3.90346 50.2689 3.97453 50.0139C4.04561 49.7589 4.17853 49.5209 4.36393 49.3166C4.54934 49.1124 4.78272 48.9468 5.04764 48.8317C5.31256 48.7165 5.60258 48.6546 5.89726 48.6502L14.8831 39.1132L17.1265 41.6704L7.96863 50.5463C7.94411 50.9881 7.73864 51.4066 7.39116 51.7224C7.04369 52.0382 6.57835 52.2294 6.08332 52.2598C5.58829 52.2902 5.09797 52.1576 4.70526 51.8871C4.31256 51.6167 4.04475 51.2273 3.95259 50.7926H3.95258Z" fill="#FFB8B8"/>
<path d="M46.6233 39.0543C46.5604 39.1354 46.5048 39.2208 46.457 39.3097L36.6453 40.5601L35.1554 38.8737L32.0068 40.5457L34.9665 44.6599L46.9328 41.5149C47.2486 41.7697 47.6439 41.9328 48.0662 41.9825C48.4885 42.0322 48.9177 41.966 49.2968 41.7929C49.676 41.6198 49.987 41.3478 50.1885 41.0133C50.39 40.6787 50.4726 40.2974 50.4251 39.92C50.3776 39.5426 50.2024 39.187 49.9228 38.9005C49.6431 38.6141 49.2723 38.4103 48.8596 38.3163C48.4469 38.2224 48.0119 38.2426 47.6124 38.3745C47.213 38.5063 46.868 38.7434 46.6233 39.0543Z" fill="#FFB8B8"/>
<path d="M29.8638 70.919L31.6001 72.4603L39.0946 67.2231L36.5321 64.9482L29.8638 70.919Z" fill="#FFB8B8"/>
<path d="M33.3433 76.8704L27.8865 72.0261L29.9857 70.1464L33.3342 73.119C33.6111 73.3648 33.8309 73.6568 33.9812 73.9783C34.1315 74.2999 34.2093 74.6447 34.2102 74.993C34.211 75.3414 34.1349 75.6864 33.9861 76.0086C33.8374 76.3307 33.6189 76.6235 33.3433 76.8704L33.3433 76.8704Z" fill="#373842"/>
<path d="M20.6342 85.7031H23.0844L24.2499 77.2771H20.6338L20.6342 85.7031Z" fill="#FFB8B8"/>
<path d="M27.8096 87.7314L20.109 87.7318L20.1089 85.0792L24.8342 85.079C25.2249 85.079 25.6118 85.1475 25.9728 85.2808C26.3338 85.4141 26.6618 85.6095 26.9381 85.8558C27.2143 86.1021 27.4335 86.3945 27.583 86.7163C27.7326 87.0382 27.8096 87.3831 27.8096 87.7314V87.7314Z" fill="#373842"/>
<path d="M20.1018 79.1953L17.3109 60.8447C16.8741 58.0714 17.0097 55.2503 17.7109 52.5205C18.2836 50.3268 19.0573 48.8071 20.0105 48.0041C20.161 47.8783 20.3536 47.7999 20.5588 47.7809L29.7733 46.9251C29.9508 46.9089 30.1298 46.9381 30.2894 47.0092C30.449 47.0803 30.5827 47.1904 30.6747 47.3267L30.9776 47.7768C31.0144 47.8314 31.044 47.8896 31.066 47.9502L33.0142 53.335C33.0433 53.4163 33.0902 53.4917 33.1523 53.5568C33.2143 53.6218 33.2903 53.6752 33.3757 53.7139C36.443 55.1101 46.4068 59.8234 45.8366 61.8569C45.3008 63.7676 40.2848 66.8656 38.7602 67.7695C38.605 67.8621 38.4221 67.9109 38.2353 67.9096C38.0486 67.9084 37.8666 67.8571 37.7129 67.7624L35.1821 66.2187C35.0586 66.1433 34.9571 66.0426 34.8861 65.9251C34.8151 65.8076 34.7767 65.6766 34.7741 65.5431C34.7714 65.4097 34.8047 65.2776 34.871 65.1579C34.9374 65.0383 35.0349 64.9345 35.1554 64.8553L36.9007 63.7088C37.0075 63.6386 37.0908 63.5438 37.1417 63.4345C37.1925 63.3253 37.209 63.2057 37.1893 63.0887C37.1697 62.9717 37.1146 62.8617 37.03 62.7706C36.9455 62.6794 36.8346 62.6105 36.7094 62.5713L27.3366 59.6392C27.2313 59.6063 27.119 59.5953 27.0083 59.6071C26.8975 59.6189 26.7913 59.6532 26.6978 59.7074C26.6042 59.7615 26.5259 59.8341 26.4687 59.9195C26.4115 60.0049 26.3771 60.1008 26.368 60.1999L24.6398 79.0318C24.6207 79.2337 24.5203 79.4227 24.3571 79.5636C24.1938 79.7046 23.9788 79.7881 23.7519 79.7987L21.0779 79.9179C21.0617 79.9187 21.0455 79.919 21.0294 79.919C20.8025 79.9198 20.583 79.8467 20.4122 79.7135C20.2414 79.5802 20.131 79.396 20.1018 79.1953V79.1953Z" fill="#373842"/>
<path d="M24.3276 31.7319C27.0385 31.7319 29.2362 29.7725 29.2362 27.3555C29.2362 24.9385 27.0385 22.9791 24.3276 22.9791C21.6166 22.9791 19.4189 24.9385 19.4189 27.3555C19.4189 29.7725 21.6166 31.7319 24.3276 31.7319Z" fill="#FFB8B8"/>
<path d="M19.7362 47.2545L16.123 35.5006L16.1849 35.4634C16.2625 35.4168 24.0505 30.8318 33.1686 34.5267L33.334 34.6112L31.1929 46.811C31.1462 47.0894 30.992 47.3446 30.7569 47.5325C30.5218 47.7204 30.2205 47.8293 29.905 47.8403L21.0949 48.1424C21.0771 48.143 21.0594 48.1434 21.0418 48.1434C20.7448 48.144 20.4559 48.0572 20.2198 47.8965C19.9838 47.7358 19.8138 47.5101 19.7362 47.2545V47.2545Z" fill="#CCCCCC"/>
<path d="M15.9859 43.1525L12.9767 40.0672C12.8317 39.919 12.7501 39.7299 12.7462 39.5332C12.7423 39.3366 12.8164 39.1451 12.9554 38.9924L16.1012 35.5276L18.5162 36.1148L19.7965 40.11L17.462 43.0834C17.3806 43.1877 17.2734 43.274 17.1488 43.3357C17.0241 43.3973 16.8852 43.4326 16.7428 43.4389C16.726 43.4396 16.7092 43.44 16.6925 43.44C16.5584 43.4402 16.4259 43.4147 16.304 43.3651C16.1821 43.3154 16.0736 43.243 15.9859 43.1525V43.1525Z" fill="#CCCCCC"/>
<path d="M32.6264 42.5098C32.484 42.5035 32.3452 42.4682 32.2205 42.4066C32.0958 42.345 31.9886 42.2586 31.9072 42.1543L29.5728 39.1809L30.6956 34.9754L32.9191 34.4347L33.334 34.6112L36.4138 38.0633C36.5528 38.216 36.6269 38.4075 36.623 38.6042C36.6191 38.8008 36.5375 38.9899 36.3926 39.1381L33.3833 42.2234C33.2957 42.3139 33.1872 42.3864 33.0652 42.436C32.9433 42.4856 32.8108 42.5111 32.6768 42.5109C32.6601 42.5109 32.6432 42.5105 32.6264 42.5098Z" fill="#CCCCCC"/>
<path d="M137.211 41.1322C137.213 41.1765 137.196 41.2199 137.163 41.2534C137.128 41.2893 137.079 41.3115 137.027 41.3152C136.974 41.3189 136.921 41.3037 136.881 41.273L136.212 40.758L124.828 32.0145L92.8992 7.48741C92.717 7.3484 92.4851 7.27215 92.2453 7.27247C92.0055 7.2728 91.7738 7.34968 91.5921 7.48919L48.5954 40.7936L48.2077 41.093C48.1928 41.1047 48.176 41.1144 48.1578 41.1215C48.1258 41.1341 48.0906 41.1391 48.0558 41.1358C48.0059 41.131 47.9596 41.1101 47.9259 41.077C47.9085 41.0594 47.8952 41.039 47.8867 41.0169C47.8782 40.9948 47.8747 40.9714 47.8764 40.948C47.878 40.9247 47.8849 40.9019 47.8964 40.8809C47.908 40.8599 47.9241 40.8411 47.9439 40.8257L47.9978 40.783L91.3303 7.22013C91.5849 7.02515 91.9093 6.91765 92.2449 6.917C92.5805 6.91634 92.9054 7.02258 93.1609 7.21657L125.1 31.7508L137.141 41.0021C137.162 41.0184 137.179 41.0383 137.191 41.0607C137.203 41.083 137.21 41.1074 137.211 41.1322V41.1322Z" fill="#3F3D56"/>
<path d="M112.934 46.3939L112.409 45.1039L110.598 40.6493L106.697 31.0576L102.336 20.3362L94.4718 0.997892C94.3173 0.620777 94.0016 0.313591 93.5937 0.143601C93.1857 -0.026389 92.7189 -0.045327 92.2953 0.0909334L46.8265 14.7894C46.4034 14.9269 46.0587 15.2084 45.868 15.5721C45.6774 15.9359 45.6562 16.3522 45.8093 16.7298L56.9591 44.1453L57.1489 44.6139L68.8524 49.3429L72.142 50.6721L72.6756 50.8878L86.6036 56.5166L87.1431 56.342L96.2785 53.3895L110.058 48.9349L111.915 48.3344C112.338 48.197 112.683 47.9156 112.874 47.5519C113.065 47.1882 113.087 46.7718 112.934 46.3939V46.3939Z" fill="#E6E6E6"/>
<path d="M93.8684 23.5578C93.6416 23.0028 93.1772 22.5506 92.577 22.3005C91.9768 22.0503 91.2898 22.0225 90.6667 22.2232L72.6758 28.0409L63.9882 30.8491C63.6795 30.9486 63.3958 31.1013 63.1534 31.2986C62.9109 31.4959 62.7145 31.7338 62.5752 31.9988C62.436 32.2638 62.3567 32.5507 62.3419 32.8431C62.3271 33.1354 62.377 33.4275 62.4889 33.7026C62.6008 33.9777 62.7724 34.2305 62.9939 34.4464C63.2154 34.6624 63.4825 34.8373 63.7799 34.9612C64.0772 35.0851 64.3991 35.1555 64.727 35.1684C65.0549 35.1813 65.3825 35.1365 65.6909 35.0365L72.6758 32.7789L92.3715 26.4123C92.994 26.2101 93.5012 25.796 93.7818 25.2609C94.0624 24.7258 94.0935 24.1134 93.8684 23.5578V23.5578Z" fill="white"/>
<path d="M97.0362 31.3481C96.8094 30.7931 96.3449 30.3409 95.7448 30.0907C95.1446 29.8406 94.4576 29.8128 93.8345 30.0135L90.7867 30.9989L72.6759 36.854L67.156 38.6376C66.5335 38.8393 66.0263 39.2531 65.7458 39.7881C65.4654 40.323 65.4346 40.9354 65.6603 41.4905C65.8859 42.0457 66.3496 42.4983 66.9493 42.7488C67.5491 42.9994 68.2358 43.0274 68.8587 42.8267L72.6759 41.5919L95.5393 34.2008C95.5912 34.1848 95.6412 34.1652 95.6912 34.1456C96.2717 33.9185 96.7336 33.5031 96.9834 32.9837C97.2331 32.4642 97.252 31.8795 97.0362 31.3481V31.3481Z" fill="white"/>
<path d="M100.238 39.2203C100.011 38.6654 99.5474 38.2132 98.9476 37.963C98.3477 37.7128 97.661 37.685 97.0382 37.8857L88.4904 40.6493L81.8732 42.7893L72.6759 45.7614L70.3576 46.5116C69.8218 46.6856 69.3687 47.0174 69.0733 47.4523C68.7778 47.8871 68.6577 48.3988 68.7327 48.9028C68.7557 49.0528 68.7958 49.2003 68.8527 49.3429L72.1423 50.6722L72.6759 50.4993H72.6799L89.3698 45.1039L98.7409 42.0748C99.3637 41.873 99.8713 41.459 100.152 40.9237C100.433 40.3885 100.464 39.7758 100.238 39.2203H100.238Z" fill="white"/>
<path d="M81.5056 15.8995C81.2788 15.3445 80.8144 14.8923 80.2142 14.6421C79.614 14.392 78.9271 14.3642 78.3039 14.5649L67.9714 17.9041C67.3489 18.1058 66.8417 18.5196 66.5613 19.0545C66.2808 19.5895 66.25 20.2018 66.4757 20.757C66.7013 21.3122 67.165 21.7647 67.7647 22.0153C68.3645 22.2658 69.0513 22.2939 69.6742 22.0932L72.9439 21.0365L75.1082 20.3363L80.0087 18.7522C80.6311 18.5504 81.1383 18.1367 81.4189 17.6018C81.6995 17.067 81.7307 16.4548 81.5056 15.8995Z" fill="white"/>
<path d="M122.739 20.3362H74.3741C74.0888 20.3364 73.8082 20.4007 73.5581 20.5231C73.3081 20.6455 73.0966 20.822 72.9432 21.0365C72.7678 21.2792 72.6748 21.562 72.6753 21.8507V50.8877L86.6032 56.5165L88.5658 57.3095L91.6655 58.5621C91.847 58.6352 92.0439 58.673 92.2431 58.673C92.4423 58.673 92.6392 58.6352 92.8207 58.5621L95.9204 57.3095L105.621 53.3894L114.663 49.7348L124.438 45.7863V21.8507C124.437 21.4491 124.258 21.0641 123.94 20.7801C123.621 20.4961 123.189 20.3364 122.739 20.3362Z" fill="#FDAA46"/>
<path d="M112.746 40.6493H84.367C83.7217 40.6496 83.1016 40.8726 82.6366 41.2716C82.1717 41.6705 81.898 42.2144 81.8728 42.7893C81.8695 42.8183 81.8682 42.8474 81.8688 42.8766C81.8697 43.4671 82.1333 44.0331 82.6015 44.4506C83.0698 44.8681 83.7047 45.1031 84.367 45.1039H112.746C113.409 45.1039 114.044 44.8692 114.513 44.4515C114.981 44.0338 115.245 43.4673 115.245 42.8766C115.245 42.2859 114.981 41.7194 114.513 41.3017C114.044 40.884 113.409 40.6493 112.746 40.6493Z" fill="white"/>
<path d="M114.363 49.4658C113.913 49.1222 113.339 48.9339 112.746 48.9348H84.3668C83.7043 48.9348 83.0689 49.1695 82.6004 49.5872C82.1319 50.0049 81.8687 50.5714 81.8687 51.1621C81.8687 51.7528 82.1319 52.3194 82.6004 52.7371C83.0689 53.1548 83.7043 53.3894 84.3668 53.3894H105.621L114.663 49.7349C114.572 49.6378 114.471 49.5478 114.363 49.4658Z" fill="white"/>
<path d="M88.5659 57.3096L91.6656 58.5622C91.8471 58.6353 92.044 58.6731 92.2432 58.6731C92.4424 58.6731 92.6393 58.6353 92.8208 58.5622L95.9205 57.3096H88.5659Z" fill="white"/>
<path d="M106.399 31.1538C106.223 30.725 105.904 30.3548 105.484 30.0931C105.064 29.8315 104.565 29.6911 104.053 29.6909H93.0607C92.5808 29.6913 92.1112 29.8148 91.7079 30.0468C91.3046 30.2787 90.9847 30.6092 90.7864 30.9988C90.6383 31.2873 90.562 31.6009 90.5625 31.9182C90.5634 32.5087 90.8269 33.0747 91.2952 33.4922C91.7635 33.9098 92.3984 34.1447 93.0607 34.1455H104.053C104.455 34.1456 104.85 34.0591 105.207 33.8936C105.563 33.7281 105.87 33.4883 106.1 33.1947C106.33 32.901 106.478 32.5622 106.53 32.2069C106.582 31.8516 106.537 31.4903 106.399 31.1538Z" fill="white"/>
<path d="M104.652 53.3894L94.9514 57.3095L92.6551 58.2378C92.5257 58.2898 92.3854 58.3167 92.2434 58.3167C92.1015 58.3167 91.9611 58.2898 91.8317 58.2378L89.5354 57.3095H88.5661L91.6658 58.5621C91.8473 58.6352 92.0442 58.6731 92.2434 58.6731C92.4426 58.6731 92.6395 58.6352 92.821 58.5621L95.9207 57.3095L105.622 53.3894H104.652ZM104.652 53.3894L94.9514 57.3095L92.6551 58.2378C92.5257 58.2898 92.3854 58.3167 92.2434 58.3167C92.1015 58.3167 91.9611 58.2898 91.8317 58.2378L89.5354 57.3095H88.5661L91.6658 58.5621C91.8473 58.6352 92.0442 58.6731 92.2434 58.6731C92.4426 58.6731 92.6395 58.6352 92.821 58.5621L95.9207 57.3095L105.622 53.3894H104.652ZM104.652 53.3894L94.9514 57.3095L92.6551 58.2378C92.5257 58.2898 92.3854 58.3167 92.2434 58.3167C92.1015 58.3167 91.9611 58.2898 91.8317 58.2378L89.5354 57.3095H88.5661L91.6658 58.5621C91.8473 58.6352 92.0442 58.6731 92.2434 58.6731C92.4426 58.6731 92.6395 58.6352 92.821 58.5621L95.9207 57.3095L105.622 53.3894H104.652ZM137.211 41.1321C137.137 41.0667 137.056 41.0082 136.969 40.9575C136.773 40.844 136.547 40.7765 136.314 40.7613C136.08 40.746 135.847 40.7835 135.634 40.8702L114.363 49.4658L104.652 53.3894L94.9514 57.3095L92.6551 58.2378C92.5257 58.2898 92.3854 58.3167 92.2434 58.3167C92.1015 58.3167 91.9611 58.2898 91.8317 58.2378L89.5354 57.3095L87.1431 56.342L72.6796 50.4993L72.6756 50.4975L68.7325 48.9028L56.9592 44.1452L48.853 40.8702C48.7706 40.8362 48.6841 40.8105 48.5952 40.7936C48.3995 40.75 48.1952 40.7463 47.9976 40.7829C47.6816 40.8406 47.3975 40.9937 47.1932 41.2163C46.989 41.439 46.8771 41.7176 46.8765 42.0052V86.7527C46.8769 87.0834 47.0244 87.4004 47.2867 87.6343C47.5489 87.8681 47.9045 87.9996 48.2754 88H136.211C136.582 87.9996 136.938 87.8681 137.2 87.6343C137.462 87.4004 137.61 87.0834 137.61 86.7527V42.0052C137.611 41.6787 137.467 41.365 137.211 41.1321V41.1321ZM137.211 86.7527C137.211 86.9889 137.105 87.2155 136.918 87.3826C136.73 87.5496 136.476 87.6435 136.211 87.6436H48.2754C48.0104 87.6435 47.7563 87.5496 47.569 87.3826C47.3816 87.2155 47.2763 86.9889 47.2762 86.7527V42.0052C47.2762 41.8563 47.3182 41.7098 47.3981 41.5791C47.4781 41.4484 47.5935 41.3376 47.7338 41.2569C47.8326 41.2005 47.9414 41.1595 48.0556 41.1357C48.0892 41.1292 48.1233 41.1245 48.1575 41.1214C48.1966 41.1164 48.236 41.114 48.2754 41.1143C48.4175 41.1145 48.5579 41.1418 48.6871 41.1945L57.1489 44.6139L68.8524 49.3429L72.142 50.6721L72.6756 50.8877L86.6036 56.5166L88.5661 57.3095L91.6658 58.5621C91.8473 58.6352 92.0442 58.6731 92.2434 58.6731C92.4426 58.6731 92.6395 58.6352 92.821 58.5621L95.9207 57.3095L105.622 53.3894L114.663 49.7349L135.8 41.1945C135.952 41.1331 136.119 41.1066 136.285 41.1175C136.452 41.1284 136.613 41.1763 136.753 41.2569C136.769 41.2653 136.784 41.2749 136.799 41.2854C136.815 41.2945 136.83 41.3053 136.843 41.3174C136.958 41.4004 137.051 41.5052 137.114 41.6242C137.178 41.7432 137.211 41.8734 137.211 42.0052L137.211 86.7527ZM104.652 53.3894L94.9514 57.3095L92.6551 58.2378C92.5257 58.2898 92.3854 58.3167 92.2434 58.3167C92.1015 58.3167 91.9611 58.2898 91.8317 58.2378L89.5354 57.3095H88.5661L91.6658 58.5621C91.8473 58.6352 92.0442 58.6731 92.2434 58.6731C92.4426 58.6731 92.6395 58.6352 92.821 58.5621L95.9207 57.3095L105.622 53.3894H104.652ZM104.652 53.3894L94.9514 57.3095L92.6551 58.2378C92.5257 58.2898 92.3854 58.3167 92.2434 58.3167C92.1015 58.3167 91.9611 58.2898 91.8317 58.2378L89.5354 57.3095H88.5661L91.6658 58.5621C91.8473 58.6352 92.0442 58.6731 92.2434 58.6731C92.4426 58.6731 92.6395 58.6352 92.821 58.5621L95.9207 57.3095L105.622 53.3894H104.652ZM72.142 50.6721L72.6756 50.8877V50.4993L72.142 50.6721ZM104.652 53.3894L94.9514 57.3095L92.6551 58.2378C92.5257 58.2898 92.3854 58.3167 92.2434 58.3167C92.1015 58.3167 91.9611 58.2898 91.8317 58.2378L89.5354 57.3095H88.5661L91.6658 58.5621C91.8473 58.6352 92.0442 58.6731 92.2434 58.6731C92.4426 58.6731 92.6395 58.6352 92.821 58.5621L95.9207 57.3095L105.622 53.3894H104.652Z" fill="#3F3D56"/>
<path d="M35.0798 88H12.4962C12.4432 88 12.3924 87.9813 12.3549 87.9479C12.3174 87.9144 12.2964 87.8691 12.2964 87.8219C12.2964 87.7746 12.3174 87.7293 12.3549 87.6959C12.3924 87.6625 12.4432 87.6437 12.4962 87.6437H35.0798C35.1328 87.6437 35.1836 87.6625 35.2211 87.6959C35.2586 87.7293 35.2796 87.7746 35.2796 87.8219C35.2796 87.8691 35.2586 87.9144 35.2211 87.9479C35.1836 87.9813 35.1328 88 35.0798 88Z" fill="#3F3D56"/>
<path d="M22.4613 30.556C22.0926 30.3892 21.786 30.1307 21.5787 29.8118C21.3714 29.4928 21.2722 29.1272 21.2931 28.759C21.314 28.3908 21.4542 28.036 21.6966 27.7374C21.9391 27.4388 22.2734 27.2092 22.6591 27.0765C24.1403 26.5669 25.8009 27.607 27.3535 27.3113C28.9011 27.0165 29.7963 25.367 29.4269 23.9951C29.0575 22.6232 27.7131 21.5899 26.2306 21.0964C25.2624 20.7749 24.2255 20.6516 23.1966 20.7357C22.1677 20.8198 21.1732 21.1091 20.2867 21.5822C19.4093 22.0691 18.6786 22.7397 18.1581 23.5357C17.6375 24.3318 17.343 25.2291 17.2999 26.1497C17.2798 27.0711 17.5323 27.9811 18.032 28.7878C18.5318 29.5946 19.2611 30.2697 20.1466 30.7452C20.5412 30.948 21.0006 31.1108 21.4444 31.0195C21.8087 30.914 22.152 30.7576 22.4613 30.556V30.556Z" fill="#373842"/>
<path d="M20.8705 21.4755C19.5643 19.9309 17.8012 18.662 15.7495 18.0329C13.6978 17.4038 11.3533 17.4543 9.42636 18.3433C7.49946 19.2324 6.06245 20.998 5.91245 22.9278C5.66281 26.1395 8.74089 28.8696 9.05678 32.0767C9.15691 33.0932 8.97185 34.116 8.51827 35.0529C8.06468 35.9898 7.35683 36.8114 6.45846 37.4437C5.56009 38.076 4.49942 38.4991 3.37198 38.6749C2.24455 38.8507 1.08576 38.7738 0 38.4509C0.773345 39.0185 1.66998 39.4373 2.63357 39.6811C3.59716 39.9249 4.60689 39.9885 5.59934 39.8677C6.59016 39.7351 7.53547 39.4076 8.36672 38.9089C9.19796 38.4102 9.89431 37.7528 10.4053 36.9845C11.098 35.9113 11.3825 34.6648 11.493 33.4306C11.6665 31.479 11.4315 29.5157 10.7999 27.6408C10.4547 26.6178 9.98646 25.5651 10.2054 24.5148C10.3302 23.9684 10.6323 23.4669 11.0741 23.0724C11.516 22.6778 12.0781 22.4078 12.6907 22.2957C13.6806 22.1303 14.6928 22.3997 15.638 22.7097C16.5833 23.0197 17.5363 23.3785 18.5432 23.399C19.5501 23.4195 20.6468 23.0086 21.0359 22.1804L20.8705 21.4755Z" fill="#373842"/>
</g>
<defs>
<clipPath id="clip0">
<rect width="152" height="88" fill="white"/>
</clipPath>
</defs>
</svg>
