<svg width="30" height="30" viewBox="0 0 30 30" fill="none" xmlns="http://www.w3.org/2000/svg">
<g clip-path="url(#clip0)">
<path d="M29.681 12.1913L15.4605 1.77934C15.1863 1.5786 14.8137 1.5786 14.5396 1.77934L0.319048 12.1913C-0.0282956 12.4456 -0.103764 12.9334 0.150591 13.2807C0.404947 13.628 0.89274 13.7034 1.24002 13.4492L15 3.37432L28.76 13.4491C28.8987 13.5508 29.06 13.5997 29.2198 13.5997C29.4598 13.5997 29.6967 13.4892 29.8494 13.2806C30.1038 12.9334 30.0283 12.4456 29.681 12.1913Z" fill="white"/>
<path d="M25.9128 13.6256C25.4824 13.6256 25.1333 13.9746 25.1333 14.4051V26.8123H18.8977V20.0396C18.8977 17.8904 17.1491 16.142 15 16.142C12.8509 16.142 11.1024 17.8905 11.1024 20.0396V26.8123H4.86665V14.4051C4.86665 13.9747 4.5176 13.6257 4.08717 13.6257C3.65674 13.6257 3.3077 13.9747 3.3077 14.4051V27.5918C3.3077 28.0223 3.65674 28.3713 4.08717 28.3713H11.8818C12.2918 28.3713 12.6272 28.0546 12.6583 27.6525C12.6601 27.6343 12.6613 27.6144 12.6613 27.5918V20.0397C12.6613 18.7501 13.7104 17.701 15 17.701C16.2896 17.701 17.3387 18.7502 17.3387 20.0397V27.5918C17.3387 27.6143 17.3399 27.6339 17.3418 27.6518C17.3725 28.0542 17.7081 28.3713 18.1182 28.3713H25.9129C26.3434 28.3713 26.6923 28.0223 26.6923 27.5918V14.4051C26.6923 13.9746 26.3433 13.6256 25.9128 13.6256Z" fill="white"/>
</g>
<defs>
<clipPath id="clip0">
<rect width="30" height="30" fill="white"/>
</clipPath>
</defs>
</svg>
