<svg width="197" height="115" viewBox="0 0 197 115" fill="none" xmlns="http://www.w3.org/2000/svg">
<g clip-path="url(#clip0)">
<path d="M150.828 113.7C148.306 111.619 146.774 108.331 147.176 105.131C147.577 101.931 150.066 98.9893 153.293 98.3098C156.521 97.6302 160.201 99.5113 161.181 102.59C161.721 96.6544 162.342 90.4701 165.574 85.4154C168.501 80.8385 173.57 77.5636 179.063 76.9777C184.556 76.3918 190.34 78.6046 193.766 82.8382C197.192 87.0717 198.031 93.2264 195.632 98.0869C193.864 101.667 190.607 104.332 187.195 106.5C176.17 113.446 162.946 116.271 149.957 114.454L150.828 113.7Z" fill="#F2F2F2"/>
<path d="M188.334 78.7272C183.801 82.332 179.643 86.3638 175.919 90.7641C170.092 97.627 165.376 105.322 161.936 113.58C161.684 114.182 162.686 114.444 162.935 113.849C168.563 100.427 177.547 88.5981 189.066 79.4425C189.584 79.0313 188.847 78.3193 188.334 78.7272Z" fill="white"/>
<path d="M63.4175 113.134C66.8816 110.276 68.9858 105.761 68.434 101.366C67.8822 96.9704 64.4644 92.9297 60.031 91.9963C55.5976 91.063 50.5439 93.6467 49.1973 97.8753C48.4562 89.7227 47.6023 81.2286 43.1631 74.286C39.1436 67.9996 32.1817 63.5014 24.6366 62.6967C17.0915 61.892 9.14742 64.9313 4.4418 70.7461C-0.263821 76.5609 -1.41597 85.0143 1.87972 91.6902C4.30754 96.6081 8.78045 100.268 13.4669 103.246C28.4184 112.745 46.9658 116.707 64.6139 114.171" fill="#F2F2F2"/>
<path d="M11.9031 65.0996C18.1287 70.0509 23.8401 75.5885 28.9546 81.6323C34.0699 87.67 38.5734 94.1779 42.4018 101.065C44.5417 104.928 46.464 108.902 48.1602 112.97C48.506 113.797 47.1299 114.157 46.7879 113.339C43.7836 106.168 40.0667 99.301 35.6905 92.8376C31.3355 86.3976 26.3511 80.3853 20.8071 74.8851C17.6714 71.7756 14.3629 68.8369 10.8968 66.0822C10.1863 65.5173 11.1985 64.5394 11.9031 65.0996L11.9031 65.0996Z" fill="white"/>
<path d="M141.41 114.748H58.7603V31.9482C58.7603 14.3319 73.4385 0 91.4804 0H108.69C126.732 0 141.41 14.3319 141.41 31.9482V114.748Z" fill="#FEE0BC"/>
<path d="M124.201 114.748H58.7603V31.9481C58.7422 25.1979 60.9314 18.6183 65.009 13.1673C65.1593 12.9673 65.3092 12.7698 65.4639 12.5745C67.4362 10.0488 69.7833 7.82435 72.4277 5.97473C72.5771 5.8686 72.7271 5.76432 72.8793 5.66003C75.0921 4.16486 77.4857 2.94259 80.0057 2.02103C80.1554 1.96565 80.3077 1.91016 80.4601 1.85693C82.7392 1.06278 85.1018 0.518784 87.5042 0.234998C87.6531 0.215133 87.806 0.199588 87.9589 0.184043C90.3001 -0.060371 92.6612 -0.060371 95.0024 0.184043C95.1548 0.199588 95.3077 0.215131 95.4584 0.235211C97.8602 0.519015 100.222 1.06294 102.501 1.85694C102.653 1.91017 102.805 1.96566 102.956 2.02115C105.445 2.93108 107.81 4.13511 109.999 5.60638C110.151 5.7084 110.304 5.81269 110.454 5.91697C111.936 6.95009 113.328 8.10105 114.616 9.35809C115.649 10.3664 116.612 11.4412 117.498 12.5752C117.652 12.7698 117.802 12.9673 117.952 13.167C122.029 18.6181 124.219 25.1978 124.201 31.9481V114.748Z" fill="#CCCCCC"/>
<path d="M118.879 77.7149C120.88 77.7149 122.502 76.1311 122.502 74.1774C122.502 72.2237 120.88 70.6399 118.879 70.6399C116.878 70.6399 115.256 72.2237 115.256 74.1774C115.256 76.1311 116.878 77.7149 118.879 77.7149Z" fill="#FDAA46"/>
<path d="M134.639 112.268H131.863L130.542 101.813L134.64 101.813L134.639 112.268Z" fill="#FFB8B8"/>
<path d="M129.88 111.494H135.234V114.785H126.509C126.509 114.353 126.596 113.925 126.766 113.526C126.935 113.126 127.183 112.763 127.496 112.458C127.809 112.152 128.181 111.91 128.59 111.744C128.999 111.579 129.437 111.494 129.88 111.494Z" fill="#373842"/>
<path d="M148.452 112.268H145.676L144.355 101.813L148.452 101.813L148.452 112.268Z" fill="#FFB8B8"/>
<path d="M143.693 111.494H149.046V114.785H140.322C140.322 114.353 140.409 113.925 140.578 113.526C140.748 113.126 140.996 112.763 141.309 112.458C141.622 112.152 141.994 111.91 142.403 111.744C142.812 111.579 143.25 111.494 143.693 111.494Z" fill="#373842"/>
<path d="M120.713 74.878C120.513 74.5907 120.38 74.2641 120.324 73.9213C120.267 73.5785 120.289 73.2278 120.386 72.8938C120.483 72.5598 120.655 72.2508 120.888 71.9884C121.12 71.726 121.41 71.5167 121.734 71.3752L131.171 45.9788L135.815 48.4531L125.04 72.7229C125.247 73.2713 125.241 73.875 125.023 74.4194C124.805 74.9639 124.39 75.4113 123.857 75.677C123.323 75.9426 122.709 76.008 122.129 75.8608C121.55 75.7135 121.046 75.3638 120.713 74.878Z" fill="#FFB8B8"/>
<path d="M147.034 79.6502C146.725 79.4775 146.459 79.2408 146.254 78.9569C146.05 78.673 145.911 78.3487 145.849 78.0068C145.786 77.665 145.801 77.314 145.893 76.9784C145.985 76.6429 146.15 76.331 146.379 76.0648L143.455 49.1997L148.74 49.4354L149.955 75.8608C150.387 76.265 150.653 76.81 150.702 77.3927C150.75 77.9754 150.578 78.5552 150.218 79.0223C149.858 79.4894 149.335 79.8113 148.748 79.927C148.161 80.0428 147.551 79.9443 147.034 79.6502Z" fill="#FFB8B8"/>
<path d="M138.603 41.2747C141.675 41.2747 144.165 38.8435 144.165 35.8444C144.165 32.8453 141.675 30.4141 138.603 30.4141C135.532 30.4141 133.042 32.8453 133.042 35.8444C133.042 38.8435 135.532 41.2747 138.603 41.2747Z" fill="#FFB8B8"/>
<path d="M146.998 73.5403H130.231L130.251 73.4129C130.282 73.2225 133.24 54.3017 131.058 48.1117C130.839 47.5034 130.858 46.8375 131.112 46.2422C131.366 45.647 131.836 45.1644 132.432 44.8873H132.432C135.551 43.4535 141.537 41.6878 146.589 45.9727C147.333 46.6137 147.913 47.4147 148.285 48.3124C148.657 49.2102 148.809 50.1801 148.731 51.1455L146.998 73.5403Z" fill="#FDAA46"/>
<path d="M133.452 57.0979L125.903 55.6026L129.441 47.4155C129.653 46.6225 130.178 45.9439 130.902 45.5286C131.625 45.1132 132.488 44.995 133.3 45.1998C134.113 45.4046 134.809 45.9158 135.236 46.6212C135.664 47.3266 135.787 48.1687 135.579 48.9626L133.452 57.0979Z" fill="#FDAA46"/>
<path d="M143.119 59.8743L142.666 49.7169C142.322 47.8074 143.441 46.0024 145.163 45.7074C146.885 45.4134 148.566 46.7377 148.912 48.6611L150.618 58.1523L143.119 59.8743Z" fill="#FDAA46"/>
<path d="M146.44 72.3242C149.138 82.3568 149.433 95.1123 148.705 109.026L145.082 108.584L138.515 82.0524L134.892 109.026L130.816 108.805C129.599 94.2061 128.413 81.6732 130.363 73.4297L146.44 72.3242Z" fill="#373842"/>
<path d="M142.268 40.041C141.23 41.1202 139.303 40.5409 139.168 39.0666C139.158 38.9522 139.158 38.837 139.17 38.7227C139.24 38.0697 139.627 37.4768 139.534 36.7873C139.513 36.6157 139.448 36.4522 139.344 36.3122C138.517 35.2312 136.576 36.7957 135.796 35.8171C135.318 35.2171 135.88 34.2723 135.513 33.6016C135.028 32.7164 133.593 33.1531 132.693 32.6683C131.691 32.129 131.751 30.6287 132.41 29.7161C133.214 28.6032 134.624 28.0094 136.016 27.9238C137.408 27.8382 138.791 28.2056 140.09 28.7002C141.567 29.262 143.031 30.0386 143.94 31.3063C145.045 32.8481 145.151 34.9208 144.599 36.7235C144.262 37.8202 143.115 39.1598 142.268 40.041Z" fill="#373842"/>
<path d="M190.203 114.891H23.0258C22.9544 114.89 22.886 114.862 22.8357 114.813C22.7853 114.764 22.757 114.697 22.757 114.627C22.757 114.558 22.7853 114.491 22.8357 114.441C22.886 114.392 22.9544 114.364 23.0258 114.364H190.203C190.274 114.364 190.342 114.392 190.393 114.441C190.443 114.491 190.472 114.558 190.472 114.627C190.472 114.697 190.443 114.764 190.393 114.813C190.342 114.862 190.274 114.89 190.203 114.891Z" fill="#3F3D56"/>
<path d="M106.199 90.7596H76.7621C76.3744 90.7617 76.0017 90.6135 75.7258 90.3476C75.4499 90.0817 75.2932 89.7198 75.2902 89.3412V25.1862C75.2932 24.8077 75.4499 24.4458 75.7258 24.1799C76.0017 23.914 76.3744 23.7658 76.7621 23.7678H106.199C106.587 23.7658 106.959 23.914 107.235 24.1799C107.511 24.4458 107.668 24.8077 107.671 25.1862V89.3412C107.668 89.7198 107.511 90.0817 107.235 90.3476C106.959 90.6135 106.587 90.7617 106.199 90.7596Z" fill="white"/>
<path d="M107.671 44.5264H75.2902V44.9686H107.671V44.5264Z" fill="#CCCCCC"/>
<path d="M107.784 69.7554H75.4034V70.1976H107.784V69.7554Z" fill="#CCCCCC"/>
<path d="M85.9327 23.7676H85.4799V90.9805H85.9327V23.7676Z" fill="#CCCCCC"/>
<path d="M97.2546 23.7676H96.8018V90.9805H97.2546V23.7676Z" fill="#CCCCCC"/>
</g>
<defs>
<clipPath id="clip0">
<rect width="197" height="115" fill="white"/>
</clipPath>
</defs>
</svg>
