<svg width="176" height="163" viewBox="0 0 176 163" fill="none" xmlns="http://www.w3.org/2000/svg">
<g clip-path="url(#clip0)">
<path d="M192 146.842H0V146.938H192V146.842Z" fill="#EBEBEB"/>
<path d="M172.762 153.02H162.689V153.116H172.762V153.02Z" fill="#EBEBEB"/>
<path d="M136.996 151.772H123.852V151.868H136.996V151.772Z" fill="#EBEBEB"/>
<path d="M159.656 149.457H149.503V149.553H159.656V149.457Z" fill="#EBEBEB"/>
<path d="M42.5817 150.102H25.9968V150.198H42.5817V150.102Z" fill="#EBEBEB"/>
<path d="M22.5754 150.102H20.1447V150.198H22.5754V150.102Z" fill="#EBEBEB"/>
<path d="M72.0653 151.722H50.4845V151.818H72.0653V151.722Z" fill="#EBEBEB"/>
<path d="M91.008 129.715H16.8614C16.2805 129.714 15.7238 129.483 15.3135 129.072C14.9031 128.661 14.6726 128.104 14.6726 127.523V23.2936C14.6777 22.716 14.9104 22.1638 15.3202 21.7569C15.73 21.3499 16.2839 21.1211 16.8614 21.1201H91.008C91.5895 21.1201 92.1472 21.3511 92.5584 21.7623C92.9696 22.1735 93.2006 22.7312 93.2006 23.3128V127.523C93.2006 128.104 92.9696 128.662 92.5584 129.073C92.1472 129.484 91.5895 129.715 91.008 129.715ZM16.8614 21.1969C16.306 21.1979 15.7737 21.4193 15.3813 21.8124C14.989 22.2055 14.7686 22.7382 14.7686 23.2936V127.523C14.7686 128.078 14.989 128.611 15.3813 129.004C15.7737 129.397 16.306 129.618 16.8614 129.619H91.008C91.5637 129.618 92.0964 129.397 92.4894 129.004C92.8824 128.611 93.1036 128.078 93.1046 127.523V23.2936C93.1036 22.7378 92.8824 22.2051 92.4894 21.8121C92.0964 21.4192 91.5637 21.1979 91.008 21.1969H16.8614Z" fill="#EBEBEB"/>
<path d="M174.071 129.715H99.9207C99.3395 129.714 98.7823 129.483 98.3714 129.072C97.9604 128.661 97.729 128.104 97.728 127.523V23.2936C97.7341 22.7157 97.9677 22.1635 98.3781 21.7566C98.7885 21.3498 99.3428 21.1211 99.9207 21.1201H174.071C174.648 21.1221 175.201 21.3514 175.61 21.7582C176.019 22.1651 176.251 22.7167 176.256 23.2936V127.523C176.256 128.103 176.026 128.659 175.617 129.07C175.207 129.481 174.651 129.713 174.071 129.715ZM99.9207 21.1969C99.3649 21.1979 98.8322 21.4192 98.4392 21.8121C98.0463 22.2051 97.825 22.7378 97.824 23.2936V127.523C97.825 128.078 98.0463 128.611 98.4392 129.004C98.8322 129.397 99.3649 129.618 99.9207 129.619H174.071C174.627 129.618 175.16 129.397 175.552 129.004C175.945 128.611 176.167 128.078 176.168 127.523V23.2936C176.167 22.7378 175.945 22.2051 175.552 21.8121C175.16 21.4192 174.627 21.1979 174.071 21.1969H99.9207Z" fill="#EBEBEB"/>
<path d="M156.995 40.1396H113.756V106.898H156.995V40.1396Z" fill="#EBEBEB"/>
<path d="M83.232 106.902H113.756L113.756 40.1435H83.232V106.902Z" fill="#F5F5F5"/>
<path d="M83.2358 40.1396H82.6906V106.898H83.2358V40.1396Z" fill="#E6E6E6"/>
<path d="M156.181 106.088V40.9575H114.57V106.088H156.181Z" fill="#F5F5F5"/>
<path d="M156.184 79.73H134.197V40.9575H134.581V79.346H156.184V79.73Z" fill="#E0E0E0"/>
<path d="M156.995 106.902H163.968V40.1435H156.995V106.902Z" fill="#E0E0E0"/>
<path d="M114.57 106.084H121.544L121.544 40.9538H114.57L114.57 106.084Z" fill="#E0E0E0"/>
<path d="M141.784 49.0752H124.055V74.8531H141.784V49.0752Z" fill="#E6E6E6"/>
<path d="M138.927 51.1987H126.904C126.478 51.1987 126.133 51.5443 126.133 51.9706V68.3405C126.133 68.7668 126.478 69.1123 126.904 69.1123H138.927C139.354 69.1123 139.699 68.7668 139.699 68.3405V51.9706C139.699 51.5443 139.354 51.1987 138.927 51.1987Z" fill="#F0F0F0"/>
<path d="M141.784 74.8572H145.041V49.0793H141.784V74.8572Z" fill="#E0E0E0"/>
<path d="M132.918 58.0495C132.768 58.0495 132.624 57.99 132.519 57.8842C132.413 57.7783 132.353 57.6347 132.353 57.485V54.3823C132.353 54.2322 132.413 54.0882 132.518 53.9818C132.624 53.8753 132.768 53.815 132.918 53.814C133.068 53.815 133.211 53.8753 133.317 53.9818C133.423 54.0882 133.482 54.2322 133.482 54.3823V57.485C133.482 57.5591 133.468 57.6325 133.439 57.701C133.411 57.7695 133.369 57.8317 133.317 57.8842C133.264 57.9366 133.202 57.9781 133.134 58.0065C133.065 58.0349 132.992 58.0495 132.918 58.0495Z" fill="#FAFAFA"/>
<path d="M130.883 58.0495C130.733 58.0495 130.589 57.99 130.483 57.8842C130.378 57.7783 130.318 57.6347 130.318 57.485V54.3823C130.318 54.2322 130.377 54.0882 130.483 53.9818C130.589 53.8753 130.732 53.815 130.883 53.814C131.033 53.815 131.176 53.8753 131.282 53.9818C131.388 54.0882 131.447 54.2322 131.447 54.3823V57.485C131.447 57.6347 131.388 57.7783 131.282 57.8842C131.176 57.99 131.032 58.0495 130.883 58.0495Z" fill="#FAFAFA"/>
<path d="M128.847 58.0495C128.698 58.0495 128.554 57.99 128.448 57.8842C128.342 57.7783 128.283 57.6347 128.283 57.485V54.3823C128.283 54.2322 128.342 54.0882 128.448 53.9818C128.554 53.8753 128.697 53.815 128.847 53.814C128.997 53.815 129.141 53.8753 129.247 53.9818C129.352 54.0882 129.412 54.2322 129.412 54.3823V57.485C129.412 57.6347 129.352 57.7783 129.246 57.8842C129.141 57.99 128.997 58.0495 128.847 58.0495Z" fill="#FAFAFA"/>
<path d="M134.953 58.0495C134.805 58.0465 134.665 57.9857 134.561 57.8801C134.458 57.7746 134.4 57.6327 134.4 57.485V54.3823C134.4 54.2322 134.459 54.0882 134.565 53.9818C134.671 53.8753 134.814 53.815 134.965 53.814C135.115 53.815 135.258 53.8753 135.364 53.9818C135.47 54.0882 135.529 54.2322 135.529 54.3823V57.485C135.529 57.5601 135.514 57.6345 135.485 57.7037C135.456 57.773 135.413 57.8357 135.36 57.8883C135.306 57.9408 135.242 57.9822 135.173 58.0099C135.103 58.0375 135.028 58.051 134.953 58.0495Z" fill="#FAFAFA"/>
<path d="M136.988 58.0495C136.838 58.0495 136.695 57.99 136.589 57.8842C136.483 57.7783 136.424 57.6347 136.424 57.485V54.3823C136.424 54.2322 136.483 54.0882 136.589 53.9818C136.694 53.8753 136.838 53.815 136.988 53.814C137.138 53.815 137.282 53.8753 137.388 53.9818C137.493 54.0882 137.553 54.2322 137.553 54.3823V57.485C137.553 57.5591 137.538 57.6325 137.51 57.701C137.481 57.7695 137.44 57.8317 137.387 57.8842C137.335 57.9366 137.273 57.9781 137.204 58.0065C137.136 58.0349 137.062 58.0495 136.988 58.0495Z" fill="#FAFAFA"/>
<path d="M128.847 62.4692C128.847 62.5451 128.825 62.6194 128.783 62.6825C128.74 62.7457 128.68 62.7949 128.61 62.824C128.54 62.853 128.463 62.8606 128.388 62.8458C128.314 62.831 128.246 62.7944 128.192 62.7407C128.138 62.687 128.102 62.6186 128.087 62.5441C128.072 62.4696 128.08 62.3924 128.109 62.3223C128.138 62.2521 128.187 62.1921 128.25 62.1499C128.313 62.1077 128.387 62.0852 128.463 62.0852C128.565 62.0852 128.663 62.1257 128.735 62.1977C128.807 62.2697 128.847 62.3674 128.847 62.4692Z" fill="#FAFAFA"/>
<path d="M128.847 66.1325C128.847 66.2085 128.825 66.2827 128.783 66.3459C128.74 66.409 128.68 66.4582 128.61 66.4873C128.54 66.5163 128.463 66.524 128.388 66.5091C128.314 66.4943 128.246 66.4578 128.192 66.404C128.138 66.3503 128.102 66.2819 128.087 66.2074C128.072 66.1329 128.08 66.0557 128.109 65.9856C128.138 65.9154 128.187 65.8554 128.25 65.8133C128.313 65.7711 128.387 65.7485 128.463 65.7485C128.565 65.7485 128.663 65.789 128.735 65.861C128.807 65.933 128.847 66.0307 128.847 66.1325Z" fill="#E6E6E6"/>
<path d="M130.476 66.1325C130.476 66.2085 130.453 66.2827 130.411 66.3459C130.369 66.409 130.309 66.4582 130.238 66.4873C130.168 66.5163 130.091 66.524 130.017 66.5091C129.942 66.4943 129.874 66.4578 129.82 66.404C129.766 66.3503 129.73 66.2819 129.715 66.2074C129.7 66.1329 129.708 66.0557 129.737 65.9856C129.766 65.9154 129.815 65.8554 129.878 65.8133C129.941 65.7711 130.016 65.7485 130.092 65.7485C130.193 65.7485 130.291 65.789 130.363 65.861C130.435 65.933 130.476 66.0307 130.476 66.1325Z" fill="#E6E6E6"/>
<path d="M132.096 66.1325C132.096 66.2085 132.074 66.2827 132.031 66.3459C131.989 66.409 131.929 66.4582 131.859 66.4873C131.789 66.5163 131.712 66.524 131.637 66.5091C131.563 66.4943 131.494 66.4578 131.44 66.404C131.387 66.3503 131.35 66.2819 131.335 66.2074C131.321 66.1329 131.328 66.0557 131.357 65.9856C131.386 65.9154 131.436 65.8554 131.499 65.8133C131.562 65.7711 131.636 65.7485 131.712 65.7485C131.814 65.7485 131.912 65.789 131.984 65.861C132.056 65.933 132.096 66.0307 132.096 66.1325Z" fill="#E6E6E6"/>
<path d="M129.427 83.5469H126.24V103.281H129.427V83.5469Z" fill="#E6E6E6"/>
<path d="M129.427 87.2947H126.24V88.9305H129.427V87.2947Z" fill="#E0E0E0"/>
<path d="M129.427 93.8843H126.24V94.5793H129.427V93.8843Z" fill="#E0E0E0"/>
<path d="M129.431 103.281H130.652V83.547H129.431V103.281Z" fill="#E0E0E0"/>
<path d="M128.529 85.5054C128.529 85.6432 128.489 85.7781 128.413 85.893C128.337 86.0079 128.229 86.0976 128.101 86.1507C127.974 86.2037 127.834 86.2178 127.699 86.1911C127.564 86.1644 127.44 86.0982 127.342 86.0007C127.245 85.9033 127.178 85.7791 127.152 85.6439C127.125 85.5087 127.139 85.3687 127.192 85.2415C127.245 85.1143 127.335 85.0058 127.45 84.9298C127.565 84.8537 127.7 84.8135 127.837 84.8142C128.02 84.8152 128.196 84.8884 128.325 85.0178C128.454 85.1472 128.528 85.3224 128.529 85.5054Z" fill="#F5F5F5"/>
<path d="M133.498 83.5469H130.31V103.281H133.498V83.5469Z" fill="#E6E6E6"/>
<path d="M133.498 87.2947H130.31V88.9305H133.498V87.2947Z" fill="#E0E0E0"/>
<path d="M133.498 93.8843H130.31V94.5793H133.498V93.8843Z" fill="#E0E0E0"/>
<path d="M133.501 103.281H134.723V83.547H133.501V103.281Z" fill="#E0E0E0"/>
<path d="M132.599 85.5054C132.6 85.6432 132.56 85.7781 132.484 85.893C132.407 86.0079 132.299 86.0976 132.172 86.1507C132.045 86.2037 131.905 86.2178 131.769 86.1911C131.634 86.1644 131.51 86.0982 131.413 86.0007C131.315 85.9033 131.249 85.7791 131.222 85.6439C131.195 85.5087 131.21 85.3687 131.263 85.2415C131.316 85.1143 131.405 85.0058 131.52 84.9298C131.635 84.8537 131.77 84.8135 131.908 84.8142C132.091 84.8152 132.266 84.8884 132.395 85.0178C132.525 85.1472 132.598 85.3224 132.599 85.5054Z" fill="#F5F5F5"/>
<path d="M137.572 83.5469H134.385V103.281H137.572V83.5469Z" fill="#E6E6E6"/>
<path d="M137.572 87.2947H134.385V88.9305H137.572V87.2947Z" fill="#E0E0E0"/>
<path d="M137.572 93.8843H134.385V94.5793H137.572V93.8843Z" fill="#E0E0E0"/>
<path d="M137.572 103.281H138.793V83.547H137.572V103.281Z" fill="#E0E0E0"/>
<path d="M136.669 85.5054C136.67 85.6432 136.63 85.7781 136.554 85.893C136.478 86.0079 136.369 86.0976 136.242 86.1507C136.115 86.2037 135.975 86.2178 135.84 86.1911C135.705 86.1644 135.58 86.0982 135.483 86.0007C135.385 85.9033 135.319 85.7791 135.293 85.6439C135.266 85.5087 135.28 85.3687 135.333 85.2415C135.386 85.1143 135.476 85.0058 135.591 84.9298C135.706 84.8537 135.84 84.8135 135.978 84.8142C136.161 84.8152 136.336 84.8884 136.466 85.0178C136.595 85.1472 136.668 85.3224 136.669 85.5054Z" fill="#F5F5F5"/>
<path d="M141.642 83.5469H138.455V103.281H141.642V83.5469Z" fill="#E6E6E6"/>
<path d="M141.642 87.2947H138.455V88.9305H141.642V87.2947Z" fill="#E0E0E0"/>
<path d="M141.642 93.8843H138.455V94.5793H141.642V93.8843Z" fill="#E0E0E0"/>
<path d="M141.642 103.281H142.863V83.547H141.642V103.281Z" fill="#E0E0E0"/>
<path d="M140.74 85.5054C140.741 85.6432 140.7 85.7781 140.624 85.893C140.548 86.0079 140.44 86.0976 140.313 86.1507C140.185 86.2037 140.045 86.2178 139.91 86.1911C139.775 86.1644 139.651 86.0982 139.553 86.0007C139.456 85.9033 139.39 85.7791 139.363 85.6439C139.336 85.5087 139.35 85.3687 139.403 85.2415C139.456 85.1143 139.546 85.0058 139.661 84.9298C139.776 84.8537 139.911 84.8135 140.049 84.8142C140.232 84.8152 140.407 84.8884 140.536 85.0178C140.666 85.1472 140.739 85.3224 140.74 85.5054Z" fill="#F5F5F5"/>
<path d="M145.713 83.5469H142.525V103.281H145.713V83.5469Z" fill="#E6E6E6"/>
<path d="M145.713 87.2947H142.525V88.9305H145.713V87.2947Z" fill="#E0E0E0"/>
<path d="M145.713 93.8843H142.525V94.5793H145.713V93.8843Z" fill="#E0E0E0"/>
<path d="M145.713 103.281H146.934V83.547H145.713V103.281Z" fill="#E0E0E0"/>
<path d="M144.81 85.5054C144.811 85.6432 144.771 85.7781 144.695 85.893C144.619 86.0079 144.51 86.0976 144.383 86.1507C144.256 86.2037 144.116 86.2178 143.981 86.1911C143.845 86.1644 143.721 86.0982 143.624 86.0007C143.526 85.9033 143.46 85.7791 143.433 85.6439C143.407 85.5087 143.421 85.3687 143.474 85.2415C143.527 85.1143 143.617 85.0058 143.731 84.9298C143.846 84.8537 143.981 84.8135 144.119 84.8142C144.302 84.8152 144.477 84.8884 144.607 85.0178C144.736 85.1472 144.809 85.3224 144.81 85.5054Z" fill="#F5F5F5"/>
<path d="M149.783 83.5469H146.596V103.281H149.783V83.5469Z" fill="#E6E6E6"/>
<path d="M149.783 87.2947H146.596V88.9305H149.783V87.2947Z" fill="#E0E0E0"/>
<path d="M149.783 93.8843H146.596V94.5793H149.783V93.8843Z" fill="#E0E0E0"/>
<path d="M149.783 103.281H151.004V83.547H149.783V103.281Z" fill="#E0E0E0"/>
<path d="M148.881 85.5054C148.881 85.6432 148.841 85.7781 148.765 85.893C148.689 86.0079 148.58 86.0976 148.453 86.1507C148.326 86.2037 148.186 86.2178 148.051 86.1911C147.916 86.1644 147.792 86.0982 147.694 86.0007C147.597 85.9033 147.53 85.7791 147.504 85.6439C147.477 85.5087 147.491 85.3687 147.544 85.2415C147.597 85.1143 147.687 85.0058 147.802 84.9298C147.917 84.8537 148.052 84.8135 148.189 84.8142C148.372 84.8152 148.548 84.8884 148.677 85.0178C148.806 85.1472 148.88 85.3224 148.881 85.5054Z" fill="#F5F5F5"/>
<path d="M128.029 83.5471H127.645V79.3462H134.388V79.7302H128.029V83.5471Z" fill="#E0E0E0"/>
<path d="M132.1 79.5381H131.716V83.5509H132.1V79.5381Z" fill="#E0E0E0"/>
<path d="M136.17 79.5381H135.786V83.5509H136.17V79.5381Z" fill="#E0E0E0"/>
<path d="M140.241 79.5381H139.857V83.5509H140.241V79.5381Z" fill="#E0E0E0"/>
<path d="M144.311 79.5381H143.927V83.5509H144.311V79.5381Z" fill="#E0E0E0"/>
<path d="M148.381 79.5381H147.997V83.5509H148.381V79.5381Z" fill="#E0E0E0"/>
<path d="M153.565 58.6868H147.494V70.4448H153.565V58.6868Z" fill="#EBEBEB"/>
<path d="M152.974 58.6868H147.494V70.4448H152.974V58.6868Z" fill="white"/>
<path d="M150.774 40.9575H150.29V58.6868H150.774V40.9575Z" fill="#E0E0E0"/>
<path d="M61.0061 65.5642H45.312L45.6307 66.889H56.9241L59.904 79.2653H48.599L48.9177 80.5901H60.2112L63.191 92.9664H51.8976L52.1664 94.0685L45.312 65.5642H40.8922L60.4761 146.938H64.896L55.3536 107.305L55.5149 107.989H66.816L69.7958 120.365H58.4947L58.8134 121.69H70.1069L73.0867 134.066H61.7933L62.112 135.387H73.4054L76.1894 146.938H80.5977L61.0061 65.5642ZM55.1961 106.652L52.224 94.2874H63.5174L66.4973 106.664L55.1961 106.652Z" fill="#E0E0E0"/>
<path d="M33.0662 146.938H34.2489L53.8406 65.5642H52.6617L33.0662 146.938Z" fill="#F5F5F5"/>
<path d="M37.4784 146.938H34.249L53.8406 65.5642H57.0701L37.4784 146.938Z" fill="#E6E6E6"/>
<path d="M17.3645 146.938H18.5472L38.1389 65.5642H36.9562L17.3645 146.938Z" fill="#F5F5F5"/>
<path d="M21.7728 146.938H18.5472L38.1389 65.5642H41.3683L21.7728 146.938Z" fill="#E6E6E6"/>
<path d="M37.8202 66.889H52.3431L52.6618 65.5642H38.1389L37.8202 66.889Z" fill="#F5F5F5"/>
<path d="M34.5216 80.5902H49.0445L49.3632 79.2654H34.8403L34.5216 80.5902Z" fill="#F5F5F5"/>
<path d="M31.223 94.2874H45.7459L46.0646 92.9626H31.5417L31.223 94.2874Z" fill="#F5F5F5"/>
<path d="M27.9245 107.989H42.4474L42.7661 106.664H28.2432L27.9245 107.989Z" fill="#F5F5F5"/>
<path d="M24.6259 121.69H39.1488L39.4675 120.365H24.9446L24.6259 121.69Z" fill="#F5F5F5"/>
<path d="M21.3274 135.387H35.8503L36.169 134.066H21.6461L21.3274 135.387Z" fill="#F5F5F5"/>
<path d="M146.619 123.452V120.054C146.619 119.61 146.442 119.184 146.129 118.87C145.815 118.556 145.389 118.38 144.945 118.38C144.501 118.381 144.076 118.557 143.763 118.871C143.45 119.185 143.274 119.611 143.274 120.054V123.452C143.274 124.79 142.752 126.076 141.819 127.035L137.66 131.305C137.234 131.743 136.922 132.279 136.751 132.865C136.579 133.451 136.554 134.071 136.677 134.669L139.181 146.842H150.701L153.216 134.669C153.339 134.071 153.314 133.451 153.142 132.865C152.971 132.279 152.659 131.743 152.233 131.305L148.074 127.035C147.141 126.076 146.619 124.79 146.619 123.452Z" fill="#EBEBEB"/>
<path d="M144.948 118.38H143.935V119.666H144.948V118.38Z" fill="#EBEBEB"/>
<path d="M145.605 123.452V120.054C145.605 119.611 145.429 119.185 145.116 118.871C144.803 118.557 144.378 118.381 143.935 118.38C143.491 118.38 143.065 118.556 142.751 118.87C142.437 119.184 142.26 119.61 142.26 120.054V123.452C142.26 124.79 141.738 126.076 140.805 127.035L136.65 131.305C136.223 131.742 135.909 132.277 135.737 132.864C135.565 133.45 135.54 134.07 135.663 134.669L138.171 146.842H149.691L152.195 134.669C152.318 134.071 152.292 133.451 152.121 132.865C151.95 132.279 151.637 131.743 151.211 131.305L147.072 127.035C146.134 126.078 145.607 124.792 145.605 123.452Z" fill="#E0E0E0"/>
<path d="M143.935 119.67H120.895V121.048H143.935C144.109 121.035 144.271 120.957 144.39 120.829C144.509 120.702 144.574 120.534 144.574 120.359C144.574 120.185 144.509 120.017 144.39 119.889C144.271 119.761 144.109 119.683 143.935 119.67Z" fill="#EBEBEB"/>
<path d="M123.575 123.452V120.054C123.575 119.611 123.399 119.185 123.086 118.871C122.773 118.557 122.348 118.381 121.905 118.38C121.461 118.38 121.035 118.556 120.721 118.87C120.407 119.184 120.23 119.61 120.23 120.054V123.452C120.23 124.79 119.708 126.076 118.775 127.035L114.616 131.305C114.191 131.743 113.878 132.279 113.707 132.865C113.536 133.451 113.51 134.071 113.633 134.669L116.137 146.842H127.657L130.176 134.669C130.299 134.071 130.274 133.451 130.102 132.865C129.931 132.279 129.619 131.743 129.193 131.305L125.03 127.035C124.098 126.076 123.576 124.79 123.575 123.452Z" fill="#EBEBEB"/>
<path d="M121.905 118.38H120.891V119.666H121.905V118.38Z" fill="#EBEBEB"/>
<path d="M122.561 123.452V120.054C122.561 119.611 122.385 119.185 122.072 118.871C121.759 118.557 121.334 118.381 120.891 118.38C120.671 118.38 120.454 118.423 120.251 118.507C120.048 118.591 119.863 118.715 119.708 118.87C119.553 119.026 119.43 119.21 119.346 119.413C119.263 119.617 119.22 119.834 119.22 120.054V123.452C119.219 124.791 118.695 126.076 117.761 127.035L113.606 131.305C113.18 131.742 112.867 132.278 112.696 132.864C112.524 133.451 112.499 134.071 112.623 134.669L115.127 146.842H126.647L129.151 134.669C129.275 134.071 129.25 133.451 129.078 132.864C128.907 132.278 128.594 131.742 128.168 131.305L124.032 127.035C123.094 126.078 122.566 124.792 122.561 123.452Z" fill="#F5F5F5"/>
<path d="M121.582 120.357C121.583 120.494 121.543 120.628 121.467 120.742C121.392 120.856 121.284 120.946 121.158 120.999C121.032 121.051 120.893 121.066 120.758 121.039C120.624 121.013 120.501 120.948 120.404 120.851C120.306 120.755 120.24 120.632 120.213 120.497C120.186 120.363 120.2 120.224 120.252 120.097C120.304 119.971 120.393 119.863 120.506 119.787C120.62 119.711 120.754 119.67 120.891 119.67C121.073 119.671 121.248 119.744 121.377 119.872C121.506 120.001 121.58 120.175 121.582 120.357Z" fill="#EBEBEB"/>
<path d="M152.425 134.669H129.996L127.446 146.842H149.875L152.425 134.669Z" fill="#EBEBEB"/>
<path d="M36.864 27.4639H19.4573V31.3077H36.864V27.4639Z" fill="#FAFAFA"/>
<path d="M45.1584 31.3076H27.7516V35.1515H45.1584V31.3076Z" fill="#F5F5F5"/>
<path d="M147.418 30.1135H130.011V33.9574H147.418V30.1135Z" fill="#FAFAFA"/>
<path d="M155.716 26.2695H138.309V30.1134H155.716V26.2695Z" fill="#F5F5F5"/>
<path d="M36.4531 53.1726H19.0464V57.0164H36.4531V53.1726Z" fill="#F5F5F5"/>
<path d="M169.962 111.836H152.556V115.68H169.962V111.836Z" fill="#F5F5F5"/>
<path d="M96 164.183C137.12 164.183 170.454 162.237 170.454 159.836C170.454 157.435 137.12 155.489 96 155.489C54.8803 155.489 21.5463 157.435 21.5463 159.836C21.5463 162.237 54.8803 164.183 96 164.183Z" fill="#F5F5F5"/>
<path d="M94.1606 62.3155C93.6729 62.7878 93.2352 63.1872 92.7628 63.6019C92.2905 64.0166 91.8182 64.4121 91.3382 64.8076C90.3705 65.5756 89.3836 66.3436 88.3315 67.0732C87.2616 67.8255 86.1458 68.5104 84.9907 69.1238C84.3684 69.4598 83.7274 69.7599 83.0707 70.0224C82.2821 70.3385 81.4602 70.5639 80.6208 70.6944L80.4249 70.7251C80.2908 70.7384 80.1558 70.7384 80.0217 70.7251C79.1652 70.6663 78.3269 70.4502 77.5488 70.0876C76.962 69.8199 76.3971 69.5066 75.8592 69.1507C74.9168 68.5233 74.0257 67.8222 73.1942 67.054C72.3955 66.3168 71.6582 65.5564 70.9478 64.75C70.2371 63.9578 69.5705 63.1271 68.951 62.2617C68.7221 61.9325 68.6137 61.5344 68.6441 61.1345C68.6745 60.7347 68.8418 60.3575 69.1178 60.0667C69.3938 59.7758 69.7616 59.5889 70.1593 59.5376C70.557 59.4863 70.9603 59.5736 71.3011 59.7849L71.3472 59.8156L73.8278 61.3785C74.6534 61.8931 75.4752 62.4 76.2931 62.8608C77.0615 63.3104 77.8551 63.7156 78.67 64.0742C79.0021 64.227 79.348 64.3479 79.703 64.4352C79.991 64.5043 80.2368 64.512 80.1561 64.4697L79.5609 64.5158C79.879 64.3984 80.1882 64.2586 80.4864 64.0972C80.8704 63.8899 81.2966 63.648 81.719 63.3753C82.1414 63.1027 82.5753 62.8032 83.0054 62.4844C83.4355 62.1657 83.8771 61.8508 84.311 61.5129C85.1788 60.8332 86.0544 60.1305 86.9145 59.4048L88.2048 58.3104L89.4604 57.2275L89.5219 57.1776C90.2034 56.588 91.0882 56.2879 91.9878 56.3413C92.8874 56.3947 93.7305 56.7973 94.3375 57.4634C94.9444 58.1295 95.2673 59.0063 95.2371 59.9069C95.2069 60.8076 94.8261 61.6608 94.176 62.2848L94.1606 62.3155Z" fill="#CF7A64"/>
<path d="M70.656 62.473L66.816 62.857L67.6569 58.2913C67.6569 58.2913 71.1859 58.3565 71.4547 60.2381L70.656 62.473Z" fill="#373842"/>
<path d="M63.6749 60.3573L64.2393 58.8213C64.3478 58.522 64.5592 58.2712 64.8357 58.1136C65.1122 57.956 65.4357 57.9019 65.7485 57.9611L67.6685 58.3182L66.816 62.8686L64.512 62.1006C64.3407 62.0438 64.1825 61.9531 64.047 61.8339C63.9115 61.7147 63.8014 61.5694 63.7233 61.4067C63.6452 61.244 63.6006 61.0672 63.5923 60.8869C63.584 60.7066 63.6121 60.5265 63.6749 60.3573Z" fill="#373842"/>
<path d="M68.0026 61.8931C69.0125 62.6842 70.6906 65.0919 71.0323 65.8099C73.5782 64.8807 74.8493 62.4768 74.5075 61.6051C72.768 60.265 71.2704 59.3664 70.1683 59.1514C68.3712 59.52 68.0026 61.8931 68.0026 61.8931Z" fill="#373842"/>
<path d="M96.8985 58.4755C96.3341 60.3648 95.0976 63.0105 93.2121 64.1011C91.3267 65.1917 88.0665 69.2889 85.5705 70.3718C81.5808 68.3289 81.3696 64.7117 81.8419 62.8454C84.2573 59.6429 88.6694 54.9504 90.9657 54.3283C92.9625 53.7869 94.6867 56.9165 96.8985 58.4755Z" fill="#373842"/>
<path d="M96.4531 43.5418C97.7625 44.0832 98.5421 43.8759 98.5421 43.8759C98.5421 43.8759 97.7741 42.889 97.7741 42.3975C97.8813 42.5593 98.023 42.6956 98.1889 42.7964C98.3548 42.8973 98.541 42.9604 98.7341 42.9811C98.135 40.873 99.4406 40.0359 99.0144 39.2141C98.208 37.6551 95.2397 37.6397 95.5046 39.3216C94.2758 39.9706 94.0493 41.5219 94.0493 41.5219C94.2544 41.2024 94.5354 40.9386 94.8672 40.7539C94.3565 41.9597 94.6099 43.6685 95.4931 44.9511C95.6614 44.9517 95.8273 44.911 95.9762 44.8326C96.1251 44.7542 96.2525 44.6404 96.3473 44.5013C96.4421 44.3622 96.5012 44.202 96.5197 44.0347C96.5381 43.8674 96.5153 43.6982 96.4531 43.5418Z" fill="#373842"/>
<path d="M111.843 95.9152L112.999 95.6176C113.821 95.4062 114.315 94.5689 114.104 93.7473L112.286 86.6815C112.074 85.8599 111.237 85.3653 110.416 85.5767L109.259 85.8743C108.437 86.0857 107.943 86.9231 108.154 87.7446L109.972 94.8105C110.184 95.632 111.021 96.1266 111.843 95.9152Z" fill="#373842"/>
<path d="M109.033 85.4017C110.642 84.2805 111.579 84.2958 112.201 84.7489C112.823 85.2021 112.969 87.94 113.848 89.3915C112.658 89.9444 109.033 85.4017 109.033 85.4017Z" fill="#373842"/>
<path d="M106.986 53.6217C102.514 53.1266 98.0018 53.097 93.5232 53.5334C91.681 53.7299 89.9769 54.6021 88.7401 55.9815C87.5033 57.3608 86.8214 59.1495 86.8262 61.0022C86.8262 67.8911 88.6502 77.9366 89.7984 88.5119C100.289 92.0332 109.137 88.3353 109.137 88.3353C109.371 85.9199 109.24 78.7353 108.43 74.5113C109.025 70.149 110.534 65.1571 111.391 59.3663C111.486 58.6989 111.447 58.0191 111.276 57.3669C111.106 56.7147 110.806 56.1031 110.396 55.568C109.986 55.033 109.473 54.5852 108.887 54.251C108.302 53.9168 107.655 53.7028 106.986 53.6217Z" fill="#373842"/>
<path d="M102.931 45.2812C102.785 48.033 103.265 50.7821 104.333 53.3222C102.92 54.6355 100.627 56.2675 97.5705 56.2214C94.5139 56.1753 95.0208 54.6163 95.8387 53.5526C98.0275 52.4467 98.1696 50.8262 97.632 49.847L102.931 45.2812Z" fill="#CE7A63"/>
<path opacity="0.2" d="M102.931 45.2812L97.632 49.847C97.7956 50.1493 97.8857 50.4858 97.895 50.8294C97.9044 51.173 97.8327 51.5139 97.6857 51.8246C98.7748 51.8875 99.8475 51.5363 100.689 50.8416C102.052 49.7472 102.543 48.4224 102.927 46.5446C102.912 46.1452 102.912 45.7267 102.931 45.2812Z" fill="black"/>
<path d="M104.648 43.008C104.049 46.4333 103.88 48.4723 101.925 50.0314C99.0029 52.3738 94.9171 50.2771 94.4832 46.729C94.0992 43.5379 95.1398 38.4691 98.6765 37.513C99.4588 37.3 100.282 37.289 101.07 37.481C101.858 37.673 102.584 38.0617 103.18 38.6107C103.777 39.1597 104.224 39.8511 104.481 40.6201C104.738 41.3892 104.795 42.2108 104.648 43.008Z" fill="#CE7A63"/>
<path d="M104.548 44.1791C103.188 44.5631 102.436 44.2866 102.436 44.2866C102.436 44.2866 103.3 43.3881 103.373 42.9004C103.248 43.0493 103.093 43.1691 102.917 43.2513C102.741 43.3336 102.549 43.3763 102.355 43.3765C103.177 41.3452 101.971 40.3698 102.486 39.6018C103.453 38.1388 106.848 38.6994 106.399 40.3429C106.725 40.5709 106.973 40.8934 107.111 41.2669C107.248 41.6404 107.268 42.047 107.167 42.4319C107.008 42.1456 106.772 41.909 106.487 41.7484C106.871 43.0041 107.197 44.0524 105.358 45.6729C105.192 45.6557 105.032 45.5982 104.892 45.5054C104.753 45.4125 104.639 45.287 104.559 45.1398C104.479 44.9927 104.436 44.8282 104.434 44.6608C104.432 44.4934 104.471 44.3281 104.548 44.1791Z" fill="#373842"/>
<path d="M95.3817 46.5254C96.7351 46.3849 98.0975 46.3528 99.456 46.4294C99.072 47.1974 98.3769 47.785 96.8409 47.7312C95.3049 47.6774 95.3817 46.5254 95.3817 46.5254Z" fill="white"/>
<path d="M96.5645 45.6654C96.5414 46.8174 96.5184 47.1438 98.2925 47.2014C99.5405 47.2513 100.785 48.073 100.596 48.8103C101.142 48.2535 101.564 47.0286 100.55 46.2145C99.433 45.3313 98.1658 45.2353 96.5645 45.6654Z" fill="#373842"/>
<path d="M96.9254 45.6691C96.8832 46.8019 96.384 46.9325 95.6467 47.0823C94.9094 47.232 94.775 47.6007 94.848 48.1383C94.199 47.7543 93.7881 46.6675 94.2029 46.1568C94.5212 45.7603 94.9723 45.4925 95.4728 45.4028C95.9732 45.3132 96.4893 45.4078 96.9254 45.6691Z" fill="#373842"/>
<path d="M105.684 45.6539C105.339 46.3803 104.729 46.9474 103.98 47.2398C103.027 47.5816 102.574 46.6446 102.854 45.6193C103.112 44.6939 103.91 43.4037 104.859 43.5073C105.807 43.611 106.134 44.7285 105.684 45.6539Z" fill="#CE7A63"/>
<path d="M99.9207 42.8775C99.8784 43.1732 99.6864 43.3844 99.4944 43.3536C99.3024 43.3229 99.1834 43.0618 99.2295 42.7661C99.2755 42.4704 99.4637 42.2631 99.6557 42.2938C99.8477 42.3245 99.9667 42.5856 99.9207 42.8775Z" fill="#373842"/>
<path d="M96.3494 42.3629C96.3033 42.6547 96.1113 42.866 95.9193 42.8352C95.7273 42.8045 95.6083 42.5434 95.6544 42.2515C95.7005 41.9597 95.8886 41.7447 96.0806 41.7754C96.2726 41.8061 96.384 42.0672 96.3494 42.3629Z" fill="#373842"/>
<path d="M97.3478 42.9006C97.3478 42.9006 96.4224 44.4827 95.566 45.1816C96.0115 45.7461 96.9254 45.6693 96.9254 45.6693L97.3478 42.9006Z" fill="#BA4D3C"/>
<path d="M101.08 41.6449C101.109 41.6543 101.14 41.6543 101.169 41.6449C101.211 41.6293 101.246 41.5976 101.265 41.5567C101.285 41.5157 101.287 41.4688 101.272 41.426C101.185 41.1598 101.034 40.9187 100.834 40.7228C100.633 40.527 100.388 40.3823 100.12 40.3009C100.098 40.2952 100.075 40.2939 100.052 40.2972C100.03 40.3005 100.008 40.3082 99.9882 40.32C99.9685 40.3318 99.9514 40.3474 99.9378 40.3659C99.9243 40.3844 99.9145 40.4053 99.9091 40.4276C99.8986 40.4724 99.9059 40.5195 99.9296 40.559C99.9533 40.5984 99.9914 40.6271 100.036 40.6388C100.244 40.7083 100.434 40.8258 100.588 40.9819C100.743 41.1379 100.859 41.3282 100.927 41.5374C100.939 41.5682 100.96 41.5947 100.988 41.6138C101.015 41.6329 101.047 41.6437 101.08 41.6449Z" fill="#373842"/>
<path d="M95.017 40.7924C95.0453 40.7979 95.0745 40.7962 95.102 40.7875C95.1295 40.7788 95.1544 40.7633 95.1744 40.7425C95.3217 40.5818 95.505 40.4584 95.7093 40.3823C95.9135 40.3062 96.1329 40.2796 96.3494 40.3048C96.3717 40.3098 96.3947 40.3103 96.4171 40.3062C96.4395 40.3021 96.4609 40.2935 96.4799 40.281C96.4989 40.2684 96.5152 40.2521 96.5277 40.2331C96.5403 40.2141 96.5489 40.1928 96.553 40.1704C96.562 40.1245 96.5525 40.077 96.5266 40.0381C96.5007 39.9993 96.4605 39.9723 96.4147 39.963C96.1415 39.9267 95.8635 39.9566 95.6042 40.0501C95.3449 40.1437 95.1119 40.2982 94.9248 40.5006C94.8929 40.5335 94.8751 40.5776 94.8751 40.6235C94.8751 40.6693 94.8929 40.7134 94.9248 40.7464C94.9514 40.7688 94.983 40.7846 95.017 40.7924Z" fill="#373842"/>
<path d="M100.362 119.616C103.173 103.933 104.344 85.0213 104.344 85.0213L88.8691 84.7871C88.8691 84.7871 90.6508 110.273 91.2691 120.948C91.9104 132.05 92.3596 153.408 92.3596 153.408H97.536C97.536 153.408 101.921 133.34 100.362 119.616Z" fill="#FDAA46"/>
<path opacity="0.2" d="M97.3248 89.2954C97.3248 89.2954 99.36 104.517 101.027 115.68C102.509 106.299 103.45 96.4417 103.937 90.5127L97.3248 89.2954Z" fill="black"/>
<path d="M85.4208 158.65C85.4208 158.65 92.3597 157.025 92.663 154.656L97.0867 155.232L97.5706 159.84H95.7427L95.4547 159.268L94.8403 159.84C88.6349 159.84 86.3347 159.775 85.1865 159.391C85.1518 159.258 85.1553 159.118 85.1968 158.986C85.2382 158.855 85.3159 158.739 85.4208 158.65Z" fill="#373842"/>
<path d="M97.7126 156.065C96.0538 156.161 92.7206 155.919 92.0909 155.601C91.4611 155.282 91.8259 152.705 91.8259 152.705C91.8259 152.705 97.6282 152.129 98.1389 152.448C98.6496 152.767 97.7126 156.065 97.7126 156.065Z" fill="#FDAA46"/>
<path opacity="0.3" d="M97.7126 156.065C96.0538 156.161 92.7206 155.919 92.0909 155.601C91.4611 155.282 91.8259 152.705 91.8259 152.705C91.8259 152.705 97.6282 152.129 98.1389 152.448C98.6496 152.767 97.7126 156.065 97.7126 156.065Z" fill="white"/>
<path d="M114.267 119.174C111.713 103.403 111.994 92.8626 109.44 85.0905L94.6214 84.887C94.6214 84.887 101.691 109.912 104.916 120.33C108.142 130.748 113.998 153.408 113.998 153.408H118.737C118.737 153.408 118.545 131.374 114.267 119.174Z" fill="#FDAA46"/>
<path d="M109.014 158.65C109.014 158.65 114.248 157.025 114.551 154.656L118.975 155.232L119.459 159.84H118.307L118.019 159.268L117.404 159.84C111.199 159.84 109.92 159.775 108.772 159.391C108.738 159.257 108.743 159.116 108.786 158.985C108.828 158.854 108.907 158.738 109.014 158.65Z" fill="#373842"/>
<path d="M119.459 155.954C118.437 156.161 114.582 155.919 113.887 155.601C113.192 155.282 113.414 152.575 113.414 152.575C113.414 152.575 118.66 151.953 119.22 152.271C119.781 152.59 119.459 155.954 119.459 155.954Z" fill="#FDAA46"/>
<path opacity="0.3" d="M119.459 155.954C118.437 156.161 114.582 155.919 113.887 155.601C113.192 155.282 113.414 152.575 113.414 152.575C113.414 152.575 118.66 151.953 119.22 152.271C119.781 152.59 119.459 155.954 119.459 155.954Z" fill="white"/>
<path d="M88.8691 84.7872C88.7193 83.0516 87.2448 70.7367 87.1872 69.6077C87.2602 63.4637 90.3475 55.657 92.3712 53.4183C92.8369 53.2153 93.3599 53.1853 93.8457 53.3338C93.8457 53.3338 91.0502 56.8973 90.2822 62.8263C95.424 64.0628 100.973 63.4445 102.424 63.145C102.931 59.0093 105.496 54.0173 106.057 53.3069C106.525 53.281 106.993 53.3476 107.436 53.5028C107.436 53.5028 104.648 59.0784 104.364 63.36C104.079 67.6416 109.628 69.7191 109.628 69.7191C109.628 69.7191 109.033 73.4285 109.16 75.0951C109.286 76.7616 109.459 85.0791 109.459 85.0791C109.459 85.0791 96.0768 87.2679 88.8691 84.7872Z" fill="#FDAA46"/>
<path d="M92.5709 91.2768L89.9712 84.7527L89.7177 84.8525L89.4604 84.9562L92.064 91.4804L91.9949 92.0564L92.7705 93.266L93.0278 93.1623L93.2889 93.0586L93.0163 91.6493L92.5709 91.2768Z" fill="white"/>
<path d="M89.9136 85.3517C89.6874 85.44 89.4354 85.4355 89.2125 85.3392C88.9896 85.2428 88.8138 85.0624 88.7232 84.8371L86.327 78.8275C86.2374 78.6008 86.2413 78.3479 86.3377 78.1241C86.4342 77.9003 86.6153 77.7238 86.8416 77.6332C87.0677 77.5449 87.3197 77.5494 87.5426 77.6457C87.7655 77.7421 87.9414 77.9225 88.032 78.1478L90.4281 84.1574C90.5177 84.3841 90.5138 84.637 90.4174 84.8608C90.321 85.0846 90.1398 85.2611 89.9136 85.3517Z" fill="#373842"/>
<path d="M88.7846 83.9463C88.5312 84.2036 88.489 85.8663 88.9997 86.6343C92.4211 88.3968 101.441 88.6541 109.855 86.4768C110.058 85.49 109.978 84.1728 109.409 83.762C108.257 84.745 99.3446 86.1543 93.2467 85.3632C91.6807 85.1887 90.1644 84.7072 88.7846 83.9463Z" fill="#373842"/>
<path opacity="0.2" d="M90.0672 65.0881C90.0672 65.0881 93.2697 66.4014 102.198 65.7601C102.309 68.5155 102.212 71.2752 101.91 74.0161C101.652 75.6481 94.6137 77.2149 94.6137 77.2149C94.6137 77.2149 90.1248 75.4869 89.7715 73.4709C89.4182 71.4549 90.0672 65.0881 90.0672 65.0881Z" fill="white"/>
<path d="M107.155 41.2456C103.945 39.9976 99.7133 38.6459 95.9462 38.7265C96.0459 37.6752 96.5122 36.6924 97.2633 35.9502C98.0313 35.3281 100.589 34.7982 102.582 35.2321C104.16 35.5854 106.088 36.7681 106.948 38.2772C107.32 38.93 107.155 41.2456 107.155 41.2456Z" fill="#FDAA46"/>
<path opacity="0.3" d="M102.824 36.4145C101.318 35.0321 98.0198 35.3278 97.2633 35.9499C96.5122 36.6922 96.0459 37.6749 95.9462 38.7262C98.3385 38.6763 100.915 39.2024 103.3 39.9128C103.338 38.6379 103.407 37.6894 102.824 36.4145Z" fill="white"/>
<path d="M103.937 40.105C101.668 39.9053 99.2064 39.794 98.1312 39.337C97.056 38.88 94.4218 38.6957 93.9072 39.2564C93.6691 38.8224 94.8787 38.0352 97.3632 38.1658C99.8477 38.2964 103.937 40.105 103.937 40.105Z" fill="#FDAA46"/>
<path d="M100.232 36.0808L99.2102 35.9963L98.7878 36.8373L98.4921 36.8104L98.0966 37.8856L99.2294 36.8795L99.4368 36.8949L100.232 36.0808Z" fill="white"/>
<path d="M102.912 35.2781C102.874 35.4701 102.612 35.5776 102.336 35.52C102.059 35.4624 101.871 35.2512 101.914 35.0592C101.956 34.8672 102.213 34.7597 102.49 34.8173C102.766 34.8749 102.966 35.0822 102.912 35.2781Z" fill="#FDAA46"/>
<path d="M111.744 56.3021C112.243 56.7667 112.669 57.1776 113.107 57.6307C113.545 58.0839 113.967 58.5293 114.39 58.9863C115.223 59.9117 116.041 60.8563 116.813 61.8663C117.623 62.8939 118.368 63.9712 119.044 65.0919C119.413 65.6995 119.748 66.3278 120.046 66.9735C120.406 67.7436 120.675 68.5528 120.849 69.385L120.891 69.577C120.916 69.7034 120.928 69.8321 120.925 69.961C120.916 70.8205 120.746 71.6708 120.426 72.4685C120.189 73.0674 119.906 73.6477 119.581 74.2042C119.007 75.1806 118.355 76.1091 117.631 76.9805C116.95 77.806 116.229 78.5967 115.469 79.3498C114.714 80.1003 113.921 80.8104 113.092 81.4771C112.776 81.7277 112.384 81.861 111.981 81.8541C111.578 81.8473 111.19 81.7008 110.883 81.4397C110.576 81.1786 110.369 80.8191 110.298 80.4225C110.227 80.0259 110.295 79.6169 110.492 79.2653L110.519 79.2192L111.947 76.6541C112.416 75.8016 112.877 74.9568 113.291 74.1159C113.699 73.3234 114.061 72.508 114.374 71.6736C114.508 71.3329 114.611 70.9807 114.682 70.6215C114.735 70.3296 114.728 70.0877 114.682 70.1683L114.758 70.7597C114.626 70.4478 114.471 70.1462 114.294 69.8573C114.063 69.4733 113.798 69.0893 113.503 68.6669C113.207 68.2445 112.884 67.8451 112.547 67.4304C112.209 67.0157 111.863 66.5933 111.502 66.1786C110.776 65.3491 110.027 64.5159 109.256 63.6941L108.104 62.4653L106.952 61.2711L106.894 61.2135C106.298 60.5593 105.975 59.7013 105.993 58.8164C106.011 57.9315 106.368 57.0871 106.989 56.4574C107.611 55.8276 108.451 55.4604 109.336 55.4315C110.22 55.4026 111.082 55.7142 111.744 56.3021Z" fill="#CF7A64"/>
<path d="M112.769 78.2246L108.899 78.2784L110.262 82.7174C110.262 82.7174 113.764 82.2451 113.81 80.3443L112.769 78.2246Z" fill="#373842"/>
<path d="M106.072 81.143L106.813 82.6175C106.956 82.9019 107.195 83.1265 107.487 83.251C107.78 83.3755 108.107 83.3919 108.411 83.2972L110.262 82.7174L108.899 78.2783L106.694 79.3266C106.533 79.4036 106.389 79.5121 106.27 79.6456C106.151 79.7791 106.06 79.935 106.002 80.1041C105.944 80.2733 105.92 80.4523 105.932 80.6306C105.944 80.809 105.992 80.9832 106.072 81.143Z" fill="#373842"/>
<path d="M110.346 78.8276C111.218 77.8085 111.894 76.6368 112.339 75.3716C114.985 75.9553 116.563 78.1671 116.34 79.0772C114.804 80.6362 113.43 81.7268 112.37 82.0839C110.865 81.3005 110.346 78.8276 110.346 78.8276Z" fill="#373842"/>
<path d="M107.77 53.7793C109.69 54.2401 112.397 55.3153 113.583 57.1508C114.77 58.9863 117.972 62.4654 119.19 64.8961C117.366 68.9895 114.835 68.9435 112.95 68.5748C109.62 66.3361 105.331 63.5559 105.27 61.1828C105.216 59.1131 106.333 56.0641 107.77 53.7793Z" fill="#373842"/>
<path d="M110.116 73.7894C110.272 73.8798 110.447 73.9311 110.627 73.9392C110.766 73.9469 110.903 73.9017 111.011 73.8125C111.095 73.7172 111.156 73.603 111.188 73.4793C111.219 73.3557 111.22 73.2263 111.191 73.1021C111.085 72.5399 110.909 71.9931 110.669 71.4739C110.565 71.2281 110.458 70.967 110.369 70.7059C110.136 69.9464 109.97 69.1677 109.874 68.3789C109.759 67.6147 109.643 66.8121 109.594 66.0441C109.551 65.3606 109.571 64.6579 109.571 63.9821V62.8646C109.567 62.423 109.536 61.9776 109.536 61.5321C109.478 59.6774 109.421 57.7613 110.162 56.0909C110.212 55.9757 110.269 55.8605 110.323 55.7453L110.331 55.7286C110.609 55.1387 110.894 54.5333 110.757 53.8752C110.744 53.7639 110.692 53.6606 110.611 53.5833C110.569 53.5425 110.518 53.512 110.462 53.494C110.406 53.476 110.347 53.4711 110.289 53.4797C110.162 53.5048 110.046 53.5661 109.955 53.6563C109.876 53.629 109.791 53.6224 109.709 53.6371C109.482 53.6793 109.286 53.9635 109.098 54.3053L109.025 54.4397C108.663 55.0056 108.344 55.5988 108.073 56.2137C107.53 57.4473 107.143 58.7437 106.921 60.0729C106.789 60.8285 106.704 61.5916 106.668 62.3577C106.518 65.0611 106.886 67.9603 107.82 71.4777C107.909 71.8825 108.061 72.271 108.269 72.6297C108.451 72.9089 108.691 73.1456 108.972 73.3239C109.254 73.5021 109.571 73.6177 109.901 73.6627L110.116 73.7894Z" fill="#FDAA46"/>
<path opacity="0.4" d="M110.116 73.7894C110.272 73.8798 110.447 73.9311 110.627 73.9392C110.766 73.9469 110.903 73.9017 111.011 73.8125C111.095 73.7172 111.156 73.603 111.188 73.4793C111.219 73.3557 111.22 73.2263 111.191 73.1021C111.085 72.5399 110.909 71.9931 110.669 71.4739C110.565 71.2281 110.458 70.967 110.369 70.7059C110.136 69.9464 109.97 69.1677 109.874 68.3789C109.759 67.6147 109.643 66.8121 109.594 66.0441C109.551 65.3606 109.571 64.6579 109.571 63.9821V62.8646C109.567 62.423 109.536 61.9776 109.536 61.5321C109.478 59.6774 109.421 57.7613 110.162 56.0909C110.212 55.9757 110.269 55.8605 110.323 55.7453L110.331 55.7286C110.609 55.1387 110.894 54.5333 110.757 53.8752C110.744 53.7639 110.692 53.6606 110.611 53.5833C110.569 53.5425 110.518 53.512 110.462 53.494C110.406 53.476 110.347 53.4711 110.289 53.4797C110.162 53.5048 110.046 53.5661 109.955 53.6563C109.876 53.629 109.791 53.6224 109.709 53.6371C109.482 53.6793 109.286 53.9635 109.098 54.3053L109.025 54.4397C108.663 55.0056 108.344 55.5988 108.073 56.2137C107.53 57.4473 107.143 58.7437 106.921 60.0729C106.789 60.8285 106.704 61.5916 106.668 62.3577C106.518 65.0611 106.886 67.9603 107.82 71.4777C107.909 71.8825 108.061 72.271 108.269 72.6297C108.451 72.9089 108.691 73.1456 108.972 73.3239C109.254 73.5021 109.571 73.6177 109.901 73.6627L110.116 73.7894Z" fill="white"/>
<path opacity="0.4" d="M74.473 36.8102C74.1574 35.2755 73.4573 33.8459 72.4385 32.6554C71.4197 31.465 70.1154 30.5526 68.6478 30.0037C67.1802 29.4548 65.5973 29.2873 64.0473 29.517C62.4973 29.7467 61.031 30.3661 59.7857 31.317C58.5404 32.268 57.5567 33.5194 56.927 34.9542C56.2972 36.389 56.0419 37.9601 56.185 39.5205C56.328 41.0808 56.8648 42.5794 57.7449 43.8757C58.6251 45.1721 59.8198 46.2238 61.2173 46.9325C61.7102 47.1782 62.1429 47.5296 62.4845 47.9616C62.8921 48.4905 63.4402 48.8942 64.0663 49.1264C64.6923 49.3586 65.3711 49.4101 66.025 49.2749L69.024 48.6566C69.6785 48.5224 70.282 48.2067 70.7655 47.7456C71.249 47.2845 71.593 46.6967 71.7581 46.0493C71.8988 45.5224 72.1545 45.0332 72.5069 44.617C73.4022 43.5482 74.0441 42.2908 74.3845 40.9389C74.725 39.587 74.7553 38.1755 74.473 36.8102Z" fill="#FDAA46"/>
<path d="M70.4102 50.519L65.4874 51.5328C65.3087 51.5692 65.1229 51.5335 64.9704 51.4335C64.818 51.3336 64.7112 51.1774 64.6733 50.999C64.6381 50.8199 64.6747 50.6342 64.7753 50.4818C64.8759 50.3295 65.0323 50.2229 65.2109 50.185L70.1338 49.152C70.3129 49.1168 70.4987 49.1534 70.651 49.254C70.8033 49.3546 70.9099 49.511 70.9478 49.6896C70.9675 49.7794 70.9692 49.8722 70.9528 49.9627C70.9364 50.0531 70.9022 50.1394 70.8522 50.2165C70.8022 50.2937 70.7374 50.3601 70.6615 50.4121C70.5857 50.464 70.5003 50.5003 70.4102 50.519Z" fill="#373842"/>
<path d="M70.3373 52.5736L66.3706 53.3762C66.1914 53.4125 66.0051 53.3763 65.8525 53.2755C65.6999 53.1748 65.5935 53.0177 65.5565 52.8386C65.5202 52.6604 65.556 52.4751 65.656 52.3232C65.7561 52.1714 65.9122 52.0653 66.0903 52.0284L70.057 51.2104C70.2356 51.1741 70.4214 51.2097 70.5739 51.3097C70.7264 51.4097 70.8332 51.5658 70.8711 51.7442C70.8913 51.8338 70.8936 51.9265 70.8776 52.0169C70.8617 52.1073 70.8279 52.1937 70.7782 52.2709C70.7285 52.3481 70.6639 52.4146 70.5882 52.4666C70.5125 52.5186 70.4272 52.555 70.3373 52.5736Z" fill="#373842"/>
<path d="M69.0624 48.845C69.0168 48.854 68.9694 48.8461 68.9292 48.8228C68.8889 48.7995 68.8585 48.7623 68.8435 48.7183C68.7514 48.4456 67.3805 44.1986 67.0963 40.5698C66.2788 40.8104 65.4426 40.9825 64.5965 41.0843C65.7715 44.5403 66.1901 48.9717 66.217 49.2597C66.2213 49.3101 66.2055 49.3601 66.1732 49.3989C66.1408 49.4377 66.0945 49.4622 66.0442 49.4671C66.0192 49.4697 65.9938 49.4673 65.9698 49.46C65.9457 49.4527 65.9233 49.4406 65.904 49.4245C65.8846 49.4084 65.8687 49.3886 65.8572 49.3662C65.8457 49.3438 65.8387 49.3194 65.8368 49.2943C65.8368 49.2251 65.3914 44.5826 64.2087 41.1266C61.1789 41.3762 60.1075 40.2242 59.7696 39.652C59.5673 39.3366 59.4682 38.9659 59.4861 38.5916C59.504 38.2173 59.638 37.8578 59.8695 37.5631C60.1254 37.2859 60.464 37.0987 60.8349 37.0296C61.2057 36.9604 61.589 37.0128 61.9277 37.1791C63.0067 37.5899 63.8477 39.0031 64.4659 40.7234C64.8704 40.6799 65.3082 40.6107 65.7792 40.516C66.2554 40.4162 66.6855 40.3087 67.0695 40.1896C66.9658 38.3579 67.1693 36.7336 67.9987 35.9272C68.2462 35.6422 68.579 35.4445 68.9477 35.3636C69.3164 35.2826 69.7014 35.3227 70.0455 35.4779C70.3747 35.6569 70.6402 35.9337 70.8052 36.2701C70.9703 36.6065 71.0269 36.9858 70.9671 37.3557C70.8787 38.0162 70.3488 39.4984 67.4688 40.4623C67.753 44.1064 69.1853 48.5263 69.2083 48.6107C69.2231 48.6591 69.2185 48.7113 69.1956 48.7564C69.1727 48.8015 69.1332 48.836 69.0855 48.8527L69.0624 48.845ZM69.12 35.7122C68.7989 35.7897 68.5062 35.956 68.2752 36.1922C67.5495 36.8987 67.3613 38.3695 67.4535 40.0552C70.1415 39.1221 70.5255 37.7512 70.5984 37.2943C70.6482 37.004 70.6066 36.7055 70.4793 36.44C70.3521 36.1745 70.1454 35.955 69.888 35.812C69.6512 35.6911 69.3799 35.6558 69.12 35.7122ZM60.841 37.421C60.5822 37.4693 60.3477 37.6048 60.1767 37.805C59.9961 38.0379 59.8924 38.3213 59.8801 38.6157C59.8677 38.9102 59.9472 39.2012 60.1075 39.4485C60.3418 39.8325 61.2595 40.9423 64.0858 40.7426C63.5059 39.1567 62.7533 37.8818 61.8048 37.517C61.4958 37.3913 61.157 37.358 60.8295 37.421H60.841Z" fill="white"/>
<path d="M66.0343 24.5645L65.8677 27.3782L66.251 27.4009L66.4177 24.5872L66.0343 24.5645Z" fill="#FDAA46"/>
<path d="M69.6639 25.2086L68.7742 27.8831L69.1385 28.0043L70.0282 25.3298L69.6639 25.2086Z" fill="#FDAA46"/>
<path d="M72.9962 26.774L71.4475 29.1289L71.7683 29.3399L73.317 26.9849L72.9962 26.774Z" fill="#FDAA46"/>
<path d="M59.0371 47.9783L57.4885 50.3333L57.8093 50.5442L59.358 48.1893L59.0371 47.9783Z" fill="#FDAA46"/>
<path d="M75.8114 29.136L73.7056 31.0095L73.9609 31.2964L76.0666 29.4229L75.8114 29.136Z" fill="#FDAA46"/>
<path d="M56.8349 46.0149L54.7291 47.8884L54.9844 48.1753L57.0901 46.3018L56.8349 46.0149Z" fill="#FDAA46"/>
<path d="M77.922 32.1586L75.4005 33.4268L75.5731 33.7698L78.0945 32.5017L77.922 32.1586Z" fill="#FDAA46"/>
<path d="M55.2252 43.5414L52.7038 44.8096L52.8763 45.1526L55.3978 43.8845L55.2252 43.5414Z" fill="#FDAA46"/>
<path d="M79.1798 35.6205L76.4155 36.1904L76.4931 36.5665L79.2573 35.9966L79.1798 35.6205Z" fill="#FDAA46"/>
<path d="M54.3081 40.7474L51.5438 41.3174L51.6214 41.6935L54.3856 41.1235L54.3081 40.7474Z" fill="#FDAA46"/>
<path d="M76.6794 39.1252L76.6569 39.5085L79.4744 39.674L79.4969 39.2906L76.6794 39.1252Z" fill="#FDAA46"/>
<path d="M51.3307 37.643L51.3082 38.0264L54.1257 38.1918L54.1482 37.8084L51.3307 37.643Z" fill="#FDAA46"/>
<path d="M76.1761 42.0287L76.0551 42.3931L78.7298 43.2818L78.8509 42.9174L76.1761 42.0287Z" fill="#FDAA46"/>
<path d="M52.0733 34.0365L51.9522 34.4009L54.627 35.2896L54.7481 34.9252L52.0733 34.0365Z" fill="#FDAA46"/>
<path d="M74.9343 44.7053L74.7229 45.0259L77.076 46.5774L77.2874 46.2569L74.9343 44.7053Z" fill="#FDAA46"/>
<path d="M53.7293 30.7488L53.5179 31.0693L55.8709 32.6209L56.0823 32.3003L53.7293 30.7488Z" fill="#FDAA46"/>
<path d="M56.1695 27.9888L55.8828 28.2441L57.757 30.3492L58.0438 30.0939L56.1695 27.9888Z" fill="#FDAA46"/>
<path d="M59.2428 25.9633L58.8997 26.1357L60.1652 28.6542L60.5083 28.4818L59.2428 25.9633Z" fill="#FDAA46"/>
<path d="M62.74 24.808L62.364 24.8855L62.9339 27.6498L63.31 27.5722L62.74 24.808Z" fill="#FDAA46"/>
</g>
<defs>
<clipPath id="clip0">
<rect width="176" height="163" fill="white"/>
</clipPath>
</defs>
</svg>
