<svg width="186" height="181" viewBox="0 0 186 181" fill="none" xmlns="http://www.w3.org/2000/svg">
<g clip-path="url(#clip0)">
<path d="M200 157.197H-16V157.305H200V157.197Z" fill="#EBEBEB"/>
<path d="M178.357 164.148H164.049V164.256H178.357V164.148Z" fill="#EBEBEB"/>
<path d="M127.087 165.323H110.144V165.431H127.087V165.323Z" fill="#EBEBEB"/>
<path d="M163.617 160.139H138.984V160.247H163.617V160.139Z" fill="#EBEBEB"/>
<path d="M89.0235 160.865H59.3753V160.972H89.0235V160.865Z" fill="#EBEBEB"/>
<path d="M95.6029 160.865H92.8683V160.972H95.6029V160.865Z" fill="#EBEBEB"/>
<path d="M81.2605 162.688H26.4785V162.796H81.2605V162.688Z" fill="#EBEBEB"/>
<path d="M86.384 137.93H2.96911C2.31565 137.928 1.68934 137.668 1.22767 137.206C0.766006 136.743 0.506713 136.116 0.506714 135.463V18.2051C0.512402 17.5554 0.774206 16.9342 1.23526 16.4764C1.69631 16.0185 2.31937 15.7611 2.96911 15.76H86.384C87.0382 15.76 87.6656 16.0199 88.1282 16.4825C88.5908 16.9451 88.8507 17.5725 88.8507 18.2267V135.463C88.8507 136.117 88.5908 136.745 88.1282 137.207C87.6656 137.67 87.0382 137.93 86.384 137.93V137.93ZM2.96911 15.8464C2.34429 15.8476 1.74545 16.0966 1.30404 16.5388C0.862628 16.981 0.614713 17.5803 0.614714 18.2051V135.463C0.614713 136.088 0.862628 136.687 1.30404 137.129C1.74545 137.571 2.34429 137.82 2.96911 137.822H86.384C87.0092 137.82 87.6085 137.572 88.0506 137.129C88.4927 136.687 88.7416 136.088 88.7427 135.463V18.2051C88.7416 17.5799 88.4927 16.9806 88.0506 16.5385C87.6085 16.0964 87.0092 15.8476 86.384 15.8464H2.96911Z" fill="#EBEBEB"/>
<path d="M179.83 137.93H96.4107C95.7569 137.928 95.1301 137.668 94.6678 137.206C94.2054 136.744 93.9451 136.117 93.944 135.463V18.2051C93.9508 17.555 94.2136 16.9338 94.6753 16.4761C95.1371 16.0184 95.7606 15.7611 96.4107 15.76H179.83C180.479 15.7623 181.101 16.0202 181.561 16.4779C182.021 16.9356 182.282 17.5562 182.288 18.2051V135.463C182.288 136.116 182.029 136.742 181.569 137.204C181.108 137.666 180.483 137.927 179.83 137.93V137.93ZM96.4107 15.8464C95.7855 15.8476 95.1862 16.0964 94.7441 16.5385C94.302 16.9806 94.0531 17.5799 94.052 18.2051V135.463C94.0531 136.088 94.302 136.687 94.7441 137.129C95.1862 137.572 95.7855 137.82 96.4107 137.822H179.83C180.455 137.82 181.054 137.572 181.497 137.129C181.939 136.687 182.187 136.088 182.189 135.463V18.2051C182.187 17.5799 181.939 16.9806 181.497 16.5385C181.054 16.0964 180.455 15.8476 179.83 15.8464H96.4107Z" fill="#EBEBEB"/>
<path d="M142.799 51.5124C148.802 51.5124 153.668 46.6461 153.668 40.6433C153.668 34.6404 148.802 29.7742 142.799 29.7742C136.796 29.7742 131.93 34.6404 131.93 40.6433C131.93 46.6461 136.796 51.5124 142.799 51.5124Z" fill="#F5F5F5"/>
<path d="M170.075 74.4559C169.928 73.0044 167.198 72.0151 162.593 72.0151C156.606 72.0151 149.478 73.6827 145.702 75.8729C144.769 75.6685 143.815 75.5743 142.859 75.5921C138.777 75.5921 133.831 76.8622 131.813 78.4217C131.644 78.5514 131.486 78.696 131.342 78.8537H171.518C172.129 78.5774 172.709 78.2356 173.246 77.8342C175.449 76.1278 174.011 74.7151 170.075 74.4559Z" fill="#EBEBEB"/>
<path d="M45.1928 79.5274C45.0805 78.4518 43.0631 77.7217 39.6503 77.7217C35.2136 77.7217 29.9303 78.9529 27.1223 80.5772C26.4301 80.426 25.7225 80.3564 25.0141 80.3698C21.9901 80.3698 18.3311 81.3073 16.832 82.465C16.707 82.5604 16.5899 82.6659 16.4821 82.7804H46.2469C46.7039 82.5756 47.1383 82.3237 47.5429 82.0287C49.1716 80.763 48.1088 79.7175 45.1928 79.5274Z" fill="#F5F5F5"/>
<path d="M114.464 59.1544C117.054 58.2365 119.778 57.7547 122.525 57.7288C126.02 57.7288 127.666 58.7008 126.56 59.9795C127.251 59.8757 127.948 59.8223 128.647 59.8196C131.031 59.8196 132.003 60.5584 130.807 61.4699C130.694 61.552 130.569 61.6384 130.431 61.7204H106.995C107.132 61.4805 107.323 61.2751 107.552 61.12C108.818 60.1307 111.794 59.3056 114.464 59.1544Z" fill="#F5F5F5"/>
<path d="M64.1446 60.6318C65.7962 60.047 67.5334 59.7404 69.2854 59.7246C71.5102 59.7246 72.56 60.3467 71.8774 61.1588C72.3179 61.0928 72.7626 61.0581 73.208 61.0552C74.7243 61.0552 75.368 61.526 74.5947 62.1092C74.5182 62.1665 74.4389 62.2199 74.3571 62.2691H59.3753C59.4575 62.1186 59.5727 61.9886 59.7123 61.8889C60.5374 61.2539 62.4339 60.7312 64.1446 60.6318Z" fill="#F5F5F5"/>
<path d="M65.4277 37.9692C65.134 37.9692 64.8359 37.9692 64.5292 37.9692C64.6847 36.7596 62.6111 35.9129 58.9132 35.9129C57.8942 35.9156 56.8761 35.9733 55.8633 36.0857C55.8633 34.5434 53.0812 33.4937 48.2817 33.4937C42.4237 33.4937 35.4858 35.0705 31.5762 37.1786C27.8394 37.4508 23.8002 38.5999 22.0204 39.978C21.8465 40.1056 21.6859 40.2503 21.5409 40.41H68.6289C70.4001 39.0621 68.9529 37.9692 65.4277 37.9692Z" fill="#EBEBEB"/>
<path d="M125.929 131.229C124.201 115.677 103.059 148.077 104.277 135.329C105.016 127.553 109.237 116.891 96.7174 119.712C84.198 122.533 88.1595 137.035 81.9775 140.176C75.7956 143.317 77.5495 129.376 69.199 130.201C66.8359 130.434 65.0777 132.227 63.7687 134.789C63.6262 130.378 62.6023 126.46 59.9412 124.343C49.6639 116.174 57.0079 140.655 40.5919 132.655C34.6347 129.747 48.8518 112.312 37.1791 108.666C25.5065 105.02 26.5476 118.801 24.9665 128.879C22.3745 145.394 10.8876 103.456 4.53289 123.596C0.390014 136.72 11.1209 157.24 11.1209 157.24L59.9369 157.132V157.188L111.582 157.24C111.582 157.24 127.048 141.377 125.929 131.229Z" fill="#F5F5F5"/>
<path d="M109.893 94.1247L113.203 88.1934L116.533 94.7857L115.903 157.197H110.503L109.893 94.1247Z" fill="#F0F0F0"/>
<path d="M104.744 96.2545L101.435 88.1934L98.1042 94.7857L98.7349 157.197H104.131L104.744 96.2545Z" fill="#F0F0F0"/>
<path d="M91.434 94.1247L88.1249 88.1934L84.7942 94.7857L85.4249 157.197H90.8249L91.434 94.1247Z" fill="#F0F0F0"/>
<path d="M70.0717 96.2545L73.3808 88.1934L76.7115 94.7857L76.0808 157.197H70.6808L70.0717 96.2545Z" fill="#F0F0F0"/>
<path d="M159.314 94.1247L162.628 88.1934L165.958 94.7857L165.328 157.197H159.928L159.314 94.1247Z" fill="#F0F0F0"/>
<path d="M154.169 96.2545L150.856 88.1934L147.529 94.7857L148.16 157.197H153.556L154.169 96.2545Z" fill="#F0F0F0"/>
<path d="M140.859 94.1247L137.55 88.1934L134.219 94.7857L134.85 157.197H140.25L140.859 94.1247Z" fill="#F0F0F0"/>
<path d="M121.847 96.2545L125.16 88.1934L128.487 94.7857L127.856 157.197H122.46L121.847 96.2545Z" fill="#F0F0F0"/>
<path d="M70.2358 112.999L76.5301 113.003L76.5949 106.631L70.1711 106.584L70.2358 112.999Z" fill="#E0E0E0"/>
<path d="M84.98 113.008L91.2526 113.012L91.3131 106.744L84.9152 106.696L84.98 113.008Z" fill="#E0E0E0"/>
<path d="M98.2899 113.012L104.576 113.016L104.636 106.847L98.2295 106.8L98.2899 113.012Z" fill="#E0E0E0"/>
<path d="M110.075 113.016L116.348 113.021L116.408 106.938L110.014 106.886L110.075 113.016Z" fill="#E0E0E0"/>
<path d="M122.015 113.025H128.305L128.366 107.029L121.955 106.981L122.015 113.025Z" fill="#E0E0E0"/>
<path d="M134.401 113.029L140.678 113.033L140.734 107.124L134.345 107.076L134.401 113.029Z" fill="#E0E0E0"/>
<path d="M147.711 113.033L154.001 113.038L154.057 107.227L147.655 107.176L147.711 113.033Z" fill="#E0E0E0"/>
<path d="M159.44 107.271L159.5 113.042H165.773L165.829 107.318L159.44 107.271Z" fill="#E0E0E0"/>
<path d="M67.1816 109.457L171.911 111.314L171.821 105.629L66.08 102.99L67.1816 109.457Z" fill="#F0F0F0"/>
<path d="M92 176.706C138.26 176.706 175.76 174.517 175.76 171.816C175.76 169.115 138.26 166.926 92 166.926C45.7403 166.926 8.2395 169.115 8.2395 171.816C8.2395 174.517 45.7403 176.706 92 176.706Z" fill="#F5F5F5"/>
<path d="M149.119 169.984H151.711C151.711 169.984 151.448 158.752 156.8 148.216C162.152 137.679 160.77 131 157.591 133.657C154.411 136.314 149.81 151.512 149.119 169.984Z" fill="#373842"/>
<path d="M148.942 168.779L146.92 169.88C142.652 172.2 137.636 172.39 132.526 170.252C129.463 168.956 126.793 166.995 126.534 163.979C125.903 156.635 134.785 166.364 135.049 162.083C135.312 157.802 124.78 158.821 124.728 154.108C124.676 149.395 136.349 158.64 135.96 151.901C135.571 145.161 125.065 151.715 124.879 146.652C124.694 141.589 135.334 147.291 135.679 142.889C136.025 138.487 124.78 142.284 125.614 137.195C126.448 132.106 137.019 142.582 138.475 138.418C139.93 134.253 125.674 135.428 128.841 130.62C132.007 125.812 139.144 134.007 140.937 132.111C142.73 130.214 133.969 128.322 135.109 125.605C136.25 122.887 140.293 122.404 144.769 126.434C149.914 131.091 153.633 137.234 152.908 141.005C152.182 144.777 147.672 136.076 146.367 138.366C143.602 143.222 153.258 144.608 153.659 149.131C154.061 153.654 145.775 144.466 144.229 147.2C141.343 152.315 156.066 153.002 154.705 156.307C153.137 160.109 142.911 152.661 142.445 157.443C141.753 164.588 151.517 156.393 153.037 161.223C154.558 166.053 148.942 168.779 148.942 168.779Z" fill="#FDAA46"/>
<path opacity="0.8" d="M148.942 168.779L146.92 169.88C142.652 172.2 137.636 172.39 132.526 170.252C129.463 168.956 126.793 166.995 126.534 163.979C125.903 156.635 134.785 166.364 135.049 162.083C135.312 157.802 124.78 158.821 124.728 154.108C124.676 149.395 136.349 158.64 135.96 151.901C135.571 145.161 125.065 151.715 124.879 146.652C124.694 141.589 135.334 147.291 135.679 142.889C136.025 138.487 124.78 142.284 125.614 137.195C126.448 132.106 137.019 142.582 138.475 138.418C139.93 134.253 125.674 135.428 128.841 130.62C132.007 125.812 139.144 134.007 140.937 132.111C142.73 130.214 133.969 128.322 135.109 125.605C136.25 122.887 140.293 122.404 144.769 126.434C149.914 131.091 153.633 137.234 152.908 141.005C152.182 144.777 147.672 136.076 146.367 138.366C143.602 143.222 153.258 144.608 153.659 149.131C154.061 153.654 145.775 144.466 144.229 147.2C141.343 152.315 156.066 153.002 154.705 156.307C153.137 160.109 142.911 152.661 142.445 157.443C141.753 164.588 151.517 156.393 153.037 161.223C154.558 166.053 148.942 168.779 148.942 168.779Z" fill="white"/>
<path d="M131.424 170.939H126.24C124.83 163.034 121.965 155.46 117.79 148.6C110.878 137.277 115.57 133.376 120.909 136.547C126.249 139.718 130.038 152.475 131.424 170.939Z" fill="#FDAA46"/>
<path opacity="0.2" d="M131.424 170.939H126.24C124.83 163.034 121.965 155.46 117.79 148.6C110.878 137.277 115.57 133.376 120.909 136.547C126.249 139.718 130.038 152.475 131.424 170.939Z" fill="black"/>
<path d="M137.766 171.747H131.286C131.222 162.118 129.224 152.6 125.411 143.757C119.134 129.57 125.843 124.689 131.856 128.637C137.87 132.586 139.926 148.617 137.766 171.747Z" fill="#FDAA46"/>
<path d="M150.32 172.144H152.912C152.912 172.144 153.171 164.463 158.558 159.214C163.483 154.419 159.919 152.734 156.675 154.894C153.43 157.054 150.389 165.664 150.32 172.144Z" fill="#FDAA46"/>
<path d="M122.339 171.747H117.41C117.41 171.747 119.009 165.828 116.719 157.923C121.303 161.871 122.383 168.109 122.339 171.747Z" fill="#FDAA46"/>
<path d="M118.944 171.747H115.432C115.432 171.747 115.864 167.53 113.31 161.897C117.056 164.709 118.546 169.155 118.944 171.747Z" fill="#FDAA46"/>
<path d="M157.357 171.747H159.465C159.465 171.747 159.198 169.215 160.74 165.833C158.502 167.522 157.599 170.191 157.357 171.747Z" fill="#FDAA46"/>
<path d="M100.7 169.915H102.454C102.454 169.915 102.234 167.807 103.517 164.99C101.998 166.224 100.994 167.98 100.7 169.915Z" fill="#FDAA46"/>
<path opacity="0.6" d="M100.7 169.915H102.454C102.454 169.915 102.234 167.807 103.517 164.99C101.998 166.224 100.994 167.98 100.7 169.915Z" fill="white"/>
<path d="M26.5088 169.915H22.9837C22.9837 169.915 23.4157 165.681 20.8496 160.013C24.608 162.843 26.1113 167.31 26.5088 169.915Z" fill="#FDAA46"/>
<path opacity="0.2" d="M26.5088 169.915H22.9837C22.9837 169.915 23.4157 165.681 20.8496 160.013C24.608 162.843 26.1113 167.31 26.5088 169.915Z" fill="black"/>
<path d="M27.5715 171.872H29.442C29.442 171.872 29.2044 169.63 30.5696 166.632C28.5867 168.131 27.7832 170.494 27.5715 171.872Z" fill="#FDAA46"/>
<path opacity="0.2" d="M27.5715 171.872H29.442C29.442 171.872 29.2044 169.63 30.5696 166.632C28.5867 168.131 27.7832 170.494 27.5715 171.872Z" fill="white"/>
<path d="M37.7667 124.585L34.2545 118.287L30.7207 125.285L31.3903 169.297H37.1187L37.7667 124.585Z" fill="#FDAA46"/>
<path opacity="0.6" d="M37.7667 124.585L34.2545 118.287L30.7207 125.285L31.3903 169.297H37.1187L37.7667 124.585Z" fill="white"/>
<path d="M43.2272 126.845L46.7393 118.287L50.2731 125.285L49.6035 169.297H43.8752L43.2272 126.845Z" fill="#FDAA46"/>
<path opacity="0.6" d="M43.2272 126.845L46.7393 118.287L50.2731 125.285L49.6035 169.297H43.8752L43.2272 126.845Z" fill="white"/>
<path d="M57.3449 124.585L60.8571 118.287L64.3908 125.285L63.7212 169.297H57.9929L57.3449 124.585Z" fill="#FDAA46"/>
<path opacity="0.6" d="M57.3449 124.585L60.8571 118.287L64.3908 125.285L63.7212 169.297H57.9929L57.3449 124.585Z" fill="white"/>
<path d="M80.012 126.845L76.4998 118.287L72.9661 125.285L73.6357 169.297H79.364L80.012 126.845Z" fill="#FDAA46"/>
<path opacity="0.6" d="M80.012 126.845L76.4998 118.287L72.9661 125.285L73.6357 169.297H79.364L80.012 126.845Z" fill="white"/>
<g opacity="0.5">
<path opacity="0.5" d="M30.9671 141.502L37.5248 141.2L37.6242 134.253L30.8634 134.672L30.9671 141.502Z" fill="#FDAA46"/>
<path opacity="0.5" d="M43.4432 140.932L50.0398 140.63L50.1478 133.476L43.3352 133.895L43.4432 140.932Z" fill="#FDAA46"/>
<path opacity="0.5" d="M57.5739 140.284L64.1662 139.977L64.2785 132.599L57.4702 133.022L57.5739 140.284Z" fill="#FDAA46"/>
<path opacity="0.5" d="M73.0698 132.054L73.1821 139.563L79.8219 139.26L79.9429 131.631L73.0698 132.054Z" fill="#FDAA46"/>
</g>
<path d="M81.8436 136.928L25.9601 139.494L25.8564 132.746L82.2583 129.247L81.8436 136.928Z" fill="#FDAA46"/>
<path opacity="0.6" d="M81.8436 136.928L25.9601 139.494L25.8564 132.746L82.2583 129.247L81.8436 136.928Z" fill="white"/>
<path d="M96.7087 48.1603C88.9327 46.0478 85.2046 47.5684 81.2129 48.5923C77.2212 49.6161 77.7569 46.1428 85.2046 42.9763C90.0041 40.9416 95.646 42.7646 100.199 45.1968C106.247 48.4368 114.365 44.0001 111.526 47.1062C108.688 50.2123 102.269 49.6723 96.7087 48.1603Z" fill="#FDAA46"/>
<path opacity="0.3" d="M96.7087 48.1603C88.9327 46.0478 85.2046 47.5684 81.2129 48.5923C77.2212 49.6161 77.7569 46.1428 85.2046 42.9763C90.0041 40.9416 95.646 42.7646 100.199 45.1968C106.247 48.4368 114.365 44.0001 111.526 47.1062C108.688 50.2123 102.269 49.6723 96.7087 48.1603Z" fill="black"/>
<path d="M96.1774 41.9436C95.0758 41.4382 91.2483 41.5116 89.4771 41.9177C85.723 42.7817 85.3731 46.6222 86.7166 50.0566C88.0601 53.491 88.5137 63.9497 98.6484 57.3099C107.198 51.7025 101.897 41.4814 96.1774 41.9436Z" fill="#373842"/>
<path d="M100.934 66.5288C100.899 67.6044 100.882 68.7752 100.908 69.9027C100.934 71.0302 100.955 72.1793 101.042 73.3068C101.178 75.5452 101.488 77.7696 101.97 79.9596L102.169 80.7588C102.199 80.91 102.23 80.9835 102.26 81.0915C102.29 81.1995 102.338 81.3032 102.372 81.4112C102.561 81.8858 102.78 82.3476 103.029 82.7936C103.576 83.7638 104.173 84.7054 104.817 85.6145C105.465 86.5476 106.152 87.4764 106.861 88.388C107.569 89.2995 108.295 90.224 109.021 91.1182L107.677 92.4704C105.827 90.9251 104.094 89.2443 102.493 87.4419C101.666 86.5164 100.904 85.5348 100.212 84.5043C99.8382 83.954 99.506 83.3764 99.2186 82.7763C99.1495 82.6121 99.0717 82.4566 99.0069 82.2795C98.9421 82.1024 98.8644 81.908 98.8255 81.774L98.549 80.8755C98.1992 79.6861 97.9194 78.4774 97.7109 77.2553C97.482 76.0457 97.348 74.8318 97.2314 73.6179C97.1148 72.404 97.0413 71.1944 97.0197 69.9804C96.9981 68.7665 96.9981 67.5785 97.0802 66.2998L100.934 66.5288Z" fill="#FFB573"/>
<path d="M99.776 61.8805C102.873 63.5696 101.681 70.2137 101.681 70.2137L95.9701 72.162C95.9701 72.162 92.9201 64.2953 94.7518 62.8049C96.657 61.2541 97.3784 60.5715 99.776 61.8805Z" fill="#373842"/>
<path opacity="0.2" d="M99.8797 63.8374L100.601 70.5896L96.3589 72.0324L99.8797 63.8374Z" fill="black"/>
<path d="M108.381 90.4961L112.58 91.3212L109.712 93.8398C109.712 93.8398 107.435 93.0147 107.211 91.4638L108.381 90.4961Z" fill="#FFB573"/>
<path d="M114.736 93.1055L112.667 95.568L109.699 93.84L112.58 91.3127L114.736 93.1055Z" fill="#FFB573"/>
<path d="M83.9302 167.967H87.7016L87.9522 159.236H84.1851L83.9302 167.967Z" fill="#FFB573"/>
<path d="M54.0574 153.81L57.2801 155.763L62.8356 148.915L59.6086 146.967L54.0574 153.81Z" fill="#FFB573"/>
<path d="M57.7553 155.473L54.9041 152.341C54.8558 152.286 54.7891 152.251 54.7166 152.243C54.6441 152.234 54.571 152.252 54.511 152.294L51.7073 154.19C51.6386 154.24 51.5813 154.305 51.5391 154.379C51.497 154.453 51.471 154.535 51.4628 154.62C51.4547 154.705 51.4645 154.79 51.4918 154.871C51.519 154.952 51.563 155.026 51.6209 155.089C52.6318 156.164 53.1761 156.631 54.4289 158.009C55.2022 158.873 56.8308 161.465 57.8849 162.623C58.939 163.78 60.1659 162.8 59.8246 162.217C58.7127 160.361 58.0844 158.256 57.9972 156.095C57.9911 155.866 57.9056 155.646 57.7553 155.473V155.473Z" fill="#373842"/>
<path d="M87.8311 167.53H83.5932C83.5211 167.53 83.4511 167.555 83.3963 167.602C83.3415 167.649 83.3056 167.714 83.2951 167.785L82.8113 171.137C82.8028 171.222 82.8122 171.307 82.8387 171.388C82.8653 171.469 82.9084 171.543 82.9654 171.606C83.0223 171.669 83.0918 171.72 83.1695 171.754C83.2471 171.789 83.3311 171.807 83.4161 171.807C84.8935 171.781 85.602 171.695 87.4682 171.695C88.613 171.695 91.2871 171.816 92.8682 171.816C94.4493 171.816 94.5357 170.252 93.8748 170.109C90.9242 169.474 89.4554 168.597 88.4618 167.759C88.2838 167.613 88.0613 167.533 87.8311 167.53V167.53Z" fill="#373842"/>
<g opacity="0.2">
<path opacity="0.2" d="M87.9521 159.24L87.8225 163.737H84.0512L84.1808 159.24H87.9521Z" fill="black"/>
<path opacity="0.2" d="M59.6043 146.967L62.8313 148.92L59.7857 152.669L56.7401 150.496L59.6043 146.967Z" fill="black"/>
</g>
<path d="M100.895 63.7769C100.757 66.1486 99.8321 71.648 96.1428 84.3401L80.9494 82.4609C81.93 76.5555 82.4095 72.8057 81.2215 60.9733C81.2007 60.7728 81.2211 60.5701 81.2813 60.3777C81.3415 60.1853 81.4404 60.0073 81.5718 59.8544C81.7033 59.7015 81.8645 59.5771 82.0457 59.4887C82.2268 59.4003 82.4242 59.3498 82.6255 59.3403C84.2897 59.261 85.9571 59.2769 87.6195 59.3878C89.9411 59.5108 92.251 59.7995 94.5315 60.2518C96.2595 60.632 98.1516 61.1763 99.3785 61.5478C99.8428 61.6984 100.244 61.9992 100.518 62.4027C100.793 62.8063 100.925 63.2898 100.895 63.7769V63.7769Z" fill="#FDAA46"/>
<path d="M92.3542 73.2163H92.3197L86.5438 71.5229C86.5171 71.5148 86.4943 71.4971 86.4799 71.4731C86.4655 71.4491 86.4606 71.4207 86.4661 71.3933L86.7814 69.7214C86.7876 69.6936 86.8038 69.669 86.8269 69.6523C86.85 69.6356 86.8784 69.6279 86.9067 69.6307L96.9118 70.4947C96.9266 70.4958 96.941 70.4998 96.9542 70.5065C96.9674 70.5131 96.9792 70.5224 96.9888 70.5336C96.9985 70.5449 97.0058 70.5579 97.0104 70.572C97.015 70.586 97.0167 70.6009 97.0155 70.6157L96.9032 72.3134C96.9004 72.339 96.8897 72.3631 96.8727 72.3824C96.8557 72.4017 96.8332 72.4154 96.8082 72.4214L92.3715 73.2163H92.3542ZM86.708 71.3285L92.3586 72.983L96.6786 72.2141L96.7779 70.7193L86.9888 69.8553L86.708 71.3285Z" fill="white"/>
<path d="M83.4204 59.3101L82.5996 59.3403C82.3986 59.3504 82.2018 59.4013 82.0211 59.4899C81.8404 59.5786 81.6797 59.7031 81.5487 59.8559C81.4178 60.0087 81.3193 60.1866 81.2593 60.3787C81.1994 60.5708 81.1792 60.7731 81.1999 60.9733C81.511 64.0707 81.7054 66.6152 81.8134 68.7838C82.54 68.4079 83.2413 67.9851 83.9129 67.5181C83.9129 67.5181 84.7207 63.2024 83.4204 59.3101Z" fill="#373842"/>
<path d="M99.344 61.5521C98.9811 61.4398 98.5578 61.3102 98.0999 61.1763C98.4843 62.0403 99.0848 66.1011 98.4843 69.1683C98.9059 69.5105 99.3944 69.7607 99.9186 69.9027C100.395 67.8876 100.723 65.8401 100.899 63.7769C100.926 63.2857 100.787 62.7998 100.505 62.3966C100.223 61.9934 99.8144 61.6961 99.344 61.5521V61.5521Z" fill="#373842"/>
<path d="M96.5661 60.7443C95.8879 60.5671 95.1837 60.39 94.4969 60.2388C92.2163 59.7868 89.9065 59.4981 87.5849 59.3748C86.7209 59.31 85.8569 59.2841 85.0577 59.2798C85.5977 60.2388 86.2889 64.6193 85.9951 67.3366C90.3799 68.6023 96.9247 68.7708 96.9247 68.7708C96.9247 68.7708 97.7066 63.4529 96.5661 60.7443Z" fill="#373842"/>
<path d="M89.2438 51.7026C89.4037 53.9793 89.3345 58.1006 87.5979 59.3879C87.5979 59.3879 88.3885 62.0188 92.0734 63.9282C95.0413 62.9044 94.4969 60.2433 94.4969 60.2433C92.095 59.3447 92.3845 57.5174 93.0325 55.8455L89.2438 51.7026Z" fill="#FFB573"/>
<path opacity="0.2" d="M90.786 53.3916L93.0281 55.841C92.8712 56.2296 92.7497 56.6316 92.6652 57.042C91.7364 56.7871 90.5657 55.5862 90.5873 54.5839C90.583 54.1779 90.6503 53.7743 90.786 53.3916V53.3916Z" fill="black"/>
<path d="M89.5894 45.9007C88.4532 49.4647 87.8916 50.9508 88.9544 53.4218C90.5571 57.137 95.1795 57.7418 97.3611 54.6055C99.3267 51.7672 100.86 46.4191 97.9918 43.7061C97.362 43.1061 96.5893 42.6769 95.747 42.4592C94.9048 42.2416 94.0209 42.2428 93.1792 42.4626C92.3376 42.6824 91.566 43.1137 90.9377 43.7154C90.3095 44.317 89.8454 45.0693 89.5894 45.9007V45.9007Z" fill="#FFB573"/>
<path d="M89.49 43.1489L88.4921 49.0241C91.4599 48.0218 96.955 45.5681 97.6894 44.19C99.0501 41.5807 91.7407 41.2049 89.49 43.1489Z" fill="#373842"/>
<path d="M87.7793 41.9955C87.4899 40.2416 85.4724 37.3947 88.0558 35.8741C90.6392 34.3534 99.344 35.6754 100.208 37.2392C101.819 40.2632 101.906 44.7128 101.906 44.7128C101.906 44.7128 94.3414 41.7191 87.7793 41.9955Z" fill="#FDAA46"/>
<path d="M87.019 39.9003C87.2987 40.5996 87.5155 41.3224 87.667 42.0603C87.9348 41.9652 93.283 41.6887 96.631 42.9934C98.4794 43.7296 100.372 44.3486 102.299 44.8467C102.299 44.8467 102.031 42.9761 101.746 41.7017C101.461 40.4273 92.9676 38.4012 87.019 39.9003Z" fill="#FDAA46"/>
<path opacity="0.3" d="M87.019 39.9003C87.2987 40.5996 87.5155 41.3224 87.667 42.0603C87.9348 41.9652 93.283 41.6887 96.631 42.9934C98.4794 43.7296 100.372 44.3486 102.299 44.8467C102.299 44.8467 102.031 42.9761 101.746 41.7017C101.461 40.4273 92.9676 38.4012 87.019 39.9003Z" fill="white"/>
<path d="M85.2046 42.9762C90.0646 41.0927 95.6461 42.7645 100.199 45.1967C104.999 47.7584 111.064 45.5207 111.989 46.0088C111.513 45.5768 110.887 45.6675 108.965 45.7842C107.042 45.9008 104.269 45.5163 102.23 44.337C99.187 42.4243 95.6797 41.3787 92.0864 41.313C86.7684 41.1099 81.2605 44.0303 79.0875 47.0586C80.6168 46.5186 82.1849 44.1555 85.2046 42.9762Z" fill="#FDAA46"/>
<path d="M96.1213 84.3402C96.1213 84.3402 95.5122 113.522 93.8533 124.901C92.1253 136.738 88.4187 162.869 88.4187 162.869H83.3211C83.3211 162.869 83.4377 136.366 84.4357 124.654C85.5157 111.889 84.9973 82.9622 84.9973 82.9622L96.1213 84.3402Z" fill="#FDAA46"/>
<path d="M82.8805 163.051H88.8594L89.3 161.141L82.604 160.908L82.8805 163.051Z" fill="#FDAA46"/>
<path opacity="0.3" d="M82.8805 163.051H88.8594L89.3 161.141L82.604 160.908L82.8805 163.051Z" fill="black"/>
<path opacity="0.2" d="M88.6822 90.6991C91.4859 98.6695 86.8116 111.992 84.859 116.926C85.1312 109.189 85.1441 99.6934 85.1052 92.7338C86.1507 88.8977 87.3905 87.0401 88.6822 90.6991Z" fill="black"/>
<path d="M92.1123 83.8435C92.1123 83.8435 84.9627 113.392 81.1741 122.676C76.6769 133.714 61.7341 151.646 61.7341 151.646L57.2499 149.136C57.2499 149.136 68.0845 127.968 71.1905 122.227C77.8131 110.01 75.8691 90.3407 80.9278 82.4827L92.1123 83.8435Z" fill="#FDAA46"/>
<path d="M55.9539 149.334L61.4144 152.631L63.0301 151.266L56.7877 147.097L55.9539 149.334Z" fill="#FDAA46"/>
<path opacity="0.3" d="M55.9539 149.334L61.4144 152.631L63.0301 151.266L56.7877 147.097L55.9539 149.334Z" fill="black"/>
<path d="M94.7821 48.9854C94.6697 49.2705 94.7345 49.5556 94.916 49.629C95.0974 49.7025 95.348 49.5297 95.4516 49.2446C95.5553 48.9594 95.5035 48.6743 95.3177 48.6009C95.132 48.5274 94.8901 48.7002 94.7821 48.9854Z" fill="#373842"/>
<path d="M97.9832 50.2294C97.8752 50.5145 97.9357 50.8039 98.1215 50.8731C98.3072 50.9422 98.5535 50.7737 98.6572 50.4929C98.7608 50.2121 98.7047 49.9184 98.5189 49.8492C98.3331 49.7801 98.0955 49.9486 97.9832 50.2294Z" fill="#373842"/>
<path d="M98.4324 49.832L99.1884 49.9012C99.1884 49.9012 98.6311 50.3202 98.4324 49.832Z" fill="#373842"/>
<path d="M96.7995 50.3591C96.7993 51.1028 96.9026 51.8428 97.1062 52.558C96.9217 52.606 96.7288 52.6127 96.5414 52.5776C96.354 52.5425 96.1766 52.4665 96.0219 52.355L96.7995 50.3591Z" fill="#ED893E"/>
<path d="M94.0433 52.8646C94.1749 52.937 94.3105 53.0019 94.4494 53.059C94.4711 53.0649 94.4942 53.0625 94.5143 53.0524C94.5343 53.0422 94.5499 53.025 94.5579 53.004C94.566 52.983 94.566 52.9598 94.5579 52.9388C94.5498 52.9179 94.5343 52.9006 94.5142 52.8905C94.1582 52.7624 93.8377 52.5514 93.5793 52.275C93.3209 51.9986 93.1319 51.6646 93.0281 51.3007C93.0223 51.2779 93.0079 51.2583 92.9878 51.2459C92.9678 51.2336 92.9438 51.2295 92.9208 51.2345C92.8978 51.2396 92.8777 51.2534 92.8647 51.273C92.8516 51.2926 92.8468 51.3165 92.851 51.3396C92.9383 51.6604 93.0886 51.9605 93.2934 52.2223C93.4981 52.4842 93.7531 52.7025 94.0433 52.8646V52.8646Z" fill="#373842"/>
<path d="M87.451 48.6225C87.3822 49.3421 87.6013 50.0597 88.0601 50.6183C88.6779 51.357 89.5246 50.938 89.7881 50.074C90.043 49.2964 90.03 47.9745 89.192 47.5555C89.0086 47.4707 88.8071 47.4324 88.6054 47.4442C88.4038 47.456 88.2081 47.5174 88.0359 47.623C87.8636 47.7286 87.7201 47.875 87.6181 48.0494C87.5161 48.2237 87.4587 48.4206 87.451 48.6225V48.6225Z" fill="#FFB573"/>
<path d="M94.3501 47.1192C94.373 47.1496 94.4054 47.1716 94.4421 47.1818C94.4788 47.1919 94.5178 47.1897 94.5531 47.1753C95.3264 46.8902 96.2077 47.4907 96.2164 47.495C96.2553 47.5219 96.3034 47.5323 96.3499 47.5238C96.3965 47.5153 96.4378 47.4886 96.4647 47.4497C96.4917 47.4107 96.502 47.3627 96.4935 47.3161C96.485 47.2695 96.4583 47.2282 96.4194 47.2013C96.3762 47.171 95.3739 46.4928 94.4279 46.8427C94.3836 46.8593 94.3475 46.8925 94.3273 46.9352C94.3072 46.978 94.3045 47.0269 94.3199 47.0717C94.3273 47.089 94.3376 47.105 94.3501 47.1192V47.1192Z" fill="#373842"/>
<path d="M99.9315 48.5923C99.9652 48.6139 100.005 48.6233 100.045 48.6192C100.085 48.615 100.122 48.5974 100.151 48.5693C100.179 48.5413 100.198 48.5043 100.203 48.4646C100.207 48.4248 100.199 48.3846 100.178 48.3504C100.044 48.1006 99.8529 47.8861 99.6201 47.7246C99.3872 47.5631 99.1193 47.4593 98.8385 47.4216C98.7911 47.4192 98.7446 47.4356 98.7091 47.4671C98.6735 47.4986 98.6518 47.5427 98.6484 47.5901C98.6467 47.6134 98.6495 47.6368 98.6568 47.6589C98.6641 47.6811 98.6757 47.7016 98.691 47.7193C98.7062 47.7369 98.7248 47.7514 98.7457 47.7619C98.7666 47.7723 98.7893 47.7785 98.8126 47.7802C99.0349 47.8123 99.2465 47.8968 99.4298 48.0267C99.6131 48.1567 99.7628 48.3283 99.8667 48.5275C99.88 48.5561 99.9029 48.579 99.9315 48.5923Z" fill="#373842"/>
<path d="M58.7359 157.262H58.7835C58.8674 157.265 58.9508 157.248 59.0263 157.211C59.1017 157.174 59.1667 157.118 59.2155 157.05C59.2529 157.011 59.2789 156.963 59.2903 156.91C59.3018 156.858 59.2983 156.803 59.2803 156.752C59.1334 156.294 57.8158 155.944 57.6646 155.888C57.6481 155.884 57.6309 155.885 57.6149 155.89C57.5989 155.895 57.5847 155.905 57.5739 155.918C57.5642 155.933 57.5591 155.95 57.5591 155.968C57.5591 155.986 57.5642 156.003 57.5739 156.018C57.8028 156.471 58.2564 157.18 58.7359 157.262ZM57.8287 156.16C58.3515 156.311 59.034 156.592 59.1247 156.83C59.1313 156.852 59.1316 156.876 59.1255 156.899C59.1194 156.922 59.1072 156.943 59.0902 156.959C59.0575 157.007 59.0135 157.045 58.9621 157.07C58.9108 157.096 58.8538 157.108 58.7964 157.106C58.5199 157.072 58.1743 156.717 57.8287 156.16Z" fill="#FDAA46"/>
<path d="M57.751 156.117C58.2133 156.203 59.0989 156.139 59.3278 155.823C59.3728 155.768 59.3973 155.7 59.3973 155.629C59.3973 155.558 59.3728 155.489 59.3278 155.434C59.2887 155.379 59.238 155.332 59.179 155.298C59.1201 155.263 59.0544 155.242 58.9866 155.236C58.4422 155.175 57.6344 155.905 57.5998 155.936C57.5894 155.946 57.5815 155.959 57.577 155.974C57.5725 155.988 57.5715 156.003 57.5739 156.018C57.5777 156.033 57.5852 156.048 57.5957 156.06C57.6062 156.072 57.6195 156.081 57.6344 156.087L57.751 156.117ZM58.9779 155.417C59.0154 155.424 59.0511 155.438 59.083 155.459C59.1149 155.48 59.1424 155.507 59.1637 155.538C59.2328 155.633 59.2112 155.685 59.1637 155.72C59.0082 155.931 58.2694 156.026 57.8158 155.953C58.122 155.664 58.5095 155.475 58.9261 155.413L58.9779 155.417Z" fill="#FDAA46"/>
<path d="M89.2438 168.187C89.5662 168.217 89.8891 168.136 90.1596 167.958C90.2189 167.904 90.2643 167.837 90.2921 167.762C90.32 167.686 90.3293 167.606 90.3195 167.526C90.3174 167.477 90.3024 167.429 90.2758 167.387C90.2493 167.345 90.2122 167.311 90.1683 167.289C89.706 167.034 88.2027 167.803 88.0342 167.893C88.0176 167.901 88.0041 167.915 87.9955 167.931C87.987 167.947 87.9839 167.966 87.9867 167.984C87.991 168.002 88.0001 168.018 88.013 168.031C88.026 168.044 88.0423 168.053 88.0601 168.057C88.4497 168.138 88.846 168.181 89.2438 168.187V168.187ZM89.9177 167.41C89.9741 167.406 90.0304 167.417 90.0819 167.44C90.1001 167.449 90.1153 167.463 90.126 167.481C90.1366 167.499 90.1423 167.519 90.1424 167.539C90.1509 167.592 90.1458 167.645 90.1276 167.695C90.1095 167.745 90.0789 167.79 90.0387 167.824C89.8097 168.032 89.1747 168.066 88.3539 167.928C88.8403 167.66 89.3694 167.479 89.9177 167.392V167.41Z" fill="#FDAA46"/>
<path d="M88.0774 168.057H88.112C88.544 167.854 89.4512 167.038 89.382 166.615C89.382 166.511 89.2913 166.386 89.0451 166.36C88.9544 166.351 88.8629 166.361 88.7766 166.39C88.6902 166.42 88.611 166.466 88.544 166.528C88.0688 166.921 87.9824 167.936 87.9781 167.98C87.9772 167.996 87.9803 168.011 87.9871 168.026C87.9938 168.04 88.0041 168.052 88.0169 168.062C88.0371 168.066 88.0581 168.065 88.0774 168.057ZM88.976 166.528H89.0278C89.192 166.528 89.2006 166.61 89.2049 166.632C89.2481 166.891 88.6433 167.53 88.1854 167.807C88.2206 167.379 88.3882 166.973 88.6649 166.645C88.751 166.569 88.8616 166.528 88.976 166.528V166.528Z" fill="#FDAA46"/>
<path d="M95.2269 48.592L95.9873 48.6612C95.9873 48.6612 95.43 49.05 95.2269 48.592Z" fill="#373842"/>
<path d="M111.228 116.671L87.2955 108.463L97.6289 88.3794L115.388 94.4663L111.228 116.671Z" fill="#373842"/>
<path d="M111.976 116.926L108.187 115.626L126.413 102.596L126.378 104.268L111.976 116.926Z" fill="#373842"/>
<path d="M96.091 106.7C92.3284 106.709 88.6943 105.332 85.8816 102.833C83.069 100.333 81.2746 96.8864 80.8405 93.1489C80.4065 89.4113 81.3632 85.6448 83.5282 82.5674C85.6932 79.4901 88.9151 77.3171 92.5795 76.463C96.2439 75.6088 100.094 76.1332 103.397 77.936C106.7 79.7389 109.223 82.6942 110.486 86.2385C111.75 89.7827 111.665 93.6679 110.247 97.1533C108.829 100.639 106.178 103.48 102.8 105.137C100.712 106.161 98.4171 106.696 96.091 106.7V106.7ZM96.0651 77.467C92.5614 77.4626 89.1842 78.7757 86.6036 81.1456C84.0231 83.5155 82.4279 86.769 82.1345 90.2604C81.8412 93.7517 82.8713 97.2258 85.0203 99.993C87.1693 102.76 90.2801 104.618 93.7354 105.199C97.1906 105.779 100.738 105.039 103.673 103.125C106.608 101.212 108.716 98.2651 109.58 94.8695C110.443 91.4738 109.998 87.8777 108.333 84.7949C106.668 81.712 103.905 79.3677 100.592 78.2273C99.136 77.7242 97.6059 77.4672 96.0651 77.467V77.467Z" fill="#373842"/>
<path d="M125.502 97.8662L125.787 103.949L130.962 107.163L125.502 97.8662Z" fill="#373842"/>
<path d="M83.6537 79.7566L86.8807 78.0286L86.1031 81.7826C86.1031 81.7826 83.7876 82.4954 82.6774 81.3938L83.1353 80.3398C83.2369 80.0922 83.4197 79.8865 83.6537 79.7566Z" fill="#FFB573"/>
<path d="M82.2368 66.2093C81.9776 66.5333 81.6752 66.9307 81.3728 67.3022C81.0704 67.6737 80.8112 68.0712 80.5433 68.4643C80.0076 69.2462 79.472 70.0325 78.9925 70.8446C78.0244 72.4193 77.232 74.0954 76.6294 75.8429L76.448 76.4131C76.4241 76.4873 76.4096 76.5642 76.4048 76.6421C76.4041 76.7999 76.4592 76.9529 76.5603 77.0741C77.0652 77.6202 77.689 78.0429 78.3833 78.3096C79.2314 78.6776 80.1066 78.9795 81.0012 79.2125C81.9128 79.4673 82.8805 79.6747 83.8049 79.8518L83.7099 81.7569C81.5757 81.8691 79.4373 81.6371 77.3768 81.0701C76.8165 80.9023 76.2717 80.6869 75.7481 80.4264C75.139 80.13 74.5863 79.7294 74.1152 79.2427C73.5261 78.6339 73.1424 77.8559 73.0179 77.0179C72.9549 76.5998 72.9549 76.1746 73.0179 75.7565C73.0179 75.6657 73.0524 75.5448 73.0697 75.4757L73.1172 75.2769L73.2166 74.8709C73.3376 74.3265 73.5147 73.8168 73.6745 73.2941C73.8344 72.7713 74.0417 72.2702 74.2577 71.7821C74.6713 70.8009 75.1416 69.8446 75.6661 68.9179C76.1845 67.9977 76.7288 67.1035 77.3249 66.2395C77.623 65.8075 77.9297 65.3755 78.2451 64.9435C78.5605 64.5115 78.8758 64.1227 79.256 63.6777L82.2368 66.2093Z" fill="#FFB573"/>
<path d="M82.3923 59.3662C77.9643 60.2907 75.9339 65.6475 75.9339 65.6475L81.2 70.5896C81.2 70.5896 83.589 69.5744 83.9216 67.518C84.2586 65.3753 83.6235 59.107 82.3923 59.3662Z" fill="#373842"/>
<path d="M90.0042 78.5385L89.1834 81.6446L86.1032 81.7655L86.8808 78.0115L90.0042 78.5385Z" fill="#FFB573"/>
</g>
<defs>
<clipPath id="clip0">
<rect width="186" height="181" fill="white"/>
</clipPath>
</defs>
</svg>
