<svg width="188" height="177" viewBox="0 0 188 177" fill="none" xmlns="http://www.w3.org/2000/svg">
<path d="M47.2332 122.26L51.3128 123.125L47.2332 124.317C46.9783 124.391 46.7484 124.533 46.5682 124.728C46.388 124.922 46.2643 125.163 46.2105 125.422L45.1915 130.31L44.0635 125.516C44.0007 125.249 43.8642 125.005 43.6694 124.812C43.4746 124.618 43.2295 124.483 42.9619 124.422L38.8823 123.494L43.0747 122.313C43.3358 122.24 43.5714 122.096 43.7553 121.897C43.9392 121.697 44.0642 121.451 44.1162 121.185L45.0524 116.485L46.109 121.155C46.1708 121.427 46.3096 121.677 46.5089 121.872C46.7082 122.068 46.9596 122.203 47.2332 122.26V122.26Z" fill="#E0E0E0"/>
<path d="M28.3504 157.296L30.4899 157.747L28.3467 158.375C28.2149 158.414 28.0965 158.489 28.0044 158.591C27.9122 158.693 27.8499 158.819 27.824 158.954L27.2863 161.518L26.696 158.999C26.6645 158.858 26.5931 158.73 26.4905 158.628C26.3878 158.527 26.2581 158.457 26.117 158.428L23.9775 157.939L26.1771 157.318C26.3142 157.28 26.438 157.205 26.5349 157.101C26.6318 156.996 26.698 156.868 26.7261 156.728L27.2149 154.261L27.7676 156.713C27.7996 156.855 27.8714 156.986 27.9746 157.089C28.0777 157.192 28.2081 157.264 28.3504 157.296V157.296Z" fill="#E0E0E0"/>
<path d="M58.5168 118.154L59.7576 118.418L58.5168 118.794C58.4389 118.815 58.3685 118.858 58.3134 118.917C58.2583 118.976 58.2207 119.049 58.2048 119.128L57.8927 120.632L57.5505 119.17C57.5307 119.088 57.4885 119.014 57.4286 118.956C57.3688 118.897 57.2938 118.857 57.2121 118.839L55.9713 118.557L57.2497 118.181C57.3285 118.158 57.3995 118.114 57.4552 118.054C57.5108 117.993 57.549 117.919 57.5656 117.839L57.8513 116.406L58.1709 117.827C58.1927 117.908 58.2366 117.982 58.2977 118.04C58.3587 118.097 58.4346 118.137 58.5168 118.154V118.154Z" fill="#E0E0E0"/>
<path d="M64.6495 143.305L65.894 143.564L64.6495 143.94C64.5717 143.963 64.5016 144.007 64.4466 144.066C64.3916 144.126 64.3539 144.199 64.3374 144.279L64.0291 145.764L63.6869 144.305C63.6665 144.224 63.6242 144.149 63.5645 144.09C63.5049 144.031 63.4301 143.99 63.3485 143.97L62.1077 143.688L63.3861 143.312C63.4653 143.29 63.5368 143.246 63.5925 143.186C63.6483 143.126 63.6862 143.051 63.702 142.97L63.9877 141.538L64.3073 142.959C64.3249 143.043 64.3666 143.121 64.4273 143.182C64.488 143.244 64.5652 143.286 64.6495 143.305V143.305Z" fill="#E0E0E0"/>
<path d="M34.3589 151.588L35.3816 151.803L34.3589 152.103C34.296 152.123 34.2392 152.158 34.1944 152.206C34.1495 152.255 34.118 152.314 34.1032 152.378L33.84 153.604L33.558 152.4C33.5415 152.334 33.5073 152.273 33.4589 152.225C33.4105 152.177 33.3499 152.142 33.2835 152.126L32.2683 151.904L33.3174 151.607C33.3826 151.588 33.4415 151.552 33.4879 151.502C33.5342 151.453 33.5662 151.391 33.5805 151.325L33.8137 150.148L34.0769 151.318C34.0945 151.384 34.1302 151.445 34.1799 151.492C34.2297 151.54 34.2916 151.573 34.3589 151.588Z" fill="#E0E0E0"/>
<path d="M102.336 163.203L103.359 163.417L102.336 163.714C102.272 163.734 102.215 163.77 102.171 163.819C102.126 163.868 102.094 163.928 102.08 163.992L101.824 165.214L101.543 164.015C101.526 163.948 101.492 163.888 101.443 163.839C101.395 163.791 101.334 163.757 101.268 163.74L100.245 163.507L101.294 163.214C101.359 163.195 101.417 163.158 101.463 163.109C101.508 163.059 101.54 162.998 101.554 162.932L101.791 161.755L102.054 162.924C102.07 162.993 102.105 163.055 102.155 163.104C102.205 163.153 102.268 163.187 102.336 163.203V163.203Z" fill="#E0E0E0"/>
<path d="M75.1436 92.2931L76.1663 92.5111L75.1436 92.8082C75.0802 92.8279 75.0232 92.864 74.9783 92.9129C74.9334 92.9617 74.9022 93.0216 74.8879 93.0864L74.6322 94.3084L74.3502 93.109C74.3338 93.0426 74.2995 92.982 74.2512 92.9336C74.2028 92.8852 74.1421 92.851 74.0758 92.8345L73.053 92.6014L74.1021 92.3043C74.1673 92.2855 74.2263 92.2493 74.2726 92.1997C74.3189 92.15 74.351 92.0887 74.3653 92.0223L74.5984 90.8455L74.8616 92.0148C74.8781 92.0829 74.9132 92.1449 74.963 92.1941C75.0128 92.2433 75.0754 92.2775 75.1436 92.2931Z" fill="#E0E0E0"/>
<path d="M169.847 125.761L170.869 125.979L169.847 126.276C169.783 126.296 169.726 126.332 169.681 126.381C169.636 126.429 169.605 126.489 169.591 126.554L169.335 127.776L169.053 126.577C169.037 126.51 169.002 126.449 168.953 126.401C168.904 126.352 168.842 126.318 168.775 126.302L167.756 126.069L168.805 125.772C168.87 125.755 168.93 125.72 168.975 125.671C169.021 125.622 169.052 125.56 169.065 125.494L169.301 124.313L169.565 125.483C169.581 125.551 169.616 125.613 169.666 125.662C169.716 125.711 169.778 125.745 169.847 125.761Z" fill="#E0E0E0"/>
<path d="M152.904 96.3724L153.927 96.5867L152.904 96.8875C152.841 96.9069 152.785 96.9424 152.74 96.9906C152.695 97.0388 152.663 97.0979 152.648 97.162L152.393 98.3878L152.111 97.1846C152.094 97.1177 152.059 97.0567 152.01 97.0083C151.961 96.9599 151.9 96.9259 151.833 96.9101L150.814 96.6807L151.863 96.3837C151.927 96.3643 151.985 96.3278 152.031 96.2782C152.077 96.2286 152.108 96.1676 152.122 96.1017L152.359 94.9248L152.622 96.0942C152.639 96.1622 152.674 96.2243 152.724 96.2734C152.773 96.3226 152.836 96.3569 152.904 96.3724Z" fill="#E0E0E0"/>
<path d="M117.688 39.8973L118.707 40.1154L117.688 40.4124C117.625 40.4321 117.568 40.4682 117.523 40.5171C117.478 40.566 117.447 40.6258 117.432 40.6907L117.177 41.9127L116.895 40.7132C116.878 40.6464 116.843 40.5854 116.794 40.537C116.745 40.4886 116.684 40.4546 116.616 40.4387L115.594 40.2056L116.647 39.9086C116.711 39.8892 116.769 39.8527 116.815 39.8031C116.861 39.7535 116.892 39.6925 116.906 39.6266L117.139 38.4497L117.406 39.6191C117.423 39.6871 117.458 39.7492 117.507 39.7983C117.557 39.8475 117.62 39.8818 117.688 39.8973V39.8973Z" fill="#E0E0E0"/>
<path d="M75.17 147.595L77.238 148.035L75.17 148.637C75.0409 148.675 74.9246 148.748 74.8333 148.848C74.7421 148.947 74.6791 149.069 74.6511 149.201L74.1323 151.675L73.5607 149.246C73.5284 149.111 73.4593 148.987 73.3611 148.889C73.2629 148.791 73.1394 148.722 73.0043 148.689L70.9325 148.219L73.0607 147.618C73.1923 147.58 73.3113 147.508 73.4047 147.407C73.4982 147.307 73.5625 147.184 73.5908 147.05L74.0646 144.666L74.5985 147.035C74.6314 147.173 74.7024 147.298 74.8035 147.397C74.9046 147.496 75.0317 147.565 75.17 147.595Z" fill="#E0E0E0"/>
<path d="M79.5428 102.558L81.6108 102.994L79.5428 103.599C79.4141 103.638 79.2982 103.71 79.2069 103.809C79.1157 103.907 79.0525 104.028 79.0239 104.16L78.5088 106.637L77.9373 104.205C77.904 104.07 77.8341 103.947 77.7352 103.849C77.6363 103.752 77.5123 103.683 77.377 103.652L75.309 103.182L77.4372 102.58C77.5686 102.542 77.6871 102.469 77.7799 102.368C77.8727 102.267 77.9362 102.143 77.9636 102.009L78.4373 99.625L78.9713 101.994C79.0035 102.132 79.0743 102.259 79.1754 102.358C79.2766 102.458 79.404 102.527 79.5428 102.558Z" fill="#E0E0E0"/>
<path d="M108.408 27.3878L110.476 27.8239L108.408 28.4293C108.279 28.4676 108.161 28.5402 108.069 28.6394C107.977 28.7387 107.914 28.861 107.886 28.9933L107.371 31.4674L106.784 29.0347C106.751 28.8998 106.681 28.7767 106.582 28.6792C106.483 28.5816 106.359 28.5133 106.224 28.4819L104.156 28.0119L106.284 27.4103C106.415 27.3723 106.533 27.2994 106.626 27.1994C106.719 27.0994 106.782 26.9761 106.81 26.8426L107.284 24.4587L107.822 26.8238C107.855 26.9642 107.928 27.092 108.032 27.192C108.136 27.292 108.267 27.3599 108.408 27.3878V27.3878Z" fill="#E0E0E0"/>
<path d="M167.609 78.3736L171.163 79.1256L167.609 80.1633C167.387 80.228 167.186 80.3521 167.028 80.5224C166.87 80.6926 166.762 80.9025 166.715 81.1296L165.816 85.3822L164.846 81.2161C164.79 80.9836 164.67 80.7712 164.5 80.6031C164.33 80.435 164.117 80.3179 163.883 80.2648L160.33 79.4564L163.985 78.4262C164.211 78.3617 164.416 78.236 164.576 78.0628C164.736 77.8897 164.845 77.6759 164.891 77.4448L165.707 73.3464L166.628 77.4148C166.684 77.6513 166.805 77.8671 166.979 78.037C167.153 78.2068 167.372 78.3235 167.609 78.3736V78.3736Z" fill="#E0E0E0"/>
<path d="M60.1073 18.7849H26.8426V53.4634H60.1073V18.7849Z" fill="#E0E0E0"/>
<path d="M57.8513 18.7849H24.5866V53.4634H57.8513V18.7849Z" fill="#FAFAFA"/>
<path d="M57.8626 53.471H24.5791V18.7737H57.8626V53.471ZM24.5979 53.4522H57.8438V18.8H24.5979V53.4522Z" fill="#E0E0E0"/>
<path d="M53.3845 23.4475H29.061V48.8012H53.3845V23.4475Z" fill="#FAFAFA"/>
<path d="M29.0611 48.9702C28.8868 49.2236 28.6851 49.4568 28.4595 49.6658C28.0835 50.0757 27.527 50.6321 26.9141 51.2337C26.3013 51.8353 25.741 52.3617 25.3237 52.7565C25.1145 52.9793 24.8783 53.1751 24.6205 53.3393C24.7947 53.0858 24.9951 52.8514 25.2184 52.64C25.5944 52.2301 26.1546 51.6774 26.7675 51.0721C27.3804 50.4667 27.9444 49.9441 28.3617 49.5493C28.57 49.3281 28.805 49.1336 29.0611 48.9702V48.9702Z" fill="#E0E0E0"/>
<path d="M53.392 48.9065C53.6482 49.0785 53.883 49.2805 54.0914 49.5081C54.5012 49.8841 55.0577 50.4406 55.6593 51.0535C56.2609 51.6663 56.7873 52.2266 57.1633 52.6402C57.3858 52.8507 57.5826 53.0867 57.7499 53.3433C57.4942 53.175 57.2605 52.9754 57.0543 52.7492C56.6444 52.3732 56.0879 51.813 55.4863 51.2001C54.8847 50.5872 54.3583 50.0194 53.9598 49.6058C53.744 49.3956 53.5534 49.1609 53.392 48.9065V48.9065Z" fill="#E0E0E0"/>
<path d="M53.3168 23.5151C53.4881 23.2594 53.6887 23.0247 53.9146 22.8157C54.2906 22.4059 54.8508 21.8531 55.4637 21.2478C56.0766 20.6424 56.6369 20.1198 57.0505 19.7438C57.259 19.5192 57.4953 19.3221 57.7536 19.1572C57.5824 19.4084 57.3802 19.6371 57.152 19.8378C56.776 20.2476 56.2157 20.8041 55.6029 21.4095C54.99 22.0148 54.426 22.5375 54.0124 22.9323C53.8041 23.1531 53.5707 23.3487 53.3168 23.5151Z" fill="#E0E0E0"/>
<path d="M28.9934 23.5752C28.7377 23.4039 28.503 23.2033 28.294 22.9774C27.8842 22.6014 27.3314 22.0412 26.7298 21.4283C26.1282 20.8154 25.6018 20.2551 25.2258 19.8415C25.0051 19.6294 24.8084 19.3936 24.6393 19.1384C24.8955 19.3074 25.1293 19.5083 25.3349 19.7363C25.7447 20.1123 26.3012 20.6725 26.9066 21.2854C27.5119 21.8983 28.0346 22.4623 28.4106 22.8759C28.6316 23.0853 28.8273 23.32 28.9934 23.5752V23.5752Z" fill="#E0E0E0"/>
<path d="M53.3168 48.8009C53.314 48.7596 53.314 48.7181 53.3168 48.6768C53.3168 48.5903 53.3168 48.4738 53.3168 48.3234C53.3168 48.0038 53.3168 47.5488 53.3168 46.9547C53.3168 45.7515 53.3168 44.0069 53.2905 41.7885C53.2905 37.3479 53.2642 31.0199 53.2454 23.4472L53.3394 23.5412H29.0836L29.1889 23.4359C29.1889 32.7419 29.1889 41.4463 29.1889 48.7896L29.0987 48.6956L46.6616 48.7445L51.5947 48.7671H52.8995H53.2341H53.3544H53.2454H52.9183H51.6323L46.718 48.7934L29.0611 48.8799H28.952V48.7896C28.952 41.4463 28.952 32.7419 28.952 23.4359V23.3269H29.0611H53.3168H53.4108V23.4209C53.3883 31.0199 53.3732 37.3667 53.3619 41.8223C53.3619 44.0295 53.3619 45.7703 53.3356 46.966C53.3356 47.5526 53.3356 48.0038 53.3356 48.3159C53.3356 48.4625 53.3356 48.5791 53.3356 48.6618C53.3356 48.7445 53.3168 48.8009 53.3168 48.8009Z" fill="#E0E0E0"/>
<path d="M45.2779 32.0652H37.1638V40.1793H45.2779V32.0652Z" fill="#EBEBEB"/>
<path d="M60.0773 62.0964H26.8126V96.7749H60.0773V62.0964Z" fill="#E0E0E0"/>
<path d="M57.8213 62.0964H24.5566V96.7749H57.8213V62.0964Z" fill="#FAFAFA"/>
<path d="M57.8363 96.7861H24.5491V62.0889H57.8363V96.7861ZM24.5679 96.7636H57.8138V62.1077H24.5679V96.7636Z" fill="#E0E0E0"/>
<path d="M53.3544 66.7588H29.031V92.1125H53.3544V66.7588Z" fill="#FAFAFA"/>
<path d="M29.0311 92.2817C28.8576 92.5368 28.6558 92.7714 28.4295 92.9811C28.0535 93.3909 27.497 93.9437 26.8841 94.549C26.2712 95.1544 25.711 95.677 25.2936 96.053C25.0825 96.2748 24.8465 96.4716 24.5905 96.6396C24.7646 96.3907 24.9665 96.1624 25.1921 95.959C25.5681 95.5492 26.1284 94.9927 26.7412 94.3873C27.3541 93.782 27.9181 93.2593 28.3355 92.8645C28.5437 92.6437 28.7772 92.4481 29.0311 92.2817V92.2817Z" fill="#E0E0E0"/>
<path d="M53.3506 92.2214C53.6073 92.3913 53.8422 92.5921 54.0499 92.8193C54.4598 93.1953 55.0163 93.7555 55.6179 94.3646C56.2195 94.9737 56.7459 95.5415 57.1219 95.9551C57.3464 96.1637 57.5435 96.3999 57.7084 96.6582C57.4542 96.4865 57.2208 96.2859 57.0128 96.0604C56.603 95.6844 56.0465 95.1241 55.4449 94.5113C54.8433 93.8984 54.3169 93.3344 53.9183 92.9208C53.7036 92.7096 53.5131 92.475 53.3506 92.2214V92.2214Z" fill="#E0E0E0"/>
<path d="M53.2867 66.8266C53.4588 66.5727 53.6594 66.3393 53.8846 66.131C54.2606 65.7212 54.8208 65.1647 55.4337 64.5631C56.0466 63.9615 56.6068 63.4351 57.0204 63.0403C57.2305 62.8185 57.4666 62.6229 57.7235 62.4575C57.5526 62.7112 57.3519 62.9434 57.1257 63.1494C56.7497 63.5592 56.1895 64.1157 55.5766 64.721C54.9637 65.3264 54.3997 65.849 53.9861 66.2438C53.778 66.4663 53.5431 66.6621 53.2867 66.8266Z" fill="#E0E0E0"/>
<path d="M28.9521 66.8904C28.697 66.7169 28.4624 66.515 28.2527 66.2888C27.8429 65.9128 27.2902 65.3563 26.6886 64.7434C26.087 64.1305 25.5681 63.5703 25.1921 63.168C24.9703 62.9568 24.7735 62.7209 24.6055 62.4648C24.8595 62.6369 25.0929 62.8375 25.3011 63.0627C25.711 63.4387 26.2674 63.9989 26.8728 64.6118C27.4782 65.2247 28.0008 65.7887 28.3768 66.206C28.5957 66.4099 28.7889 66.6397 28.9521 66.8904V66.8904Z" fill="#E0E0E0"/>
<path d="M53.2867 92.1198C53.2835 92.0798 53.2835 92.0396 53.2867 91.9995C53.2867 91.913 53.2867 91.7965 53.2867 91.6423C53.2867 91.3265 53.2867 90.8678 53.2867 90.2737C53.2867 89.0742 53.2867 87.3258 53.2604 85.1074C53.2604 80.6669 53.2341 74.3426 53.2153 66.7662L53.3093 66.8602H29.0535L29.1588 66.7511C29.1588 76.0571 29.1588 84.7653 29.1588 92.1048L29.0686 92.0146L46.6315 92.0597L51.5647 92.086H52.8694H53.3244C53.2881 92.0895 53.2516 92.0895 53.2153 92.086H52.8882H51.6023L46.6879 92.1086L29.0686 92.1574H28.952V92.1198C28.952 84.7803 28.952 76.0722 28.952 66.7662V66.6609H29.0611H53.3168H53.392V66.7549C53.3695 74.3538 53.3544 80.7007 53.3431 85.1563C53.3431 87.3672 53.3244 89.1081 53.3168 90.3038C53.3168 90.8903 53.3168 91.3415 53.3168 91.6536C53.3168 91.8002 53.3168 91.913 53.3168 91.9958C53.3093 92.0377 53.2992 92.0791 53.2867 92.1198V92.1198Z" fill="#E0E0E0"/>
<path d="M45.2516 75.3804H37.1338V83.4944H45.2516V75.3804Z" fill="#EBEBEB"/>
<path d="M146.238 65.6007C142.253 65.7969 138.31 64.714 134.984 62.51L126.712 64.5253L130.314 58.1333C127.791 54.7786 126.463 50.6759 126.542 46.4791C126.622 42.2822 128.103 38.2325 130.751 34.9753C133.398 31.718 137.06 29.4405 141.152 28.5056C145.244 27.5708 149.532 28.0323 153.331 29.8168C157.131 31.6012 160.224 34.6059 162.117 38.3521C164.011 42.0982 164.596 46.3704 163.78 50.488C162.965 54.6055 160.794 58.3316 157.615 61.0724C154.436 63.8133 150.43 65.4114 146.238 65.612V65.6007Z" fill="white"/>
<path d="M146.238 65.6008C146.238 65.6008 146.35 65.582 146.565 65.5594L147.524 65.4542C147.734 65.4278 147.971 65.4128 148.231 65.3714L149.069 65.1947C149.374 65.1308 149.701 65.0706 150.047 64.9879L151.133 64.6458C152.996 64.0476 154.75 63.1511 156.326 61.9912C156.565 61.8263 156.793 61.6467 157.01 61.4535L157.706 60.8782C157.942 60.6793 158.167 60.4671 158.379 60.2428L159.052 59.5622C159.492 59.0885 159.894 58.5583 160.334 58.0357L160.913 57.1746C161.12 56.8868 161.31 56.5867 161.481 56.276C161.851 55.6407 162.182 54.9826 162.47 54.3058C162.615 53.9598 162.762 53.6102 162.91 53.2567L163.255 52.1475C163.312 51.9595 163.372 51.7715 163.432 51.5835C163.492 51.3955 163.515 51.2075 163.556 51.0007C163.635 50.6247 163.718 50.2149 163.797 49.8126C163.876 49.4102 163.887 49.0004 163.932 48.5906C163.955 48.3838 163.977 48.177 163.996 47.9702C164.015 47.7634 163.996 47.549 163.996 47.3385V46.0638C163.977 45.6352 163.917 45.2066 163.88 44.7704C163.857 44.5561 163.838 44.338 163.816 44.1199C163.793 43.9018 163.733 43.6875 163.692 43.4694C163.601 43.037 163.511 42.5971 163.421 42.1572C162.933 40.3742 162.205 38.6654 161.259 37.0774C160.231 35.4313 158.964 33.9474 157.499 32.6745C157.123 32.3662 156.747 32.024 156.33 31.7382L155.077 30.8922C154.641 30.6403 154.186 30.4072 153.739 30.1402C153.626 30.0838 153.517 30.0162 153.401 29.9635L153.047 29.8131L152.336 29.5123C148.357 27.8841 143.934 27.6966 139.831 28.9822L139.237 29.1664L138.94 29.2566L138.65 29.3769L137.522 29.8582L137.24 29.9823L136.969 30.1289L136.424 30.4222C136.057 30.6132 135.702 30.8254 135.36 31.0577L134.349 31.7382C134.01 31.9638 133.717 32.2458 133.397 32.4902C131.306 34.207 129.618 36.3635 128.454 38.8063C127.29 41.2491 126.679 43.9182 126.663 46.6241V47.707C126.686 48.083 126.701 48.4251 126.742 48.7786C126.811 49.4803 126.923 50.1773 127.077 50.8654C127.649 53.4765 128.775 55.9344 130.378 58.0733L130.412 58.1146L130.386 58.1635L126.776 64.5555L126.693 64.4502L134.965 62.4499H134.984H135.007C136.399 63.3782 137.909 64.1179 139.496 64.6495C140.676 65.0382 141.891 65.3115 143.124 65.4654C143.892 65.5536 144.664 65.6013 145.437 65.6083H146.031H146.234H146.035L145.437 65.6309C144.662 65.639 143.887 65.6013 143.117 65.5181C140.196 65.1858 137.394 64.1694 134.939 62.5514H134.984L126.712 64.5818L126.55 64.6194L126.633 64.4766C127.761 62.4875 128.942 60.3406 130.228 58.0846V58.171C128.604 56.0166 127.464 53.5377 126.885 50.903C126.729 50.2086 126.614 49.5055 126.543 48.7974C126.501 48.4402 126.483 48.0792 126.46 47.7182C126.438 47.3573 126.46 46.9888 126.46 46.6203C126.475 41.9347 128.265 37.4287 131.468 34.0093C132.03 33.4136 132.629 32.8547 133.262 32.3361C133.582 32.0842 133.879 31.7984 134.221 31.5841L135.243 30.8922C135.589 30.6658 135.947 30.4587 136.315 30.2718L136.864 29.9748L137.139 29.8244L137.424 29.7041L138.579 29.2153L138.872 29.0949L139.173 29.0009L139.774 28.8167C141.864 28.1727 144.049 27.8916 146.234 27.9857C148.353 28.1 150.439 28.5624 152.408 29.3544L153.126 29.6589L153.483 29.8093C153.604 29.8657 153.713 29.9334 153.825 29.9936C154.28 30.2417 154.735 30.4786 155.179 30.7456L156.442 31.5841C156.86 31.8736 157.228 32.2195 157.623 32.5316C159.108 33.8147 160.39 35.3142 161.428 36.9797C162.383 38.5841 163.115 40.3107 163.605 42.1121L163.876 43.4356C163.917 43.6537 163.974 43.8718 164 44.0898C164.026 44.3079 164.041 44.5298 164.064 44.7478C164.101 45.1878 164.162 45.6202 164.177 46.0526C164.192 46.485 164.177 46.9136 164.177 47.3385C164.177 47.5528 164.177 47.7634 164.177 47.9739L164.109 48.6018C164.06 49.0154 164.034 49.429 163.97 49.8351C163.906 50.2412 163.804 50.636 163.722 51.0308C163.68 51.2263 163.646 51.4256 163.594 51.6174C163.541 51.8091 163.477 51.9934 163.417 52.1851C163.301 52.5611 163.18 52.9371 163.067 53.3131L162.62 54.3697C162.328 55.0508 161.992 55.7127 161.616 56.3512C161.443 56.6632 161.25 56.9645 161.041 57.2536C160.842 57.5431 160.665 57.8326 160.454 58.1184C160.011 58.641 159.604 59.1787 159.161 59.6525L158.477 60.333C158.264 60.5605 158.036 60.774 157.796 60.9722L157.097 61.5475C156.878 61.7417 156.647 61.9213 156.405 62.0852C154.814 63.2406 153.047 64.1296 151.171 64.7172L150.08 65.0481C149.731 65.1308 149.4 65.1872 149.095 65.2511L148.253 65.4166C147.994 65.4579 147.757 65.4654 147.542 65.488L146.58 65.5745C146.351 65.597 146.238 65.6008 146.238 65.6008Z" fill="#373842"/>
<path d="M146.862 37.897C147.035 37.1262 147.027 36.284 147.463 35.641C147.68 35.3165 147.989 35.0652 148.351 34.9204C148.713 34.7756 149.11 34.7441 149.491 34.8301C149.871 34.9161 150.216 35.1155 150.48 35.402C150.745 35.6885 150.916 36.0485 150.972 36.4344C151.092 37.3217 150.596 38.2091 150.731 39.0927C150.821 39.4885 151.004 39.8569 151.266 40.1671C151.527 40.4772 151.86 40.72 152.235 40.8749C152.729 41.1717 153.273 41.3768 153.84 41.4803C153.889 41.4803 153.942 41.4803 153.991 41.5028C154.559 41.5918 155.08 41.8706 155.469 42.2937C155.857 42.7169 156.092 43.2593 156.133 43.8326C156.174 44.4059 156.019 44.9761 155.694 45.4503C155.37 45.9245 154.894 46.2746 154.344 46.4435C153.434 46.7292 152.19 46.6503 151.836 47.5339C151.528 48.3084 152.254 49.0755 152.882 49.6207C153.51 50.1659 154.179 51.0232 153.758 51.7451C153.442 52.2865 152.69 52.3692 152.066 52.2828C151.442 52.1963 150.791 52.012 150.208 52.2414C149.419 52.5535 149.08 53.4935 149.028 54.3395C148.975 55.1855 149.088 56.0578 148.798 56.8549C148.509 57.652 147.588 58.3213 146.828 57.9453C145.553 57.3136 146.384 54.8884 145.117 54.238C144.482 53.9071 143.696 54.2868 143.185 54.7907C142.673 55.2945 142.282 55.9187 141.681 56.2947C141.317 56.5139 140.897 56.6221 140.473 56.6061C140.048 56.5901 139.638 56.4506 139.292 56.2047C138.946 55.9587 138.679 55.617 138.524 55.2216C138.369 54.8261 138.333 54.3941 138.421 53.9785C138.575 53.2265 139.094 52.6437 139.447 51.9782C139.801 51.3127 139.951 50.4178 139.447 49.8688C138.714 49.0868 137.409 49.6658 136.341 49.5154C135.025 49.3274 134.142 47.8234 134.416 46.5074C134.691 45.1914 135.898 44.2251 137.206 43.9807C137.924 43.8453 138.673 43.9017 139.387 43.74C140.101 43.5784 140.827 43.1159 140.966 42.3977C141.143 41.4577 140.271 40.6568 140.056 39.7244C139.963 39.3193 139.998 38.8954 140.156 38.511C140.314 38.1266 140.588 37.8007 140.939 37.5784C141.29 37.356 141.701 37.248 142.116 37.2694C142.531 37.2908 142.93 37.4404 143.256 37.6977C144.008 38.2843 144.44 39.4424 145.395 39.4649C146.151 39.48 146.689 38.664 146.862 37.897Z" fill="#FDAA46"/>
<path d="M136.736 48.4252C136.736 48.4478 136.511 48.4252 136.202 48.2673C135.797 48.0424 135.492 47.672 135.349 47.231C135.206 46.7899 135.235 46.3111 135.431 45.891C135.578 45.5751 135.751 45.436 135.766 45.451C135.781 45.4661 135.665 45.6353 135.559 45.9436C135.416 46.3383 135.408 46.7698 135.538 47.1691C135.669 47.5685 135.929 47.9127 136.277 48.147C136.544 48.335 136.744 48.3951 136.736 48.4252Z" fill="white"/>
<path d="M139.943 55.7532C139.925 55.7532 139.808 55.6592 139.684 55.4299C139.534 55.1261 139.463 54.7895 139.477 54.4511C139.492 54.1126 139.591 53.7833 139.767 53.4935C139.906 53.2754 140.034 53.1776 140.049 53.1927C139.849 53.5893 139.722 54.0184 139.673 54.4598C139.686 54.9035 139.778 55.3413 139.943 55.7532V55.7532Z" fill="white"/>
<path d="M140.413 50.7036C140.357 50.7036 140.361 50.4028 140.278 50.0606C140.195 49.7185 140.068 49.4553 140.113 49.4252C140.158 49.3951 140.38 49.632 140.466 50.0155C140.553 50.399 140.466 50.7111 140.413 50.7036Z" fill="white"/>
<path d="M147.121 56.9377C147.069 56.9377 146.96 56.6933 146.877 56.3587C146.794 56.024 146.775 55.7458 146.824 55.7345C146.873 55.7232 146.986 55.9827 147.069 56.3135C147.151 56.6444 147.174 56.9264 147.121 56.9377Z" fill="white"/>
<path d="M141.455 41.0894C141.455 41.0894 141.301 40.9916 141.147 40.751C140.956 40.4329 140.837 40.0762 140.801 39.7069C140.765 39.3375 140.811 38.9647 140.936 38.6153C141.041 38.3484 141.15 38.213 141.169 38.2393C141.037 38.7151 140.977 39.2083 140.993 39.702C141.075 40.1853 141.231 40.6533 141.455 41.0894V41.0894Z" fill="white"/>
<path d="M130.916 34.3704L130.441 34.9631L159.744 58.4393L160.219 57.8466L130.916 34.3704Z" fill="#373842"/>
<path d="M80.8175 135.672L75.373 145.305L82.9795 152.961L90.9469 144.316L80.8175 135.672Z" fill="#FFBE9D"/>
<path d="M33.84 165.936L44.1461 165.692C44.1461 165.692 49.5417 162.421 49.9666 162.176C50.3915 161.932 52.8468 161.424 52.8468 161.424L69.184 166.542V168.046H30.9297V166.906L32.6894 166.722L33.84 165.936Z" fill="#E0E0E0"/>
<path d="M75.9708 143.941C75.6625 143.892 66.9919 157.405 66.9919 157.405L56.6331 159.304L45.1501 165.696C45.1501 165.696 44.8906 166.993 46.1878 167.08C47.485 167.166 54.4598 164.072 54.4598 164.072C54.4598 164.072 52.0722 165.233 52.5272 166.73C53.0611 168.486 57.5656 167.106 57.5656 167.106L67.1874 166.482C67.6292 166.453 68.0601 166.332 68.4519 166.126C68.8438 165.92 69.1881 165.634 69.4622 165.286L70.688 163.737L84.1563 153.032C84.1563 153.032 82.9644 144.975 75.9708 143.941Z" fill="#FDAA46"/>
<path d="M60.6112 162.146C60.5474 162.239 60.4701 162.321 60.3819 162.391C60.1555 162.594 59.9156 162.781 59.6637 162.951C59.2888 163.207 58.8865 163.42 58.4643 163.586C57.9423 163.782 57.393 163.895 56.8362 163.921C56.2928 163.933 55.7505 163.976 55.2119 164.049C54.7855 164.152 54.3756 164.314 53.9936 164.53C53.3281 164.906 52.9859 165.226 52.9634 165.199C52.9408 165.173 53.0273 165.098 53.189 164.951C53.4171 164.75 53.6625 164.569 53.9222 164.41C54.3103 164.169 54.7324 163.988 55.1743 163.872C55.7194 163.787 56.2695 163.738 56.8211 163.726C57.8054 163.674 58.7592 163.367 59.5885 162.834C60.2315 162.432 60.5887 162.12 60.6112 162.146Z" fill="#373842"/>
<path d="M68.3681 160.552C68.3155 160.552 68.1876 159.8 67.7627 158.943C67.4775 158.44 67.2201 157.921 66.9919 157.39C67.3876 157.824 67.7078 158.321 67.9395 158.86C68.2349 159.374 68.3832 159.959 68.3681 160.552V160.552Z" fill="#373842"/>
<path d="M70.9776 161.364C70.7478 161.259 70.537 161.117 70.3534 160.943C69.4172 160.161 68.6736 159.175 68.1801 158.059C68.0623 157.834 67.9823 157.592 67.9432 157.341C68.3373 158.088 68.7755 158.812 69.2555 159.507C69.7911 160.161 70.3662 160.781 70.9776 161.364V161.364Z" fill="#373842"/>
<path d="M74.1509 158.578C74.1169 158.469 74.0991 158.355 74.0983 158.24C74.0983 158.022 74.0607 157.706 74.0569 157.315C74.043 156.294 74.1121 155.275 74.2637 154.265C74.4173 153.255 74.6499 152.258 74.9593 151.284C75.0797 150.908 75.1887 150.615 75.2752 150.411C75.3078 150.303 75.3573 150.2 75.4218 150.107C75.3348 150.519 75.2256 150.925 75.0947 151.325C74.548 153.277 74.2461 155.289 74.196 157.315C74.2034 157.736 74.1884 158.158 74.1509 158.578V158.578Z" fill="#373842"/>
<g opacity="0.3">
<path opacity="0.3" d="M75.0647 151.351C74.3276 153.418 74.0293 155.615 74.1886 157.803C74.9009 155.731 75.1986 153.539 75.0647 151.351V151.351Z" fill="black"/>
</g>
<path d="M118.861 172.938L119.944 164.312L160.977 141.493C160.977 141.493 166.993 151.22 169.294 172.945L140.462 172.81L118.861 172.938Z" fill="#373842"/>
<path d="M97.132 88.5893L91.8981 94.4098L91.0333 105.998L101.103 126.644L112.65 150.949C113.601 153.036 114.56 157.845 113.883 160.578C113.883 160.578 112.003 167.196 121.546 167.636C126.75 167.876 132.735 166.508 137.101 165.203L137.214 165.169C144.679 162.961 150.98 157.914 154.765 151.111L161.462 141.865C159.98 136.101 157.702 137.672 156.803 135.495C152.472 125.039 148.907 117.485 148.907 117.485L134.559 84.427C132.412 79.5728 129.705 77.7944 126.55 77.016C124.211 76.4546 121.772 76.4623 119.436 77.0386L112.386 78.7344L97.132 88.5893Z" fill="#455A64"/>
<path d="M91.5561 148.456C94.4964 145.072 99.2641 121.741 99.2641 121.741L91.8982 94.4099C91.8982 94.4099 88.4917 98.2865 87.4351 101.994L81.2612 134.657C81.2612 134.657 79.0052 135.127 79.0278 138.59C79.0315 140.921 91.5561 148.456 91.5561 148.456Z" fill="#455A64"/>
<path d="M104.735 134.168C104.682 134.095 104.635 134.017 104.596 133.935L104.22 133.251L102.907 130.713C101.81 128.543 100.306 125.584 98.6474 122.313L94.4512 113.887L93.1954 111.322C93.0563 111.033 92.9472 110.8 92.8645 110.623C92.8202 110.543 92.7849 110.459 92.7592 110.371C92.8129 110.444 92.8595 110.522 92.8983 110.604L93.2743 111.289L94.5866 113.827C95.6845 115.992 97.1885 118.955 98.8467 122.23L103.058 130.656L104.314 133.221C104.449 133.51 104.558 133.743 104.645 133.92C104.684 133.999 104.714 134.082 104.735 134.168V134.168Z" fill="#373842"/>
<path d="M156.66 137.767C156.641 137.874 156.612 137.98 156.574 138.082L156.288 138.977L156.078 139.624C155.995 139.861 155.893 140.109 155.788 140.376C155.574 140.917 155.356 141.542 155.036 142.2C154.886 142.534 154.728 142.884 154.566 143.249C154.404 143.613 154.19 143.974 154.006 144.358C153.63 145.132 153.156 145.918 152.671 146.757C150.502 150.356 147.792 153.6 144.636 156.375C143.884 156.999 143.203 157.608 142.511 158.116C142.166 158.371 141.846 158.635 141.519 158.868C141.192 159.101 140.872 159.308 140.571 159.518C139.977 159.943 139.402 160.27 138.909 160.579C138.661 160.729 138.432 160.872 138.218 160.996L137.616 161.304L136.785 161.744C136.689 161.798 136.59 161.845 136.488 161.887C136.575 161.82 136.668 161.761 136.766 161.71L137.578 161.237L138.165 160.902C138.379 160.774 138.605 160.624 138.849 160.469C139.334 160.154 139.902 159.819 140.489 159.387L141.425 158.729C141.748 158.499 142.068 158.236 142.406 157.977C143.094 157.465 143.779 156.849 144.512 156.232C147.641 153.456 150.337 150.228 152.513 146.655C152.998 145.824 153.476 145.042 153.855 144.275C154.051 143.899 154.254 143.523 154.423 143.173L154.908 142.136C155.228 141.481 155.457 140.865 155.679 140.331C155.788 140.06 155.893 139.812 155.984 139.579L156.209 138.94L156.529 138.056C156.566 137.957 156.61 137.86 156.66 137.767V137.767Z" fill="#373842"/>
<g opacity="0.3">
<path opacity="0.3" d="M130.149 136.488C133.217 136.432 137.548 135.92 140.496 135.063C143.444 134.206 146.264 132.728 148.373 130.51C150.483 128.291 151.848 125.246 151.757 122.196C150.024 125.96 146.64 129.389 142.793 131.337C141.511 131.987 139.199 133.123 138.936 132.784L130.149 136.488Z" fill="black"/>
</g>
<path d="M116.801 131.679C117.334 131.089 130.453 121.279 130.453 121.279L141.21 132.668L123.125 140.308L116.801 131.679Z" fill="#FFBE9D"/>
<path d="M138.609 134.025C141.03 133.048 143.369 132.014 144.955 130.792C152.475 124.99 152.972 119.756 151.994 115.928C150.923 111.717 133.818 82.0883 131.931 80.182C130.043 78.2757 124.08 75.2225 118.12 82.0244C114.661 85.9761 121.538 97.1133 121.538 97.1133L133.758 118.5C130.318 117.917 128.746 121.448 128.746 121.448L138.609 134.025Z" fill="#455A64"/>
<path d="M129.006 122.362C128.993 122.32 128.984 122.277 128.979 122.234C128.892 121.619 128.964 120.992 129.19 120.414C129.519 119.707 130.109 119.156 130.837 118.876C131.766 118.509 132.765 118.353 133.762 118.421L133.687 118.542C132.438 116.372 130.95 113.77 129.344 110.976L123.79 101.2L122.125 98.2263C121.941 97.8841 121.794 97.6134 121.681 97.4104C121.628 97.3167 121.58 97.22 121.538 97.1208C121.606 97.2053 121.665 97.2959 121.715 97.3916C121.835 97.5871 121.993 97.8541 122.192 98.1887L123.911 101.133C125.355 103.641 127.329 107.085 129.517 110.886L133.826 118.47L133.901 118.598H133.751C132.778 118.526 131.801 118.669 130.889 119.015C130.185 119.274 129.607 119.794 129.276 120.467C129.083 120.907 128.987 121.384 128.994 121.865C128.994 122.2 129.017 122.362 129.006 122.362Z" fill="#373842"/>
<path d="M151.46 114.488C151.506 114.566 151.543 114.648 151.573 114.733C151.637 114.894 151.754 115.131 151.855 115.451C152.162 116.35 152.342 117.288 152.389 118.237C152.422 118.894 152.393 119.552 152.303 120.203C152.189 120.949 152.008 121.683 151.761 122.396C151.477 123.176 151.128 123.931 150.716 124.652C150.27 125.422 149.767 126.159 149.212 126.855C147.205 129.268 144.728 131.247 141.932 132.672C141.093 133.109 140.224 133.486 139.331 133.8C139.015 133.92 138.763 133.988 138.597 134.04C138.512 134.071 138.424 134.094 138.334 134.108C138.414 134.066 138.497 134.031 138.582 134.003C138.748 133.939 138.996 133.86 139.304 133.728C140.181 133.385 141.038 132.991 141.869 132.548C144.623 131.095 147.067 129.118 149.061 126.727C149.615 126.04 150.118 125.314 150.565 124.554C150.972 123.84 151.321 123.094 151.607 122.324C151.854 121.623 152.038 120.9 152.156 120.166C152.253 119.527 152.29 118.879 152.265 118.233C152.231 117.293 152.074 116.362 151.799 115.462C151.708 115.143 151.603 114.902 151.554 114.733C151.513 114.655 151.482 114.573 151.46 114.488V114.488Z" fill="#373842"/>
<g opacity="0.3">
<path opacity="0.3" d="M133.664 118.5C135.024 118.654 136.337 119.091 137.518 119.782C138.7 120.474 139.723 121.405 140.522 122.516C140.723 122.767 140.864 123.06 140.936 123.373C140.967 123.531 140.953 123.694 140.895 123.844C140.838 123.994 140.738 124.124 140.609 124.219C140.476 124.287 140.328 124.319 140.179 124.313C140.03 124.306 139.885 124.261 139.759 124.182C139.511 124.018 139.29 123.816 139.105 123.584C137.379 121.629 135.913 119.97 133.758 118.5" fill="black"/>
</g>
<path d="M140.323 125.892C140.293 125.892 140.041 125.404 139.571 124.622C138.978 123.602 138.295 122.638 137.529 121.741C136.753 120.856 135.883 120.056 134.935 119.358C134.209 118.82 133.724 118.53 133.743 118.5C133.868 118.545 133.988 118.603 134.1 118.673C134.326 118.794 134.638 118.989 135.018 119.245C136 119.919 136.893 120.715 137.676 121.614C138.454 122.516 139.13 123.502 139.691 124.554C139.906 124.956 140.067 125.287 140.165 125.52C140.233 125.637 140.286 125.762 140.323 125.892V125.892Z" fill="#373842"/>
<path d="M126.712 77.0275C125.704 77.0653 124.705 77.2373 123.742 77.5389C122.703 77.8808 121.729 78.3957 120.861 79.0617C119.789 79.8635 118.911 80.8962 118.292 82.0834C117.673 83.2706 117.329 84.5818 117.286 85.9199C117.232 87.0112 117.366 88.1036 117.681 89.1498C117.982 90.1136 118.414 91.0319 118.963 91.8795C118.963 91.8795 118.91 91.8269 118.827 91.7179C118.703 91.5574 118.588 91.3904 118.481 91.2178C118.083 90.586 117.77 89.9046 117.549 89.1911C117.212 88.1323 117.061 87.0228 117.105 85.9124C117.141 84.5455 117.488 83.2046 118.12 81.992C118.752 80.7794 119.652 79.7271 120.752 78.9151C121.641 78.2476 122.638 77.7388 123.7 77.4111C124.413 77.1913 125.151 77.0649 125.896 77.0351C126.159 77.0125 126.362 77.0351 126.501 77.0351C126.571 77.0245 126.642 77.022 126.712 77.0275Z" fill="#373842"/>
<path d="M95.3987 141.376L94.9324 140.459L93.8796 139.981C93.8796 139.981 89.3676 140.707 88.2697 142.583C87.1718 144.459 82.8252 151.156 83.0057 152.491C83.1862 153.825 84.3292 154.54 85.0963 154.254C85.8633 153.968 87.2808 152.107 87.2808 152.107L87.8862 152.028L95.0302 153.671L95.88 152.205L89.2248 149.753L92.8456 149.396L96.0153 146.012L95.3987 141.376Z" fill="#E0E0E0"/>
<path d="M102.174 152.697C101.963 153.316 101.907 153.978 102.01 154.623C102.114 155.269 102.374 155.879 102.768 156.401C103.942 157.946 105.69 160.372 107.337 162.53C108.623 164.211 117.278 168.662 121.956 170.99C122.832 171.428 123.84 171.529 124.786 171.273C125.732 171.017 126.552 170.423 127.088 169.602C128.752 167.07 130.074 164.329 131.021 161.451C131.322 160.525 131.275 159.521 130.888 158.628C130.502 157.734 129.803 157.012 128.923 156.597L108.788 147.099C108.279 146.859 107.725 146.728 107.163 146.717C106.6 146.705 106.042 146.813 105.523 147.032C105.005 147.252 104.539 147.578 104.156 147.99C103.772 148.402 103.48 148.89 103.299 149.422L102.174 152.697Z" fill="#E0E0E0"/>
<path d="M102.174 152.697C102.174 152.697 102.174 152.626 102.231 152.494L102.422 151.904C102.595 151.381 102.851 150.622 103.174 149.648C103.335 149.091 103.606 148.572 103.972 148.122C104.413 147.586 104.985 147.174 105.633 146.926C106.379 146.638 107.192 146.577 107.972 146.749C108.392 146.858 108.798 147.013 109.183 147.212L110.405 147.783L122.14 153.299L129.07 156.566C129.689 156.882 130.218 157.349 130.606 157.926C130.994 158.502 131.229 159.168 131.288 159.86C131.339 160.565 131.226 161.271 130.957 161.924C130.728 162.586 130.483 163.244 130.205 163.895C129.669 165.183 129.058 166.438 128.374 167.655C128.036 168.254 127.682 168.838 127.314 169.407C127.134 169.698 126.927 169.973 126.697 170.227C126.114 170.837 125.357 171.252 124.53 171.416C123.702 171.58 122.844 171.485 122.072 171.144C120.914 170.587 119.816 170.016 118.722 169.459C116.549 168.331 114.5 167.252 112.612 166.181C111.665 165.647 110.758 165.117 109.909 164.575C109.072 164.08 108.284 163.507 107.555 162.864C107.25 162.53 106.967 162.176 106.709 161.804C106.449 161.451 106.194 161.105 105.957 160.774C105.464 160.105 104.994 159.473 104.558 158.894C104.122 158.315 103.72 157.766 103.344 157.251C102.985 156.801 102.66 156.326 102.37 155.83C102.006 155.113 101.869 154.302 101.975 153.506C102.004 153.229 102.072 152.958 102.178 152.701C102.178 152.701 102.178 152.769 102.125 152.904C102.073 153.103 102.036 153.305 102.013 153.51C101.924 154.297 102.072 155.093 102.437 155.796C102.731 156.285 103.059 156.752 103.419 157.194L104.648 158.826L106.055 160.706L106.825 161.733C107.08 162.1 107.36 162.449 107.664 162.778C108.389 163.409 109.17 163.972 109.999 164.459C110.849 164.993 111.755 165.519 112.702 166.049C114.582 167.113 116.643 168.196 118.812 169.309C119.899 169.858 121.016 170.437 122.159 170.986C122.743 171.244 123.382 171.355 124.019 171.308C124.657 171.262 125.273 171.059 125.813 170.719C126.088 170.545 126.341 170.338 126.565 170.102C126.787 169.858 126.986 169.594 127.159 169.313C127.535 168.745 127.874 168.185 128.209 167.568C128.89 166.36 129.499 165.112 130.032 163.831C130.303 163.184 130.543 162.53 130.784 161.872C131.048 161.245 131.159 160.565 131.107 159.887C131.052 159.227 130.829 158.594 130.46 158.045C130.091 157.496 129.588 157.051 128.998 156.751L122.08 153.472L110.36 147.918L109.142 147.339C108.766 147.144 108.37 146.991 107.961 146.881C107.209 146.714 106.425 146.77 105.705 147.042C105.072 147.279 104.511 147.675 104.077 148.193C103.714 148.636 103.443 149.148 103.28 149.697C102.941 150.667 102.674 151.419 102.494 151.953C102.404 152.201 102.336 152.397 102.283 152.536C102.231 152.675 102.174 152.697 102.174 152.697Z" fill="#373842"/>
<path d="M94.2443 144.73C94.2443 144.73 94.7068 141.414 95.8386 141.079C96.9703 140.744 104.017 138.631 104.017 138.631L123.328 125.381L130.867 139.846L113.195 146.99C113.195 146.99 112.503 147.896 111.732 147.546C111.732 147.546 110.563 148.968 109.942 149.05C109.322 149.133 109.544 149.468 109.544 149.468C109.544 149.468 104.366 158.116 103.122 158.285C101.877 158.454 100.309 158.221 100.354 157.213C100.354 157.213 98.0231 158.059 97.2711 157.164C97.2711 157.164 95.4626 158.541 94.2857 157.067C93.9779 156.534 93.698 155.985 93.4472 155.423C93.4472 155.423 91.8831 157.36 90.4693 156.687C89.1232 156.044 89.424 153.961 90.161 152.686C90.8979 151.412 94.2443 144.73 94.2443 144.73Z" fill="#FDAA46"/>
<path d="M86.9801 152.558C86.95 152.558 86.841 152.367 86.6041 152.077C85.9951 151.328 85.1213 150.842 84.1638 150.72C83.9608 150.715 83.7584 150.695 83.5585 150.66C83.7552 150.586 83.9665 150.56 84.1751 150.584C84.6794 150.607 85.1717 150.746 85.6128 150.991C86.054 151.237 86.432 151.581 86.7169 151.998C86.8477 152.161 86.9379 152.353 86.9801 152.558Z" fill="#373842"/>
<path d="M93.0337 146.994C92.7383 147.269 92.4214 147.52 92.0862 147.746C91.4921 148.193 90.6649 148.798 89.8039 149.532C89.0654 150.154 88.3822 150.84 87.7622 151.581C87.2922 152.152 87.044 152.536 87.0102 152.521C87.0433 152.416 87.0928 152.317 87.1568 152.228C87.3072 151.973 87.4729 151.728 87.6532 151.494C88.2473 150.72 88.9243 150.012 89.6723 149.385C90.4162 148.758 91.1945 148.173 92.0035 147.633C92.3279 147.391 92.6725 147.177 93.0337 146.994V146.994Z" fill="#373842"/>
<path d="M109.724 162.192L115.289 151.6L125.332 156.187L118.782 167.749L109.724 162.192Z" fill="white"/>
<path d="M103.08 152.976C103.017 153.222 102.92 153.459 102.791 153.679C102.514 154.227 102.204 154.759 101.862 155.269C101.518 155.779 101.141 156.266 100.734 156.728C100.58 156.933 100.397 157.113 100.189 157.262C100.144 157.224 100.9 156.345 101.693 155.16C102.486 153.976 103.024 152.949 103.08 152.976Z" fill="#373842"/>
<path d="M99.3919 153.122C99.2243 153.886 98.9389 154.619 98.5459 155.296C98.2027 155.998 97.7538 156.643 97.2149 157.209C97.166 157.172 97.7714 156.326 98.373 155.202C98.9746 154.077 99.3355 153.104 99.3919 153.122Z" fill="#373842"/>
<path d="M95.2709 152.397C95.0849 152.965 94.8325 153.509 94.5189 154.017C94.2598 154.561 93.8896 155.043 93.4322 155.435C93.3946 155.397 93.8834 154.781 94.3496 153.931C94.8159 153.081 95.2145 152.367 95.2709 152.397Z" fill="#373842"/>
<path d="M109.22 146.903C109.22 146.956 107.164 146.452 104.656 145.775C102.148 145.098 100.144 144.504 100.144 144.455C100.144 144.407 102.2 144.907 104.708 145.583C107.216 146.26 109.235 146.851 109.22 146.903Z" fill="#373842"/>
<path d="M108.363 145.136C108.114 145.116 107.869 145.058 107.637 144.963C107.065 144.782 106.505 144.563 105.961 144.309C105.415 144.057 104.887 143.77 104.378 143.451C104.157 143.334 103.956 143.185 103.78 143.008C103.81 142.959 104.78 143.549 106.036 144.136C107.292 144.722 108.378 145.061 108.363 145.136Z" fill="#373842"/>
<g opacity="0.3">
<path opacity="0.3" d="M111.728 146.452C111.642 146.286 111.585 146.117 111.503 145.948C110.615 144.144 109.352 142.551 107.799 141.274C107.656 141.158 107.464 141.038 107.303 141.128C107.243 141.167 107.198 141.226 107.176 141.294C107.153 141.362 107.154 141.436 107.179 141.504C107.225 141.637 107.301 141.758 107.401 141.857C108.803 143.504 109.931 145.08 111.334 146.726C111.439 146.866 111.822 146.64 111.728 146.452Z" fill="black"/>
</g>
<path d="M78.46 160.612C78.6424 160.313 78.8513 160.031 79.0841 159.77C79.4864 159.266 80.0542 158.578 80.6934 157.826C81.3326 157.074 81.9154 156.401 82.344 155.92C82.562 155.646 82.8063 155.394 83.0735 155.168C82.8927 155.468 82.6837 155.75 82.4493 156.01C82.047 156.514 81.4792 157.202 80.8438 157.954C80.2084 158.706 79.6218 159.379 79.1894 159.856C78.9694 160.13 78.7253 160.383 78.46 160.612V160.612Z" fill="#373842"/>
<path d="M79.9939 165.967C79.9451 165.967 80.7723 163.711 81.8401 160.951C82.9079 158.191 83.8141 155.984 83.863 156.006C83.9118 156.029 83.0884 158.262 82.0206 161.022C80.9527 163.782 80.0466 165.989 79.9939 165.967Z" fill="#373842"/>
<path d="M84.8068 163.004C84.7186 161.825 84.696 160.643 84.7391 159.462C84.7188 158.28 84.7627 157.097 84.8707 155.92C84.9588 157.098 84.9814 158.281 84.9384 159.462C84.9586 160.644 84.9147 161.826 84.8068 163.004V163.004Z" fill="#373842"/>
<path d="M72.7296 65.5933C72.7296 63.6794 73.3388 63.0327 72.8913 62.6755C71.2896 61.3934 69.8608 58.0244 69.7292 56.5279C69.4246 53.0086 72.3988 49.9141 72.3988 49.9141C72.9515 48.0341 73.7148 45.5412 75.9482 43.8116C78.3696 41.9316 82.1635 39.6982 85.1978 40.0892C88.2321 40.4802 90.4242 40.6682 92.3644 43.0333L88.1268 80.6032C85.7731 80.5318 83.6788 79.0466 82.0808 77.3132C80.4828 75.5798 79.2194 73.5532 77.5688 71.8875C76.328 70.643 76.0648 71.1543 73.9291 68.3306C72.598 66.5746 72.7108 67.3492 72.7296 65.5933Z" fill="#373842"/>
<path d="M102.772 54.1214C100.118 46.5112 93.4736 41.7134 85.9423 44.5786L85.2618 44.8869C81.958 46.3701 79.334 49.0429 77.9119 52.3734C76.4898 55.7039 76.3741 59.4477 77.5876 62.8597C79.9226 69.4397 82.5884 76.6739 84.1601 80.0617C87.4125 87.0741 94.9588 85.0061 94.9588 85.0061L98.1623 91.0973C101.491 91.7572 104.946 91.1947 107.894 89.513C110.842 87.8313 113.084 85.1431 114.21 81.9417V81.9417L102.772 54.1214Z" fill="#FFBE9D"/>
<path d="M82.6598 68.1838C82.7794 68.4442 82.9936 68.6494 83.259 68.7577C83.5244 68.8659 83.821 68.8691 84.0887 68.7666C84.2213 68.7188 84.3432 68.6451 84.447 68.5498C84.5509 68.4544 84.6347 68.3393 84.6935 68.2111C84.7523 68.083 84.785 67.9444 84.7896 67.8035C84.7942 67.6625 84.7707 67.5221 84.7203 67.3904C84.6008 67.1299 84.3866 66.9247 84.1212 66.8165C83.8558 66.7082 83.5592 66.705 83.2915 66.8076C83.1588 66.8553 83.037 66.929 82.9332 67.0244C82.8293 67.1198 82.7455 67.2349 82.6867 67.363C82.6279 67.4912 82.5952 67.6298 82.5906 67.7707C82.586 67.9116 82.6095 68.052 82.6598 68.1838V68.1838Z" fill="#373842"/>
<path d="M80.464 65.6835C80.6483 65.7587 81.1596 64.8526 82.2425 64.3675C83.3254 63.8825 84.3669 64.0705 84.4233 63.8863C84.4572 63.7998 84.224 63.6193 83.7616 63.5103C83.1478 63.3953 82.5135 63.4728 81.9455 63.7321C81.3803 63.9839 80.9101 64.4094 80.6032 64.9466C80.37 65.3639 80.3625 65.6535 80.464 65.6835Z" fill="#373842"/>
<path d="M92.5373 64.0329C92.6532 64.2956 92.8666 64.5029 93.1326 64.6109C93.3986 64.719 93.6961 64.7194 93.9624 64.612C94.0952 64.5651 94.2173 64.492 94.3214 64.3971C94.4255 64.3022 94.5095 64.1873 94.5684 64.0593C94.6273 63.9314 94.6599 63.7929 94.6643 63.652C94.6687 63.5112 94.6448 63.371 94.594 63.2396C94.4796 62.9756 94.2665 62.7668 94.0002 62.6579C93.7339 62.549 93.4356 62.5486 93.169 62.6568C93.036 62.704 92.9138 62.7775 92.8097 62.8728C92.7056 62.9681 92.6216 63.0832 92.5627 63.2115C92.5038 63.3398 92.4712 63.4786 92.4669 63.6196C92.4625 63.7607 92.4865 63.9012 92.5373 64.0329V64.0329Z" fill="#373842"/>
<path d="M90.537 60.9573C90.7174 61.0362 91.2514 60.1451 92.3493 59.6902C93.4472 59.2352 94.4774 59.4458 94.5414 59.2615C94.5752 59.1788 94.3496 58.9946 93.8909 58.8855C93.2794 58.7534 92.642 58.8151 92.0673 59.0622C91.2025 59.4721 90.6498 60.021 90.6911 60.2354C90.4618 60.6339 90.4505 60.9121 90.537 60.9573Z" fill="#373842"/>
<path d="M91.0672 70.8497C91.0446 70.7858 90.3152 70.97 89.1646 71.3197C88.8751 71.4175 88.5893 71.4776 88.4577 71.3197C88.3066 71.043 88.2424 70.7273 88.2735 70.4135C88.2359 69.6277 88.1907 68.8043 88.1456 67.9395C87.9388 64.4276 87.6531 61.5926 87.5102 61.6001C87.3673 61.6076 87.4275 64.4652 87.6343 67.9921C87.6944 68.8531 87.7471 69.6766 87.8035 70.4624C87.7788 70.8742 87.9 71.2816 88.1456 71.613C88.2292 71.694 88.3304 71.7545 88.4413 71.7897C88.5523 71.8249 88.6698 71.834 88.7848 71.816C88.9557 71.7877 89.1224 71.7385 89.2812 71.6694C90.4092 71.2144 91.0935 70.9136 91.0672 70.8497Z" fill="#373842"/>
<path d="M89.3789 59.882C89.7022 59.9948 90.3414 58.9834 91.3604 58.002C92.3794 57.0206 93.3908 56.4115 93.2855 56.0844C93.2291 55.934 92.8719 55.8889 92.3418 56.0393C91.6558 56.2538 91.0315 56.6304 90.5219 57.1372C89.9995 57.6306 89.6024 58.2416 89.3638 58.9194C89.1984 59.4609 89.2285 59.8218 89.3789 59.882Z" fill="#373842"/>
<path d="M79.6669 62.7282C79.9188 62.9839 80.825 62.6455 81.9229 62.5628C83.0208 62.4801 83.9871 62.6154 84.1789 62.3222C84.2654 62.1793 84.0999 61.9161 83.6713 61.6867C83.0867 61.4068 82.4358 61.2948 81.7913 61.3634C81.1482 61.4076 80.5312 61.6346 80.0128 62.0176C79.6669 62.3184 79.5541 62.6042 79.6669 62.7282Z" fill="#373842"/>
<path d="M92.3644 43.0332C92.1238 42.9392 91.8756 42.8452 91.6124 42.7588C89.5143 42.0068 87.1568 41.5932 85.352 42.8076C84.3143 43.5032 83.6525 44.6463 82.6561 45.4058C81.31 46.4323 79.5203 46.6504 78.0388 47.47C77.1526 47.9701 76.3985 48.6745 75.8394 49.5247C75.2802 50.3748 74.9321 51.3462 74.824 52.358C74.6699 53.9297 75.0872 55.6292 74.3503 57.0204C74.0081 57.6672 72.8463 58.1184 72.4439 58.7237C72.4439 58.7237 71.7258 63.8373 75.6475 63.6117L76.14 63.1944L79.9865 58.1071C81.2687 57.6747 82.5884 57.3551 83.1487 56.1782C83.5247 55.3999 83.4194 54.4599 83.472 53.5876L85.5287 51.1436C86.1792 50.9819 86.8974 50.9217 87.5441 50.7676C88.31 50.5942 89.033 50.2682 89.67 49.809C90.307 49.3498 90.8448 48.7668 91.2513 48.095C91.6578 47.4231 91.9246 46.6762 92.0357 45.8989C92.1469 45.1215 92.1001 44.3298 91.8982 43.5709L92.3644 43.0332Z" fill="#373842"/>
<path d="M85.9198 48.899C86.7846 48.1921 88.5293 46.6919 88.6909 45.609C89.0444 43.259 90.5258 41.1233 92.6464 40.345C93.7536 39.9709 94.952 39.965 96.0628 40.3283C97.1735 40.6915 98.137 41.4044 98.8091 42.3604C101.321 41.3076 104.449 41.834 106.652 43.6839C107.763 44.6406 108.624 45.8533 109.16 47.2173C109.697 48.5813 109.893 50.0554 109.732 51.5122C109.638 52.2642 109.45 53.0463 109.732 53.7682C110.108 54.6481 111.037 55.0617 111.804 55.5918C113.898 57.0319 114.966 59.7842 114.921 62.3598C114.876 64.9354 114.522 65.9694 113.338 66.9846C111.014 68.9774 116.015 73.6323 111.552 75.5461L103.453 59.7993L103.434 59.8293C103.273 60.1285 103.031 60.376 102.736 60.5431C102.44 60.7102 102.104 60.7899 101.764 60.7731C97.2525 60.4836 97.542 55.7497 98.4406 54.8586C97.0937 54.4735 95.8012 53.9188 94.5941 53.208C93.4022 52.456 91.3793 50.9745 90.9657 49.5833C90.0483 50.0082 85.54 49.2073 85.9198 48.899Z" fill="#373842"/>
<path d="M103.464 59.7579C103.562 59.6526 107.668 56.1521 109.679 61.0438C111.691 65.9356 106.363 66.9433 106.295 66.8079C106.228 66.6725 103.464 59.7579 103.464 59.7579Z" fill="#FFBE9D"/>
<path d="M107.028 64.3411C107.028 64.3148 107.137 64.3637 107.31 64.3712C107.549 64.374 107.779 64.2851 107.953 64.123C108.389 63.7207 108.487 62.7205 108.149 61.8294C107.987 61.4011 107.73 61.0153 107.397 60.7014C107.286 60.5703 107.146 60.4677 106.988 60.4023C106.829 60.3369 106.658 60.3105 106.487 60.3254C106.378 60.3393 106.277 60.3909 106.202 60.4713C106.128 60.5516 106.083 60.6557 106.077 60.7653C106.077 60.927 106.141 61.0135 106.118 61.0323C106.096 61.0511 105.979 60.9947 105.934 60.7766C105.916 60.6473 105.939 60.5154 106.002 60.4006C106.095 60.2434 106.246 60.1287 106.423 60.081C106.638 60.0362 106.862 60.0472 107.072 60.113C107.282 60.1788 107.471 60.2972 107.622 60.457C108.005 60.7943 108.3 61.2204 108.48 61.6978C108.856 62.698 108.728 63.826 108.104 64.3298C107.988 64.4213 107.853 64.4859 107.71 64.5191C107.566 64.5523 107.417 64.5531 107.273 64.5216C107.085 64.4539 107.013 64.3561 107.028 64.3411Z" fill="#EB996E"/>
<path d="M90.5633 75.2264C90.6122 75.3279 91.4808 75.0233 92.5073 74.5496C93.5337 74.0758 94.3271 73.6096 94.282 73.508C94.2369 73.4065 93.3683 73.7111 92.3418 74.1886C91.3153 74.6661 90.5182 75.1286 90.5633 75.2264Z" fill="#373842"/>
<path d="M94.9588 85.0061C94.9588 85.0061 101.009 81.2461 103.547 76.7341C103.547 76.7341 104.34 83.5886 96.1658 87.2884L94.9588 85.0061Z" fill="#EB996E"/>
<path d="M88.9729 60.5586C88.9729 60.5774 88.8714 60.6601 88.6533 60.6865C88.5114 60.7005 88.3682 60.6854 88.2324 60.6421C88.0967 60.5988 87.9712 60.5281 87.8637 60.4345C87.7584 60.3389 87.6735 60.223 87.614 60.0938C87.5546 59.9646 87.5218 59.8247 87.5178 59.6825C87.5178 59.4644 87.5854 59.3441 87.608 59.3517C87.6306 59.3592 87.608 59.4833 87.6569 59.6675C87.6907 59.9086 87.8091 60.1298 87.9909 60.2916C88.1727 60.4535 88.4062 60.5454 88.6495 60.5511C88.8375 60.5586 88.9616 60.5361 88.9729 60.5586Z" fill="#EB996E"/>
<path d="M86.025 62.2468C86.025 62.2243 86.0814 62.119 86.1529 61.931C86.2519 61.6935 86.2856 61.4339 86.2506 61.179C86.2103 60.9249 86.1054 60.6854 85.9461 60.4834C85.822 60.3255 85.7167 60.2465 85.7355 60.2202C85.7543 60.1939 85.8784 60.2427 86.0476 60.3894C86.2638 60.5903 86.4045 60.8594 86.4462 61.1516C86.488 61.4438 86.4282 61.7414 86.277 61.9949C86.1604 62.1829 86.0438 62.2619 86.025 62.2468Z" fill="#EB996E"/>
<path d="M106.498 107.709L108.562 108.149L106.494 108.754C106.366 108.793 106.25 108.865 106.159 108.964C106.067 109.062 106.004 109.183 105.976 109.315L105.46 111.789L104.904 109.36C104.871 109.224 104.802 109.1 104.703 109.002C104.604 108.904 104.48 108.835 104.344 108.803L102.276 108.333L104.404 107.735C104.531 107.693 104.644 107.617 104.732 107.516C104.82 107.415 104.879 107.292 104.904 107.16L105.378 104.776L105.915 107.145C105.949 107.285 106.021 107.413 106.124 107.512C106.228 107.612 106.357 107.681 106.498 107.709Z" fill="white"/>
<path d="M101.802 113.947L102.723 114.142L101.802 114.409C101.744 114.427 101.692 114.459 101.651 114.504C101.61 114.548 101.582 114.602 101.569 114.661L101.34 115.763L101.084 114.68C101.07 114.619 101.04 114.564 100.996 114.52C100.952 114.476 100.896 114.445 100.836 114.432L99.9145 114.225L100.862 113.958C100.921 113.941 100.974 113.908 101.015 113.863C101.057 113.818 101.086 113.762 101.099 113.702L101.309 112.642L101.546 113.695C101.56 113.757 101.592 113.814 101.637 113.859C101.682 113.903 101.74 113.934 101.802 113.947V113.947Z" fill="white"/>
<path d="M129.412 83.6675L130.333 83.863L129.412 84.13C129.354 84.1474 129.302 84.1799 129.261 84.2242C129.22 84.2685 129.191 84.3229 129.179 84.3819L128.949 85.4836L128.694 84.4007C128.68 84.34 128.65 84.2845 128.606 84.2405C128.562 84.1966 128.506 84.1661 128.445 84.1526L127.524 83.9458L128.472 83.6788C128.531 83.6621 128.584 83.6293 128.626 83.5842C128.668 83.5391 128.696 83.4834 128.709 83.4231L128.919 82.3628L129.156 83.4156C129.17 83.4777 129.201 83.5346 129.247 83.5792C129.292 83.6239 129.349 83.6546 129.412 83.6675V83.6675Z" fill="white"/>
<path d="M177.871 172.652C177.871 172.704 140.319 172.749 94.0226 172.749C47.7257 172.749 10.1483 172.704 10.1483 172.652C10.1483 172.599 47.6919 172.554 94.0226 172.554C140.353 172.554 177.871 172.584 177.871 172.652Z" fill="#373842"/>
<path d="M123.121 167.361H20.6085V172.663H123.121V167.361Z" fill="#455A64"/>
<path d="M122.395 167.361H93.4735V172.663H122.395V167.361Z" fill="#373842"/>
<path d="M27.2261 172.667C27.181 172.592 27.1408 172.514 27.1058 172.434C27.0306 172.283 26.9216 172.058 26.7787 171.798C26.0415 170.411 25.0652 169.165 23.8948 168.117C23.6692 167.914 23.4849 167.741 23.3571 167.647C23.2854 167.596 23.2198 167.537 23.1616 167.47C23.2362 167.517 23.3078 167.569 23.3759 167.625C23.5112 167.722 23.703 167.877 23.9286 168.076C25.1274 169.106 26.1124 170.362 26.8276 171.772C26.9629 172.043 27.0682 172.264 27.1321 172.422C27.1689 172.502 27.2003 172.583 27.2261 172.667Z" fill="#373842"/>
<path d="M34.9905 172.761C34.4851 172.765 33.9806 172.714 33.4865 172.607C32.9648 172.496 32.4539 172.338 31.96 172.137C31.3477 171.88 30.7621 171.564 30.2116 171.193C29.2162 170.509 28.3483 169.657 27.6473 168.674C27.3605 168.269 27.1089 167.84 26.8953 167.392C26.8953 167.392 26.9178 167.422 26.9517 167.478C26.9855 167.534 27.0494 167.64 27.1058 167.734C27.2895 168.046 27.489 168.348 27.7037 168.64C28.4129 169.606 29.2798 170.447 30.268 171.125C30.8129 171.495 31.3921 171.811 31.9976 172.069C32.4936 172.275 33.007 172.436 33.5317 172.55C33.7326 172.598 33.9359 172.636 34.1408 172.663C34.2948 172.692 34.4506 172.711 34.607 172.72L34.9003 172.746L34.9905 172.761Z" fill="#373842"/>
<path d="M42.1609 170.061C42.1609 170.061 41.6984 170.114 40.8561 170.121C40.435 170.121 39.9199 170.121 39.3221 170.072C39.025 170.05 38.7054 170.02 38.367 169.978L37.8481 169.907C37.6637 169.888 37.4827 169.844 37.3105 169.775C37.2173 169.745 37.1313 169.696 37.0577 169.631C36.984 169.567 36.9242 169.488 36.8818 169.399C36.8468 169.298 36.8447 169.187 36.8758 169.084C36.9068 168.981 36.9694 168.89 37.0548 168.824C37.2279 168.698 37.427 168.612 37.6376 168.572C37.8444 168.516 38.0549 168.459 38.273 168.414C40.2167 167.97 42.2283 167.91 44.195 168.238C44.7426 168.322 45.283 168.448 45.8118 168.614C46.0911 168.702 46.3297 168.888 46.4849 169.136C46.5519 169.269 46.5902 169.414 46.5973 169.562C46.6045 169.711 46.5802 169.859 46.5262 169.997C46.4311 170.278 46.2461 170.52 45.9998 170.685C45.7592 170.842 45.4913 170.951 45.2102 171.009C44.6613 171.129 44.1198 171.223 43.5859 171.313C42.5566 171.489 41.5163 171.592 40.4726 171.622C38.6998 171.7 36.9337 171.358 35.3177 170.625C34.2314 170.125 33.2619 169.402 32.4713 168.505C32.2572 168.268 32.0599 168.017 31.881 167.753C31.7569 167.565 31.6968 167.467 31.6968 167.467C31.6968 167.467 31.7682 167.561 31.8923 167.741C32.0762 168.005 32.2772 168.256 32.4939 168.493C33.2931 169.367 34.2632 170.067 35.344 170.55C36.955 171.272 38.7129 171.605 40.4764 171.524C41.515 171.491 42.5502 171.386 43.5746 171.212C44.1085 171.122 44.6537 171.024 45.1952 170.907C45.4627 170.85 45.7175 170.744 45.9472 170.595C46.1783 170.437 46.3523 170.209 46.4435 169.945C46.4928 169.816 46.5146 169.679 46.5075 169.542C46.5004 169.404 46.4645 169.27 46.4021 169.148C46.2582 168.913 46.0336 168.739 45.7705 168.659C45.2462 168.495 44.7109 168.369 44.1687 168.283C42.2123 167.96 40.212 168.016 38.2768 168.448C38.0587 168.493 37.8481 168.55 37.6451 168.602C37.4412 168.639 37.2483 168.721 37.0811 168.843C37.0062 168.901 36.9509 168.981 36.9227 169.072C36.8945 169.163 36.8946 169.26 36.9232 169.351C36.9941 169.521 37.1292 169.656 37.2992 169.727C37.468 169.793 37.6451 169.836 37.8256 169.854L38.3445 169.93C38.6791 169.971 38.9987 170.005 39.2957 170.027C39.8898 170.076 40.4237 170.091 40.8261 170.091C41.2284 170.091 41.5781 170.091 41.7924 170.072L42.1609 170.061Z" fill="#373842"/>
<path d="M60.3104 167.722H60.1675C60.0735 167.722 59.9382 167.692 59.7615 167.696C59.2636 167.682 58.7663 167.738 58.2838 167.861C57.5678 168.048 56.8772 168.321 56.2271 168.674C55.4314 169.109 54.6606 169.589 53.9184 170.11C53.1213 170.655 52.3543 171.166 51.6211 171.576C50.9753 171.949 50.2891 172.247 49.5756 172.464C49.095 172.61 48.5965 172.69 48.0942 172.701C47.911 172.707 47.7276 172.701 47.5452 172.682H47.6881C47.8234 172.689 47.9589 172.689 48.0942 172.682C48.5922 172.659 49.0851 172.572 49.5606 172.422C50.2656 172.199 50.9439 171.899 51.5835 171.527C52.3129 171.114 53.0875 170.602 53.8733 170.057C54.6179 169.534 55.3925 169.054 56.1932 168.621C56.8485 168.267 57.5459 167.998 58.2687 167.82C58.7607 167.701 59.2672 167.653 59.7727 167.677C59.9528 167.68 60.1324 167.696 60.3104 167.722V167.722Z" fill="#373842"/>
<path d="M67.304 170.069L67.022 170.009C66.752 169.953 66.4778 169.919 66.2023 169.907C65.7671 169.884 65.3308 169.919 64.9051 170.012C64.6385 170.069 64.377 170.147 64.123 170.245C63.833 170.328 63.5781 170.504 63.3973 170.746C63.3174 170.888 63.2862 171.053 63.3086 171.216C63.331 171.378 63.4057 171.528 63.5214 171.644C63.7683 171.909 64.079 172.106 64.4238 172.216C65.1879 172.462 66.0077 172.479 66.7813 172.265C67.2031 172.164 67.6156 172.028 68.0146 171.859C68.4388 171.704 68.835 171.482 69.1877 171.201C69.3666 171.055 69.5117 170.872 69.613 170.665C69.7143 170.458 69.7693 170.232 69.7743 170.001C69.7584 169.522 69.5686 169.065 69.2404 168.715C68.9169 168.358 68.5003 168.097 68.0372 167.963C67.5875 167.837 67.1187 167.794 66.6535 167.835C65.7714 167.936 64.9066 168.154 64.0817 168.482C62.6655 168.993 61.2946 169.622 59.9833 170.362C59.0999 170.861 58.2439 171.407 57.4189 171.998C57.1257 172.208 56.9038 172.374 56.7534 172.486C56.603 172.599 56.5165 172.659 56.5165 172.659C56.5165 172.659 56.8211 172.4 57.4001 171.971C58.2214 171.372 59.0749 170.819 59.9569 170.313C61.2659 169.564 62.6372 168.928 64.0553 168.414C64.8861 168.083 65.7573 167.863 66.646 167.76C67.1211 167.719 67.5998 167.762 68.0597 167.888C68.5335 168.022 68.9622 168.282 69.3005 168.64C69.6419 169.004 69.8384 169.48 69.8533 169.979C69.8477 170.22 69.7897 170.457 69.6832 170.674C69.5767 170.891 69.4243 171.082 69.2366 171.234C68.878 171.521 68.4756 171.749 68.0447 171.907C67.641 172.075 67.2249 172.211 66.8001 172.313C66.012 172.528 65.1785 172.508 64.4013 172.257C64.0473 172.141 63.7289 171.937 63.4763 171.663C63.3584 171.528 63.2803 171.362 63.2507 171.185C63.2244 171.014 63.2604 170.84 63.3522 170.693C63.5395 170.443 63.8036 170.26 64.1042 170.174C64.3612 170.078 64.6252 170.001 64.8938 169.945C65.323 169.858 65.7614 169.827 66.1985 169.851C66.476 169.866 66.7516 169.907 67.022 169.971C67.225 170.039 67.304 170.069 67.304 170.069Z" fill="#373842"/>
<path d="M75.7226 172.633C75.7226 172.633 75.7226 172.535 75.7226 172.358C75.7381 172.108 75.7381 171.857 75.7226 171.606C75.6686 170.782 75.4199 169.982 74.9969 169.271C74.5665 168.566 73.9428 167.998 73.1996 167.636C72.8886 167.494 72.5634 167.386 72.2296 167.312C72.5739 167.343 72.91 167.435 73.2222 167.583C73.9852 167.939 74.6261 168.512 75.0646 169.23C75.4949 169.95 75.7403 170.765 75.779 171.603C75.8054 171.947 75.7864 172.293 75.7226 172.633V172.633Z" fill="#373842"/>
<path d="M86.6794 172.584C86.1461 172.511 85.6184 172.402 85.1002 172.257C84.5352 172.105 83.9791 171.922 83.4345 171.708C82.7714 171.438 82.1248 171.129 81.4981 170.783C80.3651 170.142 79.3081 169.375 78.3472 168.497C77.9712 168.158 77.693 167.873 77.505 167.666L77.2869 167.429C77.238 167.376 77.2155 167.346 77.2155 167.346C77.2155 167.346 77.2455 167.369 77.2982 167.421L77.5275 167.647C77.7193 167.846 78.0126 168.125 78.3811 168.455C79.8815 169.805 81.6038 170.885 83.4721 171.648C84.0121 171.864 84.5631 172.053 85.1227 172.212C85.6003 172.347 85.9951 172.441 86.2507 172.497L86.5666 172.561C86.605 172.564 86.6428 172.572 86.6794 172.584V172.584Z" fill="#373842"/>
<path d="M94.3761 171.103L94.2708 171.054C94.2031 171.02 94.1129 170.96 93.9813 170.9C93.618 170.722 93.2407 170.575 92.8533 170.46C92.2798 170.289 91.694 170.164 91.1011 170.084C90.4356 169.986 89.6949 169.922 88.9203 169.821C87.3712 169.629 85.9875 169.166 85.1603 168.553C84.8269 168.323 84.5237 168.051 84.2579 167.745C84.0774 167.523 83.991 167.392 83.991 167.392C83.991 167.392 84.021 167.418 84.0699 167.474C84.1188 167.531 84.1827 167.621 84.2805 167.726C84.5535 168.022 84.8601 168.284 85.1942 168.508C86.0251 169.102 87.3938 169.55 88.9542 169.742C89.725 169.843 90.4582 169.911 91.135 170.012C91.7295 170.09 92.3168 170.215 92.8909 170.388C93.2806 170.508 93.6582 170.664 94.0189 170.855C94.2332 171.012 94.3761 171.103 94.3761 171.103Z" fill="#373842"/>
</svg>
