<svg width="745" height="650" viewBox="0 0 745 650" fill="none" xmlns="http://www.w3.org/2000/svg">
<g clip-path="url(#clip0)">
<path d="M750.059 638.864C750.059 645.752 745.411 652.415 736.707 658.751C730.488 663.28 722.204 667.635 712.061 671.772C683.135 683.596 639.141 693.67 585.063 701.007C580.509 701.622 575.886 702.222 571.192 702.807C513.702 709.891 445.93 713.985 373.365 713.985C165.323 713.985 -3.32837 680.351 -3.32837 638.864C-3.32837 597.378 165.323 563.744 373.365 563.744C581.408 563.744 750.059 597.37 750.059 638.864Z" fill="#373842"/>
<path opacity="0.1" d="M352.328 690.752C428.574 690.752 490.384 677.104 490.384 660.268C490.384 643.432 428.574 629.784 352.328 629.784C276.083 629.784 214.273 643.432 214.273 660.268C214.273 677.104 276.083 690.752 352.328 690.752Z" fill="black"/>
<path opacity="0.1" d="M707.985 612.735C707.985 629.574 659.337 643.575 583.078 643.575C506.819 643.575 445.023 629.922 445.023 613.091C445.023 596.26 506.819 582.607 583.078 582.607C659.337 582.607 707.985 595.897 707.985 612.735Z" fill="black"/>
<path d="M20.0754 630.982C22.0476 626.983 19.8124 622.084 17.2551 618.52C14.6978 614.956 11.5948 611.262 11.6606 606.697C11.7592 600.165 18.0374 596.303 23.0534 592.841C26.778 590.274 30.212 587.226 33.2827 583.761C34.5675 582.427 35.631 580.855 36.425 579.116C37.4638 576.561 37.4375 573.658 37.3717 570.864C37.1482 561.52 36.7296 552.208 36.1161 542.928" stroke="#373842" stroke-width="4" stroke-miterlimit="10"/>
<path d="M45.655 542.42C45.5851 540.714 45.1268 539.055 44.3225 537.596C43.5181 536.137 42.3937 534.925 41.0531 534.073L38.9889 538.58L39.0546 533.122C38.0672 532.803 37.0388 532.666 36.0108 532.716C34.195 532.815 32.4465 533.506 30.986 534.702C29.5254 535.897 28.4182 537.543 27.8041 539.432C27.1899 541.321 27.0963 543.369 27.535 545.317C27.9738 547.265 28.9253 549.026 30.2694 550.377C31.6135 551.729 33.2901 552.61 35.0876 552.911C36.8852 553.212 38.7231 552.918 40.3696 552.067C42.0161 551.216 43.3974 549.845 44.3392 548.128C45.281 546.412 45.7411 544.425 45.6615 542.42H45.655Z" fill="#A3CAF7"/>
<path d="M29.1999 611.364C28.2321 613.435 26.6489 615.076 24.7157 616.011C22.7826 616.947 20.6169 617.12 18.5816 616.503C16.5463 615.885 14.7651 614.514 13.5366 612.619C12.3081 610.724 11.7068 608.421 11.8336 606.094C11.9604 603.768 12.8075 601.561 14.233 599.842C15.6585 598.124 17.5758 596.998 19.6634 596.655C21.7511 596.311 23.8823 596.77 25.6999 597.955C27.5175 599.14 28.911 600.978 29.6469 603.162L23.8814 608.337L30.1991 606.719C30.2049 608.333 29.8624 609.925 29.1999 611.364Z" fill="#A3CAF7"/>
<path d="M24.6444 591.586C22.3519 591.764 20.0818 590.99 18.2804 589.414C16.4791 587.839 15.2769 585.576 14.9101 583.071C14.5434 580.566 15.0387 578.001 16.2987 575.879C17.5587 573.757 19.4922 572.232 21.7189 571.604L21.6532 575.799L23.7437 571.234C24.9543 571.169 26.1646 571.368 27.3052 571.821C28.4458 572.273 29.4943 572.97 30.3904 573.871C31.2865 574.772 32.0126 575.859 32.5269 577.071C33.0413 578.282 33.3339 579.594 33.3879 580.931C33.4419 582.106 33.3084 583.283 32.9934 584.407C32.4398 586.407 31.3409 588.169 29.8467 589.454C28.3526 590.738 26.5359 591.483 24.6444 591.586Z" fill="#A3CAF7"/>
<path d="M47.0421 575.132C45.6258 575.189 44.2167 574.885 42.9245 574.242C41.6323 573.6 40.4919 572.636 39.5923 571.427C38.6927 570.218 38.0581 568.796 37.7381 567.272C37.4181 565.748 37.4212 564.162 37.7472 562.64C38.0733 561.117 38.7134 559.698 39.6177 558.493C40.5221 557.289 41.6662 556.331 42.9609 555.694C44.2557 555.058 45.666 554.76 47.082 554.825C48.4981 554.889 49.8815 555.313 51.1246 556.065L49.4942 561L52.847 557.444C54.6437 559.261 55.7146 561.79 55.825 564.477C55.8688 565.421 55.7913 566.366 55.5949 567.286C55.1345 569.442 54.0509 571.373 52.5078 572.789C50.9647 574.204 49.0461 575.027 47.0421 575.132Z" fill="#A3CAF7"/>
<path opacity="0.1" d="M44.4123 545.134C42.2823 545.388 40.2115 546.121 38.0749 546.267C35.9383 546.412 33.5914 545.846 32.2371 544.017C31.514 543.03 31.1458 541.774 30.5345 540.7C29.9561 539.698 29.1637 538.868 28.227 538.283C27.6703 539.567 27.3644 540.967 27.3292 542.391C27.294 543.814 27.5303 545.23 28.0227 546.547C28.5151 547.863 29.2526 549.05 30.1874 550.032C31.1223 551.013 32.2335 551.766 33.449 552.243C34.6646 552.72 35.9573 552.909 37.2434 552.798C38.5295 552.688 39.7802 552.28 40.9143 551.602C42.0485 550.923 43.0408 549.989 43.8268 548.86C44.6129 547.731 45.1752 546.432 45.4773 545.047C45.1179 545.062 44.7629 545.091 44.4123 545.134Z" fill="black"/>
<path opacity="0.1" d="M47.0423 575.132C45.4511 575.221 43.8661 574.852 42.4425 574.062C41.019 573.272 39.8055 572.088 38.921 570.625C38.0364 569.162 37.511 567.47 37.3962 565.716C37.2814 563.961 37.5811 562.204 38.266 560.616C38.9974 561.157 39.627 561.85 40.1198 562.655C40.7772 563.751 41.1783 565.014 41.9474 566.023C43.3871 567.888 45.8393 568.498 48.0679 568.389C50.2965 568.28 52.4462 567.576 54.6419 567.351C54.9509 567.351 55.2599 567.3 55.5754 567.293C55.1148 569.444 54.0335 571.372 52.4944 572.785C50.9554 574.199 49.042 575.023 47.0423 575.132Z" fill="black"/>
<path opacity="0.1" d="M24.6443 591.586C23.0678 591.674 21.4974 591.313 20.0838 590.537C18.6701 589.762 17.4609 588.598 16.5723 587.158C15.6837 585.718 15.1455 584.049 15.0095 582.313C14.8734 580.577 15.1442 578.831 15.7956 577.244C16.5611 577.796 17.2293 578.497 17.7678 579.312C18.4844 580.43 18.9314 581.715 19.7729 582.745C21.331 584.662 23.9474 585.337 26.301 585.271C28.6545 585.206 30.791 584.603 33.0591 584.407C32.5016 586.418 31.3929 588.188 29.8857 589.474C28.3786 590.76 26.5472 591.498 24.6443 591.586Z" fill="black"/>
<path opacity="0.1" d="M29.2002 611.364C28.202 613.827 26.3585 615.751 24.0752 616.713C21.7919 617.676 19.2559 617.597 17.025 616.495C14.7942 615.393 13.0512 613.358 12.1795 610.837C11.3079 608.316 11.379 605.516 12.3772 603.053C13.1455 603.599 13.8348 604.269 14.4217 605.042C15.3026 606.225 15.8811 607.568 16.8935 608.671C18.7803 610.718 21.8241 611.574 24.5392 611.639C26.0963 611.646 27.6525 611.554 29.2002 611.364Z" fill="black"/>
<path d="M6.15802 626.381C6.15802 626.381 13.4421 626.134 15.6378 624.406C17.8335 622.679 26.8137 620.625 27.3791 623.39C27.9445 626.156 38.3249 637.18 30.1073 637.224C21.8897 637.268 11.0031 635.772 8.80737 634.321C6.61163 632.869 6.15802 626.381 6.15802 626.381Z" fill="#656380"/>
<path opacity="0.2" d="M30.2519 636.259C22.0278 636.331 11.1477 634.851 8.95857 633.355C7.28876 632.23 6.62478 628.202 6.40126 626.351H6.15802C6.15802 626.351 6.6182 632.833 8.78764 634.335C10.9571 635.838 21.8634 637.297 30.0876 637.238C32.4608 637.238 33.276 636.288 33.23 634.909C32.921 635.722 32.0204 636.244 30.2519 636.259Z" fill="black"/>
<path d="M716.762 627.276C714.79 623.277 717.025 618.378 719.582 614.814C722.139 611.251 725.242 607.556 725.177 602.991C725.078 596.459 718.8 592.598 713.784 589.135C710.059 586.569 706.625 583.52 703.555 580.056C702.27 578.722 701.206 577.149 700.412 575.411C699.374 572.856 699.4 569.953 699.466 567.158C699.689 557.815 700.108 548.503 700.721 539.222" stroke="#373842" stroke-width="4" stroke-miterlimit="10"/>
<path d="M691.182 538.714C691.252 537.008 691.71 535.349 692.515 533.89C693.319 532.431 694.443 531.22 695.784 530.367L697.848 534.875L697.783 529.417C698.77 529.097 699.798 528.96 700.826 529.01C702.642 529.11 704.391 529.801 705.851 530.996C707.312 532.191 708.419 533.837 709.033 535.726C709.647 537.616 709.741 539.663 709.302 541.611C708.863 543.559 707.912 545.32 706.568 546.671C705.224 548.023 703.547 548.905 701.75 549.205C699.952 549.506 698.114 549.212 696.468 548.361C694.821 547.51 693.44 546.14 692.498 544.423C691.556 542.706 691.096 540.719 691.176 538.714H691.182Z" fill="#A3CAF7"/>
<path d="M707.637 607.658C708.604 609.729 710.188 611.37 712.121 612.305C714.054 613.241 716.22 613.415 718.255 612.797C720.29 612.179 722.071 610.808 723.3 608.913C724.528 607.018 725.13 604.715 725.003 602.389C724.876 600.063 724.029 597.855 722.603 596.137C721.178 594.418 719.261 593.293 717.173 592.949C715.085 592.605 712.954 593.064 711.137 594.249C709.319 595.434 707.925 597.272 707.19 599.457L712.955 604.631L706.637 603.013C706.632 604.627 706.974 606.219 707.637 607.658Z" fill="#A3CAF7"/>
<path d="M712.193 587.88C714.485 588.059 716.755 587.284 718.557 585.708C720.358 584.133 721.56 581.87 721.927 579.365C722.294 576.861 721.798 574.295 720.538 572.173C719.278 570.051 717.345 568.526 715.118 567.899L715.184 572.094L713.093 567.528C711.883 567.463 710.672 567.662 709.532 568.115C708.391 568.567 707.343 569.264 706.447 570.165C705.551 571.066 704.825 572.153 704.31 573.365C703.796 574.577 703.503 575.888 703.449 577.225C703.395 578.401 703.529 579.577 703.844 580.702C704.397 582.701 705.496 584.463 706.99 585.748C708.485 587.033 710.301 587.777 712.193 587.88Z" fill="#A3CAF7"/>
<path d="M689.795 571.426C691.211 571.483 692.621 571.179 693.913 570.536C695.205 569.894 696.345 568.931 697.245 567.722C698.145 566.513 698.779 565.09 699.099 563.566C699.419 562.042 699.416 560.457 699.09 558.934C698.764 557.411 698.124 555.992 697.22 554.788C696.315 553.583 695.171 552.625 693.876 551.989C692.582 551.352 691.171 551.055 689.755 551.119C688.339 551.183 686.956 551.608 685.713 552.359L687.343 557.295L683.99 553.738C682.194 555.555 681.123 558.084 681.012 560.771C680.968 561.715 681.046 562.66 681.242 563.58C681.703 565.736 682.786 567.668 684.33 569.083C685.873 570.499 687.791 571.321 689.795 571.426Z" fill="#A3CAF7"/>
<path opacity="0.1" d="M692.424 541.429C694.554 541.683 696.625 542.416 698.762 542.561C700.898 542.706 703.245 542.14 704.599 540.311C705.323 539.324 705.691 538.068 706.302 536.994C706.88 535.992 707.673 535.162 708.61 534.577C709.166 535.862 709.472 537.261 709.507 538.685C709.543 540.109 709.306 541.524 708.814 542.841C708.321 544.157 707.584 545.344 706.649 546.326C705.714 547.307 704.603 548.061 703.388 548.537C702.172 549.014 700.879 549.203 699.593 549.093C698.307 548.982 697.056 548.575 695.922 547.896C694.788 547.218 693.796 546.283 693.01 545.154C692.224 544.025 691.661 542.726 691.359 541.341C691.719 541.356 692.074 541.385 692.424 541.429Z" fill="black"/>
<path opacity="0.1" d="M689.795 571.426C691.386 571.515 692.971 571.147 694.395 570.357C695.818 569.567 697.032 568.382 697.916 566.919C698.801 565.456 699.326 563.765 699.441 562.01C699.556 560.256 699.256 558.498 698.571 556.91C697.84 557.451 697.21 558.144 696.717 558.949C696.06 560.045 695.659 561.308 694.89 562.317C693.45 564.182 690.998 564.792 688.769 564.683C686.541 564.574 684.391 563.87 682.195 563.645C681.886 563.645 681.577 563.595 681.262 563.587C681.722 565.738 682.804 567.666 684.343 569.08C685.882 570.494 687.795 571.317 689.795 571.426Z" fill="black"/>
<path opacity="0.1" d="M712.192 587.88C713.769 587.968 715.339 587.607 716.753 586.832C718.166 586.056 719.376 584.893 720.264 583.452C721.153 582.012 721.691 580.344 721.827 578.607C721.963 576.871 721.692 575.125 721.041 573.538C720.275 574.09 719.607 574.791 719.069 575.607C718.352 576.724 717.905 578.009 717.064 579.04C715.506 580.956 712.889 581.631 710.536 581.565C708.182 581.5 706.046 580.898 703.777 580.702C704.335 582.712 705.444 584.483 706.951 585.768C708.458 587.054 710.289 587.792 712.192 587.88Z" fill="black"/>
<path opacity="0.1" d="M707.637 607.658C708.635 610.121 710.479 612.045 712.762 613.008C715.045 613.97 717.581 613.891 719.812 612.789C722.043 611.687 723.786 609.652 724.658 607.131C725.529 604.61 725.458 601.81 724.46 599.347C723.692 599.893 723.002 600.563 722.416 601.336C721.535 602.519 720.956 603.862 719.944 604.965C718.057 607.012 715.013 607.868 712.298 607.934C710.741 607.94 709.185 607.848 707.637 607.658Z" fill="black"/>
<path d="M730.679 622.675C730.679 622.675 723.395 622.428 721.199 620.701C719.003 618.973 710.023 616.919 709.458 619.684C708.892 622.45 698.512 633.475 706.729 633.518C714.947 633.562 725.834 632.067 728.029 630.615C730.225 629.163 730.679 622.675 730.679 622.675Z" fill="#656380"/>
<path opacity="0.2" d="M706.585 632.553C714.809 632.625 725.689 631.145 727.878 629.65C729.548 628.525 730.212 624.496 730.435 622.646H730.679C730.679 622.646 730.219 629.127 728.049 630.63C725.88 632.132 714.973 633.591 706.749 633.533C704.376 633.533 703.561 632.582 703.607 631.203C703.916 632.016 704.816 632.538 706.585 632.553Z" fill="black"/>
<path d="M444.8 146.465H441.553V53.695C441.553 39.4542 436.128 25.7967 426.472 15.7269C416.816 5.65714 403.72 7.05063e-06 390.065 0H201.593C187.938 0 174.842 5.65713 165.186 15.7269C155.531 25.7967 150.106 39.4542 150.106 53.695V562.648C150.106 576.889 155.531 590.546 165.186 600.616C174.842 610.686 187.938 616.343 201.593 616.343H390.065C403.72 616.343 416.816 610.686 426.472 600.616C436.127 590.546 441.552 576.889 441.552 562.648V212.501H444.799L444.8 146.465Z" fill="#E6E6E6"/>
<path d="M392.143 13.9644H367.543C368.674 16.8572 369.106 19.9958 368.8 23.1037C368.495 26.2116 367.461 29.1934 365.789 31.7863C364.118 34.3793 361.861 36.5038 359.217 37.9727C356.573 39.4417 353.624 40.2099 350.628 40.2098H242.655C239.659 40.2096 236.709 39.4412 234.066 37.9722C231.422 36.5031 229.165 34.3785 227.494 31.7856C225.823 29.1927 224.789 26.2111 224.483 23.1033C224.178 19.9955 224.61 16.8571 225.741 13.9644H202.763C192.566 13.9644 182.786 18.189 175.575 25.709C168.364 33.229 164.313 43.4283 164.313 54.0632V562.277C164.313 572.912 168.364 583.112 175.575 590.632C182.786 598.152 192.566 602.376 202.763 602.376H392.143C402.34 602.376 412.12 598.152 419.331 590.632C426.542 583.112 430.593 572.912 430.593 562.277V54.0624C430.593 43.4277 426.542 33.2286 419.331 25.7087C412.12 18.1889 402.34 13.9643 392.143 13.9644H392.143Z" fill="white"/>
<path d="M297.453 314.583C279.807 314.583 262.557 309.126 247.885 298.902C233.213 288.678 221.777 274.146 215.024 257.144C208.271 240.142 206.505 221.434 209.947 203.385C213.39 185.336 221.887 168.757 234.365 155.744C246.842 142.731 262.74 133.87 280.047 130.279C297.354 126.689 315.293 128.532 331.596 135.574C347.899 142.617 361.833 154.542 371.637 169.844C381.44 185.145 386.673 203.134 386.673 221.537C386.646 246.206 377.238 269.856 360.511 287.299C343.785 304.743 321.107 314.555 297.453 314.583ZM297.453 130.264C280.143 130.264 263.222 135.617 248.829 145.646C234.436 155.675 223.219 169.93 216.594 186.608C209.97 203.286 208.237 221.638 211.614 239.344C214.991 257.049 223.326 273.312 235.566 286.077C247.806 298.842 263.401 307.535 280.378 311.056C297.356 314.578 314.953 312.771 330.946 305.863C346.938 298.954 360.607 287.256 370.224 272.246C379.84 257.236 384.973 239.589 384.973 221.537C384.947 197.338 375.718 174.138 359.31 157.027C342.903 139.916 320.657 130.291 297.453 130.264Z" fill="#A3CAF7"/>
<path d="M330.222 194.508C337.863 187.774 342.504 177.137 341.287 166.782C340.07 156.427 332.531 146.907 322.752 144.708C312.973 142.509 301.825 148.596 298.855 158.559C297.22 139.352 295.337 119.34 285.545 102.984C276.679 88.1735 261.323 77.5762 244.68 75.6803C228.037 73.7844 210.514 80.9449 200.135 94.6441C189.755 108.343 187.214 128.259 194.483 143.987C199.838 155.573 209.705 164.196 220.042 171.211C253.022 193.59 293.933 201.152 332.861 195.177L330.222 194.508Z" fill="#E6E6E6"/>
<path d="M216.593 81.3417C230.325 93.0065 242.923 106.053 254.205 120.292C271.86 142.499 286.147 167.398 296.568 194.12C297.331 196.07 294.295 196.918 293.541 194.99C276.491 151.561 249.272 113.283 214.373 83.6566C212.806 82.3257 215.039 80.0219 216.593 81.3417Z" fill="white"/>
<path d="M221.265 405.856C226.427 405.856 230.612 401.491 230.612 396.108C230.612 390.725 226.427 386.36 221.265 386.36C216.103 386.36 211.918 390.725 211.918 396.108C211.918 401.491 216.103 405.856 221.265 405.856Z" fill="#A3CAF7"/>
<path d="M376.189 403.197H257.229C255.426 403.197 253.697 402.45 252.423 401.121C251.148 399.791 250.432 397.988 250.432 396.108C250.432 394.228 251.148 392.425 252.423 391.095C253.697 389.766 255.426 389.019 257.229 389.019H376.189C377.992 389.019 379.721 389.766 380.996 391.095C382.271 392.425 382.987 394.228 382.987 396.108C382.987 397.988 382.271 399.791 380.996 401.121C379.721 402.45 377.992 403.197 376.189 403.197Z" fill="#CCCCCC"/>
<path d="M339.294 403.283H256.738C254.913 403.283 253.163 402.527 251.873 401.181C250.583 399.836 249.858 398.011 249.858 396.108C249.858 394.205 250.583 392.38 251.873 391.035C253.163 389.689 254.913 388.933 256.738 388.933H339.294C341.119 388.933 342.868 389.689 344.159 391.035C345.449 392.38 346.174 394.205 346.174 396.108C346.174 398.011 345.449 399.836 344.159 401.181C342.868 402.527 341.119 403.283 339.294 403.283Z" fill="#FDAA46"/>
<path d="M221.265 448.391C226.427 448.391 230.612 444.027 230.612 438.643C230.612 433.26 226.427 428.895 221.265 428.895C216.103 428.895 211.918 433.26 211.918 438.643C211.918 444.027 216.103 448.391 221.265 448.391Z" fill="#A3CAF7"/>
<path d="M376.189 445.732H257.229C255.426 445.732 253.697 444.986 252.423 443.656C251.148 442.327 250.432 440.523 250.432 438.643C250.432 436.763 251.148 434.96 252.423 433.63C253.697 432.301 255.426 431.554 257.229 431.554H376.189C377.992 431.554 379.721 432.301 380.996 433.63C382.271 434.96 382.987 436.763 382.987 438.643C382.987 440.523 382.271 442.327 380.996 443.656C379.721 444.986 377.992 445.732 376.189 445.732Z" fill="#CCCCCC"/>
<path d="M221.265 490.926C226.427 490.926 230.612 486.562 230.612 481.178C230.612 475.795 226.427 471.431 221.265 471.431C216.103 471.431 211.918 475.795 211.918 481.178C211.918 486.562 216.103 490.926 221.265 490.926Z" fill="#A3CAF7"/>
<path d="M376.189 488.267H257.229C255.426 488.267 253.697 487.521 252.423 486.191C251.148 484.862 250.432 483.058 250.432 481.178C250.432 479.298 251.148 477.495 252.423 476.165C253.697 474.836 255.426 474.089 257.229 474.089H376.189C377.992 474.089 379.721 474.836 380.996 476.165C382.271 477.495 382.987 479.298 382.987 481.178C382.987 483.058 382.271 484.862 380.996 486.191C379.721 487.521 377.992 488.267 376.189 488.267Z" fill="#CCCCCC"/>
<path d="M312.103 445.818H256.738C254.913 445.818 253.163 445.062 251.873 443.716C250.583 442.371 249.858 440.546 249.858 438.643C249.858 436.74 250.583 434.916 251.873 433.57C253.163 432.225 254.913 431.469 256.738 431.469H312.103C313.928 431.469 315.678 432.225 316.968 433.57C318.258 434.916 318.983 436.74 318.983 438.643C318.983 440.546 318.258 442.371 316.968 443.716C315.678 445.062 313.928 445.818 312.103 445.818Z" fill="#FDAA46"/>
<path d="M361.387 488.353H256.738C254.913 488.353 253.163 487.597 251.873 486.252C250.583 484.906 249.858 483.081 249.858 481.178C249.858 479.275 250.583 477.451 251.873 476.105C253.163 474.76 254.913 474.004 256.738 474.004H361.387C363.211 474.004 364.961 474.76 366.251 476.105C367.541 477.451 368.266 479.275 368.266 481.178C368.266 483.081 367.541 484.906 366.251 486.252C364.961 487.597 363.211 488.353 361.387 488.353Z" fill="#FDAA46"/>
<path d="M344.691 207.069H333.012V171.079C333.013 170.022 333.417 169.008 334.133 168.261C334.85 167.513 335.822 167.092 336.836 167.091H340.867C341.881 167.092 342.853 167.513 343.57 168.261C344.287 169.008 344.69 170.022 344.691 171.079V207.069Z" fill="#A3CAF7"/>
<path d="M351.771 268.313H240.136L239.735 202.697C239.731 201.684 239.922 200.679 240.297 199.744C240.672 198.809 241.223 197.962 241.918 197.253L269.962 168.767C271.292 167.411 273.075 166.645 274.935 166.631L321.872 166.183C322.936 166.177 323.989 166.413 324.955 166.877C325.922 167.341 326.78 168.021 327.467 168.869L327.471 168.874L349.764 197.386C351.061 199.047 351.769 201.124 351.771 203.266L351.771 268.313Z" fill="#373842"/>
<path d="M351.771 268.313H291.779V209.508C291.78 207.716 292.392 205.983 293.507 204.62L319.573 172.75V172.75C320.25 171.921 321.092 171.254 322.041 170.798C322.99 170.341 324.022 170.105 325.067 170.106H325.095C326.144 170.109 327.181 170.351 328.131 170.815C329.082 171.28 329.924 171.955 330.598 172.793L350.079 196.98C351.172 198.337 351.771 200.052 351.771 201.825V268.313Z" fill="#FDAA46"/>
<path d="M326.324 245.727H317.644C317.081 245.726 316.541 245.493 316.143 245.077C315.744 244.662 315.52 244.099 315.52 243.512V235.922C315.52 235.335 315.744 234.772 316.143 234.356C316.541 233.941 317.081 233.707 317.644 233.707H326.324C326.887 233.707 327.427 233.941 327.825 234.356C328.223 234.772 328.447 235.335 328.448 235.922V243.512C328.447 244.099 328.223 244.662 327.825 245.077C327.427 245.493 326.887 245.726 326.324 245.727Z" fill="white"/>
<path d="M326.324 226.279H317.644C317.081 226.279 316.541 226.045 316.143 225.63C315.744 225.214 315.52 224.651 315.52 224.064V216.651C315.52 216.064 315.744 215.501 316.143 215.085C316.541 214.67 317.081 214.436 317.644 214.436H326.324C326.887 214.436 327.427 214.67 327.825 215.085C328.223 215.501 328.447 216.064 328.448 216.651V224.064C328.447 224.651 328.223 225.214 327.825 225.63C327.427 226.045 326.887 226.279 326.324 226.279Z" fill="white"/>
<path d="M272.646 242.772H263.967C263.404 242.772 262.864 242.538 262.465 242.123C262.067 241.708 261.843 241.144 261.843 240.557V232.968C261.843 232.381 262.067 231.818 262.465 231.402C262.864 230.987 263.404 230.753 263.967 230.753H272.646C273.21 230.753 273.749 230.987 274.148 231.402C274.546 231.818 274.77 232.381 274.771 232.968V240.557C274.77 241.144 274.546 241.708 274.148 242.123C273.749 242.538 273.21 242.772 272.646 242.772Z" fill="white"/>
<path d="M272.646 223.325H263.967C263.404 223.324 262.864 223.091 262.465 222.675C262.067 222.26 261.843 221.697 261.843 221.109V213.697C261.843 213.11 262.067 212.547 262.465 212.131C262.864 211.716 263.404 211.482 263.967 211.482H272.646C273.21 211.482 273.749 211.716 274.148 212.131C274.546 212.547 274.77 213.11 274.771 213.697V221.109C274.77 221.697 274.546 222.26 274.148 222.675C273.749 223.091 273.21 223.324 272.646 223.325Z" fill="white"/>
<path d="M373.377 269.081H221.53C221.304 269.081 221.088 268.988 220.929 268.821C220.769 268.655 220.68 268.43 220.68 268.195C220.68 267.96 220.769 267.734 220.929 267.568C221.088 267.402 221.304 267.309 221.53 267.309H373.377C373.602 267.309 373.818 267.402 373.977 267.568C374.137 267.734 374.226 267.96 374.226 268.195C374.226 268.43 374.137 268.655 373.977 268.821C373.818 268.988 373.602 269.081 373.377 269.081Z" fill="#A3CAF7"/>
<path d="M563.072 596.853L553.181 600.262L535.864 562.098L550.462 557.066L563.072 596.853Z" fill="#FFB8B8"/>
<path d="M545.182 599.751L564.258 593.175L568.227 605.701L537.141 616.416C536.62 614.771 536.415 613.035 536.537 611.308C536.658 609.58 537.105 607.894 537.852 606.347C538.599 604.799 539.63 603.42 540.888 602.288C542.146 601.157 543.605 600.294 545.182 599.751Z" fill="#373842"/>
<path d="M497.82 606.328L487.402 606.327L482.447 564.423L497.821 564.424L497.82 606.328Z" fill="#FFB8B8"/>
<path d="M479.961 603.223H500.051V616.415H467.311C467.311 614.683 467.638 612.967 468.274 611.367C468.91 609.766 469.841 608.312 471.016 607.087C472.191 605.862 473.585 604.89 475.12 604.227C476.655 603.565 478.299 603.223 479.961 603.223Z" fill="#373842"/>
<path d="M488.191 450.774L487.66 453.226C480.482 486.376 477.926 534.611 480.07 568.522L481.726 594.717C481.783 595.615 482.165 596.457 482.794 597.072C483.424 597.687 484.255 598.029 485.117 598.029H497.606C498.439 598.029 499.243 597.71 499.865 597.133C500.487 596.556 500.885 595.761 500.982 594.898L510.675 508.973C510.766 508.168 511.119 507.419 511.675 506.853C512.231 506.286 512.956 505.935 513.73 505.859C514.504 505.782 515.28 505.985 515.928 506.433C516.576 506.881 517.058 507.547 517.292 508.32L542.414 585.967C542.62 586.649 543.019 587.249 543.559 587.69C544.098 588.131 544.752 588.391 545.436 588.437L564.513 589.721C565.064 589.758 565.615 589.655 566.119 589.42C566.623 589.185 567.064 588.826 567.405 588.373C567.746 587.921 567.976 587.388 568.075 586.822C568.175 586.256 568.141 585.674 567.976 585.124L556.492 552.196C547.62 522.646 542.85 477.744 542.329 446.783C542.321 446.294 542.216 445.813 542.021 445.368C541.826 444.924 541.545 444.527 541.195 444.201C540.846 443.876 540.436 443.629 539.991 443.477C539.546 443.325 539.075 443.27 538.609 443.316L491.184 448.026C490.471 448.097 489.798 448.401 489.26 448.895C488.723 449.388 488.348 450.046 488.191 450.774Z" fill="#373842"/>
<path d="M515.961 313.127C527.487 313.127 536.831 303.383 536.831 291.362C536.831 279.342 527.487 269.598 515.961 269.598C504.435 269.598 495.091 279.342 495.091 291.362C495.091 303.383 504.435 313.127 515.961 313.127Z" fill="#A0616A"/>
<path d="M502.261 457.905C498.104 457.896 493.951 457.668 489.817 457.221C488.489 457.07 487.27 456.383 486.421 455.308C485.572 454.232 485.16 452.853 485.273 451.465L492.388 379.77C494.104 359.491 496.755 339.915 510.168 323.336C510.624 322.774 511.186 322.316 511.819 321.992C512.453 321.668 513.144 321.483 513.849 321.451L514.353 321.431C519.644 321.201 522.082 321.402 522.768 322.118L526.458 325.91C548.962 343.267 549.897 453.216 544.353 451.049C543.28 450.632 530.473 451.051 529.581 451.686C522.352 456.824 510.734 457.904 502.261 457.905Z" fill="#FDAA46"/>
<path d="M420.378 418.109C420.909 416.93 421.682 415.887 422.641 415.053C423.601 414.219 424.724 413.615 425.932 413.283C427.14 412.951 428.403 412.899 429.632 413.131C430.861 413.363 432.027 413.873 433.047 414.625L457.742 396.201L458.342 412.645L434.798 427.62C433.472 429.322 431.594 430.459 429.518 430.813C427.443 431.168 425.315 430.717 423.537 429.544C421.76 428.372 420.456 426.56 419.874 424.453C419.292 422.345 419.471 420.088 420.378 418.109Z" fill="#A0616A"/>
<path d="M444.905 422.971L436.54 407.615L512.731 350.321C514.451 349.028 516.407 348.119 518.479 347.65C520.55 347.182 522.692 347.164 524.771 347.597C526.849 348.031 528.82 348.906 530.559 350.17C532.299 351.434 533.769 353.058 534.88 354.941C535.99 356.824 536.716 358.926 537.012 361.114C537.308 363.303 537.169 365.532 536.602 367.662C536.035 369.792 535.052 371.778 533.716 373.494C532.38 375.21 530.719 376.621 528.837 377.637L444.905 422.971Z" fill="#FDAA46"/>
<path d="M525.337 309.764C526.044 310.491 526.978 310.927 527.969 310.993C528.959 311.06 529.939 310.751 530.729 310.124C535.648 306.322 539.966 301.589 542.521 295.816C545.45 289.201 545.776 281.083 542.246 274.796C539.261 269.481 533.991 266.052 528.739 263.235C526.699 262.035 524.503 261.152 522.218 260.614C519.909 260.083 517.493 260.49 515.462 261.751C514.468 262.401 513.685 263.348 513.215 264.469C512.745 265.59 512.61 266.833 512.827 268.035C510.304 265.033 507.073 262.771 503.453 261.473C501.174 260.543 498.678 260.354 496.294 260.931C492.961 261.917 490.528 265.006 489.197 268.341C488.12 270.879 487.749 273.68 488.124 276.427C488.322 277.794 488.792 279.103 489.505 280.268C490.218 281.434 491.157 282.43 492.263 283.193C495.018 284.971 498.534 284.843 501.699 284.116C504.864 283.39 507.927 282.126 511.153 281.807C514.379 281.487 517.971 282.326 519.935 285.015C521.317 286.908 521.672 289.382 521.983 291.74L523.597 304.003C523.729 305.777 524.164 307.513 524.88 309.128C525.004 309.36 525.158 309.574 525.337 309.764Z" fill="#373842"/>
<path d="M570.366 462.261C569.354 461.499 568.514 460.513 567.906 459.375C567.298 458.237 566.936 456.974 566.847 455.675C566.758 454.375 566.943 453.071 567.389 451.855C567.836 450.638 568.532 449.538 569.43 448.632L556.645 419.91L572.251 422.343L581.999 449.245C583.358 450.919 584.081 453.055 584.03 455.247C583.98 457.44 583.16 459.537 581.726 461.142C580.292 462.746 578.344 463.746 576.25 463.953C574.156 464.159 572.063 463.557 570.366 462.261V462.261Z" fill="#A0616A"/>
<path d="M578.916 431.75L564.191 440.474L509.253 361.015C508.013 359.222 507.141 357.182 506.692 355.022C506.243 352.861 506.225 350.628 506.641 348.46C507.056 346.292 507.896 344.237 509.108 342.423C510.32 340.609 511.877 339.076 513.683 337.918C515.488 336.76 517.503 336.003 519.602 335.694C521.701 335.385 523.839 335.53 525.881 336.122C527.924 336.713 529.827 337.737 531.473 339.131C533.119 340.524 534.471 342.256 535.446 344.219L578.916 431.75Z" fill="#FDAA46"/>
<path d="M720.996 617.645H26.7792C26.5538 617.645 26.3377 617.552 26.1783 617.385C26.019 617.219 25.9294 616.994 25.9294 616.759C25.9294 616.524 26.019 616.298 26.1783 616.132C26.3377 615.966 26.5538 615.873 26.7792 615.873H720.996C721.222 615.873 721.438 615.966 721.597 616.132C721.756 616.298 721.846 616.524 721.846 616.759C721.846 616.994 721.756 617.219 721.597 617.385C721.438 617.552 721.222 617.645 720.996 617.645Z" fill="#373842"/>
<path d="M168.432 594.431C165.316 588.058 168.853 580.249 172.916 574.566C176.979 568.883 181.942 562.953 181.837 555.695C181.686 545.287 171.68 539.139 163.679 533.616C157.749 529.521 152.278 524.666 147.382 519.151C145.41 516.937 143.523 514.571 142.373 511.748C140.716 507.676 140.762 503.038 140.867 498.589C141.214 483.729 141.871 468.889 142.84 454.068" stroke="#373842" stroke-width="4" stroke-miterlimit="10"/>
<path d="M127.666 453.291C127.779 450.573 128.511 447.93 129.793 445.606C131.075 443.282 132.867 441.352 135.003 439.995L138.29 447.187L138.191 438.478C141.181 437.501 144.375 437.599 147.311 438.757C150.247 439.915 152.774 442.074 154.526 444.921C156.279 447.768 157.167 451.156 157.061 454.597C156.955 458.037 155.862 461.351 153.939 464.061C152.016 466.77 149.363 468.735 146.362 469.671C143.362 470.607 140.17 470.466 137.247 469.269C134.323 468.071 131.821 465.879 130.1 463.008C128.379 460.138 127.529 456.737 127.673 453.299L127.666 453.291Z" fill="#A3CAF7"/>
<path d="M153.884 563.163C155.426 566.475 157.953 569.1 161.04 570.598C164.128 572.097 167.588 572.378 170.841 571.394C174.094 570.41 176.941 568.221 178.905 565.194C180.87 562.167 181.831 558.486 181.629 554.77C181.427 551.053 180.074 547.526 177.796 544.78C175.518 542.034 172.454 540.237 169.118 539.689C165.782 539.142 162.377 539.877 159.474 541.773C156.571 543.668 154.346 546.608 153.174 550.099L162.377 558.351L152.273 555.767C152.269 558.339 152.821 560.875 153.884 563.163Z" fill="#A3CAF7"/>
<path d="M161.148 531.642C164.755 531.825 168.296 530.538 171.099 528.024C173.901 525.511 175.768 521.947 176.344 518.012C176.92 514.078 176.164 510.046 174.222 506.686C172.279 503.327 169.285 500.873 165.809 499.793L165.888 506.485L162.562 499.227H162.522C160.585 499.112 158.646 499.421 156.817 500.136C154.989 500.852 153.306 501.96 151.867 503.396C150.428 504.833 149.26 506.569 148.432 508.506C147.603 510.443 147.13 512.542 147.039 514.681C146.949 516.821 147.243 518.959 147.904 520.973C148.565 522.987 149.581 524.836 150.892 526.415C152.203 527.993 153.785 529.27 155.545 530.171C157.305 531.071 159.21 531.579 161.148 531.663V531.642Z" fill="#A3CAF7"/>
<path d="M125.451 505.419C127.726 505.538 129.996 505.072 132.08 504.058C134.165 503.044 136.007 501.509 137.462 499.575C138.918 497.64 139.946 495.359 140.467 492.911C140.987 490.462 140.986 487.914 140.462 485.467C139.938 483.019 138.906 480.74 137.448 478.808C135.99 476.876 134.145 475.344 132.059 474.333C129.974 473.323 127.704 472.861 125.429 472.984C123.154 473.107 120.935 473.812 118.949 475.044L121.579 482.904L116.234 477.236C114.095 479.403 112.584 482.221 111.892 485.334C111.201 488.448 111.36 491.718 112.349 494.732C113.338 497.746 115.113 500.369 117.451 502.271C119.788 504.172 122.584 505.268 125.484 505.419H125.451Z" fill="#A3CAF7"/>
<path opacity="0.1" d="M129.639 457.617C133.038 458.024 136.338 459.192 139.743 459.425C143.149 459.657 146.889 458.757 149.039 455.832C150.202 454.257 150.781 452.268 151.761 450.548C152.692 448.952 153.963 447.632 155.462 446.701C156.409 448.759 156.948 451.016 157.042 453.322C157.137 455.628 156.785 457.93 156.01 460.074C155.235 462.218 154.055 464.155 152.549 465.756C151.042 467.356 149.244 468.584 147.273 469.357C145.303 470.129 143.206 470.429 141.123 470.236C139.039 470.043 137.017 469.362 135.191 468.238C133.364 467.114 131.776 465.573 130.532 463.718C129.288 461.863 128.416 459.736 127.976 457.479C128.534 457.501 129.087 457.545 129.639 457.617Z" fill="black"/>
<path opacity="0.1" d="M125.451 505.418C127.985 505.548 130.507 504.952 132.771 503.689C135.035 502.425 136.964 500.537 138.372 498.207C139.78 495.877 140.618 493.184 140.805 490.391C140.992 487.598 140.522 484.799 139.44 482.265C138.27 483.13 137.265 484.239 136.482 485.532C135.437 487.273 134.799 489.291 133.57 490.895C131.282 493.871 127.364 494.844 123.814 494.662C120.264 494.481 116.845 493.37 113.295 493.015C112.802 492.964 112.309 492.927 111.81 492.913C112.542 496.352 114.269 499.434 116.731 501.691C119.193 503.948 122.254 505.256 125.451 505.418Z" fill="black"/>
<path opacity="0.1" d="M161.148 531.642C163.657 531.771 166.155 531.189 168.402 529.95C170.65 528.712 172.572 526.858 173.987 524.567C175.402 522.275 176.261 519.621 176.483 516.859C176.705 514.097 176.283 511.317 175.256 508.786C174.043 509.665 172.989 510.785 172.146 512.089C171.002 513.867 170.292 515.914 168.951 517.561C166.473 520.61 162.305 521.684 158.545 521.589C154.903 521.495 151.399 520.515 147.776 520.203C148.667 523.398 150.429 526.211 152.822 528.259C155.216 530.306 158.123 531.488 161.148 531.642Z" fill="black"/>
<path opacity="0.1" d="M153.883 563.163C155.601 566.863 158.539 569.694 162.092 571.073C165.644 572.453 169.54 572.275 172.978 570.577C176.415 568.878 179.131 565.789 180.566 561.945C182.002 558.102 182.047 553.797 180.693 549.917C179.48 550.795 178.392 551.866 177.465 553.096C176.064 554.976 175.144 557.11 173.52 558.859C170.516 562.118 165.664 563.461 161.345 563.591C158.852 563.606 156.361 563.463 153.883 563.163Z" fill="black"/>
<path d="M190.606 587.093C190.606 587.093 179.003 586.701 175.486 583.95C171.969 581.199 157.631 577.919 156.763 582.324C155.895 586.73 139.329 604.258 152.477 604.374C165.625 604.49 182.921 602.124 186.412 599.773C189.903 597.421 190.606 587.093 190.606 587.093Z" fill="#656380"/>
<path opacity="0.2" d="M152.214 602.843C165.316 602.959 182.658 600.586 186.149 598.241C188.778 596.456 189.863 590.04 190.218 587.078H190.606C190.606 587.078 189.87 597.414 186.379 599.758C182.888 602.102 165.546 604.476 152.444 604.36C148.664 604.36 147.355 602.843 147.428 600.644C147.954 601.986 149.393 602.814 152.214 602.843Z" fill="black"/>
<rect x="-7" y="642" width="13" height="8" fill="#373842"/>
</g>
<defs>
<clipPath id="clip0">
<rect width="745" height="650" fill="white"/>
</clipPath>
</defs>
</svg>
