<svg width="185" height="166" viewBox="0 0 185 166" fill="none" xmlns="http://www.w3.org/2000/svg">
<path d="M166.463 147.441H154.209V147.534H166.463V147.441Z" fill="#EBEBEB"/>
<path d="M122.551 148.448H119.336V148.54H122.551V148.448Z" fill="#EBEBEB"/>
<path d="M153.839 144.008H146.738V144.1H153.839V144.008Z" fill="#EBEBEB"/>
<path d="M35.3905 144.629H19.4102V144.722H35.3905V144.629Z" fill="#EBEBEB"/>
<path d="M41.0292 144.629H38.6871V144.722H41.0292V144.629Z" fill="#EBEBEB"/>
<path d="M83.3055 146.191H48.6439V146.283H83.3055V146.191Z" fill="#EBEBEB"/>
<path d="M87.6901 124.986H16.2468C15.6871 124.985 15.1507 124.762 14.7552 124.366C14.3598 123.97 14.1378 123.433 14.1378 122.873V22.4443C14.1426 21.8878 14.3669 21.3557 14.7617 20.9636C15.1566 20.5715 15.6903 20.3511 16.2468 20.3501H87.6901C88.2504 20.3501 88.7878 20.5727 89.184 20.9689C89.5802 21.3651 89.8028 21.9025 89.8028 22.4628V122.873C89.8028 123.434 89.5802 123.971 89.184 124.367C88.7878 124.764 88.2504 124.986 87.6901 124.986ZM16.2468 20.4241C15.7116 20.4251 15.1987 20.6384 14.8207 21.0171C14.4426 21.3959 14.2303 21.9091 14.2303 22.4443V122.873C14.2303 123.409 14.4426 123.922 14.8207 124.301C15.1987 124.679 15.7116 124.893 16.2468 124.894H87.6901C88.2255 124.893 88.7388 124.679 89.1175 124.301C89.4961 123.922 89.7093 123.409 89.7103 122.873V22.4443C89.7093 21.9088 89.4961 21.3955 89.1175 21.0169C88.7388 20.6382 88.2255 20.4251 87.6901 20.4241H16.2468Z" fill="#EBEBEB"/>
<path d="M167.725 124.986H96.2777C95.7177 124.985 95.1809 124.762 94.7849 124.366C94.3889 123.97 94.166 123.433 94.165 122.873V22.4443C94.1708 21.8875 94.3959 21.3554 94.7913 20.9634C95.1868 20.5714 95.7208 20.351 96.2777 20.3501H167.725C168.281 20.352 168.813 20.5729 169.207 20.9649C169.601 21.3569 169.825 21.8885 169.83 22.4443V122.873C169.83 123.432 169.608 123.969 169.214 124.365C168.819 124.761 168.284 124.984 167.725 124.986ZM96.2777 20.4241C95.7422 20.4251 95.2289 20.6382 94.8503 21.0169C94.4716 21.3955 94.2585 21.9088 94.2575 22.4443V122.873C94.2585 123.409 94.4716 123.922 94.8503 124.301C95.2289 124.679 95.7422 124.893 96.2777 124.894H167.725C168.26 124.893 168.773 124.679 169.152 124.301C169.531 123.922 169.744 123.409 169.745 122.873V22.4443C169.744 21.9088 169.531 21.3955 169.152 21.0169C168.773 20.6382 168.26 20.4251 167.725 20.4241H96.2777Z" fill="#EBEBEB"/>
<path d="M185 141.488H0V141.581H185V141.488Z" fill="#EBEBEB"/>
<path d="M26.1627 74.522H34.5654V58.9265H26.1627V74.522Z" fill="#EBEBEB"/>
<path d="M28.5085 74.522H36.9112V58.9265H28.5085V74.522Z" fill="#F5F5F5"/>
<path d="M38.01 55.5259H25.4744V58.9262H38.01V55.5259Z" fill="#F5F5F5"/>
<path d="M27.4058 55.5259H25.4744V58.9262H27.4058V55.5259Z" fill="#EBEBEB"/>
<path d="M18.6036 124.846H75.5836V82.551H18.6036L18.6036 124.846Z" fill="#E6E6E6"/>
<path d="M46.6125 50.3164L78.8469 82.5508H14.3781L46.6125 50.3164Z" fill="#F5F5F5"/>
<path d="M14.3781 86.2729L78.8469 86.2729V82.5545L14.3781 82.5545V86.2729Z" fill="#E0E0E0"/>
<path d="M53.7054 89.8398H37.6696V105.876H53.7054V89.8398Z" fill="#E0E0E0"/>
<path d="M54.2939 89.8398H38.2581V105.876H54.2939V89.8398Z" fill="#F0F0F0"/>
<path d="M53.4835 90.491H39.0387V104.936H53.4835V90.491Z" fill="white"/>
<path d="M53.4799 90.491H52.973V104.936H53.4799V90.491Z" fill="#E0E0E0"/>
<path d="M38.9944 98.1574V98.6643H53.0285V98.1574H38.9944Z" fill="#E0E0E0"/>
<path d="M53.4798 97.3027H38.7649V98.1574H53.4798V97.3027Z" fill="#F0F0F0"/>
<path d="M105.287 114.419L105.313 114.622L105.905 119.492L105.938 119.765L106.527 124.616L106.545 124.76H115.259H122.744H130.588L130.591 124.727L131.176 119.765L131.209 119.473L131.779 114.622L131.816 114.326L132.386 109.479L132.419 109.183L132.874 105.335L133.141 103.06H103.903L104.177 105.335L104.666 109.328L104.684 109.479L105.287 114.419Z" fill="#F0F0F0"/>
<path d="M118.77 92.0339L102.227 103.06H135.313L118.77 92.0339Z" fill="#E6E6E6"/>
<path d="M135.002 105.335H102.538L102.227 103.06H135.313L135.002 105.335Z" fill="#E0E0E0"/>
<path d="M123.58 115.51C123.58 120.62 123.273 122.84 122.751 124.76H115.259C114.737 122.836 114.43 120.616 114.43 115.51C114.413 114.899 114.518 114.291 114.74 113.721C114.962 113.151 115.296 112.631 115.722 112.193C116.148 111.754 116.658 111.406 117.221 111.168C117.784 110.93 118.39 110.807 119.001 110.807C119.613 110.807 120.218 110.93 120.781 111.168C121.345 111.406 121.854 111.754 122.281 112.193C122.707 112.631 123.041 113.151 123.263 113.721C123.485 114.291 123.59 114.899 123.573 115.51H123.58Z" fill="#E0E0E0"/>
<path d="M104.666 109.328V109.183H132.419L132.386 109.479H104.684L104.666 109.328Z" fill="#E0E0E0"/>
<path d="M105.287 114.419V114.326H114.585H123.417H131.816L131.779 114.622H123.484H114.519H105.313L105.287 114.419Z" fill="#E0E0E0"/>
<path d="M105.905 119.492V119.473H114.515H123.488H131.209L131.176 119.765H123.473H114.53H105.938L105.905 119.492Z" fill="#E0E0E0"/>
<path d="M130.592 124.616H106.523V124.912H130.592V124.616Z" fill="#E0E0E0"/>
<path d="M123.898 111.241L123.473 111.107C120.447 110.16 117.198 110.201 114.197 111.226L112.935 107.507C116.723 106.216 120.823 106.164 124.642 107.359L125.064 107.492L123.898 111.241Z" fill="#E0E0E0"/>
<path d="M123.898 110.63L123.473 110.501C120.447 109.55 117.198 109.59 114.197 110.615L112.935 106.897C116.723 105.605 120.824 105.554 124.642 106.752L125.064 106.882L123.898 110.63Z" fill="#FAFAFA"/>
<path d="M131.306 38.4801H139.257C139.538 38.4822 139.813 38.5644 140.049 38.7169C142.535 41.1404 145.447 39.7899 146.742 38.9685C147.234 38.6523 147.807 38.4829 148.392 38.4801H157.25C160.58 38.4801 161.375 33.8292 158.238 32.734L158.116 32.6933C161.59 29.7999 153.968 23.7023 145.695 32.1457C146.339 29.33 138.983 30.3475 136.733 34.1918C135.934 31.661 128.919 36.0455 131.306 38.4801Z" fill="#E6E6E6"/>
<path d="M20.0318 47.6561H24.42L24.79 47.8189C25.7747 48.2592 26.8456 48.4732 27.9239 48.445C29.0022 48.4168 30.0604 48.1472 31.0208 47.6561H34.6949C34.6949 47.6561 38.1359 46.3611 37.6882 42.9312C37.2405 39.5013 32.0531 42.3614 32.0531 42.3614C32.0531 42.3614 33.6293 37.5736 28.601 38.9315C27.1832 39.293 25.9036 40.0647 24.9223 41.15C23.941 42.2353 23.3017 43.5859 23.0843 45.0328C23.0843 45.0328 16.4798 43.8821 20.0318 47.6561Z" fill="#EBEBEB"/>
<path d="M159.777 57.228C159.859 57.228 159.94 57.2441 160.015 57.2754C160.09 57.3066 160.159 57.3524 160.217 57.4101C160.274 57.4678 160.32 57.5363 160.351 57.6118C160.383 57.6872 160.399 57.768 160.399 57.8496V132.564H159.156V57.8237C159.161 57.6631 159.23 57.511 159.346 57.3998C159.462 57.2886 159.616 57.227 159.777 57.228Z" fill="#E0E0E0"/>
<path d="M168.35 67.7101C168.35 69.8552 167.498 71.9124 165.981 73.4293C164.464 74.9461 162.407 75.7983 160.262 75.7983C160.095 75.7983 159.929 75.7983 159.766 75.7798C158.707 75.7158 157.671 75.4425 156.719 74.9757C155.766 74.5089 154.915 73.8579 154.216 73.0603C153.969 72.7819 153.741 72.4864 153.535 72.176C152.752 70.9938 152.294 69.6265 152.207 68.2113C152.119 66.7961 152.406 65.3828 153.037 64.1132C153.668 62.8436 154.622 61.7623 155.803 60.9779C156.984 60.1935 158.351 59.7335 159.766 59.6441C159.929 59.6441 160.095 59.6441 160.262 59.6441C162.057 59.6413 163.801 60.2392 165.216 61.3424C165.512 61.5671 165.791 61.8145 166.049 62.0824C167.523 63.5845 168.35 65.6052 168.35 67.7101Z" fill="#E0E0E0"/>
<path d="M167.362 67.7102C167.363 69.7683 166.579 71.7492 165.17 73.2488C163.76 74.7484 161.831 75.6537 159.777 75.7799C159.611 75.7799 159.444 75.7984 159.278 75.7984C157.192 75.8015 155.186 74.9951 153.683 73.5488C153.419 73.2931 153.171 73.0199 152.943 72.7311C151.999 71.5397 151.41 70.1063 151.244 68.5953C151.077 67.0843 151.34 65.557 152.002 64.1887C152.665 62.8204 153.699 61.6665 154.987 60.8594C156.275 60.0523 157.765 59.6247 159.285 59.6257C159.452 59.6257 159.618 59.6257 159.785 59.6257C161.639 59.7362 163.397 60.4853 164.761 61.7458C165.035 61.9942 165.29 62.2625 165.523 62.5487C166.72 64.0018 167.371 65.8278 167.362 67.7102Z" fill="#FAFAFA"/>
<path d="M166.633 62.6373L166.089 63.1405L154.786 73.63L154.257 74.1184C153.992 73.8626 153.745 73.5895 153.517 73.3007L154.112 72.7457L165.335 62.3339L165.808 61.8936C166.102 62.1197 166.378 62.3684 166.633 62.6373Z" fill="#E0E0E0"/>
<path d="M162.87 67.1513C162.816 67.3457 162.727 67.5288 162.608 67.6915C162.16 68.1974 161.562 68.5462 160.902 68.6868C160.051 68.9278 159.164 69.0155 158.282 68.9458C157.76 68.9221 157.252 68.771 156.802 68.5055C156.547 68.342 156.337 68.1151 156.195 67.8469C156.092 67.6496 156.04 67.4295 156.044 67.2068C156.05 66.9584 156.138 66.719 156.293 66.5247C156.448 66.3304 156.662 66.1919 156.902 66.1301C157.346 67.3659 159.418 67.1328 160.402 66.748C161.014 66.5361 161.518 66.0941 161.808 65.5159C162.098 65.5424 162.371 65.6603 162.589 65.8526C162.749 66.0237 162.859 66.2346 162.908 66.4632C162.958 66.6918 162.945 66.9295 162.87 67.1513Z" fill="#E0E0E0"/>
<path d="M161.89 64.9277C161.868 65.0199 161.838 65.1103 161.801 65.1978C161.512 65.7769 161.007 66.2194 160.395 66.4299C159.411 66.8184 157.339 67.0515 156.895 65.812C156.859 65.7064 156.834 65.5972 156.821 65.4864C156.8 65.2875 156.824 65.0866 156.891 64.8983C156.959 64.71 157.067 64.5392 157.209 64.3986C157.593 64.0732 158.072 63.8811 158.575 63.851C159.073 63.827 159.564 63.7285 160.032 63.5587C160.266 63.4694 160.467 63.3119 160.61 63.1066C160.752 62.9013 160.83 62.6579 160.832 62.408C161.15 62.7579 161.428 63.1427 161.66 63.555C161.889 63.9737 161.97 64.4573 161.89 64.9277Z" fill="#E0E0E0"/>
<path d="M163.448 68.3168C163.443 68.617 163.358 68.9106 163.203 69.1678C162.701 70.0125 161.895 70.6333 160.95 70.9031C160.012 71.1698 159.026 71.2254 158.064 71.0659C157.546 71.0122 157.044 70.8589 156.584 70.6145C156.353 70.4908 156.15 70.3193 155.99 70.1113C155.83 69.9034 155.716 69.6637 155.655 69.4083C155.655 68.968 155.685 68.3353 156.199 68.1614C156.34 68.4304 156.549 68.6576 156.806 68.82C157.256 69.0855 157.764 69.2367 158.286 69.2603C159.168 69.333 160.055 69.2466 160.906 69.005C161.567 68.8645 162.165 68.5141 162.611 68.006C162.731 67.8447 162.82 67.6628 162.874 67.4695C162.941 67.4889 163.004 67.5175 163.063 67.5546C163.185 67.6395 163.285 67.7538 163.352 67.8869C163.419 68.02 163.452 68.1677 163.448 68.3168Z" fill="#E0E0E0"/>
<path d="M92.4999 157.993C132.12 157.993 164.239 156.118 164.239 153.805C164.239 151.492 132.12 149.617 92.4999 149.617C52.8794 149.617 20.7606 151.492 20.7606 153.805C20.7606 156.118 52.8794 157.993 92.4999 157.993Z" fill="#F5F5F5"/>
<path d="M141.166 105.213L140.271 104.995C139.313 104.793 138.379 104.491 137.485 104.092L137.366 104.037C136.489 103.611 135.394 103.082 135.146 101.236C135.146 101.115 135.102 100.999 135.023 100.908C134.945 100.817 134.836 100.758 134.717 100.74C126.551 100.348 120.113 95.8152 120.361 90.6352C120.609 85.4552 127.461 81.5591 135.62 81.9476C143.778 82.3361 150.22 86.8797 149.968 92.0597C149.809 95.3675 146.879 98.3497 142.317 99.8001C142.187 99.8519 141.947 99.9185 141.618 100.004C140.482 100.303 138.362 100.862 137.829 101.968C137.566 102.512 137.988 103.215 138.521 103.6C138.804 103.792 139.104 103.959 139.416 104.1C139.763 104.259 140.096 104.449 140.411 104.666L141.166 105.213ZM134.506 82.2732C127.051 82.2732 120.986 85.8881 120.757 90.6315C120.516 95.608 126.799 99.9703 134.758 100.355C134.965 100.374 135.158 100.467 135.302 100.617C135.445 100.768 135.529 100.965 135.538 101.173C135.746 102.819 136.7 103.278 137.54 103.685L137.659 103.741C138.058 103.934 138.473 104.095 138.898 104.222C138.7 104.123 138.509 104.009 138.328 103.881C137.662 103.397 137.17 102.523 137.522 101.787C138.128 100.529 140.356 99.937 141.551 99.6262C141.854 99.5448 142.095 99.4819 142.217 99.4338C146.657 98.0093 149.473 95.1751 149.617 92.0338C149.857 87.0573 143.579 82.695 135.62 82.3102C135.242 82.2991 134.865 82.2917 134.495 82.2917L134.506 82.2732Z" fill="#FDAA46"/>
<path d="M135.908 96.1223L134.858 96.8882C134.851 96.8964 134.842 96.9027 134.832 96.9067L133.814 96.0557C130.643 93.2992 127.04 90.2689 129.874 87.7936C131.838 86.0731 134.118 87.6752 135.268 88.7149C136.486 87.7529 139.042 85.0149 141.188 88.3449C142.994 91.1088 139.25 93.5804 135.908 96.1223Z" fill="#FDAA46"/>
<path opacity="0.5" d="M130.029 88.8518C130.116 88.8562 130.198 88.8942 130.257 88.9579C130.316 89.0216 130.348 89.1059 130.345 89.1927C130.343 89.2796 130.307 89.3621 130.245 89.4228C130.183 89.4834 130.099 89.5174 130.013 89.5174C129.926 89.5174 129.842 89.4834 129.78 89.4228C129.718 89.3621 129.682 89.2796 129.68 89.1927C129.677 89.1059 129.709 89.0216 129.768 88.9579C129.828 88.8942 129.909 88.8562 129.996 88.8518H130.029Z" fill="white"/>
<path opacity="0.5" d="M131.276 92.5963C130.399 92.0265 131.276 90.0359 130.166 89.8694C129.374 90.2024 130.192 91.8859 131.276 92.5963Z" fill="white"/>
<path d="M169.837 135.823H14.3781V141.58H169.837V135.823Z" fill="#FDAA46"/>
<g opacity="0.7">
<path opacity="0.7" d="M169.837 135.823H14.3781V141.58H169.837V135.823Z" fill="white"/>
</g>
<path d="M22.7624 135.823H22.3924V141.858H22.7624V135.823Z" fill="white"/>
<path d="M57.535 135.823H57.165V141.858H57.535V135.823Z" fill="white"/>
<path d="M92.3076 135.823H91.9376V141.858H92.3076V135.823Z" fill="white"/>
<path d="M127.08 135.823H126.71V141.858H127.08V135.823Z" fill="white"/>
<path d="M161.853 135.823H161.483V141.858H161.853V135.823Z" fill="white"/>
<path d="M123.58 39.564C116.92 32.534 108.532 30.1401 102.394 32.7634C101.511 33.1422 100.536 33.2509 99.5917 33.0757C98.6473 32.9006 97.776 32.4494 97.088 31.7792C89.6547 24.6049 77.6149 23.7539 72.6199 30.5249C72.0613 31.2832 71.5815 32.0965 71.188 32.9521C70.5477 34.3596 69.5213 35.5567 68.228 36.4042C67.3485 36.984 66.5793 37.7157 65.9562 38.565C64.3726 40.7147 63.6844 43.523 63.8065 46.5348C63.8318 46.9671 63.7274 47.3971 63.5065 47.7696C63.2856 48.1421 62.9584 48.4401 62.567 48.6253C61.2003 49.2426 60.0182 50.2054 59.1371 51.4188C55.093 56.9022 56.8764 66.6702 63.1257 73.2488C68.6757 79.1022 75.9203 80.4416 80.29 76.786C80.476 76.6329 80.7095 76.5493 80.9504 76.5493C81.1913 76.5493 81.4248 76.6329 81.6109 76.786C84.7559 79.3094 88.4115 79.3279 90.3133 76.5899C90.3967 76.4685 90.5051 76.3662 90.631 76.2899C90.757 76.2135 90.8978 76.1648 91.044 76.147C91.1903 76.1291 91.3386 76.1426 91.4793 76.1864C91.6199 76.2302 91.7497 76.3034 91.8599 76.4012C95.1011 79.302 99.0231 79.4611 101.017 76.5899C101.373 76.0685 101.648 75.4958 101.831 74.8916C101.871 74.7576 101.937 74.6331 102.026 74.5256C102.115 74.4181 102.225 74.33 102.349 74.2666C102.474 74.2032 102.61 74.1658 102.749 74.1569C102.889 74.1479 103.028 74.1675 103.16 74.2145C105.283 74.973 107.363 74.6437 108.78 73.1526C108.931 72.9941 109.129 72.8895 109.345 72.8548C109.561 72.82 109.782 72.857 109.975 72.9602C117.249 76.8415 124.912 76.0941 129.178 70.311C134.883 62.5706 132.371 48.814 123.58 39.564Z" fill="#FDAA46"/>
<path opacity="0.5" d="M123.58 39.564C116.92 32.534 108.532 30.1401 102.394 32.7634C101.511 33.1422 100.536 33.2509 99.5917 33.0757C98.6473 32.9006 97.776 32.4494 97.088 31.7792C89.6547 24.6049 77.6149 23.7539 72.6199 30.5249C72.0613 31.2832 71.5815 32.0965 71.188 32.9521C70.5477 34.3596 69.5213 35.5567 68.228 36.4042C67.3485 36.984 66.5793 37.7157 65.9562 38.565C64.3726 40.7147 63.6844 43.523 63.8065 46.5348C63.8318 46.9671 63.7274 47.3971 63.5065 47.7696C63.2856 48.1421 62.9584 48.4401 62.567 48.6253C61.2003 49.2426 60.0182 50.2054 59.1371 51.4188C55.093 56.9022 56.8764 66.6702 63.1257 73.2488C68.6757 79.1022 75.9203 80.4416 80.29 76.786C80.476 76.6329 80.7095 76.5493 80.9504 76.5493C81.1913 76.5493 81.4248 76.6329 81.6109 76.786C84.7559 79.3094 88.4115 79.3279 90.3133 76.5899C90.3967 76.4685 90.5051 76.3662 90.631 76.2899C90.757 76.2135 90.8978 76.1648 91.044 76.147C91.1903 76.1291 91.3386 76.1426 91.4793 76.1864C91.6199 76.2302 91.7497 76.3034 91.8599 76.4012C95.1011 79.302 99.0231 79.4611 101.017 76.5899C101.373 76.0685 101.648 75.4958 101.831 74.8916C101.871 74.7576 101.937 74.6331 102.026 74.5256C102.115 74.4181 102.225 74.33 102.349 74.2666C102.474 74.2032 102.61 74.1658 102.749 74.1569C102.889 74.1479 103.028 74.1675 103.16 74.2145C105.283 74.973 107.363 74.6437 108.78 73.1526C108.931 72.9941 109.129 72.8895 109.345 72.8548C109.561 72.82 109.782 72.857 109.975 72.9602C117.249 76.8415 124.912 76.0941 129.178 70.311C134.883 62.5706 132.371 48.814 123.58 39.564Z" fill="white"/>
<path d="M77.7739 79.9792L83.7235 85.507C83.2462 93.3029 82.8577 111.259 82.8577 111.259L80.7413 123.813L99.3893 123.983C99.3893 123.983 98.542 113.383 98.542 112.806C98.542 112.228 94.9382 91.919 94.9382 91.919L93.6654 80.5453L103.285 77.6112L105.043 72.5422L112.11 68.5425L115.562 63.2404L114.23 62.9148L110.415 67.8136L105.975 68.7793L107.881 64.269H105.746L100.448 74.74L93.6099 76.1201L94.5016 61.4422C87.9341 63.5031 87.2977 59.7476 87.2977 59.7476C87.2977 59.7476 85.0444 79.5019 84.2489 81.7515L80.7302 79.9792L76.9229 73.9556H75.2283L77.7739 79.9792Z" fill="#FDAA46"/>
<path opacity="0.7" d="M77.7739 79.9792L83.7235 85.507C83.2462 93.3029 82.8577 111.259 82.8577 111.259L80.7413 123.813L99.3893 123.983C99.3893 123.983 98.542 113.383 98.542 112.806C98.542 112.228 94.9382 91.919 94.9382 91.919L93.6654 80.5453L103.285 77.6112L105.043 72.5422L112.11 68.5425L115.562 63.2404L114.23 62.9148L110.415 67.8136L105.975 68.7793L107.881 64.269H105.746L100.448 74.74L93.6099 76.1201L94.5016 61.4422C87.9341 63.5031 87.2977 59.7476 87.2977 59.7476C87.2977 59.7476 85.0444 79.5019 84.2489 81.7515L80.7302 79.9792L76.9229 73.9556H75.2283L77.7739 79.9792Z" fill="white"/>
<path d="M80.7044 117.26C80.364 116.783 80.1642 116.491 80.1642 116.491C80.1642 116.491 84.5746 116.428 87.5827 117.575C90.5908 118.722 95.83 123.513 99.3006 122.359C100.758 121.893 102.176 121.312 103.541 120.62C104.286 120.221 105.06 119.879 105.857 119.599C106.575 119.368 107.305 119.179 108.044 119.033C108.044 119.033 109.376 119.591 106.349 123.136C103.323 126.68 100.429 128.342 96.8179 127.85C94.8643 127.583 89.6473 125.907 86.7132 123.865C85.4515 122.988 83.7532 121.249 82.5766 119.832C82.7912 119.791 83.3166 120.072 83.9382 119.658C83.5417 119.669 83.1473 119.597 82.7802 119.447C82.4132 119.296 82.0817 119.071 81.807 118.785C81.9698 118.854 82.149 118.874 82.3231 118.843C82.4971 118.812 82.6584 118.731 82.7875 118.611C82.3659 118.542 81.9631 118.386 81.6046 118.154C81.246 117.921 80.9396 117.617 80.7044 117.26Z" fill="#FDAA46"/>
<path opacity="0.1" d="M92.0819 123.95L91.094 124.631C91.3842 124.778 91.7081 124.845 92.0329 124.827C92.3577 124.809 92.6719 124.705 92.944 124.527L92.3594 125.467L101.239 125.03C101.521 124.994 101.808 125.025 102.076 125.119C102.302 125.25 102.482 125.449 102.588 125.689C102.693 125.928 102.72 126.195 102.664 126.451L102.642 126.54C100.936 127.691 98.8618 128.165 96.8253 127.868C94.8717 127.602 89.6547 125.926 86.7206 123.883C86.2523 123.552 85.8084 123.187 85.3923 122.792C86.2474 122.879 87.0865 123.083 87.8861 123.399C89.2366 123.883 90.7166 124.412 92.0819 123.95Z" fill="black"/>
<path d="M100.607 128.601L99.0121 137.507C98.9462 137.879 98.7573 138.219 98.4756 138.472L98.1056 138.82C97.5456 139.324 97.1956 140.02 97.1251 140.77L96.115 151.452C96.0745 151.876 96.1774 152.302 96.4073 152.662L97.447 154.282C97.487 154.344 97.542 154.393 97.6068 154.427C97.6716 154.461 97.744 154.477 97.817 154.475H101.195C101.272 154.474 101.348 154.452 101.414 154.411C101.479 154.37 101.533 154.312 101.567 154.242C101.602 154.173 101.617 154.096 101.611 154.019C101.605 153.942 101.577 153.868 101.532 153.805C100.864 152.853 100.011 152.047 99.0232 151.433C97.2213 150.42 107.189 135.05 107.189 135.05C107.189 135.05 103.992 122.84 100.607 128.601Z" fill="#FDAA46"/>
<path opacity="0.1" d="M100.607 128.601L99.0121 137.507C98.9462 137.879 98.7573 138.219 98.4756 138.472L98.1056 138.82C97.5456 139.324 97.1956 140.02 97.1251 140.77L96.115 151.452C96.0745 151.876 96.1774 152.302 96.4073 152.662L97.447 154.282C97.487 154.344 97.542 154.393 97.6068 154.427C97.6716 154.461 97.744 154.477 97.817 154.475H101.195C101.272 154.474 101.348 154.452 101.414 154.411C101.479 154.37 101.533 154.312 101.567 154.242C101.602 154.173 101.617 154.096 101.611 154.019C101.605 153.942 101.577 153.868 101.532 153.805C100.864 152.853 100.011 152.047 99.0232 151.433C97.2213 150.42 107.189 135.05 107.189 135.05C107.189 135.05 103.992 122.84 100.607 128.601Z" fill="black"/>
<path d="M145.443 128.716L147.582 134.229C147.728 134.607 147.825 135.002 147.871 135.405L148.296 139.183C148.42 140.292 148.813 141.353 149.439 142.276C150.642 144.048 152.928 148.74 153.631 150.194C153.771 150.482 153.973 150.735 154.223 150.934L155.703 152.126C155.929 152.306 156.116 152.53 156.253 152.784C156.39 153.038 156.473 153.318 156.499 153.606C156.551 154.142 156.562 154.716 156.377 154.716H154.505C154.189 154.716 153.877 154.647 153.591 154.514C153.304 154.381 153.051 154.187 152.847 153.946C151.915 152.836 150.257 150.949 149.85 150.831C149.369 150.69 144.27 144.962 142.032 142.483C141.513 141.906 141.226 141.158 141.225 140.382C141.225 140.172 141.176 139.965 141.082 139.778C140.987 139.59 140.85 139.428 140.681 139.303C140.512 139.179 140.317 139.096 140.11 139.061C139.903 139.025 139.691 139.04 139.49 139.102C138.01 139.553 134.987 139.93 134.081 140.034C134.081 140.034 140.545 133.004 140.371 128.438C140.197 123.872 145.306 125.711 145.429 126.884C145.502 127.492 145.507 128.107 145.443 128.716Z" fill="#FDAA46"/>
<path opacity="0.1" d="M145.443 128.716L147.582 134.229C147.728 134.607 147.825 135.002 147.871 135.405L148.296 139.183C148.42 140.292 148.813 141.353 149.439 142.276C150.642 144.048 152.928 148.74 153.631 150.194C153.771 150.482 153.973 150.735 154.223 150.934L155.703 152.126C155.929 152.306 156.116 152.53 156.253 152.784C156.39 153.038 156.473 153.318 156.499 153.606C156.551 154.142 156.562 154.716 156.377 154.716H154.505C154.189 154.716 153.877 154.647 153.591 154.514C153.304 154.381 153.051 154.187 152.847 153.946C151.915 152.836 150.257 150.949 149.85 150.831C149.369 150.69 144.27 144.962 142.032 142.483C141.513 141.906 141.226 141.158 141.225 140.382C141.225 140.172 141.176 139.965 141.082 139.778C140.987 139.59 140.85 139.428 140.681 139.303C140.512 139.179 140.317 139.096 140.11 139.061C139.903 139.025 139.691 139.04 139.49 139.102C138.01 139.553 134.987 139.93 134.081 140.034C134.081 140.034 140.545 133.004 140.371 128.438C140.197 123.872 145.306 125.711 145.429 126.884C145.502 127.492 145.507 128.107 145.443 128.716Z" fill="black"/>
<path d="M105.45 119.761H105.494C106.205 119.536 107.074 119.306 108.084 119.081C114.97 117.493 127.768 115.913 133.84 116.08C134.14 116.08 134.421 116.102 134.684 116.121H134.71C135.155 116.144 135.599 116.195 136.038 116.272C136.308 116.315 136.572 116.392 136.822 116.502C136.918 116.541 137.006 116.598 137.081 116.668C140.041 119.547 144.681 121.497 145.266 126.495C145.277 126.568 145.284 126.641 145.288 126.714C145.325 127.11 145.337 127.508 145.321 127.905C145.321 127.975 145.321 128.049 145.321 128.123C145.321 128.283 145.303 128.449 145.284 128.616C145.286 128.645 145.286 128.675 145.284 128.704C145.081 130.665 144.341 133.022 142.864 135.927C142.735 136.182 142.598 136.441 142.454 136.707C141.911 137.615 141.092 138.325 140.115 138.731L139.941 138.813C139.495 139.01 139.037 139.176 138.569 139.312H138.55C137.269 139.665 135.955 139.886 134.628 139.971L134.306 139.993C133.976 140.013 133.645 140.013 133.315 139.993C132.412 139.923 131.487 139.76 130.658 139.893C130.586 139.904 130.514 139.919 130.444 139.938L130.34 139.96C129.992 140.047 129.669 140.212 129.393 140.441C129.334 140.484 129.28 140.532 129.23 140.585C129.032 140.783 128.862 141.007 128.723 141.251C128.486 141.668 128.334 142.129 128.275 142.605C128.238 142.868 128.198 143.138 128.157 143.419C127.632 146.953 126.977 151.726 129.855 152.566C130.965 152.891 130.732 154.009 130.825 154.316C131.328 155.992 127.495 155.548 127.495 155.548C126.555 155.226 125.437 154.789 124.561 155.048C124.191 155.152 123.713 154.549 123.769 154.171C124.379 149.794 123.328 145.621 122.977 139.656H122.788L115.81 139.294H115.525H115.396C115.322 139.497 113.897 144.788 115.137 147.785C116.102 150.116 118.278 151.615 120.757 152.085C121.73 152.27 121.697 153.195 121.982 154.231C122.289 155.315 120.328 154.945 119.203 154.908C119.203 154.908 112.802 152.895 110.774 149.461C110.127 148.351 111.488 147.201 110.963 146.035C109.853 143.552 107.936 140.855 106.386 138.613C106.14 138.258 105.881 137.91 105.609 137.57C104.651 136.345 103.589 135.187 102.668 133.951C102.601 134.28 102.523 134.606 102.49 134.861C102.121 134.293 101.919 133.633 101.909 132.956L101.169 134.395C100.951 132.878 100.733 131.368 100.511 129.855C100.492 129.737 100.477 129.622 100.466 129.507C100.456 129.384 100.456 129.26 100.466 129.137C100.387 128.633 100.353 128.123 100.363 127.613C100.375 126.745 100.506 125.884 100.755 125.052C101.253 123.31 102.262 121.757 103.652 120.594L105.45 119.761Z" fill="#FDAA46"/>
<path opacity="0.1" d="M130.506 139.704C130.447 139.793 130.381 139.876 130.307 139.952C131.513 139.634 132.96 140.086 134.277 140.004C135.971 139.901 137.925 139.116 139.668 138.339C139.668 138.339 141.551 137.018 142.187 136.23C142.37 135.997 142.508 135.733 142.594 135.449C142.861 134.617 142.924 134.117 142.054 133.599C140.818 132.859 136.789 134.147 135.531 134.613C133.681 135.294 131.968 136.545 131.154 138.332C130.977 138.806 130.76 139.266 130.506 139.704Z" fill="black"/>
<path opacity="0.1" d="M129.197 140.578C129.246 140.525 129.301 140.476 129.359 140.433H129.237C129.214 140.478 129.2 140.527 129.197 140.578Z" fill="black"/>
<path opacity="0.1" d="M114.104 136.138C114.704 136.755 115.337 138.062 115.359 138.813C115.359 139.183 115.359 139.227 115.385 139.279L115.995 139.301L122.907 139.641C122.955 138.881 122.742 138.126 122.304 137.503L120.158 134.243C120.176 134.902 120.191 135.557 120.206 136.215C119.679 135.457 119.066 134.763 118.378 134.147C118.356 134.739 118.337 135.331 118.315 135.919L117.205 135.179C117.231 135.601 117.257 136.023 117.286 136.445C117.179 136.31 117.034 136.211 116.87 136.16C116.705 136.109 116.53 136.109 116.365 136.16C116.539 136.384 116.648 136.651 116.68 136.933C116.68 137.218 116.465 137.525 116.188 137.507C116.05 137.485 115.922 137.424 115.818 137.333C115.248 136.937 114.674 136.53 114.104 136.138Z" fill="black"/>
<path d="M138.517 109.461C140.818 108.31 143.486 108.188 146.058 108.206C147.238 108.206 148.474 108.262 149.502 108.843C150.531 109.424 151.26 110.693 150.823 111.803L153.857 111.891C154.141 112.929 154.098 114.029 153.736 115.041C153.373 116.054 152.708 116.931 151.83 117.552L152.647 117.726C153.199 117.956 153.228 118.792 152.858 119.266C152.488 119.739 151.889 119.95 151.345 120.194C150.248 120.698 149.261 121.413 148.44 122.299C147.62 123.184 146.983 124.223 146.565 125.356C146.195 126.414 145.362 129.255 144.363 129.777C143.098 130.436 142.143 127.875 141.085 126.928C139.313 125.356 137.592 123.68 136.378 121.648C133.94 117.549 133.703 111.866 138.517 109.461Z" fill="#FDAA46"/>
<path opacity="0.2" d="M146.394 118.367C147.064 118.848 147.941 118.911 148.766 118.962L152.895 119.207C153.005 119.042 153.073 118.852 153.092 118.654C153.112 118.457 153.082 118.258 153.006 118.074C152.931 117.916 152.799 117.793 152.636 117.73L151.818 117.556C152.697 116.934 153.362 116.057 153.725 115.043C154.088 114.03 154.13 112.93 153.846 111.892L152.954 111.866V113.238C152.584 116.975 148.981 116.998 145.924 116.224C145.388 116.839 145.721 117.889 146.394 118.367Z" fill="black"/>
<path opacity="0.1" d="M134.488 119.314C133.478 120.402 136.859 117.375 136.989 115.899C137.803 116.139 138.683 115.592 139.105 114.859C139.473 114.091 139.665 113.25 139.668 112.398C139.668 112.398 139.216 114.53 137.947 114.53H136.678C136.678 114.53 135.339 118.4 134.488 119.314Z" fill="black"/>
<path d="M145.843 111.988C145.843 112.214 146.176 112.399 146.583 112.399C146.99 112.399 147.323 112.214 147.323 111.988C147.323 111.762 146.99 111.577 146.583 111.577C146.176 111.577 145.843 111.762 145.843 111.988Z" fill="#373842"/>
<path opacity="0.1" d="M145.78 125.03C145.654 124.29 145.229 123.55 144.522 123.328C144.62 123.367 144.724 123.385 144.829 123.381C144.934 123.376 145.037 123.349 145.131 123.302C145.225 123.255 145.307 123.188 145.373 123.106C145.439 123.024 145.487 122.93 145.514 122.828C145.54 122.726 145.545 122.62 145.527 122.517C145.509 122.413 145.47 122.314 145.411 122.227C145.352 122.14 145.275 122.067 145.186 122.012C145.096 121.956 144.996 121.921 144.892 121.907C145.48 121.8 145.795 120.92 145.477 120.353C145.125 119.721 144.367 119.454 143.664 119.284H143.693C145.907 119.514 148.101 119.908 150.257 120.461L150.649 120.553C148.768 121.626 147.326 123.33 146.579 125.363C146.402 125.844 146.135 126.699 145.806 127.535C145.806 127.439 145.806 127.346 145.806 127.25C145.864 126.511 145.856 125.768 145.78 125.03Z" fill="black"/>
<path d="M152.307 111.847L153.857 111.895C154.049 112.559 154.098 113.257 154.001 113.941C153.558 113.776 153.166 113.494 152.868 113.126C152.57 112.757 152.376 112.316 152.307 111.847Z" fill="#373842"/>
<path d="M149.517 118.326C149.987 118.344 150.52 118.344 151.127 118.326H151.164H151.356H151.574C152.096 118.296 152.525 118.581 153.054 118.877C153.317 119.06 153.601 119.208 153.902 119.317C154.052 119.37 154.215 119.376 154.369 119.334C154.522 119.292 154.66 119.205 154.764 119.084C154.839 118.948 154.87 118.791 154.852 118.636C154.833 118.482 154.766 118.337 154.66 118.222C154.44 118.001 154.159 117.849 153.854 117.786C153.25 117.631 152.624 117.58 152.004 117.634C151.934 117.637 151.865 117.644 151.796 117.656C150.927 117.726 150.124 118.148 149.517 118.326Z" fill="#E8483F"/>
<path d="M149.517 118.326C150.053 118.371 150.591 118.371 151.127 118.326C150.52 118.344 149.987 118.344 149.517 118.326Z" fill="#E8483F"/>
<path d="M147.049 117.83C147.83 118.16 148.669 118.329 149.517 118.326C150.172 118.133 151.06 117.652 151.996 117.586L151.83 117.549C150.101 117.873 148.314 117.613 146.749 116.809C146.749 116.809 145.78 117.175 147.049 117.83Z" fill="#373842"/>
<path d="M145.499 134.961C145.512 134.682 145.467 134.403 145.369 134.142C145.27 133.88 145.119 133.642 144.925 133.44C145.012 134.736 144.739 136.03 144.137 137.181L144.182 135.805C143.709 136.59 143.029 137.23 142.217 137.655C142.414 137.51 142.58 137.326 142.704 137.115C142.828 136.904 142.908 136.669 142.938 136.426C142.487 137.174 141.949 137.865 141.336 138.487C140.718 139.112 139.897 139.497 139.02 139.571C140.304 138.663 141.393 137.508 142.225 136.174C143.057 134.84 143.616 133.353 143.867 131.801C143.94 131.051 144.079 130.308 144.282 129.581C144.496 128.952 145.022 127.82 145.351 128.908C145.906 130.677 145.628 133.152 145.499 134.961Z" fill="#FDAA46"/>
<path d="M130.506 141.007L129.87 140.396C129.946 141.097 129.779 141.802 129.396 142.394C129.396 142.102 129.396 141.81 129.367 141.517C129.021 142.432 128.428 143.233 127.654 143.83C127.824 142.879 128.024 141.932 128.297 140.996C128.475 140.355 129.008 138.639 129.962 138.776C130.917 138.912 130.025 140.548 130.506 141.007Z" fill="#FDAA46"/>
<path d="M134.68 116.013C134.742 116.443 134.729 116.88 134.639 117.305C134.629 117.356 134.608 117.404 134.576 117.445C134.502 118.818 135.035 120.261 136.175 121.745C138.835 125.208 143.945 127.735 145.503 127.924C145.577 127.951 145.64 128.002 145.684 128.069C145.727 128.136 145.747 128.214 145.742 128.294C145.737 128.373 145.707 128.448 145.656 128.509C145.605 128.57 145.535 128.612 145.458 128.63H145.417C143.567 128.412 138.328 125.722 135.609 122.178C134.243 120.398 133.67 118.637 133.91 116.946C133.952 116.651 133.921 116.35 133.822 116.069L134.68 116.013Z" fill="#373842"/>
<path d="M135.217 122.177C135.457 121.856 135.957 121.523 135.816 121.138C136.082 121.959 136.16 122.592 136.804 123.169L136.715 122.24C137.088 123.206 137.719 124.051 138.539 124.682C138.522 124.372 138.39 124.079 138.169 123.861C138.872 124.342 139.676 124.653 140.519 124.771C139.453 122.84 137.389 120.276 135.187 119.654C135.194 120.194 135.553 121.73 135.217 122.177Z" fill="#FDAA46"/>
<path d="M141.044 126.51C141.233 126.14 141.662 125.752 141.481 125.4C141.851 126.17 142.039 126.784 142.761 127.25L142.535 126.347C143.049 127.246 143.8 127.986 144.707 128.486C144.645 128.183 144.474 127.913 144.226 127.727C144.993 128.097 145.835 128.283 146.687 128.271C145.34 126.525 142.909 124.301 140.641 124.02C140.722 124.549 141.307 126.018 141.044 126.51Z" fill="#FDAA46"/>
<path d="M54.0422 78.6322C57.1835 80.534 70.6145 82.865 71.4322 82.8095C71.7452 82.8089 72.0528 82.728 72.3256 82.5744C72.5983 82.4209 72.8271 82.1999 72.9899 81.9326C73.1287 81.6833 73.2118 81.407 73.2333 81.1225C73.2549 80.8381 73.2146 80.5524 73.115 80.285C73.0155 80.0177 72.8591 79.7752 72.6568 79.5741C72.4544 79.3731 72.2108 79.2183 71.9428 79.1206C68.4759 77.796 62.345 75.243 59.7328 73.7852C57.683 72.6456 60.717 58.001 56.8653 56.7393C50.6123 54.6969 50.32 76.3826 54.0422 78.6322Z" fill="#FDAA46"/>
<g opacity="0.1">
<path opacity="0.1" d="M54.0422 78.6322C57.1835 80.534 70.6145 82.865 71.4322 82.8095C71.7452 82.8089 72.0528 82.728 72.3256 82.5744C72.5983 82.4209 72.8271 82.1999 72.9899 81.9326C73.1287 81.6833 73.2118 81.407 73.2333 81.1225C73.2549 80.8381 73.2146 80.5524 73.115 80.285C73.0155 80.0177 72.8591 79.7752 72.6568 79.5741C72.4544 79.3731 72.2108 79.2183 71.9428 79.1206C68.4759 77.796 62.345 75.243 59.7328 73.7852C57.683 72.6456 60.717 58.001 56.8653 56.7393C50.6123 54.6969 50.32 76.3826 54.0422 78.6322Z" fill="black"/>
</g>
<path d="M70.9513 82.913L74.3886 84.6927C74.3886 84.6927 76.4976 81.6032 76.5642 81.2406C76.5642 81.2406 74.9325 79.9012 73.1602 79.8901L72.0132 79.9789C71.8581 79.9904 71.7071 80.0338 71.5695 80.1063C71.432 80.1789 71.311 80.2792 71.214 80.4007L70.585 81.1851C70.479 81.3169 70.4036 81.4705 70.3643 81.635C70.325 81.7995 70.3228 81.9706 70.3579 82.1361C70.393 82.3015 70.4644 82.457 70.5671 82.5914C70.6697 82.7258 70.8009 82.8357 70.9513 82.913Z" fill="#FFB373"/>
<path d="M73.6745 84.3597L76.4199 81.1814L78.0331 82.1397C78.1034 82.1822 78.1638 82.2393 78.2103 82.3071C78.2568 82.3748 78.2883 82.4518 78.3026 82.5327C78.317 82.6136 78.3139 82.6966 78.2936 82.7763C78.2733 82.8559 78.2362 82.9303 78.1848 82.9944L76.7566 84.7741C76.6065 84.9576 76.4016 85.0881 76.1719 85.1467C75.9422 85.2053 75.6997 85.1888 75.4801 85.0997L73.6745 84.3597Z" fill="#FFB373"/>
<path d="M56.0735 56.6099C57.6645 57.3499 58.3527 68.2057 57.3574 79.9606C57.1613 82.2768 44.1447 82.5506 41.7989 80.4416L37.1258 61.5716C36.9746 60.9607 36.9528 60.3251 37.0618 59.7053C37.1708 59.0856 37.4082 58.4954 37.7587 57.9728C38.1091 57.4502 38.565 57.0067 39.0971 56.6706C39.6291 56.3346 40.2255 56.1135 40.848 56.0216C41.9062 55.8699 47.1158 52.4178 56.0735 56.6099Z" fill="#FDAA46"/>
<path d="M57.35 79.9568C57.72 82.0473 58.1307 86.4614 59.0113 88.378L59.089 88.5519C59.4802 89.4307 59.6024 90.4057 59.4404 91.3539C59.2784 92.3021 58.8394 93.1812 58.1786 93.8803C57.5179 94.5794 56.665 95.0673 55.7274 95.2825C54.7898 95.4978 53.8095 95.4307 52.91 95.0898L50.283 94.0908C50.283 94.0908 49.1286 94.1537 40.2005 91.5008C40.0155 91.4453 39.4605 90.6683 39.5197 88.4335C39.5781 86.6844 39.9543 84.9605 40.6297 83.346L41.8137 80.4415C46.992 80.9423 52.213 80.7795 57.35 79.9568Z" fill="#373842"/>
<path d="M69.6452 142.842L69.5601 153.709C69.216 153.887 65.4716 155.263 65.4161 154.22C65.2459 151.038 64.9092 144.352 64.9092 144.352L69.6452 142.842Z" fill="#FFB373"/>
<path d="M70.5554 151C70.5333 150.997 70.5128 150.987 70.4964 150.972C70.48 150.957 70.4683 150.937 70.4629 150.915C70.4585 150.894 70.4608 150.871 70.4693 150.851C70.4779 150.83 70.4924 150.813 70.511 150.801C70.5739 150.756 72.0909 149.724 72.8642 149.872C72.9378 149.882 73.0086 149.906 73.0723 149.944C73.1359 149.983 73.191 150.033 73.2342 150.094C73.29 150.158 73.3243 150.237 73.3323 150.322C73.3402 150.406 73.3215 150.491 73.2786 150.564C73.1269 150.841 72.5682 150.967 71.9799 151.008C71.5058 151.05 71.0289 151.047 70.5554 151ZM72.6274 150.068C72.0115 150.202 71.4273 150.453 70.9069 150.808C71.7579 150.86 72.9123 150.76 73.101 150.438C73.1232 150.397 73.1454 150.331 73.0566 150.201C73.0317 150.165 72.9994 150.134 72.9617 150.111C72.9241 150.088 72.882 150.073 72.8383 150.068C72.767 150.059 72.6949 150.059 72.6237 150.068H72.6274Z" fill="#FDAA46"/>
<path d="M70.4962 150.96C70.4812 150.948 70.4701 150.931 70.4642 150.913C70.4583 150.895 70.4578 150.875 70.4629 150.856C70.4629 150.804 70.4888 149.572 71.0327 149.047C71.1122 148.975 71.2052 148.921 71.3062 148.886C71.4073 148.851 71.5143 148.836 71.621 148.843C71.7137 148.832 71.8074 148.854 71.8858 148.905C71.9642 148.955 72.0224 149.032 72.0502 149.121C72.1797 149.624 71.1659 150.693 70.6368 150.971H70.5924L70.4962 150.96ZM71.1844 149.217C70.8743 149.638 70.7035 150.145 70.696 150.668C71.2288 150.298 71.9355 149.439 71.8356 149.151C71.8356 149.125 71.8097 149.051 71.6173 149.043L71.5507 149.065C71.4147 149.069 71.2846 149.121 71.1844 149.213V149.217Z" fill="#FDAA46"/>
<path d="M69.7894 150.22L65.3494 150.338C65.258 150.338 65.1695 150.371 65.1012 150.432C65.0329 150.493 64.9895 150.577 64.9794 150.668L64.2098 154.349C64.158 154.719 64.8758 155.13 64.9165 155.126C67.6249 155.318 73.4265 155.281 75.3542 155.193C77.2819 155.104 77.4299 153.195 76.6381 153.061C73.0861 152.455 71.7097 151.456 70.5442 150.497C70.3362 150.314 70.0669 150.215 69.7894 150.22Z" fill="#373842"/>
<g opacity="0.2">
<path opacity="0.2" d="M65.0794 147.656L64.9092 144.352L69.6415 142.842L69.5564 147.289L65.0794 147.656Z" fill="black"/>
</g>
<path d="M31.9533 141.399L25.9223 150.442C25.5523 150.401 21.6525 149.498 22.1779 148.592C23.78 145.835 27.1655 140.06 27.1655 140.06L31.9533 141.399Z" fill="#FFB373"/>
<path d="M28.2385 148.74C28.2222 148.725 28.2108 148.705 28.2055 148.683C28.2002 148.662 28.2014 148.639 28.2089 148.618C28.2171 148.597 28.2314 148.579 28.2498 148.567C28.2683 148.554 28.2902 148.547 28.3125 148.548C28.3902 148.548 30.2217 148.514 30.7878 149.066C30.8424 149.111 30.887 149.168 30.9188 149.231C30.9507 149.295 30.969 149.364 30.9728 149.436C30.984 149.52 30.9687 149.605 30.9288 149.68C30.889 149.755 30.8268 149.816 30.7508 149.854C30.4733 150.002 29.9368 149.798 29.4262 149.513C29.0068 149.293 28.6092 149.034 28.2385 148.74ZM30.4844 149.11C29.8955 148.879 29.2669 148.766 28.6344 148.777C29.3189 149.288 30.3364 149.839 30.6657 149.683C30.7101 149.658 30.7619 149.613 30.7619 149.458C30.7599 149.413 30.749 149.37 30.7299 149.33C30.7109 149.29 30.684 149.254 30.6509 149.225C30.5959 149.18 30.5378 149.139 30.477 149.103L30.4844 149.11Z" fill="#FDAA46"/>
<path d="M28.2164 148.651C28.21 148.633 28.209 148.614 28.2136 148.595C28.2182 148.577 28.2282 148.56 28.2423 148.547C28.2756 148.503 28.9823 147.486 29.7223 147.345C29.936 147.315 30.1529 147.371 30.3254 147.5C30.4088 147.542 30.4752 147.611 30.5131 147.696C30.5509 147.781 30.5578 147.877 30.5326 147.967C30.3624 148.459 28.9305 148.799 28.3126 148.751H28.2682L28.2164 148.651ZM29.7445 147.574C29.255 147.756 28.8345 148.086 28.542 148.518C29.2006 148.488 30.2514 148.17 30.3254 147.874C30.3254 147.844 30.3587 147.774 30.2033 147.663H30.1367C30.0222 147.584 29.8818 147.552 29.7445 147.574Z" fill="#FDAA46"/>
<path d="M28.0313 147.63L24.2721 145.317C24.196 145.266 24.1034 145.245 24.0125 145.258C23.9215 145.271 23.8386 145.317 23.78 145.388L21.116 148.044C20.8681 148.329 21.2455 149.062 21.2788 149.084C23.4396 150.727 28.3088 153.894 29.9701 154.863C31.6314 155.833 32.8043 154.331 32.216 153.783C29.5779 151.33 28.9748 149.739 28.516 148.3C28.4439 148.024 28.271 147.785 28.0313 147.63Z" fill="#373842"/>
<g opacity="0.2">
<path opacity="0.2" d="M25.493 142.924L27.1654 140.063L31.9532 141.399L29.4409 145.07L25.493 142.924Z" fill="black"/>
</g>
<path d="M48.6402 96.0222C49.7909 100.558 58.7116 111.995 61.6679 119.665C63.9434 125.585 63.677 137.769 63.6104 144.588C63.6013 144.902 63.6631 145.213 63.7912 145.498C63.9194 145.784 64.1106 146.037 64.3504 146.239C64.3504 146.239 68.265 146.091 69.4712 145.891C73.3229 145.254 72.2536 125.67 71.9502 120.89C71.4359 112.772 66.3447 99.5002 58.6117 87.2199C57.3167 85.1627 55.0449 86.4355 52.0294 87.268C51.4818 87.4234 47.5265 91.6192 48.6402 96.0222Z" fill="#373842"/>
<path opacity="0.2" d="M51.0601 90.439C50.2831 89.6176 50.2905 99.8629 50.2905 99.8629L54.5862 107.3C54.5862 107.3 57.0023 96.7364 51.0601 90.439Z" fill="black"/>
<path d="M40.0711 90.7311C31.772 135.157 23.9872 138.406 25.6633 141.34C25.6633 141.34 29.1931 143.079 30.1366 143.859C32.3566 145.709 42.8276 128.689 44.2373 124.101C47.3823 113.86 51.4116 102.49 52.0332 90.9938C52.1664 88.5666 50.6827 86.2356 47.7079 85.2773C47.164 85.0997 40.9073 86.2689 40.0711 90.7311Z" fill="#373842"/>
<path opacity="0.1" d="M44.2669 74.2034C44.0412 74.5734 42.6796 73.6447 42.4169 73.2932C41.6177 72.1499 41.3476 70.0816 41.1034 68.7348C40.8084 67.1131 40.6844 65.465 40.7334 63.8175C40.7593 63.1293 40.6483 59.7697 41.7139 61.0018C42.6019 61.9971 44.4889 73.8371 44.2669 74.2034Z" fill="black"/>
<path d="M53.0803 85.7844C52.6659 85.9176 52.196 85.6845 51.826 85.1628C51.4389 84.6138 51.1913 83.9789 51.1045 83.3128L50.0537 84.9445C49.8576 85.2479 49.606 85.5587 49.2249 85.5476C49.1356 85.5453 49.0478 85.5239 48.9674 85.485C48.8871 85.4461 48.8159 85.3905 48.7587 85.3219C48.6615 85.1953 48.5905 85.0506 48.5498 84.8962C48.5092 84.7418 48.4997 84.5809 48.5219 84.4228C48.6079 83.8324 48.9245 83.3001 49.4025 82.9428C49.8696 82.5724 50.4634 82.3997 51.0564 82.4618L50.9972 82.3101L51.3302 82.1843L51.3635 82.2694L51.4301 82.1584V82.3138C51.698 82.2407 51.9806 82.2398 52.249 82.3113C52.5174 82.3828 52.7621 82.5241 52.9582 82.7208C53.3668 83.169 53.6187 83.7377 53.676 84.3414C53.7573 84.889 53.6537 85.5994 53.0914 85.7881L53.0803 85.7844ZM51.4301 82.6912V82.7652C51.4262 83.5509 51.6681 84.318 52.1219 84.9593C52.3328 85.259 52.6548 85.5476 52.9804 85.444C53.3503 85.3182 53.38 84.704 53.3282 84.3858C53.2821 83.8588 53.0652 83.3611 52.7103 82.9687C52.5763 82.8301 52.412 82.7245 52.2303 82.6603C52.0486 82.5961 51.8544 82.575 51.6632 82.5987L51.4338 82.6764L51.4301 82.6912ZM50.2535 82.8836C50.0254 82.9558 49.8123 83.0686 49.6245 83.2166C49.2223 83.5194 48.9562 83.969 48.8845 84.4672C48.8552 84.6867 48.9108 84.909 49.0399 85.0888C49.0645 85.1204 49.0959 85.1461 49.1318 85.164C49.1676 85.1819 49.207 85.1916 49.2471 85.1924C49.4506 85.1924 49.6171 84.9741 49.7651 84.7521L51.0009 82.8392L50.9343 82.8614L50.9121 82.7985C50.6881 82.7822 50.4631 82.8098 50.2498 82.8799L50.2535 82.8836Z" fill="#FDAA46"/>
<path d="M48.5885 91.0198L48.2703 90.857C49.5511 88.3601 50.1714 85.5769 50.0722 82.7725H50.4422C50.5372 85.6346 49.8991 88.4736 48.5885 91.0198Z" fill="#FDAA46"/>
<path d="M55.5963 90.365L55.2485 90.439C54.6185 87.4561 52.9047 84.8129 50.4385 83.0205L50.6494 82.7319C53.1857 84.5769 54.9481 87.2964 55.5963 90.365Z" fill="#FDAA46"/>
<path d="M46.0947 51.1708L45.8209 50.9488C45.0143 49.9276 44.7109 48.7658 44.3594 46.9565C44.2669 46.494 44.1781 45.9871 44.0745 45.4284C43.9285 44.6925 43.9538 43.9329 44.1485 43.2084C44.2509 42.8223 44.3987 42.4497 44.5888 42.0984C45.0217 43.7079 45.0846 45.3803 45.2326 47.0305C45.314 48.4456 45.6045 49.8408 46.0947 51.1708Z" fill="#373842"/>
<path d="M53.1912 58.5412C49.1212 64.2022 44.0485 56.0363 40.9812 56.0955C40.4987 56.2059 40.0358 56.3893 39.6085 56.6394C39.4798 56.6214 39.35 56.6115 39.22 56.6098C38.6909 56.5988 38.1752 56.7773 37.7659 57.113C37.4662 56.78 38.7797 54.9337 38.8537 54.4897C39.2977 51.7813 42.1356 49.7056 44.8514 50.1015C44.8514 50.1015 49.2026 50.9784 50.5235 52.3807C51.3745 53.2798 52.6732 54.6377 53.2097 56.0807C53.3771 56.4698 53.4619 56.8894 53.4587 57.3129C53.4555 57.7365 53.3644 58.1547 53.1912 58.5412Z" fill="#373842"/>
<path d="M46.4536 49.2285C46.6571 51.0785 46.7977 53.6685 45.795 55.1485C45.6198 55.3951 45.5217 55.688 45.5131 55.9904C45.5046 56.2927 45.5859 56.5907 45.7469 56.8468C46.1946 57.5165 47.0715 58.4452 48.8068 59.5256C49.1222 59.7239 49.4833 59.838 49.8555 59.857C50.2276 59.876 50.5984 59.7992 50.9324 59.6341C51.2665 59.4689 51.5526 59.2209 51.7634 58.9136C51.9743 58.6064 52.1028 58.2502 52.1368 57.8791C52.1649 57.4806 52.07 57.0831 51.8649 56.7403C51.6597 56.3975 51.3543 56.126 50.9898 55.9625C49.4913 55.2595 49.6541 54.3604 50.1166 52.9618L46.4536 49.2285Z" fill="#FFB373"/>
<path opacity="0.2" d="M47.9373 50.738L50.0759 52.958C49.9464 53.3274 49.8498 53.7075 49.7873 54.0939C48.9215 53.8904 47.608 53.0209 47.497 52.033C47.5353 51.5718 47.6865 51.127 47.9373 50.738Z" fill="black"/>
<path d="M54.3161 49.2098C54.2232 50.2805 53.7347 51.2781 52.9459 52.0081C52.1571 52.738 51.1247 53.1479 50.05 53.1577H50.0241C49.1897 53.1635 48.3687 52.9477 47.645 52.5324C47.3751 52.3838 47.1188 52.2117 46.8791 52.0181C46.7792 51.9404 46.683 51.859 46.5942 51.7813C46.3118 51.5344 46.0529 51.2619 45.8209 50.9673C45.0143 49.9461 44.7109 48.7843 44.3594 46.975C44.2669 46.5125 44.1781 46.0056 44.0745 45.4469C43.9285 44.711 43.9538 43.9514 44.1485 43.2269C44.2509 42.8408 44.3987 42.4682 44.5888 42.1169C44.6716 41.9622 44.7656 41.8138 44.87 41.6729C45.4267 40.87 46.2197 40.2605 47.1387 39.929C48.0577 39.5974 49.0572 39.5603 49.9982 39.8229C51.6151 40.2521 52.7288 41.5656 53.4281 43.1751C53.5021 43.3342 53.565 43.5007 53.6242 43.6635C54.2599 45.4389 54.4962 47.3326 54.3161 49.2098Z" fill="#FFB373"/>
<path d="M49.6911 45.6431C49.7318 45.928 49.9094 46.1426 50.0907 46.1204C50.272 46.0982 50.3978 45.8429 50.3645 45.558C50.3312 45.2731 50.1462 45.0548 49.9649 45.077C49.7836 45.0992 49.6726 45.3656 49.6911 45.6431Z" fill="#373842"/>
<path d="M52.873 45.2433C52.9137 45.5319 53.0913 45.7428 53.2726 45.7206C53.4539 45.6984 53.5797 45.4431 53.5464 45.1582C53.5131 44.8733 53.3281 44.655 53.1468 44.6846C52.9655 44.7142 52.8397 44.9547 52.873 45.2433Z" fill="#373842"/>
<path d="M51.9554 45.8799C52.2885 46.5016 52.7042 47.0754 53.1912 47.5856C53.0605 47.7074 52.9046 47.7991 52.7345 47.854C52.5644 47.909 52.3844 47.926 52.207 47.9038L51.9554 45.8799Z" fill="#E8483F"/>
<path d="M50.8122 49.2319C50.952 49.2357 51.0918 49.2283 51.2303 49.2097C51.2523 49.2069 51.2723 49.1957 51.2861 49.1785C51.2999 49.1612 51.3064 49.1392 51.3043 49.1172C51.2999 49.0957 51.2875 49.0765 51.2698 49.0635C51.252 49.0506 51.23 49.0446 51.2081 49.0469C50.8576 49.099 50.4997 49.0664 50.1643 48.9518C49.8289 48.8372 49.5259 48.644 49.2804 48.3883C49.2732 48.3803 49.2643 48.374 49.2544 48.3696C49.2445 48.3653 49.2339 48.363 49.2231 48.363C49.2123 48.363 49.2016 48.3653 49.1917 48.3696C49.1819 48.374 49.173 48.3803 49.1657 48.3883C49.1577 48.3959 49.1512 48.4051 49.1469 48.4153C49.1425 48.4255 49.1402 48.4364 49.1402 48.4475C49.1402 48.4586 49.1425 48.4696 49.1469 48.4798C49.1512 48.4899 49.1577 48.4991 49.1657 48.5067C49.3775 48.7318 49.6325 48.912 49.9153 49.0366C50.1982 49.1612 50.5032 49.2276 50.8122 49.2319Z" fill="#373842"/>
<path d="M48.3332 45.1397C48.369 45.1429 48.4047 45.1335 48.4344 45.1133C48.4641 45.0931 48.4858 45.0632 48.496 45.0287C48.6185 44.7842 48.7902 44.5676 49.0003 44.3925C49.2104 44.2175 49.4544 44.0876 49.717 44.0112C49.7609 43.9991 49.7983 43.9702 49.8211 43.9307C49.844 43.8913 49.8504 43.8444 49.8391 43.8003C49.8278 43.7584 49.8005 43.7226 49.7632 43.7005C49.7259 43.6784 49.6814 43.6717 49.6393 43.6819C49.3228 43.7702 49.0292 43.926 48.7788 44.1388C48.5284 44.3515 48.3272 44.616 48.1889 44.914C48.1744 44.9557 48.1768 45.0015 48.1954 45.0415C48.214 45.0816 48.2475 45.1128 48.2888 45.1286C48.3023 45.1363 48.3176 45.1401 48.3332 45.1397Z" fill="#373842"/>
<path d="M53.65 43.6228C53.6875 43.6241 53.7243 43.6131 53.7549 43.5913C53.7854 43.5696 53.8079 43.5383 53.8189 43.5025C53.8299 43.4666 53.8287 43.4282 53.8155 43.3931C53.8024 43.3579 53.778 43.3281 53.7462 43.3083C53.5262 43.1541 53.2709 43.0577 53.0039 43.0279C52.7369 42.9982 52.4667 43.0361 52.2181 43.1381C52.1789 43.1559 52.1482 43.1882 52.1323 43.2283C52.1165 43.2683 52.1167 43.3129 52.133 43.3527C52.1414 43.3729 52.1538 43.3912 52.1695 43.4063C52.1853 43.4215 52.204 43.4333 52.2244 43.4409C52.2449 43.4486 52.2668 43.4519 52.2886 43.4507C52.3104 43.4496 52.3318 43.4439 52.3513 43.4341C52.548 43.361 52.7594 43.3366 52.9675 43.363C53.1756 43.3894 53.3743 43.4659 53.5464 43.5858C53.5751 43.6107 53.6121 43.6239 53.65 43.6228Z" fill="#373842"/>
<path d="M46.0946 47.9223C45.9429 48.1184 45.4693 47.0713 45.2251 47.0232C44.9383 46.9617 44.6449 46.9369 44.3519 46.9492C44.696 48.7585 45.0068 49.9092 45.8134 50.9415C44.4666 49.8019 43.2789 48.4033 42.7387 46.7124C42.474 45.7626 42.4672 44.7594 42.7189 43.806C42.9705 42.8527 43.4716 41.9836 44.1706 41.2882C44.2816 41.1883 44.4592 41.2327 44.5961 41.2882C44.733 41.3437 45.4471 41.4991 45.7431 41.5546C45.9625 41.6076 46.1663 41.7117 46.3379 41.8582C46.5096 42.0048 46.6443 42.1898 46.731 42.3982C45.51 44.6811 46.5571 47.3155 46.0946 47.9223Z" fill="#373842"/>
<path d="M43.4566 48.2553C43.7491 48.8558 44.2661 49.317 44.8959 49.5392C45.7321 49.813 46.1909 49.0619 46.0059 48.2294C45.8209 47.4894 45.166 46.4423 44.3113 46.5126C44.0107 46.5488 43.7367 46.7027 43.5494 46.9406C43.3621 47.1785 43.2768 47.481 43.3123 47.7817C43.3269 47.9479 43.3761 48.1092 43.4566 48.2553Z" fill="#FFB373"/>
<path d="M50.1129 42.6275L48.3628 42.0836C49.6874 42.1502 51.0564 42.2279 52.2404 42.8236C53.4244 43.4193 54.3642 44.7032 54.1496 46.0093C54.7231 44.792 55.3077 43.5118 55.2596 42.165C55.2129 41.4408 55.0083 40.7355 54.6599 40.0989C54.3115 39.4622 53.8279 38.9096 53.243 38.4798C52.0574 37.6258 50.6343 37.1639 49.1731 37.1589C47.9016 37.0694 46.6391 37.4296 45.6063 38.1764C44.6628 38.9164 43.7008 40.9144 44.7627 41.9504C45.8246 42.9864 48.7365 42.8051 50.1129 42.6275Z" fill="#373842"/>
<path d="M133.833 116.065C133.68 115.637 133.387 115.273 133 115.033C132.897 114.988 132.808 114.948 132.741 114.911L129.089 112.709L128.39 112.291C114.615 104.11 81.6517 84.6077 77.1599 82.6134C73.8299 81.1334 68.9533 81.4331 65.4457 81.9326C64.8623 82.0089 64.3149 82.2573 63.8734 82.6462C63.4318 83.035 63.1162 83.5466 62.9667 84.1156C62.808 84.6659 62.8158 85.2507 62.9889 85.7966C63.1621 86.3424 63.493 86.8248 63.9398 87.1829L64.0138 87.2421C64.0848 87.3026 64.1304 87.3877 64.1413 87.4803C64.1523 87.5729 64.1279 87.6662 64.073 87.7416C64.0125 87.8126 63.9275 87.8582 63.8349 87.8692C63.7423 87.8801 63.6489 87.8557 63.5735 87.8008L63.4921 87.7342C62.9379 87.2885 62.5275 86.6891 62.3123 86.0112C62.0971 85.3333 62.0866 84.607 62.2822 83.9232C62.47 83.222 62.8612 82.5921 63.4063 82.1127C63.9515 81.6334 64.6263 81.3261 65.3458 81.2296C68.9459 80.7153 73.9668 80.4267 77.4448 81.9696C81.9773 83.9713 114.97 103.5 128.756 111.688L133.1 114.278C133.161 114.313 133.224 114.342 133.289 114.367L133.33 114.385C133.679 114.507 133.989 114.721 134.227 115.004C134.466 115.288 134.623 115.63 134.684 115.995L133.833 116.065Z" fill="#373842"/>
<path d="M133.33 114.4L133.289 114.382C133.224 114.357 133.161 114.327 133.1 114.293L128.756 111.703C130.714 112.85 132.286 113.779 133.33 114.4Z" fill="#373842"/>
<path d="M58.5896 81.2147L63.4995 83.1276C63.4995 83.1276 65.2681 79.8346 65.2977 79.4683C65.2977 79.4683 63.5328 78.3065 61.7679 78.4804L60.151 78.7801L58.5896 81.2147Z" fill="#FFB373"/>
<path d="M62.7521 82.8798L65.146 79.4314L66.8517 80.2232C66.9263 80.2577 66.9926 80.3078 67.0461 80.3701C67.0997 80.4325 67.1392 80.5056 67.162 80.5846C67.1848 80.6635 67.1904 80.7464 67.1783 80.8277C67.1663 80.909 67.1369 80.9868 67.0922 81.0557L65.8601 82.9797C65.7296 83.1804 65.5376 83.3336 65.3129 83.4163C65.0882 83.4989 64.8428 83.5067 64.6132 83.4385L62.7521 82.8798Z" fill="#FFB373"/>
<path d="M39.2496 78.7323C42.5796 80.2937 58.0493 81.5591 58.8596 81.4185C59.1703 81.3831 59.467 81.2695 59.722 81.0883C59.9769 80.9072 60.1818 80.6643 60.3174 80.3825C60.4291 80.1199 60.4825 79.8361 60.4739 79.5509C60.4653 79.2656 60.395 78.9856 60.2676 78.7302C60.1403 78.4749 59.959 78.2501 59.7363 78.0716C59.5137 77.8931 59.2549 77.765 58.978 77.6963C55.3927 76.7454 46.3351 74.8843 43.5712 73.7151C41.4104 72.7975 43.7007 57.5128 39.738 56.6692C33.3 55.2965 35.3202 76.8897 39.2496 78.7323Z" fill="#FDAA46"/>
<path opacity="0.1" d="M39.2496 78.7323C42.5796 80.2937 58.0493 81.5591 58.8596 81.4185C59.1703 81.3831 59.467 81.2695 59.722 81.0883C59.9769 80.9072 60.1818 80.6643 60.3174 80.3825C60.4291 80.1199 60.4825 79.8361 60.4739 79.5509C60.4653 79.2656 60.395 78.9856 60.2676 78.7302C60.1403 78.4749 59.959 78.2501 59.7363 78.0716C59.5137 77.8931 59.2549 77.765 58.978 77.6963C55.3927 76.7454 46.3351 74.8843 43.5712 73.7151C41.4104 72.7975 43.7007 57.5128 39.738 56.6692C33.3 55.2965 35.3202 76.8897 39.2496 78.7323Z" fill="#E0E0E0"/>
</svg>
