<svg width="195" height="139" viewBox="0 0 195 139" fill="none" xmlns="http://www.w3.org/2000/svg">
<g clip-path="url(#clip0)">
<path d="M24.2123 139C32.6096 139 39.4169 138.186 39.4169 137.182C39.4169 136.178 32.6096 135.364 24.2123 135.364C15.815 135.364 9.00766 136.178 9.00766 137.182C9.00766 138.186 15.815 139 24.2123 139Z" fill="#E6E6E6"/>
<path d="M188 12.0789H48.7049V101.15H188V12.0789Z" fill="#E6E6E6"/>
<path d="M184.017 23.2507H52.688V95.8808H184.017V23.2507Z" fill="white"/>
<path d="M187.941 12H48.6455V17.9085H187.941V12Z" fill="#FDAA46"/>
<path d="M53.043 16.116C53.6487 16.116 54.1398 15.6257 54.1398 15.0209C54.1398 14.4161 53.6487 13.9258 53.043 13.9258C52.4372 13.9258 51.9462 14.4161 51.9462 15.0209C51.9462 15.6257 52.4372 16.116 53.043 16.116Z" fill="white"/>
<path d="M57.2064 16.116C57.8121 16.116 58.3032 15.6257 58.3032 15.0209C58.3032 14.4161 57.8121 13.9258 57.2064 13.9258C56.6006 13.9258 56.1096 14.4161 56.1096 15.0209C56.1096 15.6257 56.6006 16.116 57.2064 16.116Z" fill="white"/>
<path d="M61.3696 16.116C61.9753 16.116 62.4664 15.6257 62.4664 15.0209C62.4664 14.4161 61.9753 13.9258 61.3696 13.9258C60.7638 13.9258 60.2728 14.4161 60.2728 15.0209C60.2728 15.6257 60.7638 16.116 61.3696 16.116Z" fill="white"/>
<path d="M127.325 41.5364C127.302 41.6176 127.289 41.7013 127.286 41.7857L127.325 41.5364Z" fill="#7F77FF"/>
<path d="M110.529 49.2102C110.521 49.0276 110.489 48.9513 110.459 48.9421C110.48 49.1116 110.5 49.2508 110.529 49.2102Z" fill="#7F77FF"/>
<path d="M110.19 53.0627C110.184 53.1418 110.178 53.2149 110.168 53.3039C110.149 53.2233 110.156 53.1386 110.19 53.0627Z" fill="#7F77FF"/>
<path d="M127.286 41.7856L127.183 42.4261C127.29 42.4709 127.262 42.0979 127.286 41.7856Z" fill="#7F77FF"/>
<path d="M133.078 35.818L133.273 35.8175C133.332 35.779 133.386 35.7344 133.435 35.6846L133.078 35.818Z" fill="#7F77FF"/>
<path d="M140.721 36.1548C140.728 36.1091 140.748 36.0665 140.78 36.0326C140.811 35.9987 140.852 35.9749 140.897 35.9644C140.846 35.8929 140.787 35.827 140.722 35.7677C140.627 35.7557 140.727 36.0334 140.721 36.1548Z" fill="#7F77FF"/>
<path d="M148.717 30.7129C148.743 30.709 148.768 30.7051 148.788 30.7012L148.717 30.7129Z" fill="#7F77FF"/>
<path d="M148.558 30.7395L148.718 30.7129C148.665 30.7209 148.605 30.7292 148.558 30.7395Z" fill="#7F77FF"/>
<path d="M126.96 36.4743C126.941 36.4704 126.921 36.4726 126.903 36.4808C126.885 36.489 126.87 36.5026 126.861 36.5197C126.895 36.5422 126.929 36.5191 126.96 36.4743Z" fill="#7F77FF"/>
<path d="M158.462 31.0244L158.477 31.1547C158.528 31.1707 158.58 31.1802 158.633 31.1829L158.462 31.0244Z" fill="#7F77FF"/>
<path d="M109.574 57.7419C109.576 57.7419 109.576 57.7439 109.572 57.7479C109.572 57.7498 109.57 57.7518 109.568 57.7538C109.568 57.7578 109.538 57.7617 109.517 57.7657C109.506 57.7626 109.494 57.7606 109.483 57.7597C109.513 57.7558 109.542 57.7498 109.566 57.7479C109.57 57.7439 109.572 57.7419 109.574 57.7419Z" fill="#7F77FF"/>
<path d="M87.2841 88.3524C86.5038 88.1041 88.554 88.0336 87.3793 87.7576C87.4887 87.8664 86.3115 88.191 87.2841 88.3524Z" fill="#7F77FF"/>
<path d="M93.5216 61.3276C93.4943 61.3947 93.4524 61.4548 93.3989 61.5036C93.4583 61.3731 93.4919 61.3336 93.5216 61.3276Z" fill="#7F77FF"/>
<path d="M105.074 58.321C104.967 58.3179 104.86 58.306 104.755 58.2854L105.074 58.321Z" fill="#7F77FF"/>
<path d="M89.3873 62.309C89.2786 62.2879 89.1669 62.288 89.0582 62.3091C89.0808 62.3232 89.1049 62.3345 89.1302 62.3428C89.2114 62.3091 89.3001 62.2974 89.3873 62.309Z" fill="#7F77FF"/>
<path d="M89.3874 62.3088C89.4287 62.3161 89.472 62.3244 89.5271 62.3312C89.4811 62.3207 89.4344 62.3132 89.3874 62.3088Z" fill="#7F77FF"/>
<path d="M82.5666 62.3328C82.6034 62.354 82.6522 62.3699 82.695 62.3887C82.7639 62.384 82.8445 62.3786 82.9155 62.3738L82.5666 62.3328Z" fill="#7F77FF"/>
<path d="M88.3441 62.5193C88.3436 62.5239 88.3418 62.5283 88.3391 62.532C88.3364 62.5358 88.3328 62.5388 88.3286 62.5407C88.3364 62.529 88.3441 62.5193 88.3441 62.5193Z" fill="#7F77FF"/>
<path d="M157.326 87.9489C157.281 87.945 157.237 87.9413 157.188 87.936C157.24 87.9427 157.285 87.9465 157.326 87.9489Z" fill="#7F77FF"/>
<path d="M159.202 81.5708C159.201 81.5709 159.199 81.5718 159.198 81.5718C159.199 81.5785 159.201 81.5766 159.202 81.5708Z" fill="#7F77FF"/>
<path d="M104.48 58.501C104.551 58.4875 104.621 58.467 104.688 58.4397C104.832 58.4773 104.634 58.4753 104.48 58.501Z" fill="#7F77FF"/>
<path d="M159.001 57.213C159.011 57.1661 159.022 57.1134 159.036 57.0491C159.023 57.1044 159.012 57.1584 159.001 57.213Z" fill="#7F77FF"/>
<path d="M159.359 78.266C159.38 78.2187 159.41 78.1758 159.448 78.1395L159.475 78.2384C159.497 78.0353 159.484 77.8301 159.436 77.6315C159.479 77.368 159.504 77.1018 159.511 76.8349C159.721 76.7222 159.624 75.7042 159.636 75.214C159.359 75.2535 159.402 74.6229 159.178 75.1982C159.194 75.1646 159.204 75.3326 159.216 75.633C159.22 75.7036 159.23 75.7736 159.246 75.8426C159.238 75.8327 159.23 75.8208 159.22 75.809C159.226 76.1312 159.232 76.5522 159.24 77.0306C159.051 76.6102 159.013 76.1374 159.133 75.6923C158.955 75.4413 158.771 75.1626 158.685 75.0064C159.073 74.3343 159.283 73.0376 159.521 72.8577C159.366 71.3574 159.418 69.3234 158.895 68.3785C158.828 67.9515 159.046 67.8883 159.129 67.7281C159.18 67.9752 159.172 68.2678 159.248 68.4022C159.113 67.5483 159.196 65.874 158.83 65.6704C158.994 64.595 159.166 66.2752 159.107 64.7967L159.218 64.9963C159.792 62.1399 158.339 60.3332 159 57.212C158.974 57.3286 158.951 57.3978 158.907 57.4294C159.238 53.7567 158.596 49.8586 159.121 46.2333C159.226 45.2034 158.994 45.0907 158.816 44.4621L159.115 44.2388L158.771 43.1634C158.517 41.6394 159.503 40.5245 159.026 38.5933L158.824 38.8423C158.864 38.1485 158.705 36.6462 158.937 36.7628C158.876 36.697 158.834 36.6158 158.816 36.528C158.798 36.4403 158.804 36.3492 158.834 36.2647L158.99 36.2429L158.721 34.539C158.834 33.2205 159.343 34.7466 159.372 32.8193C159.313 32.1037 158.917 30.7813 158.812 31.0501C158.806 31.3387 158.715 31.7874 158.559 31.8092L158.478 31.1549C158.448 31.1469 158.42 31.139 158.39 31.1292V31.0244H158.107C158.048 30.9994 157.985 30.9866 157.921 30.9866C157.857 30.9866 157.794 30.9994 157.735 31.0244H150.637L150.715 30.9473L150.481 31.0244H149.479C149.509 30.9651 149.604 30.9157 149.802 30.892C149.073 30.6884 149.157 31.0382 148.533 30.8109C148.464 30.7753 148.493 30.7556 148.559 30.7397L147.846 30.8623C147.986 30.7753 147.729 30.5717 148.165 30.631C146.89 30.3938 146.108 30.9394 145.627 30.6271L145.733 30.6033C144.409 30.7061 144.969 30.8228 144.779 31.0244H143.952L143.785 30.886L143.562 30.7002C143.485 30.6303 143.402 30.5681 143.314 30.5144C143.246 30.6099 143.185 30.7103 143.132 30.8149C142.926 30.805 142.502 30.7832 142.522 30.6607C142.16 30.7654 142.235 30.7971 142.322 30.8287C142.417 30.8603 142.532 30.89 142.386 30.9888C142.154 30.9341 141.917 30.9017 141.679 30.892C141.653 31.3308 141.685 31.8625 141.675 32.2678C141.665 32.6908 141.615 32.9636 141.421 33.0486C141.651 33.3629 141.6 32.2085 141.76 33.1454C141.241 33.4083 141.847 34.2405 141.609 35.0213C141.342 34.796 141.485 34.0211 141.245 34.8276C141.32 34.9073 141.376 35.0034 141.408 35.1083C141.43 35.2143 141.433 35.3235 141.415 35.4305C141.38 35.6204 141.327 35.8065 141.255 35.986C141.138 35.9567 141.017 35.9493 140.897 35.9642C141.016 36.1441 140.75 36.1817 140.352 36.1896C140.113 36.1896 139.838 36.1915 139.556 36.1915C139.261 36.1955 138.958 36.2034 138.673 36.2331C138.745 36.1125 136.533 36.0374 135.476 35.9069L135.506 35.8456C135.302 36.2093 134.211 36.1401 133.415 36.2153C133.447 35.9978 133.589 35.9128 134.021 35.816L133.272 35.8179C133.096 35.9346 132.865 35.9958 132.38 36.0374L132.568 35.7646C132.071 35.7725 131.57 35.8535 131.033 35.9089C130.764 35.9365 130.489 35.9563 130.198 35.9603C130.053 35.9622 129.905 35.9583 129.752 35.9504C129.677 35.9464 129.6 35.9405 129.523 35.9326C129.436 35.9227 129.348 35.9128 129.261 35.9029C129.234 35.9662 129.331 36.0433 129.392 36.1224C129.468 36.199 129.537 36.2823 129.598 36.3714C129.615 36.3958 129.626 36.4243 129.629 36.4541C129.633 36.4839 129.628 36.514 129.616 36.5414H128.923C128.925 36.4663 128.97 36.3991 129.117 36.3635C128.913 36.4216 128.699 36.4358 128.489 36.405C128.648 36.3299 128.832 36.2528 129.04 36.1757C128.287 36.0749 128.731 36.3675 128.202 36.3457C128.093 36.152 127.695 36.2074 127.652 36.0532C127.8 36.0334 128.228 36.1322 128.418 36.0571C128.024 36.0374 127.559 35.9919 127.131 35.9286C127.106 36.1189 127.048 36.3034 126.961 36.4742C127.072 36.4841 127.224 36.6699 127.248 37.1779C127.256 37.8283 127.196 37.933 127.123 37.9745C127.088 37.9943 127.048 37.9963 127.01 38.0477C126.987 38.0827 126.969 38.1206 126.957 38.1604C126.936 38.2133 126.922 38.2683 126.913 38.3244C127.048 38.5656 126.907 39.1981 127.2 39.2159C127.198 39.5065 127.062 39.5599 126.983 39.6725C127.111 40.1865 127.02 42.0723 127.331 41.4931L127.351 41.3607C127.357 41.3864 127.359 41.414 127.365 41.4457C127.446 41.956 127.478 42.473 127.46 42.9895C127.448 43.4204 127.406 43.8296 127.367 44.1893C127.076 44.1636 126.806 44.1419 126.555 44.13C126.428 44.1261 126.305 44.1221 126.183 44.1261L125.945 44.132C125.862 44.1379 125.777 44.1419 125.694 44.1459L125.698 44.049C124.698 44.1597 123.472 44.1142 122.76 44.3257C122.465 44.3238 122.063 44.1459 122.189 44.0312C121.425 44.1043 121.34 44.2131 120.237 44.0529C121.004 43.883 119.972 43.9007 121.023 43.9284C120.031 43.8434 119.806 43.6872 118.741 43.9541C119.103 43.7031 117.994 43.6398 117.523 43.713L118.218 43.8928C117.73 43.9191 117.241 43.9164 116.753 43.8849L117.006 43.5568C115.993 43.3571 115.076 43.5271 114.221 43.6635C113.811 43.7382 113.396 43.7812 112.979 43.792L112.829 43.79L112.637 43.7802C112.488 43.7723 112.338 43.7604 112.185 43.7426C111.852 43.7028 111.521 43.6448 111.194 43.5687C110.837 43.6833 111.312 43.7228 111.75 43.7683C112.199 43.8138 112.607 43.8652 112.298 43.9996C111.644 43.9563 110.992 43.8725 110.348 43.7485C110.22 44.1793 110.131 44.6205 110.081 45.067C110.057 45.326 110.049 45.5612 110.049 45.7688C110.049 45.8715 110.051 45.9704 110.057 46.0613C110.059 46.1028 110.061 46.1641 110.065 46.1839C110.069 46.2076 110.073 46.2333 110.077 46.257C110.111 46.4281 110.164 46.5946 110.237 46.7531C110.426 47.1541 110.496 47.6008 110.437 48.04C110.554 47.868 110.869 47.7079 110.978 48.7062C110.954 49.2596 110.784 49.5621 110.631 49.5898C110.546 49.6075 110.467 49.5384 110.421 49.3842C110.408 49.345 110.398 49.3047 110.392 49.2636C110.382 49.0402 110.419 48.9335 110.459 48.9414C110.415 48.6409 110.366 48.2456 110.239 48.6152L110.356 48.7358C110.319 48.9051 110.294 49.0769 110.281 49.2497C110.227 49.7815 110.196 50.4002 110.055 50.1808C110.152 50.7837 110.225 50.5761 110.283 50.1749C110.158 51.2423 110.297 51.9065 110.19 53.0629C110.255 52.8671 110.394 52.6853 110.392 52.881C110.245 54.6877 110.615 53.6776 110.667 54.9012C110.487 55.597 110.239 54.6521 110.388 55.8836C110.267 56.6368 110.077 56.0437 109.982 55.7452C110.075 56.2575 110.077 56.7823 109.986 57.295C109.98 57.3286 109.976 57.3622 109.97 57.3938C109.966 57.4176 109.962 57.4433 109.958 57.467L109.95 57.5085C109.948 57.5204 109.946 57.5184 109.944 57.5223L109.928 57.5421C109.911 57.562 109.891 57.5799 109.869 57.5955C109.841 57.6117 109.815 57.6302 109.79 57.6508C109.77 57.6193 109.746 57.5907 109.719 57.5658C109.731 57.5795 109.74 57.5955 109.745 57.6129C109.751 57.6302 109.752 57.6486 109.75 57.6666C109.774 57.6826 109.8 57.6971 109.826 57.7101C109.876 57.7365 109.93 57.7571 109.986 57.7714C109.946 57.8287 109.944 57.886 109.867 57.8149C109.858 57.8087 109.85 57.8013 109.843 57.7931C109.912 57.8965 109.995 57.9902 110.089 58.0719C110.192 58.1766 110.315 58.2893 110.198 58.3941C110.035 58.3539 109.866 58.3471 109.701 58.3743C109.659 58.3763 109.618 58.3763 109.578 58.3743C109.516 58.3707 109.453 58.3635 109.392 58.3525C109.342 58.349 109.294 58.3344 109.251 58.3098C109.208 58.2851 109.171 58.2511 109.142 58.2102C109.327 58.2241 109.459 58.228 109.558 58.226C109.612 58.226 109.631 58.2181 109.647 58.2043C109.675 58.1806 109.655 58.1351 109.637 58.0877C109.604 58.0066 109.592 57.9157 109.651 57.8702C109.642 57.8727 109.633 57.874 109.624 57.8742C109.606 57.8736 109.589 57.8703 109.572 57.8643C109.497 57.8584 109.42 57.8505 109.338 57.8426C109.287 57.807 109.388 57.7773 109.483 57.7595C109.376 57.7378 109.281 57.722 109.198 57.7101C109.034 57.6803 108.865 57.6803 108.701 57.7101C108.341 57.7951 108.418 58.1094 107.396 58.1035C107.578 57.9295 107.06 57.7714 106.824 57.8089C107.408 57.8129 107.103 58.1015 106.569 58.2359C105.64 58.0995 105.561 58.3367 105.074 58.3209L105.628 58.3862C105.44 58.5621 104.977 58.5383 104.332 58.5937C104.314 58.5502 104.363 58.5265 104.434 58.5087C103.767 58.6115 102.967 58.1529 102.09 58.3229C102.082 58.3232 102.073 58.3246 102.065 58.3268C101.601 58.2082 102.019 57.9987 101.611 57.9177C100.491 58.145 100.398 57.6765 99.2176 57.8643C99.5582 58.1015 99.6176 58.0442 98.786 58.2735L100.726 58.1074L99.4809 58.4494C100.067 58.4534 100.716 58.3012 101.067 58.3427C100.473 58.5344 100.534 58.4751 100.815 58.6708C100.014 58.317 99.2275 58.8783 98.303 58.6392L98.3307 58.0541C97.7422 57.9607 97.1424 57.9634 96.5548 58.062L96.3291 58.0916L96.2162 58.1055L96.1865 58.1094L96.141 58.1134L96.0479 58.1213C95.8044 58.1391 95.557 58.1588 95.3016 58.1786C94.8007 58.2122 94.2899 58.2359 93.7058 58.232C93.7039 58.4929 93.6959 58.7637 93.6821 59.0464L93.7751 58.3012L93.8484 58.3091C93.8397 58.3222 93.8273 58.3325 93.8127 58.3387C93.8971 58.7053 93.9251 59.0825 93.8959 59.4575C93.8959 59.4911 93.8939 59.5267 93.8939 59.5623V59.5643C93.89 59.7501 93.884 59.9438 93.882 60.1375C93.882 60.2522 93.884 60.3649 93.888 60.4756C93.89 60.5309 93.8939 60.5843 93.8959 60.6376L93.9018 60.7147L93.9097 60.7681C93.7137 60.7127 93.6425 61.0784 93.5217 61.3275C93.5573 61.3196 93.5752 61.3987 93.587 61.5232C93.5989 61.5746 93.6049 61.6378 93.6187 61.713C93.6551 61.9186 93.7523 62.1086 93.8979 62.2585C93.8677 62.2885 93.8338 62.3144 93.7969 62.3356C93.6753 62.2903 93.5563 62.2382 93.4405 62.1795C93.3191 62.1539 93.1926 62.1685 93.0802 62.221C93.0545 62.2328 93.0287 62.2467 93.003 62.2605C92.9826 62.2715 92.9605 62.2789 92.9377 62.2823C92.9099 62.2902 92.8822 62.2981 92.8565 62.306C92.7476 62.3396 92.6446 62.3752 92.5437 62.4108C92.065 62.6084 91.5483 62.6968 91.0311 62.6697C91.4528 62.4582 90.8153 62.3198 91.7557 62.1676C91.2865 62.1656 90.8668 62.1301 90.8589 62.2645C90.8076 62.2458 90.753 62.2377 90.6985 62.2408C90.4629 62.2427 90.0847 62.3337 89.7383 62.3752C89.5723 62.401 89.4033 62.401 89.2374 62.3752C89.2005 62.3694 89.1645 62.3588 89.1305 62.3435C89.1094 62.3529 89.0889 62.3635 89.0691 62.3752C88.9715 62.4637 88.8564 62.5309 88.7313 62.5724C88.6062 62.6139 88.4737 62.6289 88.3425 62.6163C88.3362 62.6127 88.3309 62.6077 88.3267 62.6018C88.3225 62.5958 88.3197 62.5891 88.3184 62.5819C88.3171 62.5748 88.3173 62.5675 88.3191 62.5605C88.3208 62.5534 88.3241 62.5469 88.3286 62.5412C88.2237 62.6223 87.5565 62.6677 87.9822 62.8674C87.3585 62.6045 86.5211 62.5768 85.6678 62.5887C84.5492 62.6025 83.4068 62.6855 82.6941 62.389C82.1833 62.4206 81.621 62.4542 81.0687 62.4799C80.7935 62.4898 80.5202 62.5017 80.2589 62.5116C80.1282 62.5155 79.9995 62.5195 79.8768 62.5234C79.7382 62.5254 79.6056 62.5294 79.4789 62.5313C79.5185 62.5017 79.5185 62.478 79.5402 62.4641C79.5887 62.445 79.6421 62.4415 79.6927 62.4542C79.657 62.4503 79.6333 62.4443 79.5897 62.4424C79.5462 62.4384 79.5026 62.4364 79.461 62.4325C79.3779 62.4285 79.3007 62.4266 79.2294 62.4246C79.1077 62.424 78.986 62.4306 78.8651 62.4443C78.7171 62.4587 78.5736 62.5031 78.4434 62.5748C78.2415 62.7422 77.9891 62.8369 77.7267 62.8437C77.7359 63.0563 77.7253 63.2694 77.695 63.4801C77.6159 63.6521 77.5664 63.6917 77.5327 63.6343C77.4944 63.5169 77.475 63.3941 77.4753 63.2706C77.4575 62.9563 77.4634 62.6005 77.404 62.8654C77.0833 62.7231 77.1051 63.4782 77.1605 64.3045C77.1882 64.7848 77.2239 64.9943 77.2298 65.2968C77.2439 65.5723 77.2056 65.8479 77.1169 66.1092L77.0793 65.872C76.8596 66.6192 77.3228 67.6965 77.2773 68.9181C77.2773 68.9181 77.2199 68.8588 77.1803 68.9102C77.507 69.7464 77.6158 71.3277 77.7069 72.5019C77.4555 72.1362 77.5743 71.9682 77.3189 72.1916C77.3545 72.7193 77.7287 72.0374 77.8 73.089C77.6634 73.431 77.5426 74.19 77.2694 74.2908L77.2535 73.2985C76.9011 73.8065 77.2674 74.5814 77.206 75.1052L77.0516 75.038C77.1011 76.5581 77.4891 76.5799 77.4614 78.2127L77.5782 78.0446C77.9643 78.9381 77.3624 78.7938 77.6495 79.6833L77.2575 79.9542C77.3525 80.5432 77.6356 82.0159 77.7089 83.0734C77.4198 82.4745 77.2714 81.239 77.0991 80.474C77.0971 81.0572 77.1288 82.4587 77.3209 82.7631C77.2832 82.5278 77.1882 82.2313 77.2476 81.9981C77.5545 82.7137 77.7049 83.6565 77.699 84.8208C77.4515 84.7536 77.3446 85.0541 77.2931 85.5206C77.2912 85.5502 77.2872 85.5799 77.2852 85.6115C77.2832 85.655 77.2793 85.7005 77.2773 85.7459C77.2733 85.8389 77.2694 85.9337 77.2634 86.0326C77.2595 86.2302 77.2535 86.4398 77.2476 86.6533C77.2377 87.0901 77.2278 87.5487 77.2179 87.9935C78.1227 88.0231 78.9542 88.0883 79.4373 88.292L79.5996 88.2781L79.7006 88.2663L79.8946 88.2465C80.0233 88.2346 80.152 88.2248 80.2807 88.2168C80.5381 88.1991 80.7954 88.1931 81.0548 88.1911C81.5715 88.1892 82.0942 88.2109 82.6268 88.2406C83.6919 88.2999 84.7986 88.3888 86.0004 88.3651C85.1491 87.778 86.7012 88.3493 86.5547 87.7444C87.1091 87.7068 87.3229 87.7167 87.3744 87.7543L87.2932 87.7365C87.3229 87.7444 87.3466 87.7503 87.3783 87.7582V87.7563L89.0731 88.116C89.475 88.292 88.5405 88.2485 88.592 88.3849C89.8175 88.4323 89.1067 88.6418 89.9165 88.802C89.7501 88.5865 90.3421 88.4916 91.041 88.5746L90.057 88.2959C91.7695 87.9737 91.5379 88.8039 93.2623 88.4837L92.7159 88.6754C93.6029 88.5628 95.9826 88.6794 96.8517 88.1931C97.0082 88.2623 97.216 88.4284 96.826 88.4718C98.9424 88.545 101.536 87.9559 103.181 88.2544L103.021 88.4027C103.415 88.3592 103.708 88.1239 104.203 88.2722C104.177 88.3335 104.042 88.4205 104.227 88.4284C104.434 88.3789 105.274 88.1694 105.799 88.2564L105.351 88.4224C106.65 88.545 107.568 88.3532 108.503 88.1674C109.078 88.0425 109.662 87.9586 110.249 87.9164C110.245 88.3513 111.869 88.4936 112.68 88.5628L112.651 88.6241C113.614 88.6418 114.578 88.5949 115.535 88.4837C116.27 88.4027 116.983 88.2999 117.737 88.2149H117.739C117.786 88.209 117.834 88.203 117.883 88.1971C118.058 88.1773 118.236 88.1595 118.416 88.1417C118.471 88.1358 118.529 88.1299 118.586 88.124C118.709 88.1141 118.834 88.1042 118.96 88.0943C119.59 88.2663 120.24 88.3579 120.893 88.3671C122.441 88.4422 124.389 88.3809 125.862 88.5569C125.521 88.4778 125.917 88.2168 126.311 88.1734C126.8 88.2564 127.64 87.9184 127.674 88.205C127.676 88.2268 127.675 88.2489 127.67 88.2702L127.493 88.2623H127.483L127.485 88.2643C127.879 88.6537 128.949 88.5509 129.784 88.5608L129.921 88.0389C132.108 88.798 135.652 87.7602 136.846 88.4402C137.375 88.3098 138.028 88.3117 138.551 88.1813L138.523 88.46C139.854 88.5443 141.189 88.5575 142.522 88.4995L142.154 88.7012C143.174 88.7189 143.441 87.8927 144.383 87.8769L144.664 88.294C146.444 88.288 148.244 88.6557 150.002 88.2761C149.974 88.3374 149.921 88.458 149.634 88.4758C150.443 88.4857 152.716 88.7407 152.59 88.2386C152.784 88.5213 154.455 88.2129 155.363 88.0567L155.215 88.3315C155.621 88.1556 155.829 88.0429 156.078 87.9638C156.22 87.9191 156.365 87.8854 156.512 87.863C156.603 87.8492 156.69 87.8353 156.814 87.8235C156.965 87.8116 157.135 87.7998 157.327 87.7859C157.668 87.8195 157.725 87.9717 157.325 87.95C157.623 87.9892 157.925 87.9758 158.218 87.9105C158.464 87.8325 158.72 87.7918 158.978 87.7899C158.977 87.5911 158.988 87.3924 159.01 87.1949C159.069 87.4242 159.129 87.6673 159.186 87.9243C159.209 87.5012 159.191 87.0769 159.133 86.6572C159.085 86.4042 159.01 86.2164 158.909 85.8665C158.901 85.8191 158.895 85.7677 158.891 85.7143C158.887 85.6649 158.883 85.6155 158.879 85.5621C158.875 85.4751 158.873 85.3803 158.875 85.2854C158.882 85.0886 158.901 84.8925 158.933 84.6983C158.994 84.3168 159.103 83.9926 159.228 83.9254C159.075 83.8009 158.871 83.2988 158.943 82.7571C159.038 82.684 159.097 82.8797 159.125 82.9805C159.313 81.4446 158.804 80.6954 159.075 79.6399C159.117 79.6282 159.154 79.6054 159.183 79.574C159.212 79.5426 159.231 79.5038 159.24 79.462C159.234 80.5808 159.22 81.498 159.202 81.5711C159.454 81.5573 159.499 80.5907 159.848 81.3695C159.656 80.5788 159.24 79.2267 159.359 78.266ZM159.582 76.2201C159.622 76.5483 159.566 76.657 159.509 76.7024C159.505 76.5483 159.495 76.3664 159.475 76.1292C159.465 76.1213 159.454 76.1015 159.442 76.0917C159.499 76.1217 159.547 76.166 159.582 76.2201ZM148.25 30.9809C148.283 30.9916 148.315 31.0062 148.345 31.0244H147.925C148.026 31.0086 148.133 30.9948 148.25 30.9809V30.9809Z" fill="#FDAA46"/>
<path d="M109.701 57.8467C109.688 57.8609 109.67 57.8696 109.651 57.8708C109.667 57.86 109.684 57.8519 109.701 57.8467Z" fill="#7F77FF"/>
<path d="M104.435 58.5098C104.45 58.5073 104.465 58.5036 104.481 58.5005C104.465 58.5032 104.449 58.5063 104.435 58.5098Z" fill="#7F77FF"/>
<path d="M159.217 75.633C159.207 75.5886 159.2 75.5436 159.196 75.4983C159.172 75.5651 159.151 75.6286 159.134 75.6933L159.221 75.809L159.217 75.633Z" fill="#7F77FF"/>
<path d="M127.325 41.5365C127.332 41.5039 127.346 41.4729 127.364 41.4451C127.351 41.4742 127.342 41.4742 127.331 41.4929L127.325 41.5365Z" fill="#7F77FF"/>
<path d="M141.161 30.6913C141.251 30.6934 141.352 30.8222 141.333 31.768L141.392 30.6058L141.829 30.6269C141.476 30.5195 140.894 30.3752 141.7 30.3494C141.422 30.3171 141.21 30.2923 141.061 30.2749C140.994 30.8322 141.072 30.6937 141.161 30.6913Z" fill="#7F77FF"/>
<path d="M141.177 35.5285C141.152 35.307 141.113 35.3008 141.072 35.3268C141.032 35.355 140.99 35.4115 140.96 35.3839C141.058 35.6462 141.082 35.7734 141.177 35.5285Z" fill="#7F77FF"/>
<path d="M121.901 43.932L121.97 43.6792C121.442 43.7156 121.965 43.7772 121.901 43.932Z" fill="#7F77FF"/>
<path d="M112.761 43.4762L112.805 43.4728L112.886 43.4657L113.211 43.438L113.442 43.4019L113.002 43.4477L112.781 43.4705L112.421 43.4936L112.693 43.4796L112.761 43.4762Z" fill="#7F77FF"/>
<path d="M83.8048 62.0871L83.9644 62.3983C84.3215 62.3426 84.3963 61.9927 83.8048 62.0871Z" fill="#7F77FF"/>
<path d="M77.2867 78.0278C77.1913 78.205 77.1329 78.3998 77.1152 78.6002C77.0975 78.8006 77.1208 79.0025 77.1837 79.1937C77.2052 78.7286 77.3268 78.2647 77.2867 78.0278Z" fill="#7F77FF"/>
<path d="M130.544 88.5364L131.329 88.4495L130.96 88.4321L130.544 88.5364Z" fill="#7F77FF"/>
<path d="M134.395 63.0198C134.347 65.418 134.011 67.8018 133.395 70.1202C130.996 78.9759 124.431 85.42 120.893 88.3673C120.24 88.3581 119.59 88.2665 118.96 88.0945C118.834 88.1044 118.709 88.1143 118.586 88.1241C118.529 88.1301 118.471 88.136 118.416 88.1419C118.236 88.1597 118.057 88.1775 117.883 88.1973C117.834 88.2032 117.786 88.2091 117.739 88.2151H117.737C116.592 85.2267 115.771 82.1247 115.288 78.962L115.286 78.9601V78.9581C114.674 74.9019 114.575 70.1419 115.864 65.3859C116.416 63.3733 117.18 61.4246 118.143 59.5724C122.744 50.6574 130.701 45.3459 130.701 45.3459C130.701 45.3459 134.633 53.409 134.395 63.0198Z" fill="white"/>
<path d="M110.19 53.0627C110.184 53.1418 110.178 53.2149 110.168 53.3039C110.149 53.2233 110.156 53.1386 110.19 53.0627Z" fill="white"/>
<path d="M104.48 58.501C104.551 58.4875 104.621 58.467 104.688 58.4397C104.832 58.4773 104.634 58.4753 104.48 58.501Z" fill="white"/>
<path d="M104.755 58.2854L105.074 58.321C104.967 58.3179 104.86 58.306 104.755 58.2854Z" fill="white"/>
<path d="M109.517 57.7657C109.506 57.7626 109.494 57.7606 109.483 57.7597C109.513 57.7558 109.542 57.7498 109.566 57.7479C109.57 57.7439 109.572 57.7419 109.574 57.7419C109.576 57.7419 109.576 57.7439 109.572 57.7479C109.572 57.7498 109.57 57.7518 109.568 57.7538C109.568 57.7578 109.538 57.7617 109.517 57.7657Z" fill="white"/>
<path d="M109.701 57.8467C109.688 57.8609 109.67 57.8696 109.651 57.8708C109.667 57.86 109.684 57.8519 109.701 57.8467Z" fill="white"/>
<path d="M121.006 78.946C121.006 78.95 121.004 78.9539 121.004 78.9579C120.525 82.09 119.714 85.1625 118.586 88.1239C118.529 88.1299 118.471 88.1358 118.416 88.1417C118.236 88.1595 118.058 88.1773 117.883 88.1971C117.834 88.203 117.786 88.2089 117.739 88.2149H117.737C116.983 88.2999 116.27 88.4027 115.535 88.4837C112.033 85.5918 105.325 79.0943 102.896 70.12C102.278 67.8012 101.942 65.4166 101.894 63.0176C101.858 61.4501 101.924 59.882 102.09 58.3229C102.967 58.1529 103.767 58.6115 104.435 58.5087C104.363 58.5265 104.314 58.5502 104.332 58.5937C104.977 58.5384 105.44 58.5621 105.628 58.3862L105.074 58.3209C105.561 58.3367 105.64 58.0995 106.569 58.2359C107.103 58.1015 107.408 57.8129 106.824 57.8089C107.06 57.7714 107.578 57.9295 107.396 58.1035C108.418 58.1094 108.341 57.7951 108.701 57.7101H109.198C109.281 57.722 109.376 57.7378 109.483 57.7595C109.388 57.7773 109.287 57.807 109.339 57.8426C109.42 57.8505 109.497 57.8584 109.572 57.8643C109.589 57.8703 109.606 57.8736 109.624 57.8742C109.633 57.874 109.642 57.8727 109.651 57.8702C109.592 57.9157 109.604 58.0066 109.637 58.0877C109.655 58.1351 109.675 58.1806 109.647 58.2043C109.632 58.2181 109.612 58.2261 109.558 58.2261C109.459 58.228 109.327 58.2241 109.143 58.2102C109.171 58.2511 109.208 58.2851 109.251 58.3098C109.294 58.3344 109.342 58.349 109.392 58.3526C109.454 58.3635 109.516 58.3707 109.578 58.3743C109.618 58.3763 109.659 58.3763 109.701 58.3743C109.866 58.3472 110.035 58.3539 110.198 58.3941C110.315 58.2893 110.192 58.1766 110.089 58.0719C109.995 57.9902 109.913 57.8965 109.843 57.7932C109.85 57.8014 109.858 57.8087 109.867 57.8149C109.944 57.8861 109.946 57.8287 109.986 57.7714C109.93 57.7571 109.877 57.7365 109.826 57.7101H109.97V57.3938C109.976 57.3622 109.98 57.3286 109.986 57.295C110.077 56.7823 110.075 56.2575 109.982 55.7453C110.077 56.0437 110.267 56.6368 110.388 55.8836C110.239 54.6521 110.487 55.597 110.667 54.9012C110.616 53.6776 110.245 54.6877 110.392 52.881C110.394 52.6853 110.255 52.8672 110.19 53.0629C110.297 51.9065 110.158 51.2423 110.283 50.1749C110.225 50.5761 110.152 50.7837 110.055 50.1808C110.196 50.4002 110.227 49.7815 110.281 49.2498C110.326 49.2933 110.374 49.3387 110.422 49.3842C110.491 49.4514 110.562 49.5206 110.631 49.5898C113.098 52.0073 115.991 55.3914 118.143 59.5722C118.143 59.5722 118.143 59.5722 118.144 59.5723C118.144 59.5724 118.144 59.5726 118.144 59.5728C118.144 59.5729 118.145 59.5732 118.145 59.5734C118.145 59.5736 118.145 59.5739 118.145 59.5742C119.109 61.4251 119.874 63.3732 120.425 65.3857C121.712 70.1378 121.615 74.8898 121.006 78.946Z" fill="white"/>
<path d="M93.5216 61.3276C93.4943 61.3947 93.4524 61.4548 93.3989 61.5036C93.4583 61.3731 93.4919 61.3336 93.5216 61.3276Z" fill="#373842"/>
<path d="M88.3441 62.5193C88.3436 62.5239 88.3418 62.5283 88.3391 62.532C88.3364 62.5358 88.3328 62.5388 88.3286 62.5407C88.3364 62.529 88.3441 62.5193 88.3441 62.5193Z" fill="#373842"/>
<path d="M117.883 88.197C117.834 88.2029 117.786 88.2089 117.739 88.2148H117.737C116.983 88.2998 116.27 88.4026 115.535 88.4836C114.578 88.5949 113.614 88.6418 112.651 88.624L112.68 88.5627C111.869 88.4935 110.245 88.3512 110.249 87.9163C109.662 87.9586 109.078 88.0425 108.503 88.1674C104.221 86.7757 99.2335 84.4195 95.1531 80.4542C89.4018 74.866 86.8062 67.3999 85.6678 62.5886C86.5211 62.5767 87.3586 62.6044 87.9822 62.8673C87.5566 62.6677 88.2238 62.6222 88.3287 62.5411C88.3242 62.5468 88.3209 62.5534 88.3191 62.5604C88.3174 62.5674 88.3171 62.5747 88.3184 62.5819C88.3198 62.589 88.3226 62.5958 88.3267 62.6017C88.3309 62.6076 88.3363 62.6126 88.3426 62.6163C88.4738 62.6288 88.6062 62.6138 88.7314 62.5723C88.8565 62.5308 88.9715 62.4636 89.0691 62.3751H90.6985V62.2407C90.7531 62.2377 90.8076 62.2457 90.8589 62.2644C90.8668 62.13 91.2866 62.1656 91.7558 62.1676C90.8154 62.3198 91.4529 62.4581 91.0312 62.6696C91.5484 62.6968 92.0651 62.6083 92.5437 62.4107C92.6447 62.3751 92.7477 62.3395 92.8565 62.3059C92.8823 62.298 92.91 62.2901 92.9377 62.2822C92.9606 62.2788 92.9827 62.2714 93.003 62.2605C93.0288 62.2466 93.0545 62.2328 93.0803 62.2209C93.1927 62.1684 93.3192 62.1538 93.4406 62.1794C93.5564 62.2381 93.6753 62.2902 93.797 62.3356C93.8338 62.3144 93.8678 62.2884 93.8979 62.2585C93.7524 62.1085 93.6551 61.9185 93.6188 61.7129C93.6049 61.6378 93.599 61.5745 93.5871 61.5231C93.5752 61.3986 93.5574 61.3195 93.5218 61.3274C93.6425 61.0784 93.7138 60.7127 93.9098 60.768L93.9019 60.7147L93.8959 60.6376C93.894 60.5842 93.89 60.5308 93.888 60.4755C93.8841 60.3648 93.8821 60.2521 93.8821 60.1375C93.8841 59.9437 93.89 59.75 93.894 59.5642C96.6816 60.4134 99.3652 61.5717 101.894 63.0175C104.045 64.2487 106.036 65.7405 107.82 67.4592C111.392 70.9304 113.746 75.125 115.286 78.9578V78.9598L115.288 78.9618C116.482 81.9385 117.352 85.0347 117.883 88.197Z" fill="#373842"/>
<path d="M127.484 88.2625H127.493C127.491 88.2638 127.488 88.2645 127.485 88.2644L127.484 88.2625Z" fill="#373842"/>
<path d="M151.461 57.7676C151.461 57.7676 150.336 71.5137 141.138 80.4544C137.02 84.4572 131.982 86.8194 127.674 88.2051C127.64 87.9185 126.8 88.2565 126.311 88.1735C125.917 88.217 125.521 88.4779 125.862 88.557C124.389 88.381 122.441 88.4423 120.893 88.3672C120.24 88.3581 119.59 88.2664 118.96 88.0944C118.834 88.1043 118.709 88.1142 118.586 88.1241C118.529 88.13 118.471 88.1359 118.416 88.1418C118.949 84.9934 119.817 81.9108 121.005 78.9461C122.55 75.1172 124.904 70.9266 128.469 67.4614C130.253 65.7424 132.244 64.2505 134.395 63.0197C142.635 58.2479 151.461 57.7676 151.461 57.7676Z" fill="#373842"/>
<path d="M22.0357 49.8342C22.0357 49.8342 19.2782 55.3407 15.0165 56.5921C10.7549 57.8436 25.2946 56.5921 25.2946 56.5921C25.2946 56.5921 24.5425 52.5875 25.5453 52.0869C26.548 51.5863 22.0357 49.8342 22.0357 49.8342Z" fill="#A0616A"/>
<path d="M17.5802 40.3741C17.4302 39.0694 18.1449 37.916 19.1765 37.7978C19.1882 37.7964 19.1997 37.7971 19.2114 37.796C19.0824 37.7771 18.9515 37.775 18.822 37.7897C17.7904 37.9079 17.0757 39.0613 17.2257 40.366C17.374 41.6558 18.3121 42.6087 19.3303 42.5159C18.457 42.3893 17.711 41.5124 17.5802 40.3741Z" fill="#373842"/>
<path d="M18.5049 42.143C17.2591 41.7218 16.5191 40.5843 16.8522 39.6023C16.856 39.5912 16.8615 39.5811 16.8655 39.5701C16.7933 39.6784 16.7356 39.7957 16.6936 39.9189C16.3606 40.9009 17.1005 42.0384 18.3463 42.4595C19.578 42.8759 20.8414 42.4354 21.1917 41.4764C20.7044 42.2109 19.5918 42.5104 18.5049 42.143Z" fill="#373842"/>
<path d="M9.88486 66.2645L10.2533 76.8657L16.0191 90.3816C16.0191 90.3816 14.515 97.3897 17.5232 97.1395C20.5314 96.8892 17.7739 90.1313 17.7739 90.1313L15.0163 75.8646L14.515 64.1008L9.88486 66.2645Z" fill="#A0616A"/>
<path d="M26.0465 53.5886C29.0924 53.5886 31.5616 51.1232 31.5616 48.0821C31.5616 45.041 29.0924 42.5757 26.0465 42.5757C23.0006 42.5757 20.5315 45.041 20.5315 48.0821C20.5315 51.1232 23.0006 53.5886 26.0465 53.5886Z" fill="#A0616A"/>
<path d="M30.5589 57.5932L25.1239 55.4253C25.1239 55.4253 24.0411 55.5909 21.0329 55.8412C18.0247 56.0915 16.689 55.8554 16.689 55.8554C16.689 55.8554 10.2535 58.0938 10.5042 59.3453C10.7549 60.5967 13.5124 80.3698 14.7658 79.3687C16.0192 78.3675 16.7713 78.1172 16.7713 78.1172L30.5589 76.8657V57.5932Z" fill="#CFCCE0"/>
<path d="M11.5068 58.8447H10.691C10.691 58.8447 9.75202 59.3453 9.75202 60.8471C9.75202 62.3488 8.99997 66.8541 8.99997 66.8541H13.0109L11.5068 58.8447Z" fill="#CFCCE0"/>
<path d="M18.902 61.2226L15.8742 56.3391C15.8052 56.2279 15.7058 56.1388 15.5876 56.0824C15.4694 56.0259 15.3375 56.0046 15.2075 56.0208L14.4179 56.1193C14.3209 56.1315 14.2275 56.1642 14.1442 56.2154C14.0608 56.2666 13.9895 56.3351 13.9349 56.4162C13.8803 56.4973 13.8438 56.5891 13.8278 56.6855C13.8118 56.7818 13.8166 56.8805 13.8421 56.9749L15.3924 62.7243C15.3924 62.7243 17.8438 72.8812 15.49 78.315L15.3924 80.7454C15.3924 80.7454 13.1363 88.2542 13.6376 94.0109C14.139 99.7676 14.3897 104.773 14.3897 104.773C14.3897 104.773 13.1363 108.528 13.6376 109.779C13.788 110.155 13.758 110.71 13.6421 111.304C12.9352 114.93 12.7527 118.638 12.8527 122.33L12.8856 123.545C12.8856 123.545 11.1308 125.047 12.6349 125.297C14.139 125.548 18.902 126.048 18.902 126.048C18.902 126.048 19.9047 124.296 19.4034 124.046L20.9075 115.786C20.9075 115.786 23.4143 112.282 23.1636 110.03C23.1636 110.03 23.9157 106.275 23.1636 104.523L23.4143 93.5103L24.4171 106.776L22.913 123.295C22.913 123.295 20.9075 124.797 22.1609 125.297C23.4143 125.798 31.1856 128.301 31.1856 127.05C31.1856 125.798 30.6842 125.297 30.6842 125.297L33.9431 91.508L32.1883 77.4916C32.1883 77.4916 20.4061 76.4904 21.4088 63.2249C21.4088 63.2249 24.2914 57.2475 27.1369 56.1196C27.1693 56.1076 27.197 56.0857 27.2161 56.0571C27.2353 56.0285 27.2449 55.9945 27.2435 55.9601C27.2422 55.9257 27.2301 55.8926 27.2088 55.8656C27.1875 55.8385 27.1582 55.8188 27.1251 55.8093L25.9699 55.4797C25.9384 55.4704 25.9048 55.471 25.8737 55.4815C25.3724 55.651 21.0262 57.2165 18.902 61.2226Z" fill="#373842"/>
<path d="M24.6678 125.047L24.6277 125.407C24.3581 127.7 23.6115 129.911 22.4357 131.899C21.8744 132.862 21.4447 133.95 21.6596 134.808C22.1609 136.811 21.9103 137.562 21.9103 137.562H25.9212V136.811L28.1606 137.42C28.6599 137.564 29.1919 137.548 29.6815 137.374C30.1829 137.186 30.6842 136.811 30.6842 136.06C30.6842 135.434 30.2055 134.852 29.647 134.385C28.4694 133.421 27.6163 132.119 27.2027 130.656L27.1746 130.553L28.6788 125.047L24.6678 125.047Z" fill="#373842"/>
<path d="M14.2644 125.172L14.2244 125.532C13.9548 127.825 13.2081 130.036 12.0324 132.024C11.4711 132.987 11.0413 134.075 11.2562 134.934C11.7576 136.936 11.5069 137.687 11.5069 137.687H15.5178V136.936L17.7572 137.546C18.2565 137.69 18.7885 137.673 19.2781 137.499C19.7795 137.311 20.2808 136.936 20.2808 136.185C20.2808 135.559 19.8021 134.977 19.2436 134.511C18.066 133.546 17.2129 132.245 16.7993 130.781L16.7713 130.679L18.2754 125.172H14.2644Z" fill="#373842"/>
<path d="M27.1598 49.0112C27.1598 49.0112 31.1105 46.7323 32.6404 46.5942C32.6404 46.5942 33.0859 45.5929 32.6055 44.6295C32.6055 44.6295 32.3724 41.5385 28.5081 41.6586C28.5081 41.6586 23.9439 39.19 22.4117 40.1979C20.8794 41.2057 17.4677 46.042 18.9088 48.9323C18.9088 48.9323 17.2429 49.7692 17.1636 49.3187C17.0843 48.8682 15.8467 50.0783 17.4807 51.1207C17.4807 51.1207 15.1936 53.4324 17.4168 54.8792C17.4168 54.8792 17.3151 52.8289 18.6047 52.2091C19.8944 51.5892 18.7657 52.2403 18.7657 52.2403C18.7657 52.2403 16.5578 55.0025 19.8554 56.0777C19.8554 56.0777 18.6248 54.6786 19.8625 53.4685C19.8625 53.4685 19.4791 56.2948 21.7591 56.5923C21.7591 56.5923 20.583 54.9137 21.2018 54.3086C21.2018 54.3086 21.4645 56.3901 22.7518 56.64L23.7173 56.8274L24.0439 55.1504C24.0439 55.1504 23.1257 57.2927 25.272 57.4193C25.272 57.4193 24.2344 54.1721 25.6081 52.2633C26.9818 50.3544 27.1598 49.0112 27.1598 49.0112Z" fill="#373842"/>
<path d="M21.0276 41.957C21.8217 40.9101 21.7944 39.554 20.9667 38.9281C20.1389 38.3022 18.8241 38.6434 18.03 39.6902C17.2359 40.7371 17.2632 42.0931 18.0909 42.7191C18.9187 43.345 20.2335 43.0038 21.0276 41.957Z" fill="#373842"/>
<path d="M21.5755 40.7036C21.0768 40.8923 20.6428 41.22 20.3252 41.6478C20.0427 42.0146 19.8546 42.445 19.7773 42.9012C20.276 42.7125 20.71 42.3848 21.0276 41.957C21.3101 41.5902 21.4982 41.1598 21.5755 40.7036Z" fill="#FDAA46"/>
<path d="M40.7154 88.3821L40.3969 87.9579L42.7083 86.2285C42.9827 86.0227 43.1978 85.7483 43.3322 85.4331C43.4665 85.1178 43.5153 84.7728 43.4736 84.4327L42.3286 75.2006C42.2464 74.5304 42.3425 73.8503 42.6072 73.229C42.872 72.6076 43.2961 72.0668 43.8368 71.6612L46.3561 69.7763C46.8341 69.4195 47.4342 69.2666 48.025 69.3511C48.6157 69.4356 49.1487 69.7506 49.5071 70.227L50.0906 71.0044L49.6657 71.3224L49.0822 70.5449C48.8083 70.1809 48.4011 69.9402 47.9497 69.8756C47.4983 69.8111 47.0397 69.9279 46.6745 70.2005L44.1552 72.0854C43.6893 72.435 43.3238 72.901 43.0957 73.4364C42.8675 73.9718 42.7847 74.5579 42.8555 75.1354L44.0005 84.3675C44.0536 84.8003 43.9916 85.2393 43.8206 85.6405C43.6497 86.0417 43.3759 86.3909 43.0267 86.6528L40.7154 88.3821Z" fill="#CFCCE0"/>
<path d="M41.5397 89.1647L43.4242 86.6867L42.7872 85.8384L39.9618 87.0623L27.6276 95.5719L29.811 98.481L41.5397 89.1647Z" fill="#CFCCE0"/>
<path d="M50.4235 69.6669L48.0439 71.4473C47.3935 71.9339 47.2614 72.8548 47.7488 73.5042L58.7887 88.2137C59.2761 88.863 60.1985 88.995 60.8488 88.5083L63.2284 86.728C63.8788 86.2414 64.0109 85.3205 63.5235 84.6711L52.4836 69.9616C51.9962 69.3123 51.0739 69.1803 50.4235 69.6669Z" fill="#E6E6E6"/>
<path opacity="0.2" d="M63.5237 84.6717L63.1825 84.2171L63.1143 84.1262C63.2301 84.2806 63.3144 84.4562 63.3623 84.6431C63.4102 84.83 63.4207 85.0245 63.3933 85.2155C63.3659 85.4064 63.3011 85.5901 63.2026 85.7561C63.1041 85.922 62.9738 86.067 62.8192 86.1826L60.4391 87.9634C60.1268 88.197 59.7344 88.2972 59.3482 88.242C58.9619 88.1867 58.6134 87.9805 58.3795 87.6687L58.4477 87.7597L58.7889 88.2142C59.0228 88.526 59.3713 88.7322 59.7576 88.7874C60.1438 88.8427 60.5362 88.7425 60.8485 88.5088L63.2286 86.7281C63.5408 86.4945 63.7473 86.1466 63.8027 85.7609C63.858 85.3753 63.7577 84.9835 63.5237 84.6717Z" fill="black"/>
<path d="M56.4643 74.9612C56.4433 74.9405 56.4257 74.9238 56.4252 74.933C56.4452 74.9572 56.4585 74.9636 56.4643 74.9612Z" fill="#7F77FF"/>
<path d="M56.0899 74.3712C56.0877 74.3569 56.0802 74.344 56.0688 74.3352L56.0899 74.3712Z" fill="#7F77FF"/>
<path d="M58.7814 78.0984C58.7593 78.1054 58.8017 78.1525 58.8295 78.1976L58.7814 78.0984Z" fill="#7F77FF"/>
<path d="M59.9458 79.5947L59.9659 79.6215C59.9786 79.6248 59.9915 79.6267 60.0046 79.6272L59.9458 79.5947Z" fill="#7F77FF"/>
<path d="M60.6819 80.69C60.6953 80.6901 60.7086 80.6928 60.7209 80.6981C60.7333 80.7034 60.7444 80.7111 60.7537 80.7208C60.765 80.7117 60.7733 80.6994 60.7775 80.6855C60.7609 80.6593 60.7089 80.6847 60.6819 80.69Z" fill="#7F77FF"/>
<path d="M62.9647 83.8567L62.9535 83.8763C62.9603 83.8849 62.968 83.8927 62.9764 83.8996L62.9647 83.8567Z" fill="#7F77FF"/>
<path d="M55.3665 73.2783L55.369 73.2834C55.3936 73.3059 55.3817 73.2916 55.3665 73.2783Z" fill="#7F77FF"/>
<path d="M48.6825 75.4558C48.644 75.32 48.8634 75.5882 48.7896 75.3957C48.7828 75.4238 48.6103 75.3047 48.6825 75.4558Z" fill="#7F77FF"/>
<path d="M53.5871 70.9644C53.5833 70.9771 53.5826 70.9906 53.585 71.0038C53.5891 70.9994 53.5908 70.9896 53.5871 70.9644Z" fill="#7F77FF"/>
<path d="M52.6537 70.2947C52.6216 70.3147 52.5932 70.3402 52.57 70.37C52.5753 70.3689 52.5804 70.3672 52.5852 70.3647C52.6013 70.3357 52.625 70.3115 52.6537 70.2947Z" fill="#7F77FF"/>
<path d="M51.727 71.1663C51.7351 71.1648 51.7432 71.1628 51.7511 71.1604L51.777 71.1331L51.727 71.1663Z" fill="#7F77FF"/>
<path d="M63.0192 83.9026C62.9879 83.9406 62.9264 83.99 62.8988 83.9734L62.9534 83.8756C62.9495 83.8711 62.9459 83.866 62.9422 83.8611C62.9457 83.8565 62.9492 83.8521 62.9527 83.8475L62.1668 82.8005L62.1873 82.8017L62.1512 82.7796L62.0515 82.6469C62.0642 82.6441 62.0804 82.6481 62.1041 82.6714C62.0636 82.5482 62.0148 82.6023 61.9885 82.4901C61.9873 82.4764 61.9937 82.4782 62.0029 82.4849L61.9107 82.4038C61.939 82.4121 61.9463 82.3523 61.9809 82.4186C61.8903 82.2171 61.7217 82.1783 61.724 82.0752L61.7389 82.0866C61.5877 81.9205 61.6251 82.0104 61.5732 82.0095L61.4893 81.8977L61.5108 81.7524L61.4437 81.7659C61.427 81.7399 61.394 81.6883 61.4206 81.6825C61.3178 81.616 61.4108 81.7142 61.3389 81.6849C61.2947 81.5324 61.072 81.3731 61.1306 81.2874C61.0611 81.2729 61.1869 81.4227 61.0656 81.3154C61.1232 81.2159 60.9411 81.1797 60.8985 81.0421C60.9673 81.0427 61.0213 81.1628 60.9788 81.0251C60.8557 81.0149 60.8364 80.8016 60.7535 80.7207C60.6915 80.7604 60.5796 80.54 60.4447 80.4011C60.3647 80.2382 60.2744 80.0805 60.1742 79.9291L60.1873 79.9259C60.107 79.9428 60.0076 79.787 59.9148 79.6889C59.9535 79.6665 59.9821 79.6753 60.0416 79.7215L59.9656 79.6208C59.9152 79.6026 59.8712 79.57 59.8392 79.527L59.9026 79.5191C59.7682 79.3911 59.649 79.2481 59.5474 79.0929C59.5143 79.1073 59.5191 79.2031 59.475 79.2138L59.4063 79.1224C59.4165 79.1181 59.4277 79.1172 59.4385 79.1198C59.4492 79.1223 59.4588 79.1282 59.4659 79.1367C59.4512 79.1232 59.4054 79.0947 59.3913 79.056L59.4837 79.1008C59.4412 79.0097 59.4213 79.0832 59.3776 79.0177C59.4106 78.995 59.3655 78.9541 59.3977 78.9441C59.4128 78.9578 59.4256 79.0089 59.4563 79.0236C59.4097 78.9575 59.3789 78.8817 59.3663 78.802C59.3528 78.8218 59.3233 78.8342 59.2801 78.7853C59.177 78.6528 59.2841 78.7106 59.2417 78.62C59.1951 78.6041 59.1539 78.5012 59.1044 78.5347C59.0751 78.4952 59.092 78.4713 59.0935 78.4464C59.0203 78.3927 58.8439 78.1263 58.8518 78.2427L58.8618 78.263L58.8512 78.2532C58.6327 78.061 58.5232 77.7598 58.3331 77.5492L58.3493 77.5375C58.2445 77.408 58.1299 77.2867 58.0065 77.1748C57.9766 77.1348 57.965 77.0588 57.9969 77.0615C57.9109 76.9908 57.8421 76.9016 57.7954 76.8006C57.9011 76.8834 57.7932 76.7463 57.8956 76.8916C57.8088 76.7472 57.8116 76.6977 57.6599 76.5866C57.7376 76.6049 57.6358 76.4471 57.5757 76.3926L57.6169 76.5084C57.5631 76.4457 57.5138 76.3793 57.4696 76.3096L57.5493 76.3037C57.409 75.9805 57.0666 75.8927 57.0196 75.6018C56.9275 75.5575 57.1049 75.7706 57.0121 75.7387C56.9558 75.6227 56.9096 75.5021 56.8739 75.3783C56.7741 75.1832 56.6742 75.276 56.5589 75.0799C56.5571 75.1173 56.5222 75.1776 56.4027 75.056C56.315 74.9245 56.3668 74.8405 56.4421 74.9087C56.4664 74.9378 56.4712 74.9569 56.4638 74.9605C56.5014 74.9961 56.5498 75.0434 56.5331 74.9779L56.5016 74.9759C56.4742 74.8986 56.3418 74.7264 56.4039 74.7437C56.314 74.662 56.3418 74.7264 56.3849 74.8046C56.2912 74.6218 56.1959 74.551 56.0895 74.3704C56.0988 74.4048 56.0945 74.4461 56.0749 74.4196C55.9153 74.1573 55.9577 74.3392 55.825 74.1799C55.7837 74.0639 55.9202 74.1613 55.7706 74.0129C55.714 73.8963 55.8054 73.9532 55.8514 73.982C55.7435 73.8685 55.6595 73.7346 55.6045 73.5881L55.68 73.6565C55.6412 73.6201 55.6064 73.5798 55.5759 73.5362L55.5717 73.6107C55.5432 73.5587 55.5134 73.5188 55.5301 73.5077C55.4686 73.4781 55.494 73.5926 55.3875 73.5223C55.36 73.4451 55.2234 73.3472 55.2582 73.2875C55.3887 73.4974 55.2931 73.2274 55.4264 73.3879C55.3908 73.3532 55.3611 73.313 55.3384 73.2687C55.3388 73.2574 55.3539 73.2675 55.3665 73.2782C55.2706 73.0556 55.2438 73.2347 55.0984 73.0385C55.1457 73.0418 55.1189 72.9524 55.0889 72.9251C55.1474 73.0043 55.0692 72.9987 54.9929 72.9429C54.9213 72.8009 54.8741 72.8193 54.8275 72.7517L54.8732 72.8344C54.8254 72.8306 54.7822 72.7651 54.7076 72.6846C54.7244 72.6604 54.7825 72.7524 54.769 72.7138C54.6457 72.6547 54.6569 72.4557 54.5214 72.346C54.4938 72.2688 54.5708 72.2995 54.5428 72.2346C54.3918 72.111 54.459 72.0411 54.3087 71.9049C54.3045 71.9797 54.32 71.9807 54.1982 71.8967L54.4218 72.1381L54.2396 72.0122C54.2983 72.0916 54.389 72.1607 54.4179 72.213C54.3263 72.1565 54.3421 72.1575 54.3384 72.2193C54.3153 72.0679 54.1438 72.0303 54.0892 71.876L54.1877 71.8083C54.0893 71.5885 53.8881 71.5112 53.729 71.2493L53.7713 71.3401C53.7087 71.3358 53.6529 71.1935 53.5782 71.126C53.6157 71.1094 53.5903 71.0514 53.5849 71.0028C53.5642 71.0246 53.453 70.8226 53.3726 70.8482L53.3329 70.7078C53.2115 70.5101 53.0483 70.518 52.8899 70.2843C52.9232 70.2926 52.9224 70.2616 52.9284 70.2424C52.9352 70.2241 52.9493 70.2183 53.0324 70.3031C52.9571 70.2021 52.8892 70.0995 52.8832 70.1376C52.8778 70.125 52.871 70.1132 52.8629 70.1022L52.8488 70.0841C52.8437 70.0788 52.8371 70.094 52.8308 70.0988L52.7454 70.2039C52.7035 70.2678 52.649 70.3225 52.5851 70.3646C52.557 70.4165 52.5661 70.466 52.4839 70.5417C52.4697 70.5442 52.4717 70.526 52.4717 70.526C52.4754 70.5508 52.3831 70.6477 52.4694 70.6268C52.2084 70.7045 51.9811 71.0991 51.7506 71.1598C51.632 71.2843 51.4852 71.4306 51.3682 71.5336C51.368 71.518 51.3556 71.5182 51.3807 71.5021C51.1937 71.6138 51.3555 71.6763 51.1399 71.8013C51.0024 71.8316 51.2176 71.6914 51.1419 71.7225C51.0319 71.6432 50.9269 71.9255 50.7492 71.9674L50.7754 71.9365C50.6505 71.9807 50.5671 72.1662 50.3979 72.2833C50.3979 72.2833 50.3987 72.268 50.3868 72.2668C50.2706 72.4365 50.1281 72.5868 49.9646 72.7118C49.985 72.6344 50.022 72.6378 49.961 72.6171C49.893 72.6742 50.0312 72.67 49.8949 72.7845C49.8316 72.795 49.7132 72.8486 49.6672 72.8115L49.8019 72.7138C49.6916 72.7048 49.6266 72.8384 49.5467 72.8772L49.5382 72.8449C49.334 72.9966 49.3729 73.0624 49.1393 73.2072L49.176 73.212C49.0911 73.3594 49.0456 73.2409 48.949 73.3694L48.8688 73.325C48.7415 73.4488 48.6058 73.5637 48.4627 73.6688C48.5576 73.5509 48.6631 73.4417 48.7778 73.3428C48.6624 73.4017 48.5581 73.4801 48.4695 73.5746C48.5 73.5484 48.5331 73.5063 48.5729 73.4974C48.478 73.632 48.3498 73.7398 48.2008 73.8102C48.1865 73.7309 48.0163 73.8077 47.8103 73.9083L47.7325 73.9463L47.6928 73.9657C47.68 73.9723 47.6591 73.977 47.6761 73.9904C47.7078 74.0357 47.7383 74.0805 47.7652 74.1233C47.8129 74.1902 47.8469 74.266 47.8652 74.3461C47.9087 74.3955 47.9518 74.4444 47.9948 74.4933C48.0235 74.5261 48.0509 74.56 48.0773 74.5948C48.1302 74.6643 48.1795 74.7376 48.2286 74.8131C48.3269 74.9642 48.4246 75.1246 48.55 75.2841C48.5601 75.0969 48.6238 75.3767 48.7079 75.2827C48.77 75.3525 48.7901 75.3825 48.7894 75.3944L48.7818 75.3759L48.7895 75.3957L48.7897 75.3955L48.9023 75.6683C48.9142 75.7442 48.8265 75.6128 48.8095 75.6364C48.9261 75.8075 48.8196 75.7372 48.8755 75.8663C48.8941 75.8174 48.9694 75.8859 49.0266 75.9903L48.9726 75.8234C49.1988 76.0151 49.0395 76.0854 49.2666 76.2793L49.1801 76.229C49.2882 76.3348 49.5106 76.6706 49.6781 76.7283C49.6825 76.758 49.6764 76.8062 49.6298 76.7589C49.8323 77.0536 50.1918 77.3317 50.3095 77.5904L50.2691 77.5869C50.3161 77.6349 50.3842 77.6456 50.41 77.7306C50.3973 77.7347 50.3697 77.7272 50.3868 77.753C50.4614 77.8036 50.5251 77.8686 50.5744 77.9441L50.5018 77.9041C50.6793 78.2066 50.8893 78.2822 51.0813 78.5036C51.0096 78.5563 51.151 78.793 51.2216 78.9111L51.2087 78.9148C51.4326 79.1933 51.6753 79.4561 51.9351 79.7016C51.9978 79.9461 52.3771 80.3579 52.5588 80.6902C52.5373 80.6346 52.6199 80.6561 52.6671 80.7041C52.7055 80.7852 52.8625 80.8616 52.7888 80.8993L52.7712 80.8733C52.7469 80.9743 52.8725 81.1062 52.9555 81.2204L53.055 81.1751C53.1523 81.5635 53.6815 81.9148 53.6911 82.1593C53.766 82.2146 53.832 82.3031 53.9064 82.3577L53.8577 82.3882C53.9788 82.5783 54.112 82.7604 54.2566 82.9333L54.1864 82.908C54.2869 83.0479 54.4491 82.983 54.5471 83.108L54.5074 83.1974C54.6887 83.4368 54.8111 83.7249 55.0514 83.9158C55.0384 83.9194 55.0133 83.9272 54.9814 83.8903C55.0644 84.0048 55.2633 84.3624 55.3264 84.2511C55.2674 84.2996 55.5065 84.5034 55.6308 84.6129L55.5705 84.6265C55.6839 84.6639 55.7842 84.733 55.8595 84.8255C55.8808 84.8661 55.8472 84.8843 55.8226 84.8275C55.8896 84.966 55.936 84.8896 56.0218 85.054L55.952 85.021C55.971 85.0568 55.9969 85.0883 56.0283 85.1139C56.0597 85.1394 56.0959 85.1584 56.1348 85.1697C56.2115 85.2342 56.3003 85.4139 56.2732 85.4627C56.3086 85.4688 56.3419 85.4831 56.3706 85.5045C56.3993 85.526 56.4225 85.5539 56.4382 85.586C56.4302 85.6075 56.4006 85.588 56.3859 85.578C56.5111 85.8088 56.6702 85.8477 56.7331 86.0237C56.7277 86.0295 56.724 86.0368 56.7224 86.0446C56.7209 86.0524 56.7215 86.0605 56.7243 86.068C56.6015 85.9021 56.5042 85.7674 56.5169 85.7774C56.4753 85.8085 56.568 85.9473 56.431 85.8842C56.5844 85.9781 56.7185 86.1003 56.8261 86.2443C56.8274 86.2536 56.8268 86.2631 56.8246 86.2723L56.8098 86.2623C56.827 86.2925 56.8503 86.3187 56.8782 86.3394C56.8977 86.3802 56.9205 86.4193 56.9464 86.4564C56.9236 86.4975 57.0426 86.6231 57.0908 86.6908C57.1322 86.6513 57.1902 86.7438 57.1666 86.6341C57.1713 86.6472 57.1518 86.6257 57.1167 86.5829C57.1089 86.5738 57.1002 86.5655 57.0907 86.5581L57.0981 86.5596L56.9711 86.3967C57.0067 86.4127 57.0387 86.4359 57.065 86.4647C57.0914 86.4936 57.1115 86.5276 57.1241 86.5646C57.179 86.5768 57.2372 86.5919 57.2672 86.6024C57.272 86.7409 57.3693 86.9419 57.3485 86.9956C57.4374 87.0875 57.5313 87.2039 57.6257 87.3053C57.6712 87.3546 57.7194 87.4013 57.7701 87.4453C57.817 87.4957 57.8733 87.5364 57.9359 87.5653C57.9616 87.5896 57.9798 87.6208 57.9881 87.6553C57.9961 87.6848 58.0088 87.6819 58.0236 87.6901C58.0093 87.6988 57.9939 87.7056 57.9778 87.7104L57.9477 87.6774C57.9332 87.6594 57.9157 87.6439 57.896 87.6318C57.936 87.6584 57.9632 87.7564 58.0412 87.6946L58.2425 87.6128C58.2893 87.5954 58.334 87.5728 58.3758 87.5456C58.4048 87.5254 58.4234 87.5053 58.425 87.4848C58.6081 87.4483 58.3528 87.5873 58.5844 87.4822L58.5608 87.5161C59.0779 87.4386 59.2288 87.0293 59.7784 86.8964C59.7402 86.9067 59.7213 86.9121 59.7083 86.905C60.2979 86.6571 60.7645 86.1601 61.3027 85.8416C61.4529 85.7447 61.433 85.6927 61.4887 85.5946L61.5581 85.614L61.646 85.4387C61.7952 85.2224 62.0755 85.2296 62.231 84.9199L62.1715 84.9229C62.2594 84.8429 62.4024 84.6278 62.4258 84.6744C62.4234 84.6589 62.4259 84.643 62.4332 84.629C62.4404 84.6151 62.4519 84.6038 62.466 84.5968L62.4926 84.615C62.5428 84.5302 62.5889 84.4426 62.6368 84.3571C62.7968 84.1973 62.7155 84.4671 62.9249 84.2114C62.9908 84.1062 63.0646 83.8789 63.0192 83.9026ZM61.932 82.4727C61.9335 82.4783 61.9342 82.4842 61.9338 82.49L61.8935 82.4364C61.9061 82.448 61.9184 82.459 61.932 82.4727ZM57.0238 86.5474L57.0333 86.5485C57.0215 86.5514 57.0091 86.5513 56.9973 86.5481C56.9577 86.5087 56.9555 86.4872 56.9603 86.4742C56.9768 86.4944 56.9966 86.5177 57.0238 86.5474V86.5474Z" fill="#FDAA46"/>
<path d="M57.1169 86.5835C57.1231 86.5884 57.1288 86.5938 57.1342 86.5995C57.1316 86.5878 57.1283 86.5763 57.1245 86.5649L57.0981 86.5598L57.1169 86.5835Z" fill="#7F77FF"/>
<path d="M58.8484 78.2361C58.8505 78.2415 58.8514 78.2473 58.8512 78.253C58.851 78.2496 58.8512 78.2461 58.8517 78.2427L58.8484 78.2361Z" fill="#7F77FF"/>
<path d="M61.4233 81.5798C61.3129 81.3235 61.4176 81.654 61.2553 81.4231L61.3714 81.6052C61.3664 81.5619 61.3603 81.5047 61.4233 81.5798Z" fill="#7F77FF"/>
<path d="M60.9184 80.8473C60.8584 80.8006 60.8437 80.7894 60.8801 80.87C60.9577 80.9564 60.9048 80.8498 60.9184 80.8473Z" fill="#7F77FF"/>
<path d="M57.9839 77.0117L58.0329 76.9897C57.9726 76.9216 58.0161 77.0012 57.9839 77.0117Z" fill="#7F77FF"/>
<path d="M57.2135 75.8037L57.1091 75.6958L57.1842 75.7768L57.2135 75.8037Z" fill="#7F77FF"/>
<path d="M51.8474 70.9896L51.9101 71.0184C51.9466 70.9695 51.9073 70.9083 51.8474 70.9896Z" fill="#7F77FF"/>
<path d="M48.9695 73.2459C49.0307 73.2223 49.0898 73.1937 49.1464 73.1605C49.1122 73.1596 49.0784 73.1669 49.0476 73.1818C49.0168 73.1967 48.99 73.2187 48.9695 73.2459Z" fill="#7F77FF"/>
<path d="M53.0368 81.3203L53.1305 81.4157L53.0961 81.364L53.0368 81.3203Z" fill="#7F77FF"/>
<path d="M27.1822 65.5136L27.5507 76.1148L33.3164 89.6305C33.3164 89.6305 31.8123 96.6387 34.8205 96.3884C37.8287 96.1382 35.0712 89.3803 35.0712 89.3803L32.3137 75.1136L31.8123 63.3499L27.1822 65.5136Z" fill="#A0616A"/>
<path d="M29.3055 58.0937L29.4433 57.1482L30.5588 57.5933L34.0684 63.0996L26.7985 66.854L29.3055 58.0937Z" fill="#CFCCE0"/>
</g>
<defs>
<clipPath id="clip0">
<rect width="195" height="139" fill="white"/>
</clipPath>
</defs>
</svg>
