<svg width="202" height="156" viewBox="0 0 202 156" fill="none" xmlns="http://www.w3.org/2000/svg">
<g clip-path="url(#clip0)">
<path d="M191.152 43.7643C188.61 38.9907 183.976 35.1812 179.608 32.0112C173.056 27.2782 163.384 26.4857 158.118 27.7088C154.993 28.2847 152.067 29.6485 149.616 31.6712C144.04 36.3761 142.193 45.5115 146.702 51.2429C148.515 53.5486 151.104 55.1273 153.042 57.33C158.583 63.6356 157.809 73.6851 163.141 80.1684C167.958 86.0216 177.097 87.2758 183.87 83.8719C190.644 80.468 194.965 73.1672 195.904 65.6417C196.843 58.1163 194.722 50.4536 191.152 43.7643Z" fill="#EBEBEB"/>
<path d="M203.698 144.291C203.698 144.337 158.09 144.372 101.843 144.372C45.5952 144.372 -0.0222778 144.337 -0.0222778 144.291C-0.0222778 144.244 45.5765 144.209 101.843 144.209C158.109 144.209 203.698 144.247 203.698 144.291Z" fill="#263238"/>
<path d="M112.451 62.6277C111.081 62.4904 109.923 61.5419 109.059 60.4686C108.195 59.3954 107.543 58.163 106.641 57.124C105.967 56.3502 105.861 54.7778 104.866 54.525C103.618 54.213 103.013 52.4284 103.094 51.405C103.181 50.2943 104.083 49.1742 104.055 48.8404C103.98 47.9668 102.978 47.3397 102.963 46.463C102.925 44.4006 104.523 44.1167 104.523 44.1167C104.919 43.0466 105.459 41.6207 106.835 40.7066C108.32 39.7113 110.619 38.5569 112.373 38.9063C114.126 39.2558 115.393 39.4523 116.429 40.9094" fill="#263238"/>
<path d="M127.292 61.9194L125.923 68.9894L122.846 75.3573L118.744 72.515L117.389 68.6805L116.254 65.4669C116.254 65.4669 111.773 66.3686 110.16 62.1503C109.38 60.1161 108.12 55.7918 107.022 51.8543C106.455 49.8185 106.674 47.6441 107.636 45.7623C108.598 43.8806 110.232 42.4291 112.213 41.6956L112.622 41.5458C117.124 40.1793 120.803 43.2369 122.045 47.7858L127.292 61.9194Z" fill="#FFBE9D"/>
<path d="M109.368 54.5811C109.425 54.7395 109.542 54.8694 109.693 54.9434C109.845 55.0173 110.019 55.0295 110.179 54.9773C110.258 54.954 110.331 54.9155 110.395 54.8638C110.459 54.8122 110.512 54.7484 110.551 54.6763C110.59 54.6041 110.615 54.5249 110.623 54.4433C110.632 54.3616 110.624 54.2791 110.6 54.2004C110.544 54.0423 110.427 53.9126 110.276 53.8392C110.125 53.7657 109.952 53.7543 109.792 53.8073C109.714 53.8303 109.64 53.8685 109.576 53.9198C109.512 53.9711 109.459 54.0345 109.42 54.1063C109.38 54.1782 109.356 54.2571 109.347 54.3385C109.338 54.42 109.345 54.5024 109.368 54.5811Z" fill="#263238"/>
<path d="M108.55 53.4019C108.653 53.4518 108.987 52.9432 109.639 52.7061C110.291 52.469 110.887 52.6188 110.928 52.5127C110.95 52.4628 110.822 52.3504 110.557 52.2756C110.204 52.1843 109.831 52.2039 109.49 52.3317C109.15 52.455 108.86 52.6835 108.66 52.9838C108.516 53.2116 108.501 53.38 108.55 53.4019Z" fill="#263238"/>
<path d="M115.471 52.2881C115.527 52.4463 115.643 52.5762 115.794 52.6501C115.945 52.7241 116.119 52.7364 116.279 52.6843C116.358 52.6614 116.431 52.6231 116.496 52.5716C116.56 52.5201 116.613 52.4564 116.652 52.3842C116.692 52.312 116.717 52.2327 116.725 52.1509C116.734 52.069 116.726 51.9863 116.703 51.9075C116.646 51.7497 116.53 51.6204 116.379 51.5465C116.228 51.4726 116.055 51.46 115.895 51.5112C115.816 51.5341 115.742 51.5725 115.678 51.624C115.614 51.6755 115.561 51.7392 115.521 51.8114C115.482 51.8836 115.457 51.9629 115.448 52.0447C115.44 52.1265 115.447 52.2092 115.471 52.2881Z" fill="#263238"/>
<path d="M114.984 50.828C115.084 50.8904 115.471 50.4193 116.145 50.2539C116.818 50.0885 117.393 50.3007 117.446 50.2009C117.474 50.1572 117.358 50.0293 117.102 49.9263C116.761 49.7968 116.389 49.7761 116.035 49.867C115.684 49.9535 115.37 50.149 115.137 50.4255C114.956 50.6345 114.921 50.7999 114.984 50.828Z" fill="#263238"/>
<path d="M114.556 57.0615C114.173 57.0805 113.794 57.1476 113.427 57.2612C113.255 57.3049 113.084 57.3299 113.015 57.2269C112.937 57.0607 112.912 56.8744 112.943 56.6934C112.943 56.2347 112.962 55.7574 112.972 55.2457C112.99 53.1927 112.937 51.5298 112.853 51.5298C112.769 51.5298 112.688 53.1927 112.672 55.2457C112.672 55.7511 112.672 56.2347 112.672 56.6934C112.642 56.933 112.696 57.1757 112.825 57.3798C112.871 57.4296 112.928 57.4681 112.991 57.4924C113.054 57.5168 113.122 57.5263 113.19 57.5202C113.291 57.511 113.391 57.489 113.486 57.4547C113.858 57.3695 114.218 57.2374 114.556 57.0615Z" fill="#263238"/>
<path d="M116.638 56.8058C116.528 56.8402 116.787 57.5453 116.369 58.2722C115.951 58.9992 115.168 59.2082 115.199 59.2956C115.199 59.3424 115.418 59.3705 115.736 59.2644C116.153 59.1176 116.504 58.828 116.728 58.447C116.944 58.0825 117.009 57.6481 116.909 57.2364C116.828 56.9306 116.684 56.784 116.638 56.8058Z" fill="#263238"/>
<path d="M114.26 48.6532C114.376 48.8186 115.018 48.5472 115.82 48.4255C116.622 48.3038 117.324 48.3444 117.38 48.1509C117.405 48.0604 117.249 47.92 116.943 47.814C116.543 47.692 116.119 47.6632 115.706 47.7297C115.292 47.7962 114.899 47.9563 114.557 48.1977C114.313 48.3943 114.207 48.5752 114.26 48.6532Z" fill="#263238"/>
<path d="M108.239 51.6267C108.41 51.7328 108.8 51.4146 109.337 51.2087C109.873 51.0027 110.369 50.9403 110.419 50.7469C110.435 50.6564 110.31 50.5347 110.057 50.4692C109.728 50.4004 109.385 50.431 109.073 50.5571C108.761 50.6832 108.493 50.8991 108.304 51.1775C108.17 51.399 108.164 51.5737 108.239 51.6267Z" fill="#263238"/>
<path d="M116.004 40.7159C116.17 41.1899 116.23 41.6945 116.18 42.1942C116.13 42.6939 115.971 43.1765 115.714 43.608C115.457 44.0394 115.108 44.4091 114.692 44.6911C114.277 44.9731 113.804 45.1605 113.308 45.2399C112.541 45.3585 111.624 45.2711 111.125 45.8639C110.625 46.4567 110.928 47.4926 110.522 48.2008C109.942 49.2148 108.385 48.9995 107.437 49.6797C106.707 50.207 106.469 51.1648 106.157 52.0072C105.845 52.8496 105.253 53.7607 104.351 53.8012C104.119 53.058 103.972 52.2907 103.914 51.5143C103.864 50.7302 104.084 49.9527 104.538 49.3115C104.797 48.9746 105.143 48.7031 105.368 48.3412C105.855 47.5581 105.68 46.5535 105.83 45.6424C105.933 45.0559 106.175 44.5025 106.536 44.0282C106.896 43.554 107.364 43.1725 107.902 42.9155C108.797 42.4975 109.848 42.4413 110.675 41.8984C111.284 41.4959 111.717 40.8563 112.348 40.4913C113.58 39.7799 115.137 40.2979 116.422 40.9063" fill="#263238"/>
<path d="M112.435 44.0668C112.968 43.6924 114.045 42.8874 114.182 42.2634C114.494 40.9093 115.43 39.7237 116.697 39.3587C117.357 39.1846 118.055 39.2288 118.688 39.4847C119.321 39.7406 119.853 40.1944 120.207 40.7783C120.987 40.5368 121.819 40.5102 122.613 40.7012C123.408 40.8923 124.136 41.294 124.721 41.864C125.33 42.4648 125.784 43.205 126.042 44.0206C126.3 44.8361 126.356 45.7022 126.203 46.544C126.119 46.9777 125.979 47.427 126.119 47.8544C126.294 48.3817 126.827 48.6625 127.255 48.9995C128.416 49.9355 128.927 51.5672 128.799 53.0555C128.671 54.5437 128.422 55.1428 127.692 55.6888C126.256 56.7558 129.336 59.2861 126.659 60.2221L122.422 50.9651C122.357 51.0344 122.284 51.0952 122.204 51.146C120.743 52.0571 119.455 49.0338 119.499 48.026C118.727 47.7464 117.993 47.3712 117.315 46.9091C116.65 46.4161 115.652 44.7875 115.468 43.9607C114.915 44.1853 112.204 44.2321 112.435 44.0668Z" fill="#263238"/>
<path d="M122.222 51.0992C122.282 51.0399 124.815 49.1648 125.788 52.0945C126.762 55.0242 123.62 55.4017 123.589 55.3175C123.558 55.2332 122.222 51.0992 122.222 51.0992Z" fill="#FFBE9D"/>
<path d="M124.113 53.9104C124.113 53.9104 124.176 53.9292 124.275 53.9385C124.344 53.9453 124.413 53.9383 124.479 53.9179C124.545 53.8976 124.606 53.8643 124.659 53.82C124.934 53.6047 125.03 53.0244 124.868 52.494C124.793 52.2397 124.661 52.006 124.481 51.8107C124.423 51.7282 124.346 51.6609 124.257 51.6147C124.167 51.5686 124.067 51.5448 123.967 51.5455C123.903 51.5495 123.843 51.5757 123.796 51.6197C123.75 51.6636 123.721 51.7224 123.714 51.7857C123.714 51.8793 123.739 51.9324 123.714 51.9417C123.689 51.9511 123.633 51.9136 123.617 51.7857C123.609 51.708 123.628 51.6299 123.67 51.5642C123.732 51.4768 123.824 51.4165 123.929 51.3957C124.057 51.3797 124.187 51.3968 124.307 51.4455C124.427 51.4941 124.532 51.5725 124.612 51.6734C124.822 51.8855 124.976 52.1458 125.062 52.4316C125.239 53.0275 125.121 53.6796 124.75 53.9448C124.678 53.9932 124.597 54.0253 124.512 54.0388C124.427 54.0523 124.34 54.0468 124.257 54.0227C124.141 53.976 124.107 53.9198 124.113 53.9104Z" fill="#EB996E"/>
<path d="M116.248 65.4668C118.217 64.7818 119.939 63.5263 121.193 61.8601C121.193 61.8601 121.012 65.3919 116.644 66.5682L116.248 65.4668Z" fill="#EB996E"/>
<path d="M115.508 43.9919C117.056 44.3064 118.64 44.4114 120.216 44.3039C122.821 44.1261 123.18 42.6846 124.023 41.3149C124.569 41.6374 125.04 42.0738 125.404 42.5943C125.767 43.1149 126.014 43.7075 126.129 44.332C126.129 44.332 124.656 48.5222 119.499 48.0198C119.499 48.0198 115.739 46.9777 115.508 43.9919Z" fill="#E0E0E0"/>
<path d="M126.013 47.6766C126.091 47.7452 125.898 48.1446 125.358 48.597C124.634 49.1815 123.746 49.5256 122.817 49.5816C121.888 49.6375 120.965 49.4024 120.176 48.909C119.586 48.5252 119.349 48.1508 119.417 48.0728C119.486 47.9948 119.851 48.182 120.438 48.3848C121.178 48.6803 121.974 48.8091 122.769 48.7622C123.564 48.7153 124.34 48.4938 125.04 48.1134C125.592 47.8357 125.926 47.5924 126.013 47.6766Z" fill="#E0E0E0"/>
<path d="M118.987 49.8482C119.031 49.8482 118.915 50.2289 118.553 50.5128C118.455 50.6069 118.337 50.6792 118.209 50.7249C118.08 50.7706 117.944 50.7887 117.808 50.778C117.808 50.7312 118.12 50.6407 118.453 50.3849C118.787 50.129 118.946 49.8295 118.987 49.8482Z" fill="#EB996E"/>
<path d="M119.533 50.6594C119.326 50.7922 119.091 50.8765 118.847 50.9059C118.615 50.9885 118.368 51.0193 118.123 50.9964C118.562 50.7814 119.044 50.6664 119.533 50.6594Z" fill="#EB996E"/>
<path d="M113.452 49.4301C113.452 49.4551 113.352 49.4988 113.196 49.5893C113.04 49.6797 112.828 49.8201 112.572 49.9668C112.361 50.1005 112.126 50.1927 111.88 50.2382C111.686 50.2663 111.568 50.2382 111.568 50.2133C111.568 50.1883 111.683 50.1789 111.855 50.1259C112.074 50.047 112.284 49.9422 112.479 49.8139C112.685 49.6822 112.902 49.5684 113.128 49.4738C113.324 49.4177 113.446 49.4114 113.452 49.4301Z" fill="#EB996E"/>
<path d="M114.391 47.686C114.391 47.711 114.198 47.7703 113.926 47.9575C113.585 48.2162 113.272 48.5089 112.99 48.8311C112.696 49.1653 112.341 49.4414 111.945 49.6454C111.781 49.7384 111.593 49.7787 111.405 49.7608C111.405 49.7328 111.608 49.7016 111.892 49.5424C112.257 49.316 112.588 49.0386 112.875 48.7188C113.165 48.3843 113.504 48.095 113.88 47.8608C114.029 47.7534 114.207 47.6927 114.391 47.686Z" fill="#EB996E"/>
<path d="M109.237 54.5999C109.259 54.6373 109.04 54.7808 108.728 54.7933C108.416 54.8058 108.189 54.6841 108.204 54.6467C108.22 54.6092 108.448 54.6467 108.722 54.6311C108.997 54.6155 109.218 54.5468 109.237 54.5999Z" fill="#EB996E"/>
<path d="M109.037 54.9399C109.053 54.9804 108.912 55.0772 108.791 55.2519C108.669 55.4266 108.613 55.5639 108.566 55.5639C108.519 55.5639 108.51 55.3486 108.663 55.1489C108.816 54.9492 109.025 54.9118 109.037 54.9399Z" fill="#EB996E"/>
<path d="M117.592 56.8338C117.552 56.8525 117.427 56.6466 117.168 56.5374C116.909 56.4282 116.675 56.475 116.659 56.4313C116.644 56.3876 116.706 56.3658 116.812 56.344C116.953 56.3138 117.099 56.3291 117.23 56.3876C117.36 56.4456 117.468 56.5413 117.542 56.6622C117.608 56.7558 117.611 56.8275 117.592 56.8338Z" fill="#EB996E"/>
<path d="M118.194 56.9024C118.148 56.918 118.041 56.6871 117.817 56.4906C117.592 56.294 117.352 56.2035 117.364 56.1598C117.377 56.1162 117.676 56.1318 117.923 56.3689C118.169 56.606 118.235 56.8962 118.194 56.9024Z" fill="#EB996E"/>
<path d="M117.995 52.1787C117.926 52.4921 117.744 52.7689 117.483 52.9556C117.258 53.1855 116.953 53.3196 116.631 53.33C116.631 53.2863 117.006 53.1521 117.377 52.8308C117.748 52.5094 117.951 52.1569 117.995 52.1787Z" fill="#EB996E"/>
<path d="M112.463 127.524L112.887 138.263C112.887 138.263 102.111 142.3 101.999 144.29L122.849 144.222L122.878 127.461L112.463 127.524Z" fill="#455A64"/>
<path d="M119.33 137.339C119.531 137.398 119.703 137.53 119.813 137.709C119.922 137.887 119.962 138.1 119.923 138.306C119.87 138.509 119.742 138.684 119.564 138.795C119.387 138.906 119.173 138.944 118.968 138.902C118.755 138.838 118.574 138.698 118.458 138.507C118.343 138.317 118.302 138.091 118.344 137.873C118.481 137.476 119.04 137.168 119.408 137.364" fill="#E0E0E0"/>
<g opacity="0.6">
<path opacity="0.6" d="M122.849 144.222L122.787 142.531L102.819 143.23C102.819 143.23 101.883 143.639 102.002 144.291L122.849 144.222Z" fill="white"/>
</g>
<path d="M112.547 138.157C112.547 138.26 113.062 138.303 113.564 138.631C114.067 138.958 114.332 139.383 114.425 139.342C114.519 139.302 114.366 138.718 113.752 138.331C113.137 137.945 112.525 138.066 112.547 138.157Z" fill="#263238"/>
<path d="M110.363 139.071C110.341 139.167 110.781 139.339 111.131 139.77C111.48 140.2 111.58 140.656 111.68 140.649C111.78 140.643 111.845 140.069 111.402 139.542C110.959 139.015 110.366 138.974 110.363 139.071Z" fill="#263238"/>
<path d="M109.131 141.692C109.224 141.713 109.362 141.205 109.1 140.646C108.838 140.088 108.36 139.87 108.317 139.954C108.273 140.038 108.569 140.338 108.778 140.799C108.987 141.261 109.028 141.682 109.131 141.692Z" fill="#263238"/>
<path d="M112.722 135.701C112.766 135.792 113.234 135.651 113.808 135.701C114.382 135.751 114.834 135.917 114.887 135.829C114.94 135.742 114.507 135.38 113.827 135.346C113.146 135.311 112.672 135.62 112.722 135.701Z" fill="#263238"/>
<path d="M168.82 141.567L179.449 139.975C179.449 139.975 184.635 150.246 186.625 150.143L184.279 129.424L167.618 131.224L168.82 141.567Z" fill="#455A64"/>
<path d="M177.827 133.67C177.865 133.464 177.978 133.279 178.143 133.152C178.309 133.024 178.517 132.962 178.725 132.978C178.933 133.009 179.12 133.118 179.249 133.282C179.379 133.447 179.44 133.655 179.421 133.864C179.38 134.082 179.26 134.277 179.084 134.412C178.908 134.547 178.688 134.611 178.466 134.594C178.058 134.5 177.69 133.97 177.842 133.592" fill="#E0E0E0"/>
<g opacity="0.6">
<path opacity="0.6" d="M184.285 129.424L182.61 129.67L185.496 149.448C185.496 149.448 186.001 150.324 186.641 150.147L184.285 129.424Z" fill="white"/>
</g>
<path d="M179.381 140.325C179.481 140.309 179.471 139.798 179.74 139.264C180.008 138.731 180.404 138.415 180.364 138.328C180.323 138.241 179.74 138.456 179.428 139.108C179.116 139.76 179.29 140.356 179.381 140.325Z" fill="#263238"/>
<path d="M180.526 142.397C180.626 142.397 180.75 141.951 181.15 141.558C181.549 141.164 181.98 141.015 181.964 140.915C181.949 140.815 181.371 140.815 180.897 141.311C180.423 141.807 180.429 142.403 180.526 142.397Z" fill="#263238"/>
<path d="M183.265 143.336C183.265 143.242 182.757 143.158 182.232 143.479C181.708 143.801 181.54 144.3 181.63 144.334C181.721 144.369 181.983 144.041 182.417 143.782C182.85 143.523 183.268 143.439 183.265 143.336Z" fill="#263238"/>
<path d="M176.919 140.419C177.006 140.366 176.813 139.916 176.788 139.339C176.763 138.762 176.891 138.297 176.788 138.257C176.685 138.216 176.382 138.681 176.423 139.361C176.464 140.041 176.844 140.478 176.919 140.419Z" fill="#263238"/>
<path d="M101.518 83.6938L116.482 87.2943L111.898 96.5639L98.5602 89.0041L101.518 83.6938Z" fill="#FFBE9D"/>
<path d="M96.4636 81.4132L93.9052 80.9233L90.3952 82.5769L88.907 85.8841C88.8114 86.0968 88.7817 86.3332 88.8218 86.5629C88.8618 86.7925 88.9697 87.0049 89.1316 87.1727C89.7556 87.8341 90.8008 88.8357 91.3375 88.9199C91.3375 88.9199 91.4155 90.0805 92.5075 90.1367C92.5075 90.1367 92.1955 90.6733 93.4591 90.8761C94.7227 91.0789 98.7131 90.3395 98.7131 90.3395C98.7131 90.3395 98.9471 89.6437 97.8583 88.7795L99.1593 87.7312C99.1593 87.7312 99.0813 86.9013 97.8645 86.6922L99.1687 84.5519L96.4636 81.4132Z" fill="#FDAA46"/>
<path d="M97.6398 89.0542L102.023 91.7156L105.599 84.499L100.102 82.4897L96.7912 88.9014L97.6398 89.0542Z" fill="#FDAA46"/>
<path d="M90.8165 83.0419L90.5263 83.8188L81.3878 80.3774L80.2553 80.0842L79.7436 79.6474L80.1118 78.9485L80.717 79.0234L81.703 79.6536L90.8165 83.0419Z" fill="#E0E0E0"/>
<path d="M97.8583 88.792C97.6223 88.9389 97.3686 89.0553 97.1033 89.1383C96.4777 89.3792 95.8379 89.5813 95.1876 89.7436C94.5373 89.9059 93.8777 90.0289 93.2126 90.1118C92.9386 90.1584 92.6603 90.1751 92.3827 90.1617C92.6491 90.084 92.9215 90.0287 93.197 89.9963C93.6993 89.909 94.392 89.7748 95.147 89.5845C95.9021 89.3942 96.576 89.1882 97.0627 89.0322C97.321 88.9309 97.5871 88.8506 97.8583 88.792Z" fill="#263238"/>
<path d="M91.6183 88.7795C93.4196 88.5481 95.192 88.1298 96.9067 87.5315C97.1271 87.464 97.3371 87.3664 97.5307 87.2413C97.7324 87.1075 97.8761 86.9025 97.9332 86.6672" fill="#FDAA46"/>
<path d="M97.9425 86.6705C97.9457 86.7651 97.9207 86.8585 97.8707 86.9388C97.7444 87.1608 97.5495 87.336 97.3154 87.438C96.5669 87.7441 95.7987 87.9995 95.0159 88.2024C94.232 88.4092 93.4373 88.5727 92.6354 88.6923C92.3039 88.7525 91.9676 88.7818 91.6307 88.7796C91.9546 88.6906 92.2839 88.6229 92.6167 88.5768C93.2407 88.4614 94.0612 88.2867 94.9722 88.0433C95.8833 87.7999 96.7101 87.5503 97.2779 87.335C97.4993 87.2472 97.6909 87.0978 97.8302 86.9045C97.9082 86.7641 97.9269 86.6674 97.9425 86.6705Z" fill="#263238"/>
<path d="M98.3949 87.5876L90.3079 84.5799L91.1471 82.321L99.2342 85.3287C99.3837 85.3839 99.5208 85.4681 99.6375 85.5766C99.7542 85.6851 99.8482 85.8157 99.9141 85.9608C99.98 86.1059 100.016 86.2626 100.021 86.4219C100.026 86.5812 99.9993 86.7399 99.9424 86.8887C99.8298 87.1865 99.6035 87.4274 99.3133 87.5585C99.0231 87.6895 98.6928 87.7 98.3949 87.5876Z" fill="#455A64"/>
<path d="M90.6667 86.1648C92.6927 85.7524 94.7521 85.5258 96.8193 85.4878C97.0649 85.46 97.3132 85.5045 97.5338 85.6157C97.6409 85.6929 97.7291 85.7934 97.7918 85.9096C97.8545 86.0257 97.89 86.1546 97.8957 86.2865C97.8989 86.5142 97.8345 86.7376 97.7106 86.9287C97.5868 87.1197 97.4091 87.2697 97.2 87.3598H97.1813" fill="#FDAA46"/>
<path d="M97.175 87.3787C97.175 87.3787 97.2842 87.3132 97.4558 87.1635C97.5766 87.0649 97.674 86.9407 97.7409 86.7999C97.8079 86.659 97.8426 86.5051 97.8427 86.3491C97.8359 86.1371 97.7554 85.9341 97.6149 85.7751C97.5256 85.6954 97.4207 85.6353 97.3067 85.5988C97.1928 85.5622 97.0724 85.55 96.9535 85.5629C96.4137 85.5629 95.8116 85.5972 95.1876 85.6409C93.9396 85.7251 92.8039 85.8624 91.9896 85.9841L91.0255 86.1276C90.9079 86.1548 90.7874 86.1674 90.6667 86.1651C90.7786 86.1205 90.8946 86.0871 91.013 86.0652C91.2377 86.0122 91.5652 85.9435 91.9708 85.8687C93.0312 85.6838 94.1009 85.5567 95.1751 85.488C95.7991 85.4443 96.4044 85.4256 96.9535 85.4256C97.0921 85.4139 97.2317 85.4318 97.3629 85.478C97.4942 85.5243 97.6141 85.5979 97.7148 85.6939C97.8716 85.8786 97.9579 86.113 97.9581 86.3554C97.9591 86.5523 97.9004 86.7448 97.7896 86.9076C97.7102 87.0284 97.6098 87.1341 97.4932 87.2196C97.306 87.36 97.175 87.3912 97.175 87.3787Z" fill="#263238"/>
<path d="M101.733 83.8841C101.733 83.8841 99.1594 81.5972 98.1391 81.0325C97.3873 80.5745 96.4918 80.4132 95.6275 80.5801C95.0566 80.7205 90.8134 83.7874 90.8134 83.7874C90.8134 83.7874 91.2283 84.7827 92.6354 84.6392C93.455 84.5687 94.2258 84.2196 94.8194 83.6501C94.8194 83.6501 95.0846 85.0448 96.8256 85.4909C98.8255 86.0057 101.733 83.8841 101.733 83.8841Z" fill="#FDAA46"/>
<path d="M94.7788 81.0918C94.6912 81.1773 94.595 81.2537 94.4918 81.3196L93.665 81.9186L90.7697 83.9466L90.7853 83.8374C91.0079 84.1084 91.2971 84.317 91.6245 84.4427C91.9773 84.5683 92.3559 84.6036 92.7259 84.5456C93.4767 84.4127 94.1794 84.0845 94.7632 83.594L94.8506 83.5223L94.8849 83.6284C95.0653 84.1721 95.4077 84.6476 95.8661 84.9911C96.3246 85.3347 96.8771 85.5298 97.4496 85.5503C97.7809 85.5619 98.112 85.5187 98.4292 85.4223C98.5415 85.3787 98.6561 85.3412 98.7724 85.31C98.7474 85.3297 98.7202 85.3465 98.6913 85.3599C98.6119 85.4022 98.5295 85.4387 98.4448 85.4691C98.1255 85.5879 97.7871 85.6472 97.4464 85.6439C96.9209 85.6422 96.4063 85.493 95.9613 85.2133C95.3901 84.8552 94.9585 84.3124 94.7383 83.6752L94.86 83.7095C94.2593 84.2268 93.5291 84.5708 92.7477 84.7047C92.3515 84.7685 91.9455 84.7299 91.5684 84.5924C91.2132 84.458 90.9007 84.2307 90.6636 83.9341L90.6105 83.8686L90.6823 83.8218C91.8523 83.0262 92.8663 82.3429 93.612 81.8375L94.4637 81.2759C94.562 81.2037 94.6677 81.142 94.7788 81.0918Z" fill="#263238"/>
<path d="M98.5416 90.4363C98.6566 90.301 98.7174 90.1279 98.7122 89.9504C98.707 89.7729 98.6362 89.6037 98.5135 89.4753C98.2598 89.2263 97.9476 89.045 97.6056 88.9481C97.8259 88.8812 98.0243 88.7561 98.1796 88.5861C98.2943 88.4717 98.3678 88.3225 98.3887 88.1618C98.3876 88.0308 98.3496 87.9026 98.279 87.7922C98.2083 87.6818 98.1079 87.5937 97.9893 87.5378C97.7704 87.455 97.5366 87.4189 97.3029 87.4317" fill="#FDAA46"/>
<path d="M97.3029 87.4317C97.3639 87.4157 97.4271 87.4094 97.4901 87.413C97.6671 87.3898 97.847 87.4146 98.0111 87.4848C98.1394 87.541 98.2496 87.6318 98.3295 87.7469C98.4093 87.862 98.4557 87.997 98.4635 88.1368C98.4558 88.3037 98.3921 88.4631 98.2826 88.5893C98.1729 88.7164 98.0407 88.8222 97.8926 88.9013C97.8101 88.9491 97.7221 88.9868 97.6305 89.0136V88.8607C97.9035 88.9476 98.1606 89.0783 98.3918 89.2476C98.5898 89.394 98.722 89.6126 98.7599 89.856C98.7881 90.0144 98.757 90.1777 98.6726 90.3146C98.6102 90.4082 98.554 90.4363 98.5478 90.4301C98.602 90.3494 98.6393 90.2587 98.6576 90.1632C98.6758 90.0678 98.6745 89.9696 98.6539 89.8747C98.6062 89.6695 98.4838 89.4893 98.3107 89.3693C98.0871 89.2173 97.8421 89.0995 97.5837 89.0198L97.3591 88.9387L97.5868 88.8669C97.6667 88.8409 97.744 88.8075 97.8177 88.7671C97.9441 88.7092 98.0553 88.6227 98.1425 88.5144C98.2297 88.4061 98.2905 88.279 98.32 88.1431C98.3132 88.029 98.2768 87.9187 98.2145 87.823C98.1521 87.7273 98.0659 87.6494 97.9644 87.5971C97.8175 87.5255 97.6566 87.4872 97.4932 87.4848C97.3653 87.4629 97.2998 87.4442 97.3029 87.4317Z" fill="#263238"/>
<path d="M103.399 83.6938L99.9143 90.4362L101.197 91.2131L104.473 84.087L103.399 83.6938Z" fill="#E0E0E0"/>
<path d="M119.205 65.5605C119.205 65.5605 120.606 61.1925 123.23 60.8431C125.854 60.4936 128.968 60.6059 131.096 61.3828C134.933 62.7868 150.98 79.7534 150.98 79.7534C150.98 79.7534 155.856 86.3459 154.24 88.9199L140.733 94.0336H129.336C129.336 94.0336 121.056 83.1854 121.224 82.9139C121.393 82.6425 119.205 65.5605 119.205 65.5605Z" fill="#E0E0E0"/>
<path d="M136.078 109.93C136.078 109.93 136.475 137.118 137.398 139.361C138.322 141.604 139.51 143.32 143.47 144.113C147.429 144.905 177.125 142.793 177.125 142.793L175.674 129.48L154.514 127.539C154.514 127.539 154.424 121.561 154.555 118.788C154.686 116.014 157.784 110.825 158.177 104.629C158.57 98.4327 136.078 109.93 136.078 109.93Z" fill="#FDAA46"/>
<path d="M155.032 127.296C155.032 127.321 154.648 127.496 154.049 127.833C153.272 128.279 152.54 128.802 151.865 129.393C151.19 129.986 150.575 130.645 150.031 131.361C149.616 131.91 149.407 132.275 149.366 132.263C149.397 132.166 149.441 132.073 149.497 131.988C149.633 131.749 149.781 131.517 149.94 131.293C150.461 130.547 151.071 129.868 151.756 129.271C152.442 128.673 153.197 128.159 154.006 127.742C154.249 127.615 154.499 127.5 154.755 127.399C154.843 127.353 154.936 127.319 155.032 127.296Z" fill="#263238"/>
<path d="M151.323 135.177C151.325 135.064 151.341 134.952 151.369 134.843C151.407 134.634 151.475 134.328 151.575 133.957C151.837 132.988 152.177 132.042 152.592 131.127C153.01 130.214 153.501 129.336 154.062 128.503C154.277 128.191 154.461 127.936 154.595 127.767C154.659 127.674 154.733 127.589 154.817 127.514C154.836 127.53 154.561 127.917 154.155 128.569C153.626 129.413 153.152 130.29 152.736 131.196C152.325 132.103 151.971 133.036 151.678 133.988C151.463 134.722 151.347 135.183 151.323 135.177Z" fill="#263238"/>
<g opacity="0.3">
<path opacity="0.3" d="M136.216 115.702L136.2 115.814C138.48 117.57 141.311 118.455 144.184 118.31C147.227 118.053 150.097 116.783 152.334 114.704C147.279 116.142 141.457 116.083 136.216 115.702Z" fill="black"/>
</g>
<path d="M168.024 128.762L168.807 143.342L173.412 143.046L172.539 129.177L168.024 128.762Z" fill="#E0E0E0"/>
<path d="M124.413 85.304L141.089 93.3099L154.567 87.0886C154.567 87.0886 157.088 90.0682 157.581 91.3068C158.074 92.5455 158.24 96.7731 158.24 96.7731L140.899 99.0257H125.938L123.23 94.43L124.413 85.304Z" fill="#FDAA46"/>
<path d="M158.056 94.0397C156.471 92.1927 135.024 96.0708 135.024 96.0708C135.024 96.0708 113.773 97.0068 110.607 97.5248C107.44 98.0427 104.473 103.559 104.473 106.857C104.473 110.155 107.312 135.177 107.312 135.177L125.28 133.349C125.149 130.974 123.286 113.889 123.286 113.889C123.286 113.889 139.782 116.794 144.006 116.263C148.231 115.733 155.238 110.984 156.798 108.741C158.358 106.498 159.637 95.8868 158.056 94.0397Z" fill="#FDAA46"/>
<path d="M124.487 96.5639C124.487 96.5639 150.583 93.185 158.754 99.3719C158.754 99.3719 160.28 95.8494 158.055 94.0492C155.831 92.249 123.567 95.0164 123.567 95.0164L124.487 96.5639Z" fill="#455A64"/>
<path d="M116.759 107.793C116.886 107.801 117.012 107.823 117.134 107.858C117.28 107.887 117.423 107.926 117.564 107.974C117.755 108.027 117.942 108.091 118.126 108.164C118.605 108.35 119.066 108.577 119.505 108.844C120.586 109.501 121.519 110.375 122.244 111.412C122.539 111.833 122.795 112.28 123.009 112.747C123.108 112.944 123.171 113.131 123.236 113.293C123.292 113.431 123.339 113.571 123.377 113.714C123.422 113.834 123.451 113.959 123.464 114.086C123.433 114.086 123.289 113.574 122.906 112.797C122.679 112.344 122.416 111.91 122.119 111.499C121.755 110.997 121.345 110.53 120.896 110.102C120.441 109.682 119.949 109.304 119.427 108.972C118.998 108.703 118.548 108.469 118.082 108.27C117.283 107.952 116.753 107.824 116.759 107.793Z" fill="#263238"/>
<path d="M117.102 110.567C117.195 110.566 117.287 110.578 117.377 110.601C117.622 110.642 117.864 110.695 118.104 110.76C118.901 110.989 119.672 111.297 120.407 111.681C121.142 112.063 121.835 112.521 122.475 113.047C122.718 113.25 122.909 113.421 123.034 113.549C123.158 113.677 123.227 113.746 123.218 113.755C123.208 113.765 122.906 113.518 122.403 113.131C121.749 112.639 121.056 112.199 120.332 111.818C119.605 111.44 118.848 111.121 118.07 110.866C117.48 110.688 117.096 110.592 117.102 110.567Z" fill="#263238"/>
<path d="M152.695 114.741L152.621 114.763L152.402 114.813L151.557 114.991C151.188 115.069 150.739 115.159 150.212 115.24C149.685 115.321 149.089 115.434 148.421 115.508L147.376 115.636C147.014 115.68 146.633 115.705 146.24 115.742C145.454 115.827 144.611 115.861 143.725 115.911C141.953 115.98 140 115.983 137.953 115.886C134.462 115.695 130.985 115.301 127.539 114.707C126.216 114.482 125.149 114.285 124.419 114.136L123.573 113.961L123.352 113.911C123.302 113.911 123.277 113.892 123.28 113.889H123.355L123.576 113.923L124.428 114.067C125.168 114.198 126.238 114.379 127.548 114.588C130.993 115.148 134.465 115.525 137.95 115.717C139.994 115.814 141.941 115.814 143.71 115.755C144.593 115.711 145.435 115.68 146.206 115.602C146.599 115.568 146.976 115.546 147.341 115.505L148.387 115.387C149.051 115.321 149.635 115.218 150.178 115.143C150.72 115.069 151.154 114.991 151.522 114.922L152.374 114.775L152.596 114.741H152.695Z" fill="#263238"/>
<path d="M131.57 110.273C131.503 110.305 131.433 110.331 131.361 110.351L130.752 110.541L128.515 111.209L128.456 111.228L128.437 111.165C128.013 109.605 127.608 107.496 127.189 105.191C126.877 103.437 126.537 101.802 126.194 100.448L126.172 100.364H126.257C127.337 100.331 128.418 100.411 129.483 100.601C129.866 100.67 130.163 100.738 130.366 100.788C130.472 100.809 130.577 100.841 130.678 100.882C130.573 100.872 130.468 100.856 130.366 100.832C130.163 100.791 129.863 100.735 129.479 100.679C128.418 100.522 127.344 100.462 126.272 100.501L126.338 100.414C126.696 101.771 127.03 103.406 127.358 105.159C127.785 107.468 128.175 109.577 128.575 111.134L128.5 111.091L130.752 110.467L131.376 110.307C131.44 110.29 131.504 110.278 131.57 110.273Z" fill="#263238"/>
<path d="M132.047 110.045C132.022 109.928 132.012 109.807 132.016 109.687C132.016 109.421 131.994 109.097 131.979 108.71C131.883 106.562 131.557 104.43 131.008 102.352L130.756 101.416C130.715 101.302 130.688 101.183 130.674 101.063C130.736 101.167 130.783 101.28 130.815 101.397C130.896 101.612 131.002 101.933 131.127 102.333C131.737 104.408 132.064 106.557 132.1 108.719C132.1 109.134 132.1 109.468 132.1 109.699C132.094 109.816 132.077 109.932 132.047 110.045Z" fill="#263238"/>
<g opacity="0.3">
<path opacity="0.3" d="M128.543 111.194C127.82 108.017 127.33 105.091 126.606 101.915L126.569 101.88C126.968 105.521 127.295 109.162 127.698 112.8C129.076 112.228 130.322 111.379 131.358 110.304L128.543 111.194Z" fill="black"/>
</g>
<path d="M120.247 115.665C120.273 115.735 120.289 115.809 120.297 115.883C120.322 116.045 120.357 116.254 120.397 116.507C120.478 117.075 120.594 117.858 120.734 118.816V118.878H120.672C119.068 119.072 116.928 119.168 114.578 119.259C112.797 119.331 111.146 119.415 109.742 119.571H109.658V119.487C109.782 118.413 110.017 117.354 110.36 116.329C110.482 115.958 110.594 115.674 110.672 115.481C110.708 115.381 110.753 115.285 110.806 115.194C110.782 115.3 110.75 115.404 110.71 115.506C110.644 115.702 110.544 115.992 110.432 116.364C110.13 117.387 109.922 118.435 109.811 119.496L109.736 119.421C111.128 119.262 112.794 119.168 114.578 119.109C116.925 119.019 119.065 118.938 120.665 118.769L120.612 118.838C120.494 117.877 120.397 117.091 120.329 116.52C120.3 116.261 120.279 116.052 120.26 115.896C120.25 115.819 120.246 115.742 120.247 115.665Z" fill="#263238"/>
<path d="M120.094 115.159C119.974 115.167 119.854 115.158 119.736 115.134L118.762 115.031C116.622 114.818 114.466 114.832 112.329 115.072L111.358 115.187C111.24 115.209 111.12 115.219 111 115.215C111.111 115.17 111.227 115.14 111.346 115.125C111.574 115.075 111.904 115.016 112.313 114.956C113.383 114.806 114.462 114.727 115.542 114.719C116.623 114.712 117.703 114.779 118.775 114.919C119.187 114.972 119.517 115.028 119.745 115.072C119.864 115.089 119.981 115.118 120.094 115.159Z" fill="#263238"/>
<g opacity="0.3">
<path opacity="0.3" d="M120.722 118.791C117.477 119.047 112.99 119.246 109.742 119.502L110.99 120.332C114.65 120.463 121.686 119.902 121.686 119.902L120.25 115.88C120.413 116.849 120.57 117.819 120.722 118.791Z" fill="black"/>
</g>
<path d="M145.95 84.9731C145.878 85.084 145.797 85.1884 145.707 85.2851C145.541 85.4911 145.295 85.7812 144.983 86.1338C144.359 86.8358 143.466 87.7811 142.412 88.7546C141.357 89.728 140.343 90.5423 139.604 91.1071C139.226 91.3879 138.917 91.6125 138.699 91.7591C138.592 91.8429 138.475 91.915 138.353 91.9744C138.448 91.8756 138.553 91.7858 138.665 91.7061L139.535 91.0166C140.268 90.43 141.264 89.6032 142.315 88.6329C143.367 87.6626 144.271 86.7391 144.914 86.0558L145.672 85.2446C145.754 85.144 145.847 85.0529 145.95 84.9731Z" fill="#263238"/>
<path d="M138.471 84.7422C138.453 85.0672 138.405 85.3899 138.328 85.7063C138.212 86.296 138.031 87.104 137.785 87.9901C137.538 88.8762 137.276 89.6624 137.07 90.224C136.972 90.534 136.847 90.8347 136.696 91.1226C136.759 90.804 136.848 90.491 136.961 90.1866C137.139 89.6125 137.382 88.8231 137.629 87.9433C137.875 87.0635 138.072 86.2585 138.215 85.6782C138.278 85.3605 138.364 85.0477 138.471 84.7422Z" fill="#263238"/>
<path d="M145.376 95.344L144.858 109.294C144.817 110.424 145.225 111.524 145.993 112.354C146.762 113.184 147.828 113.675 148.958 113.721L155.213 113.97C156.318 114.016 157.398 113.63 158.224 112.895C159.051 112.16 159.56 111.133 159.644 110.03C159.987 105.562 160.293 98.6138 159.263 95.344H145.376Z" fill="#455A64"/>
<path d="M159.397 96.5421C159.223 96.5875 159.046 96.6177 158.867 96.6326C158.527 96.6825 158.031 96.7387 157.416 96.7917C154.208 97.0637 150.979 96.9348 147.803 96.4079C147.179 96.305 146.705 96.2083 146.368 96.1303C146.192 96.0994 146.019 96.0546 145.85 95.9961C146.029 96.0053 146.206 96.0293 146.381 96.0679C146.721 96.1271 147.214 96.2051 147.822 96.2956C149.408 96.518 151.004 96.6597 152.605 96.7199C154.205 96.7847 155.808 96.767 157.407 96.6669C158.031 96.6295 158.517 96.592 158.86 96.5608C159.039 96.5419 159.218 96.5357 159.397 96.5421Z" fill="#263238"/>
<path d="M159.456 102.058C159.307 102.142 159.149 102.21 158.985 102.261C158.832 102.324 158.642 102.395 158.418 102.464C158.193 102.533 157.94 102.626 157.653 102.698C156.984 102.885 156.305 103.032 155.619 103.138C154.777 103.264 153.927 103.334 153.076 103.347C152.225 103.351 151.375 103.3 150.53 103.194C149.842 103.103 149.159 102.972 148.487 102.801C148.2 102.735 147.944 102.651 147.719 102.583C147.494 102.514 147.301 102.451 147.145 102.392C146.981 102.341 146.822 102.277 146.668 102.202C146.837 102.231 147.003 102.275 147.164 102.333C147.323 102.383 147.516 102.439 147.744 102.495C147.972 102.551 148.224 102.629 148.515 102.689C149.186 102.843 149.865 102.963 150.549 103.047C152.227 103.249 153.924 103.23 155.597 102.991C156.279 102.893 156.955 102.759 157.622 102.589C157.912 102.523 158.165 102.442 158.389 102.38C158.614 102.317 158.808 102.255 158.964 102.202C159.124 102.143 159.289 102.095 159.456 102.058Z" fill="#263238"/>
<path d="M136.025 92.2178C135.917 92.302 135.801 92.3761 135.679 92.4393C135.451 92.5766 135.114 92.7513 134.687 92.9572C133.573 93.4827 132.407 93.8885 131.208 94.1678C130.006 94.4446 128.778 94.5941 127.545 94.6139C127.071 94.6139 126.687 94.6139 126.425 94.5859C126.287 94.5837 126.15 94.5669 126.016 94.5359C126.153 94.5183 126.291 94.5131 126.428 94.5203C126.69 94.5203 127.071 94.5203 127.542 94.4985C128.764 94.4468 129.978 94.2838 131.171 94.0118C132.359 93.7298 133.52 93.3424 134.64 92.8542C135.071 92.6639 135.414 92.5017 135.648 92.3831C135.768 92.3153 135.894 92.2599 136.025 92.2178Z" fill="#263238"/>
<path d="M107.109 133.349C107.09 133.183 106.619 128.921 106.619 128.921L124.7 127.296L125.108 131.352L107.109 133.349Z" fill="#E0E0E0"/>
<path d="M153.582 105.549L151.638 108.526H152.901L152.047 111.131L154.489 107.752H153.185L153.582 105.549Z" fill="#E0E0E0"/>
<path d="M117.315 76.6553C117.315 76.6553 113.683 82.7518 113.677 86.58L96.4761 94.9572L98.3075 99.9866C98.3075 99.9866 118.737 97.553 120.126 96.8105C121.514 96.0679 125.155 93.0665 126.182 90.7483C127.208 88.4301 128.84 81.4476 128.84 81.4476L117.315 76.6553Z" fill="#FFBE9D"/>
<path d="M118.201 87.338C118.185 87.3598 117.967 87.2038 117.577 87.026C117.077 86.7808 116.542 86.6135 115.992 86.5299C115.442 86.444 114.882 86.444 114.332 86.5299C113.911 86.6017 113.655 86.6859 113.649 86.6609C113.852 86.5392 114.076 86.4567 114.31 86.4176C114.87 86.2919 115.449 86.2707 116.017 86.3552C116.585 86.4385 117.132 86.628 117.63 86.9137C117.846 87.0167 118.04 87.1608 118.201 87.338Z" fill="#EB996E"/>
<path d="M83.6311 92.9011L79.2256 97.7839L92.6136 100.623L92.3827 94.5922L83.6311 92.9011Z" fill="#455A64"/>
<path d="M96.7757 94.5921C96.7757 94.5921 94.2048 93.9681 92.9662 94.0867C91.7275 94.2053 86.1209 95.447 86.1209 95.447C86.1209 95.447 85.6903 96.4579 87.0912 96.8885C88.4921 97.319 90.3797 96.8885 90.3797 96.8885C90.3797 96.8885 86.929 99.6372 86.8759 99.8525C86.8229 100.068 86.3923 100.554 86.9289 100.932C87.4656 101.309 89.0849 100.932 89.0849 100.932C89.0849 100.932 89.0849 102.118 89.5716 102.439C90.0583 102.76 90.4858 103.032 90.4858 103.032C90.4858 103.032 91.35 103.949 91.8866 104.111C92.4233 104.273 93.5059 104.489 93.5059 104.489H95.1221L99.4901 100.798L103.253 99.9866L100.857 92.7014L96.7757 94.5921Z" fill="#FDAA46"/>
<path d="M91.7244 100.127C91.3461 100.39 90.9233 100.582 90.4764 100.695C90.043 100.862 89.5835 100.95 89.1192 100.957C89.5459 100.792 89.9825 100.653 90.4265 100.542C90.8509 100.379 91.2842 100.24 91.7244 100.127Z" fill="#263238"/>
<path d="M99.2997 97.01C99.3637 97.6663 99.3845 98.326 99.3621 98.985C99.394 99.6432 99.3847 100.303 99.334 100.96C99.1666 99.6493 99.1551 98.3234 99.2997 97.01Z" fill="#263238"/>
<path d="M98.7132 93.6935L101.019 100.467L102.588 100.127L99.9144 93.135L98.7132 93.6935Z" fill="#E0E0E0"/>
<path d="M125.349 62.0879C125.349 62.0879 120.129 63.4544 119.109 65.7664C118.088 68.0783 114.872 79.4008 114.872 79.4008L128.846 84.3335C128.846 84.3335 130.643 76.2901 131.414 73.2107C132.185 70.1312 134.593 64.2251 125.349 62.0879Z" fill="#E0E0E0"/>
<path d="M114.865 79.4009C114.891 79.3971 114.918 79.3971 114.943 79.4009L115.162 79.4695L115.995 79.7441L119.056 80.7799L129.167 84.2649L129.061 84.3273C129.061 84.2462 129.089 84.1557 129.105 84.0653C129.791 79.8813 130.412 76.0937 130.868 73.3356C131.099 71.9752 131.286 70.8676 131.42 70.0876C131.486 69.7164 131.539 69.42 131.579 69.2047L131.623 68.9769C131.627 68.9502 131.635 68.9241 131.645 68.8989C131.648 68.9259 131.648 68.9531 131.645 68.98C131.645 69.0424 131.629 69.1173 131.617 69.2109C131.585 69.4262 131.542 69.7226 131.489 70.097C131.367 70.8801 131.195 71.9908 130.986 73.3543C130.547 76.1155 129.938 79.9063 129.27 84.0933C129.27 84.1807 129.242 84.2712 129.227 84.3523L129.211 84.449L129.121 84.4178L119.018 80.9016L115.973 79.8189L115.149 79.5069L114.937 79.4227L114.865 79.4009Z" fill="#263238"/>
<path d="M132.456 70.5618C132.463 70.6557 132.457 70.75 132.44 70.8426C132.422 71.0204 132.381 71.2762 132.325 71.5945C132.015 73.2407 131.477 74.8358 130.728 76.3338C130.584 76.6208 130.459 76.8486 130.366 77.0014C130.272 77.1543 130.219 77.2386 130.21 77.2323C130.331 76.913 130.469 76.6005 130.625 76.2963C130.887 75.716 131.227 74.9017 131.536 73.9782C131.844 73.0546 132.069 72.2029 132.213 71.582C132.274 71.2375 132.355 70.8969 132.456 70.5618Z" fill="#263238"/>
<path d="M115.745 79.7285C115.734 79.7732 115.718 79.8162 115.695 79.8564L115.527 80.2184C115.38 80.5304 115.165 80.9921 114.925 81.5818C114.273 83.1734 113.878 84.8584 113.755 86.5738V86.6175L113.714 86.6362L110.557 88.1619C107.895 89.466 105.493 90.6579 103.743 91.4878C102.869 91.909 102.155 92.2397 101.662 92.4643L101.091 92.7202C101.026 92.7536 100.958 92.7798 100.888 92.7982C100.947 92.7541 101.01 92.7174 101.078 92.689L101.637 92.4082L103.693 91.3848L110.485 88.0183C111.596 87.4755 112.669 86.9607 113.649 86.4989L113.605 86.5613C113.738 84.8271 114.16 83.1273 114.853 81.5319C115.106 80.9453 115.337 80.4898 115.496 80.1809L115.686 79.8315C115.702 79.7953 115.722 79.7609 115.745 79.7285Z" fill="#EB996E"/>
<path d="M123.773 72.5681L121.829 75.5415H123.093L122.238 78.1467L124.681 74.7677H123.377L123.773 72.5681Z" fill="#FDAA46"/>
<path d="M124.606 79.9249C123.728 79.705 122.863 79.4341 122.016 79.1137C121.153 78.8422 120.307 78.5193 119.483 78.1465C120.36 78.3667 121.224 78.6375 122.069 78.9577C122.934 79.2288 123.781 79.5518 124.606 79.9249Z" fill="#FDAA46"/>
<path d="M73.9131 116.356C84.224 122.245 84.7454 131.478 75.0727 137.028C65.4001 142.579 49.1921 142.268 38.8812 136.37L5 117.014L40.0588 97L73.9131 116.356Z" fill="#EBEBEB"/>
<path d="M68.9096 108.638C68.9096 106.774 67.6819 104.909 65.2187 103.492L42.3003 90.2593L23.0727 101.362V118.415L47.3933 132.451C52.3119 135.293 60.2773 135.293 65.2187 132.451C67.6819 131.034 68.9096 129.169 68.9096 127.305V108.638Z" fill="#E0E0E0"/>
<path opacity="0.1" d="M65.2187 103.492L42.3003 90.2593L23.0727 101.362V118.415L41.5348 129.071C34.153 124.804 27.8928 116.679 31.5459 116.285C35.1989 115.891 39.1247 119.809 48.9242 121.59C58.7237 123.371 66.2419 117.005 68.9096 112.139V108.646C68.9096 106.774 67.6819 104.909 65.2187 103.492Z" fill="black"/>
<path d="M19.3818 90.6993L12 86.4399C11.9991 87.7354 12.3399 89.0081 12.9879 90.1298C13.6359 91.2516 14.5683 92.1825 15.6909 92.8289L19.3818 94.9662V90.6993Z" fill="#E6E6E6"/>
<path d="M12 86.44V56.5944L37.8439 41.6716L45.2257 45.9309L48.9242 73.6469L19.3818 90.6993L12 86.44Z" fill="#E6E6E6"/>
<path d="M19.3819 60.8537L45.2258 45.9309L48.9243 73.6468L19.3819 90.6992V60.8537Z" fill="#F0F0F0"/>
<path d="M12 56.5944L19.3818 60.8537L45.2257 45.9309L37.8439 41.6716L12 56.5944Z" fill="#FAFAFA"/>
<path d="M26.7638 52.3275C27.3366 52.619 27.9702 52.771 28.613 52.771C29.2557 52.771 29.8894 52.619 30.4622 52.3275C31.4778 51.7439 31.4778 50.8117 30.4622 50.1978C29.8894 49.9063 29.2557 49.7544 28.613 49.7544C27.9702 49.7544 27.3366 49.9063 26.7638 50.1978C25.7482 50.7738 25.7482 51.7439 26.7638 52.3275Z" fill="#455A64"/>
<path d="M76.8827 94.6553C76.8827 94.481 76.8827 94.3067 76.8827 94.1324H76.7993C76.3597 91.1691 74.124 88.2133 70.0844 85.879L48.9243 73.6467L19.3667 90.6992V102.992L40.5875 115.247C44.1099 117.26 48.081 118.358 52.1372 118.439C56.1935 118.52 60.2052 117.582 63.8052 115.711C67.4051 113.84 70.4782 111.096 72.743 107.73C75.0079 104.364 76.3921 100.483 76.769 96.444C76.8839 95.8551 76.9221 95.2539 76.8827 94.6553Z" fill="#EBEBEB"/>
<path opacity="0.1" d="M76.8978 94.1324H76.8145C76.3749 91.1691 74.1391 88.2133 70.0996 85.879L48.9243 73.6467L19.3667 90.6992V91.7754L40.5875 104C49.2805 109.017 62.9451 109.305 71.1 104.561C73.9497 102.916 75.7231 100.885 76.481 98.7176C76.6278 97.9657 76.7366 97.2068 76.8069 96.444C76.9154 95.8594 76.9485 95.2634 76.9054 94.6705C76.9054 94.4962 76.9054 94.3294 76.9054 94.1627L76.8978 94.1324Z" fill="black"/>
<path d="M70.0996 83.742L48.9243 71.5173L19.3667 88.5698V90.6994L40.5875 102.932C49.2805 107.949 62.9451 108.199 71.1 103.493C74.9955 101.219 76.9054 98.2707 76.913 95.224C76.913 94.8678 76.913 93.443 76.913 93.0868C76.913 89.7596 74.6393 86.3946 70.0996 83.742Z" fill="#F0F0F0"/>
<path d="M70.0996 83.742C78.7926 88.7592 79.2322 96.6261 71.0773 101.363C62.9225 106.1 49.2578 105.819 40.5648 100.794L19.3819 88.5698L48.9395 71.5173L70.0996 83.742Z" fill="#FAFAFA"/>
</g>
<defs>
<clipPath id="clip0">
<rect width="202" height="156" fill="white"/>
</clipPath>
</defs>
</svg>
