<svg width="30" height="30" viewBox="0 0 30 30" fill="none" xmlns="http://www.w3.org/2000/svg">
<g clip-path="url(#clip0)">
<path d="M29.0616 14.0631H17.1869C16.6694 14.0631 16.2494 13.6431 16.2494 13.1256C16.2494 12.6081 16.6694 12.1881 17.1869 12.1881H29.0616C29.5791 12.1881 29.9991 12.6081 29.9991 13.1256C29.9991 13.6431 29.5791 14.0631 29.0616 14.0631Z" fill="white"/>
<path d="M24.3742 18.7503C24.1341 18.7503 23.8943 18.659 23.7116 18.4754C23.3454 18.109 23.3454 17.5153 23.7116 17.1491L27.7366 13.1243L23.7116 9.09933C23.3454 8.73313 23.3454 8.13943 23.7116 7.77323C24.0781 7.40681 24.6718 7.40681 25.038 7.77323L29.7253 12.4606C30.0915 12.8268 30.0915 13.4205 29.7253 13.7867L25.038 18.474C24.8542 18.659 24.6143 18.7503 24.3742 18.7503Z" fill="white"/>
<path d="M9.99976 30.0003C9.7322 30.0003 9.47838 29.9627 9.22479 29.884L1.70237 27.3778C0.678838 27.0203 -4.17233e-06 26.0666 -4.17233e-06 25.0005V2.50122C-4.17233e-06 1.12248 1.12125 0.0012207 2.49999 0.0012207C2.76732 0.0012207 3.02114 0.0387562 3.27496 0.117489L10.7972 2.62367C11.8209 2.98117 12.4995 3.93489 12.4995 5.00099V27.5003C12.4995 28.879 11.3785 30.0003 9.99976 30.0003ZM2.49999 1.87616C2.15622 1.87616 1.87494 2.15745 1.87494 2.50122V25.0005C1.87494 25.2667 2.05369 25.5141 2.30865 25.6029L9.79583 28.0979C9.84962 28.1153 9.91965 28.1253 9.99976 28.1253C10.3435 28.1253 10.6246 27.8441 10.6246 27.5003V5.00099C10.6246 4.73481 10.4458 4.48739 10.1909 4.39859L2.70369 1.90363C2.64991 1.88623 2.57987 1.87616 2.49999 1.87616Z" fill="white"/>
<path d="M19.0619 10.0015C18.5444 10.0015 18.1244 9.58149 18.1244 9.064V3.43918C18.1244 2.57792 17.4233 1.87665 16.5621 1.87665H2.50002C1.98253 1.87665 1.56255 1.45667 1.56255 0.93918C1.56255 0.421694 1.98253 0.00170898 2.50002 0.00170898H16.5621C18.4583 0.00170898 19.9993 1.54295 19.9993 3.43918V9.064C19.9993 9.58149 19.5793 10.0015 19.0619 10.0015Z" fill="white"/>
<path d="M16.5621 26.2501H11.5621C11.0446 26.2501 10.6246 25.8301 10.6246 25.3127C10.6246 24.7952 11.0446 24.3752 11.5621 24.3752H16.5621C17.4233 24.3752 18.1244 23.6739 18.1244 22.8127V17.1878C18.1244 16.6704 18.5443 16.2504 19.0618 16.2504C19.5793 16.2504 19.9993 16.6704 19.9993 17.1878V22.8127C19.9993 24.7089 18.4583 26.2501 16.5621 26.2501Z" fill="white"/>
</g>
<defs>
<clipPath id="clip0">
<rect width="30" height="30" fill="white"/>
</clipPath>
</defs>
</svg>
