<svg width="30" height="30" viewBox="0 0 30 30" fill="none" xmlns="http://www.w3.org/2000/svg">
<g clip-path="url(#clip0)">
<path d="M28.4615 4.99988H1.5385C0.692285 4.99988 0 5.69216 0 6.53832V23.4614C0 24.3075 0.692285 24.9999 1.5385 24.9999H28.4616C29.3077 24.9999 30.0001 24.3076 30.0001 23.4614V6.53832C30 5.69216 29.3077 4.99988 28.4615 4.99988ZM27.8842 6.15365L15.885 15.1538C15.6693 15.3179 15.3381 15.4207 14.9999 15.4191C14.6619 15.4207 14.3307 15.3179 14.1149 15.1538L2.11576 6.15365H27.8842ZM21.4746 15.7476L28.0131 23.8246C28.0196 23.8327 28.0277 23.8388 28.0346 23.8462H1.96535C1.97227 23.8385 1.98035 23.8327 1.98691 23.8246L8.52539 15.7476C8.72572 15.4999 8.68775 15.1368 8.43961 14.936C8.19193 14.7357 7.82883 14.7737 7.62844 15.0214L1.15383 23.0195V6.87482L13.423 16.0767C13.8842 16.4202 14.4453 16.5714 14.9999 16.5729C15.5537 16.5717 16.1153 16.4206 16.5768 16.0767L28.8459 6.87482V23.0194L22.3715 15.0214C22.1711 14.7737 21.8077 14.7356 21.5603 14.936C21.3122 15.1364 21.2742 15.4999 21.4746 15.7476Z" fill="white"/>
</g>
<defs>
<clipPath id="clip0">
<rect width="30" height="30" fill="white"/>
</clipPath>
</defs>
</svg>
