<svg width="22" height="18" viewBox="0 0 22 18" fill="none" xmlns="http://www.w3.org/2000/svg">
<path d="M20.8717 0H1.12823C0.507675 0 0 0.623057 0 1.38459V16.6154C0 17.3769 0.507675 18 1.12823 18H20.8718C21.4922 18 22 17.377 22 16.6154V1.38459C22 0.623057 21.4923 0 20.8717 0ZM20.4484 1.03839L11.649 9.1385C11.4908 9.28626 11.2479 9.37871 10.9999 9.37733C10.752 9.37871 10.5092 9.28626 10.3509 9.1385L1.55156 1.03839H20.4484ZM15.748 9.67296L20.5429 16.9422C20.5477 16.9495 20.5536 16.9551 20.5587 16.9616H1.44125C1.44633 16.9547 1.45225 16.9495 1.45707 16.9422L6.25194 9.67296C6.39885 9.45005 6.37101 9.12326 6.18903 8.94254C6.00741 8.76224 5.74113 8.79641 5.59418 9.01937L0.846139 16.2177V1.68745L9.84352 9.96917C10.1817 10.2783 10.5932 10.4144 10.9999 10.4157C11.406 10.4147 11.8178 10.2786 12.1563 9.96917L21.1536 1.68745V16.2176L16.4057 9.01937C16.2588 8.79646 15.9923 8.76219 15.8109 8.94254C15.629 9.12284 15.601 9.45005 15.748 9.67296Z" fill="#A1A1A1"/>
</svg>
