<svg width="20" height="20" viewBox="0 0 20 20" fill="none" xmlns="http://www.w3.org/2000/svg">
<g clip-path="url(#clip0)">
<path d="M18.4592 12.5635C18.1841 12.5635 17.9611 12.7865 17.9611 13.0616V17.4843C17.9601 18.3092 17.2918 18.9778 16.4668 18.9786H2.49052C1.66553 18.9778 0.99718 18.3092 0.996207 17.4843V4.50419C0.99718 3.6794 1.66553 3.01085 2.49052 3.00988H6.91313C7.18826 3.00988 7.41124 2.7869 7.41124 2.51178C7.41124 2.23685 7.18826 2.01367 6.91313 2.01367H2.49052C1.11567 2.01523 0.00155657 3.12935 0 4.50419V17.4845C0.00155657 18.8593 1.11567 19.9734 2.49052 19.975H16.4668C17.8416 19.9734 18.9558 18.8593 18.9573 17.4845V13.0616C18.9573 12.7865 18.7343 12.5635 18.4592 12.5635Z" fill="#FDAA46"/>
<path d="M18.7601 0.732706C17.8847 -0.142673 16.4655 -0.142673 15.5901 0.732706L6.70365 9.61919C6.64275 9.68009 6.59877 9.75558 6.57581 9.83847L5.40721 14.0574C5.35916 14.2303 5.40799 14.4156 5.53485 14.5426C5.66191 14.6695 5.84714 14.7183 6.02012 14.6705L10.239 13.5017C10.3219 13.4787 10.3974 13.4347 10.4583 13.3738L19.3446 4.48716C20.2186 3.6112 20.2186 2.19316 19.3446 1.3172L18.7601 0.732706ZM7.78897 9.94295L15.0619 2.66986L17.4074 5.01542L10.1343 12.2885L7.78897 9.94295ZM7.32044 10.8831L9.19436 12.7572L6.60228 13.4754L7.32044 10.8831ZM18.6403 3.78281L18.112 4.31107L15.7662 1.96532L16.2947 1.43706C16.7809 0.950821 17.5693 0.950821 18.0556 1.43706L18.6403 2.02155C19.1257 2.50837 19.1257 3.29619 18.6403 3.78281Z" fill="#FDAA46"/>
</g>
<defs>
<clipPath id="clip0">
<rect width="20" height="20" fill="white"/>
</clipPath>
</defs>
</svg>
