<svg width="22" height="22" viewBox="0 0 22 22" fill="none" xmlns="http://www.w3.org/2000/svg">
<path d="M12.7188 12.2891C12.9559 12.2891 13.1484 12.0965 13.1484 11.8594C13.1484 11.6222 12.9559 11.4297 12.7188 11.4297C12.4816 11.4297 12.2891 11.6222 12.2891 11.8594C12.2891 12.0965 12.4816 12.2891 12.7188 12.2891Z" fill="#A1A1A1"/>
<path d="M3.26562 12.2891C3.50279 12.2891 3.69531 12.0965 3.69531 11.8594C3.69531 11.6222 3.50279 11.4297 3.26562 11.4297C3.02846 11.4297 2.83594 11.6222 2.83594 11.8594C2.83594 12.0965 3.02846 12.2891 3.26562 12.2891Z" fill="#A1A1A1"/>
<path d="M0.429688 5.41406C0.667023 5.41406 0.859375 5.22171 0.859375 4.98438V0.859375H4.98438C5.22171 0.859375 5.41406 0.667023 5.41406 0.429688C5.41406 0.192352 5.22171 0 4.98438 0H0.429688C0.192352 0 0 0.192352 0 0.429688V4.98438C0 5.22171 0.192352 5.41406 0.429688 5.41406Z" fill="#A1A1A1"/>
<path d="M5.41406 21.5703C5.41406 21.333 5.22171 21.1406 4.98438 21.1406H0.859375V17.0156C0.859375 16.7783 0.667023 16.5859 0.429688 16.5859C0.192352 16.5859 0 16.7783 0 17.0156V21.5703C0 21.8076 0.192352 22 0.429688 22H4.98438C5.22171 22 5.41406 21.8076 5.41406 21.5703Z" fill="#A1A1A1"/>
<path d="M21.5703 16.5859C21.333 16.5859 21.1406 16.7783 21.1406 17.0156V21.1406H17.0156C16.7783 21.1406 16.5859 21.333 16.5859 21.5703C16.5859 21.8076 16.7783 22 17.0156 22H21.5703C21.8076 22 22 21.8076 22 21.5703V17.0156C22 16.7783 21.8076 16.5859 21.5703 16.5859Z" fill="#A1A1A1"/>
<path d="M21.5703 0H17.0156C16.7783 0 16.5859 0.192352 16.5859 0.429688C16.5859 0.667023 16.7783 0.859375 17.0156 0.859375H21.1406V4.98438C21.1406 5.22171 21.333 5.41406 21.5703 5.41406C21.8076 5.41406 22 5.22171 22 4.98438V0.429688C22 0.192352 21.8076 0 21.5703 0Z" fill="#A1A1A1"/>
<path d="M2.83594 18.7344C2.83594 18.9717 3.02829 19.1641 3.26562 19.1641H7.5625C7.79984 19.1641 7.99219 18.9717 7.99219 18.7344V14.4375C7.99219 14.2002 7.79984 14.0078 7.5625 14.0078H3.26562C3.02829 14.0078 2.83594 14.2002 2.83594 14.4375V18.7344ZM3.69531 14.8672H7.13281V18.3047H3.69531V14.8672Z" fill="#A1A1A1"/>
<path d="M7.5625 2.83594H3.26562C3.02829 2.83594 2.83594 3.02829 2.83594 3.26562V7.5625C2.83594 7.79984 3.02829 7.99219 3.26562 7.99219H7.5625C7.79984 7.99219 7.99219 7.79984 7.99219 7.5625V3.26562C7.99219 3.02829 7.79984 2.83594 7.5625 2.83594ZM7.13281 7.13281H3.69531V3.69531H7.13281V7.13281Z" fill="#A1A1A1"/>
<path d="M19.1641 3.26562C19.1641 3.02829 18.9717 2.83594 18.7344 2.83594H14.4375C14.2002 2.83594 14.0078 3.02829 14.0078 3.26562V7.5625C14.0078 7.79984 14.2002 7.99219 14.4375 7.99219H18.7344C18.9717 7.99219 19.1641 7.79984 19.1641 7.5625V3.26562ZM18.3047 7.13281H14.8672V3.69531H18.3047V7.13281Z" fill="#A1A1A1"/>
<path d="M19.1641 18.7344V14.4375C19.1641 14.2002 18.9717 14.0078 18.7344 14.0078H14.4375C14.2002 14.0078 14.0078 14.2002 14.0078 14.4375V18.7344C14.0078 18.9717 14.2002 19.1641 14.4375 19.1641H18.7344C18.9717 19.1641 19.1641 18.9717 19.1641 18.7344ZM18.3047 18.3047H14.8672V14.8672H18.3047V18.3047Z" fill="#A1A1A1"/>
<path d="M5.84375 15.7266H4.98438C4.74704 15.7266 4.55469 15.9189 4.55469 16.1562V17.0156C4.55469 17.253 4.74704 17.4453 4.98438 17.4453H5.84375C6.08109 17.4453 6.27344 17.253 6.27344 17.0156V16.1562C6.27344 15.9189 6.08109 15.7266 5.84375 15.7266Z" fill="#A1A1A1"/>
<path d="M4.98438 6.27344H5.84375C6.08109 6.27344 6.27344 6.08109 6.27344 5.84375V4.98438C6.27344 4.74704 6.08109 4.55469 5.84375 4.55469H4.98438C4.74704 4.55469 4.55469 4.74704 4.55469 4.98438V5.84375C4.55469 6.08109 4.74704 6.27344 4.98438 6.27344Z" fill="#A1A1A1"/>
<path d="M16.1562 6.27344H17.0156C17.253 6.27344 17.4453 6.08109 17.4453 5.84375V4.98438C17.4453 4.74704 17.253 4.55469 17.0156 4.55469H16.1562C15.9189 4.55469 15.7266 4.74704 15.7266 4.98438V5.84375C15.7266 6.08109 15.9189 6.27344 16.1562 6.27344Z" fill="#A1A1A1"/>
<path d="M16.1562 17.4453H17.0156C17.253 17.4453 17.4453 17.253 17.4453 17.0156V16.1562C17.4453 15.9189 17.253 15.7266 17.0156 15.7266H16.1562C15.9189 15.7266 15.7266 15.9189 15.7266 16.1562V17.0156C15.7266 17.253 15.9189 17.4453 16.1562 17.4453Z" fill="#A1A1A1"/>
<path d="M4.55469 11.8594C4.55469 12.0967 4.74704 12.2891 4.98438 12.2891H10.5703V14.4375C10.5703 14.6748 10.7627 14.8672 11 14.8672C11.2373 14.8672 11.4297 14.6748 11.4297 14.4375V11.8594C11.4297 11.622 11.2373 11.4297 11 11.4297H4.98438C4.74704 11.4297 4.55469 11.622 4.55469 11.8594Z" fill="#A1A1A1"/>
<path d="M7.5625 10.5703C7.79984 10.5703 7.99219 10.378 7.99219 10.1406C7.99219 9.90329 7.79984 9.71094 7.5625 9.71094H3.26562C3.02829 9.71094 2.83594 9.90329 2.83594 10.1406C2.83594 10.378 3.02829 10.5703 3.26562 10.5703H7.5625Z" fill="#A1A1A1"/>
<path d="M9.28125 10.5703H11C11.2373 10.5703 11.4297 10.378 11.4297 10.1406C11.4297 9.90329 11.2373 9.71094 11 9.71094H9.28125C9.04391 9.71094 8.85156 9.90329 8.85156 10.1406C8.85156 10.378 9.04391 10.5703 9.28125 10.5703Z" fill="#A1A1A1"/>
<path d="M9.28125 2.83594C9.04391 2.83594 8.85156 3.02829 8.85156 3.26562V7.5625C8.85156 7.79984 9.04391 7.99219 9.28125 7.99219H12.2891V10.1406C12.2891 10.378 12.4814 10.5703 12.7188 10.5703H14.4375C14.6748 10.5703 14.8672 10.378 14.8672 10.1406C14.8672 9.90329 14.6748 9.71094 14.4375 9.71094H13.1484V7.5625C13.1484 7.32516 12.9561 7.13281 12.7188 7.13281H9.71094V3.26562C9.71094 3.02829 9.51859 2.83594 9.28125 2.83594Z" fill="#A1A1A1"/>
<path d="M18.7344 9.71094H16.1562C15.9189 9.71094 15.7266 9.90329 15.7266 10.1406C15.7266 10.378 15.9189 10.5703 16.1562 10.5703H18.7344C18.9717 10.5703 19.1641 10.378 19.1641 10.1406C19.1641 9.90329 18.9717 9.71094 18.7344 9.71094Z" fill="#A1A1A1"/>
<path d="M18.7344 11.4297H14.4375C14.2002 11.4297 14.0078 11.622 14.0078 11.8594C14.0078 12.0967 14.2002 12.2891 14.4375 12.2891H18.7344C18.9717 12.2891 19.1641 12.0967 19.1641 11.8594C19.1641 11.622 18.9717 11.4297 18.7344 11.4297Z" fill="#A1A1A1"/>
<path d="M11 15.7266H9.28125C9.04391 15.7266 8.85156 15.9189 8.85156 16.1562V18.7344C8.85156 18.9717 9.04391 19.1641 9.28125 19.1641C9.51859 19.1641 9.71094 18.9717 9.71094 18.7344V16.5859H11C11.2373 16.5859 11.4297 16.3936 11.4297 16.1562C11.4297 15.9189 11.2373 15.7266 11 15.7266Z" fill="#A1A1A1"/>
<path d="M12.2891 18.3047H11C10.7627 18.3047 10.5703 18.497 10.5703 18.7344C10.5703 18.9717 10.7627 19.1641 11 19.1641H12.7188C12.9561 19.1641 13.1484 18.9717 13.1484 18.7344V13.5781C13.1484 13.3408 12.9561 13.1484 12.7188 13.1484C12.4814 13.1484 12.2891 13.3408 12.2891 13.5781V18.3047Z" fill="#A1A1A1"/>
<path d="M12.7188 6.27344C12.9561 6.27344 13.1484 6.08109 13.1484 5.84375V3.26562C13.1484 3.02829 12.9561 2.83594 12.7188 2.83594C12.4814 2.83594 12.2891 3.02829 12.2891 3.26562V5.41406H11C10.7627 5.41406 10.5703 5.60641 10.5703 5.84375C10.5703 6.08109 10.7627 6.27344 11 6.27344H12.7188Z" fill="#A1A1A1"/>
</svg>
