<svg width="40" height="40" viewBox="0 0 40 40" fill="none" xmlns="http://www.w3.org/2000/svg">
<rect width="40" height="40" fill="#373842"/>
<g clip-path="url(#clip0)">
<path d="M33.0333 15.1502H31.825C31.5209 15.1493 31.2348 15.0062 31.0517 14.7635L30.4717 13.9902C30.1056 13.5045 29.5332 13.2183 28.925 13.2168H27.794C26.9611 13.2144 26.2215 13.7487 25.9622 14.5402C25.5455 15.9008 24.727 17.1035 23.6141 17.9902L15.9021 10.3714C16.7204 9.21996 16.5857 7.64546 15.5835 6.64978L14.2152 5.28243C13.838 4.90667 13.228 4.90667 12.8508 5.28243L10.1151 8.01762C9.73903 8.39488 9.73903 9.00529 10.1151 9.38255L11.482 10.7518C12.483 11.7595 14.0681 11.8896 15.2201 11.0587L22.7968 18.5383C21.6897 19.1662 20.4392 19.4976 19.1665 19.5002H14.1833C13.1586 19.5071 12.1655 19.8556 11.3611 20.4905C10.2011 20.6017 7.38477 20.5915 6.45 19.3595C6.25897 19.0742 5.90268 18.949 5.57517 19.0521C5.23413 19.1531 5.00012 19.4664 5 19.8221V20.475C5.0024 22.3426 6.51576 23.856 8.38333 23.8584H9.38142C9.36138 24.016 9.35089 24.1746 9.35 24.3335C9.32842 25.1325 9.4057 25.931 9.58007 26.711L9.60182 26.8077C9.76339 27.581 9.84102 28.3696 9.83333 29.1596V32.5502C9.83333 33.351 10.4825 34.0002 11.2833 34.0002H12.6173C13.2149 33.9994 13.6992 33.5151 13.7 32.9175C13.7016 32.5099 13.4715 32.1367 13.1065 31.9552C12.9622 31.8859 12.9004 31.7136 12.9678 31.5685C13.3451 30.7762 13.9952 30.1463 14.7991 29.7942C15.8826 29.3286 16.6833 28.3798 16.9601 27.2335H24.4517C24.6919 28.0167 24.8149 28.831 24.8167 29.6502V32.5502C24.8167 33.351 25.4659 34.0002 26.2667 34.0002H27.6007C28.1983 33.9994 28.6825 33.5151 28.6833 32.9175C28.6845 32.5091 28.4537 32.1354 28.0879 31.9537L27.9839 31.9015C27.8197 31.8203 27.716 31.6527 27.7167 31.4694V29.6502C27.7168 28.6734 27.8322 27.7 28.0603 26.7502H28.2C29.534 26.7486 30.6151 25.6675 30.6167 24.3335V19.0168H31.5833C32.9174 19.0152 33.9984 17.9342 34 16.6002V16.1168C34 15.583 33.5672 15.1502 33.0333 15.1502ZM12.1664 10.0669L10.8 8.70153L13.5323 5.96683L14.9011 7.33563C15.2639 7.6969 15.4679 8.18782 15.4679 8.69984C15.4679 9.21186 15.2639 9.70278 14.9011 10.064C14.5395 10.4279 14.0477 10.6324 13.5347 10.6324C13.0217 10.6324 12.5299 10.4279 12.1683 10.064L12.1664 10.0669ZM9.6139 22.8917H8.38333C7.04931 22.8901 5.96826 21.8091 5.96667 20.475V20.2571C7.08558 21.3107 9.0745 21.4987 10.365 21.4983C10.0454 21.922 9.79216 22.3918 9.6139 22.8917ZM28.345 25.769C28.4272 25.5179 28.5241 25.2718 28.635 25.0319C28.7541 24.7929 28.6568 24.5026 28.4177 24.3835C28.1787 24.2645 27.8884 24.3617 27.7694 24.6008C27.0725 26.1917 26.7249 27.9135 26.75 29.6502V31.4694C26.7483 32.019 27.059 32.5219 27.5514 32.7662L27.6553 32.8184C27.7021 32.8429 27.7259 32.8963 27.7129 32.9475C27.6999 32.9987 27.6535 33.0343 27.6007 33.0335H26.2667C25.9997 33.0335 25.7833 32.8171 25.7833 32.5502V29.6502C25.7821 28.6166 25.6094 27.5904 25.2724 26.6134C25.2657 26.5874 25.2568 26.562 25.2459 26.5375C25.0044 25.8237 24.6648 25.147 24.2367 24.5268C24.1331 24.3887 23.9636 24.3163 23.7922 24.337C23.6207 24.3576 23.4734 24.4682 23.4055 24.627C23.3377 24.7858 23.3597 24.9687 23.4633 25.1068C23.7121 25.4717 23.9242 25.8602 24.0965 26.2668H15.6333C15.3664 26.2668 15.15 26.4832 15.15 26.7502C15.15 27.0171 15.3664 27.2335 15.6333 27.2335H15.9514C15.7043 27.9817 15.1487 28.5884 14.425 28.9C13.4079 29.3405 12.584 30.1335 12.105 31.133C11.7977 31.7555 12.0519 32.5092 12.6734 32.8184C12.7204 32.843 12.7443 32.8969 12.7309 32.9482C12.7175 32.9996 12.6704 33.035 12.6173 33.0335H11.2833C11.0164 33.0335 10.8 32.8171 10.8 32.5502V29.1596C10.8076 28.3005 10.7227 27.4431 10.5467 26.6023L10.5226 26.4964C10.3639 25.7869 10.2947 25.0602 10.3167 24.3335C10.3965 22.232 12.0818 20.5467 14.1833 20.4668H19.1665C20.7156 20.463 22.2331 20.0279 23.5489 19.2102C25.3132 20.5442 27.4404 21.3122 29.65 21.4127V24.3335C29.6479 25.076 29.0839 25.6963 28.345 25.769ZM33.0333 16.6002C33.0333 17.401 32.3841 18.0502 31.5833 18.0502H29.1667C28.8997 18.0502 28.6833 18.2666 28.6833 18.5335C28.6833 18.8004 28.8997 19.0168 29.1667 19.0168H29.65V20.446C27.7511 20.3535 25.9183 19.72 24.3676 18.62C24.8174 18.2462 25.2228 17.8222 25.576 17.3561C25.9268 17.8721 26.5478 18.1343 27.1623 18.0259C27.7768 17.9176 28.2706 17.4588 28.4238 16.8539C28.5207 16.4705 28.5951 16.0817 28.6466 15.6896C28.6775 15.4245 28.4878 15.1846 28.2227 15.1535C28.0952 15.1372 27.9664 15.173 27.8656 15.2528C27.7647 15.3325 27.7002 15.4496 27.6867 15.5774C27.6394 15.9299 27.5721 16.2795 27.4851 16.6243C27.4149 16.8971 27.1675 17.0866 26.8858 17.0835C26.5441 17.0835 26.2669 16.8066 26.2667 16.4648V16.2715C26.5127 15.8134 26.7183 15.3347 26.881 14.8408C27.0107 14.447 27.3794 14.1816 27.794 14.1835H28.925C29.229 14.1844 29.5152 14.3275 29.6983 14.5702L30.2783 15.3435C30.6444 15.8291 31.2168 16.1153 31.825 16.1168H33.0333V16.6002Z" fill="white"/>
<path d="M13.1924 7.67528L12.5085 8.35919C12.3829 8.48055 12.3325 8.66025 12.3767 8.82924C12.421 8.99823 12.5529 9.1302 12.7219 9.17443C12.8909 9.21866 13.0706 9.16827 13.192 9.04263L13.8759 8.35871C14.0015 8.23736 14.0519 8.05765 14.0077 7.88867C13.9635 7.71968 13.8315 7.58771 13.6625 7.54347C13.4935 7.49924 13.3138 7.54963 13.1924 7.67528Z" fill="white"/>
</g>
<defs>
<clipPath id="clip0">
<rect width="29" height="29" fill="white" transform="translate(5 5)"/>
</clipPath>
</defs>
</svg>
