<svg width="40" height="40" viewBox="0 0 40 40" fill="none" xmlns="http://www.w3.org/2000/svg">
<rect width="40" height="40" fill="#373842"/>
<path d="M11.6128 13.7097C12.3299 13.7097 12.8709 12.8085 12.8709 11.6129C12.8709 10.4173 12.3299 9.51611 11.6128 9.51611C10.8957 9.51611 10.3547 10.4173 10.3547 11.6129C10.3547 12.8085 10.8957 13.7097 11.6128 13.7097ZM11.6128 10.3548C11.7172 10.3548 12.0322 10.801 12.0322 11.6129C12.0322 12.4248 11.7172 12.871 11.6128 12.871C11.5084 12.871 11.1934 12.4248 11.1934 11.6129C11.1934 10.801 11.5084 10.3548 11.6128 10.3548Z" fill="white"/>
<path d="M28.387 7H11.6129C9.96688 7 8.67737 9.02632 8.67737 11.6129V21.2581C8.67737 22.1845 9.42838 22.9355 10.3548 22.9355C10.6501 22.9338 10.9396 22.8532 11.1935 22.7023V23.7742C11.1935 24.7006 11.9445 25.4516 12.8709 25.4516C13.7973 25.4516 14.5483 24.7006 14.5483 23.7742V21.0249C14.8022 21.1758 15.0917 21.2563 15.387 21.2581C16.3135 21.2581 17.0645 20.5071 17.0645 19.5806V16.2258H28.387C29.2165 16.2258 29.955 15.7104 30.4838 14.8688V15.8065C30.4838 16.7329 29.7328 17.4839 28.8064 17.4839H22.0967C20.8703 17.4861 19.8238 18.3715 19.6183 19.5806H19.1612C18.9297 19.5806 18.7419 19.7684 18.7419 20V21.2581H18.3225C18.0909 21.2581 17.9032 21.4458 17.9032 21.6774V32.5806C17.9032 32.8122 18.0909 33 18.3225 33H21.6774C21.909 33 22.0967 32.8122 22.0967 32.5806V21.6774C22.0967 21.4458 21.909 21.2581 21.6774 21.2581H21.258V20C21.258 19.7684 21.0702 19.5806 20.8387 19.5806H20.4789C20.6695 18.8423 21.3342 18.3255 22.0967 18.3226H28.8064C30.1955 18.3212 31.3212 17.1955 31.3225 15.8065V11.6129C31.3225 9.02632 30.033 7 28.387 7ZM19.5806 20.4194H20.4193V21.2581H19.5806V20.4194ZM21.258 22.0968V32.1613H18.7419V22.0968H21.258ZM11.6129 7.83871C12.7493 7.83871 13.7096 9.56687 13.7096 11.6129C13.7096 13.6589 12.7493 15.3871 11.6129 15.3871C10.4764 15.3871 9.51608 13.6589 9.51608 11.6129C9.51608 9.56687 10.4764 7.83871 11.6129 7.83871ZM16.2258 19.5806C16.2258 20.0439 15.8503 20.4194 15.387 20.4194C14.9238 20.4194 14.5483 20.0439 14.5483 19.5806V18.3226H13.7096V23.7742C13.7096 24.2374 13.3341 24.6129 12.8709 24.6129C12.4077 24.6129 12.0322 24.2374 12.0322 23.7742V20.4194H11.1935V21.2581C11.1935 21.7213 10.818 22.0968 10.3548 22.0968C9.89156 22.0968 9.51608 21.7213 9.51608 21.2581V14.8688C10.0449 15.7104 10.7834 16.2258 11.6129 16.2258H16.2258V19.5806ZM28.387 15.3871H13.3175C14.1671 14.3173 14.604 12.9779 14.5483 11.6129C14.604 10.248 14.1671 8.90848 13.3175 7.83871H28.387C29.5235 7.83871 30.4838 9.56687 30.4838 11.6129C30.4838 13.6589 29.5235 15.3871 28.387 15.3871Z" fill="white"/>
<path d="M20.4193 30.4839H19.5806V31.3226H20.4193V30.4839Z" fill="white"/>
</svg>
