<svg width="40" height="40" viewBox="0 0 40 40" fill="none" xmlns="http://www.w3.org/2000/svg">
<rect width="40" height="40" fill="#373842"/>
<path d="M9.47337 16.0813L12.815 12.7397C13.0727 12.482 13.2146 12.1394 13.2146 11.7749C13.2146 11.4105 13.0727 11.0678 12.815 10.81L12.2371 10.2321C11.7051 9.70012 10.8395 9.70012 10.3074 10.2321L6.96579 13.5738C6.43377 14.1058 6.43377 14.9714 6.96579 15.5035L7.54366 16.0813C7.80967 16.3473 8.15911 16.4804 8.50855 16.4804C8.85792 16.4804 9.20735 16.3473 9.47337 16.0813ZM7.57556 14.8938C7.37976 14.698 7.37976 14.3793 7.57556 14.1835L10.9172 10.8419C11.015 10.744 11.1437 10.695 11.2723 10.695C11.4009 10.695 11.5295 10.744 11.6274 10.8419L12.2053 11.4198C12.3001 11.5146 12.3524 11.6407 12.3524 11.7749C12.3524 11.9091 12.3001 12.0352 12.2053 12.13L8.86366 15.4716C8.66793 15.6676 8.34924 15.6675 8.15343 15.4716L7.57556 14.8938Z" fill="white"/>
<path d="M35.975 19.6484L35.5114 18.3452C34.9829 16.8595 34.1298 15.4798 33.0376 14.3412C33.2076 13.2094 32.8443 12.0495 32.0617 11.267C31.2797 10.4851 30.1215 10.1216 28.9904 10.2908L27.8745 9.17476L28.2874 8.7618C28.4558 8.59344 28.4558 8.32046 28.2874 8.1521L26.2377 6.10247C26.0694 5.93411 25.7963 5.93411 25.6281 6.10247L21.8783 9.85215C21.7099 10.0205 21.7099 10.2935 21.8783 10.4619L23.928 12.5116C24.0088 12.5924 24.1184 12.6378 24.2328 12.6378C24.3471 12.6378 24.4568 12.5924 24.5376 12.5116L24.9506 12.0986L26.0665 13.2145C25.999 13.6663 26.0178 14.1221 26.113 14.5569L21.6069 19.0629L15.276 12.7319C15.7893 12.0383 15.7339 11.0532 15.1058 10.4251L11.4663 6.78561C11.1313 6.45068 10.6861 6.26623 10.2125 6.26623C9.73891 6.26623 9.29362 6.45068 8.95877 6.78561L3.51938 12.2251C3.18446 12.5601 3 13.0054 3 13.4789C3 13.9525 3.18446 14.3978 3.51938 14.7326L7.15891 18.3722C7.50461 18.7179 7.9586 18.8907 8.41273 18.8907C8.72646 18.8907 9.03932 18.8062 9.31726 18.6411L11.5702 19.0632L12.794 21.1864C12.8569 21.2955 12.9644 21.3717 13.0882 21.3948L15.4979 21.8461L16.7137 23.9561L10.687 29.9828C9.99609 30.6737 10.0005 31.8024 10.697 32.4988C11.0468 32.8486 11.5055 33.0236 11.9633 33.0236C12.4165 33.0236 12.8686 32.8518 13.2124 32.5081L20.0341 25.6864L20.6487 26.753C20.7116 26.8622 20.8192 26.9383 20.943 26.9615L23.3525 27.4121L24.5756 29.5359C24.6385 29.6451 24.7461 29.7213 24.8699 29.7445L27.2796 30.1951L28.5034 32.3189C28.5662 32.4281 28.6737 32.5042 28.7975 32.5275L31.4016 33.0154C31.428 33.0203 31.4546 33.0228 31.4809 33.0228C31.5923 33.0228 31.7005 32.9796 31.7818 32.9005L33.3246 31.3979C33.4071 31.3175 33.4541 31.2072 33.4548 31.0919C33.4556 30.9766 33.4101 30.8658 33.3285 30.7842L24.1323 21.5882L28.5583 17.1623C29.0569 17.303 29.5898 17.341 30.117 17.2617C31.2555 18.3539 32.6352 19.207 34.121 19.7355L35.4243 20.1991C35.4714 20.2159 35.5203 20.2241 35.5687 20.2241C35.6812 20.2241 35.7914 20.18 35.8737 20.0978C35.9913 19.9801 36.0308 19.8052 35.975 19.6484ZM24.2328 11.597L22.7929 10.157L25.9328 7.01698L27.3728 8.45691L24.2328 11.597ZM7.76861 17.7625L4.12908 14.123C3.95698 13.9509 3.86228 13.7222 3.86228 13.4789C3.86228 13.2356 3.95706 13.0069 4.12908 12.8348L9.56854 7.39545C9.74057 7.22343 9.96928 7.12865 10.2126 7.12865C10.4559 7.12865 10.6846 7.22343 10.8566 7.39545L14.4962 11.035C14.8513 11.3901 14.8513 11.9679 14.4962 12.3231L9.05491 17.7642C8.69958 18.1175 8.12315 18.1172 7.76861 17.7625ZM16.1459 21.2438C16.083 21.1347 15.9755 21.0585 15.8517 21.0353L13.442 20.5839L12.2182 18.4608C12.1554 18.3516 12.0479 18.2755 11.9241 18.2523L10.1237 17.915L14.6817 13.357L20.9974 19.6727L17.3451 23.3249L16.1459 21.2438ZM32.4098 31.0852L31.3403 32.1269L29.1512 31.7167L27.9274 29.5928C27.8646 29.4836 27.7571 29.4075 27.6332 29.3843L25.2236 28.9337L24.0005 26.81C23.9377 26.7008 23.8301 26.6245 23.7062 26.6013L21.2966 26.1507L20.6653 25.0553L23.5226 22.198L32.4098 31.0852ZM12.6026 31.8986C12.2479 32.2534 11.6665 32.2491 11.3067 31.8893C10.9465 31.5291 10.9419 30.9475 11.2967 30.5928L26.4355 15.454C26.5946 15.76 26.7983 16.0414 27.0429 16.286C27.2411 16.4841 27.4636 16.6552 27.7036 16.7978L12.6026 31.8986ZM34.41 18.9232C32.9727 18.4118 31.6428 17.5714 30.5641 16.4928C30.4824 16.4111 30.3724 16.3665 30.2593 16.3665C30.2289 16.3665 30.1983 16.3697 30.168 16.3763C29.2475 16.5756 28.2838 16.3074 27.6526 15.6762C27.0214 15.0449 26.7531 14.0811 26.9526 13.1609C26.9837 13.0176 26.9398 12.8683 26.8361 12.7646L25.5783 11.5069L27.2828 9.80243L28.5406 11.0602C28.6442 11.1638 28.7933 11.2079 28.9368 11.1767C29.8569 10.9773 30.8209 11.2454 31.4521 11.8767C32.0835 12.508 32.3518 13.4718 32.1522 14.392C32.1211 14.5353 32.165 14.6846 32.2687 14.7883C33.3474 15.867 34.1879 17.1969 34.699 18.6342L34.8586 19.0826L34.41 18.9232Z" fill="white"/>
</svg>
