<svg width="40" height="40" viewBox="0 0 40 40" fill="none" xmlns="http://www.w3.org/2000/svg">
<rect width="40" height="40" fill="#373842"/>
<path d="M24.9932 17.5656C25.8968 16.0458 26.75 14.6103 26.75 13.1562C26.75 11.2334 25.9862 9.38936 24.6265 8.02973C23.2669 6.67009 21.4228 5.90625 19.5 5.90625C17.5772 5.90625 15.7331 6.67009 14.3735 8.02973C13.0138 9.38936 12.25 11.2334 12.25 13.1562C12.25 14.6103 13.1032 16.0458 14.0068 17.5656C14.8188 18.9322 15.658 20.3442 15.875 21.7982V23.125H15.4219C15.3017 23.125 15.1864 23.1727 15.1015 23.2577C15.0165 23.3427 14.9688 23.4579 14.9688 23.5781V24.9375C14.9687 25.0404 15.0037 25.1403 15.068 25.2207L16.2941 26.7536C16.0344 26.7586 15.7816 26.8384 15.566 26.9834C15.3504 27.1284 15.1812 27.3324 15.0786 27.5712C14.9761 27.8099 14.9445 28.0731 14.9877 28.3293C15.0309 28.5854 15.147 28.8238 15.3222 29.0156C15.1571 29.1962 15.0443 29.4184 14.9957 29.6582C14.9472 29.898 14.9648 30.1466 15.0467 30.3771C15.1286 30.6077 15.2717 30.8117 15.4606 30.9672C15.6495 31.1227 15.8772 31.2239 16.1192 31.26L17.8203 32.961C17.9052 33.046 18.0205 33.0937 18.1406 33.0938H20.8594C20.9795 33.0937 21.0948 33.046 21.1797 32.961L22.8808 31.26C23.1228 31.2239 23.3505 31.1227 23.5394 30.9672C23.7283 30.8117 23.8714 30.6077 23.9533 30.3771C24.0352 30.1466 24.0528 29.898 24.0043 29.6582C23.9557 29.4184 23.8429 29.1962 23.6778 29.0156C23.853 28.8238 23.9691 28.5854 24.0123 28.3293C24.0555 28.0731 24.0239 27.8099 23.9214 27.5712C23.8188 27.3324 23.6496 27.1284 23.434 26.9834C23.2184 26.8384 22.9656 26.7586 22.7059 26.7536L23.932 25.2207C23.9963 25.1403 24.0313 25.0404 24.0312 24.9375V23.5781C24.0312 23.4579 23.9835 23.3427 23.8985 23.2577C23.8136 23.1727 23.6983 23.125 23.5781 23.125H23.125V21.7982C23.342 20.3442 24.1812 18.9322 24.9932 17.5656ZM20.6718 32.1875H18.3282L17.422 31.2812H21.578L20.6718 32.1875ZM22.6719 30.375H16.3281C16.2079 30.375 16.0927 30.3273 16.0077 30.2423C15.9227 30.1573 15.875 30.0421 15.875 29.9219C15.875 29.8017 15.9227 29.6864 16.0077 29.6015C16.0927 29.5165 16.2079 29.4688 16.3281 29.4688H22.6719C22.7921 29.4688 22.9073 29.5165 22.9923 29.6015C23.0773 29.6864 23.125 29.8017 23.125 29.9219C23.125 30.0421 23.0773 30.1573 22.9923 30.2423C22.9073 30.3273 22.7921 30.375 22.6719 30.375ZM23.125 28.1094C23.125 28.2296 23.0773 28.3448 22.9923 28.4298C22.9073 28.5148 22.7921 28.5625 22.6719 28.5625H16.3281C16.2079 28.5625 16.0927 28.5148 16.0077 28.4298C15.9227 28.3448 15.875 28.2296 15.875 28.1094C15.875 27.9892 15.9227 27.8739 16.0077 27.789C16.0927 27.704 16.2079 27.6562 16.3281 27.6562H22.6719C22.7921 27.6562 22.9073 27.704 22.9923 27.789C23.0773 27.8739 23.125 27.9892 23.125 28.1094ZM23.125 24.7785L21.5481 26.75H17.4519L15.875 24.7785V24.0312H23.125V24.7785ZM18.9708 20.1566L18.1406 18.9109V18.1406H20.8594V18.9109L20.0292 20.1561C19.98 20.2303 19.9535 20.3172 19.9531 20.4062V23.125H19.0469V20.4062C19.0467 20.3168 19.0203 20.2293 18.9708 20.1548V20.1566ZM22.2233 21.7031C22.2203 21.7238 22.2188 21.7447 22.2188 21.7656V23.125H20.8594V20.5422L21.6895 19.297C21.7388 19.2228 21.7652 19.1359 21.7656 19.0469V18.1406H22.2188C22.4876 18.1406 22.7504 18.0609 22.974 17.9115C23.1975 17.7622 23.3718 17.5499 23.4746 17.3015C23.5775 17.0531 23.6045 16.7797 23.552 16.516C23.4996 16.2524 23.3701 16.0101 23.18 15.82C22.9899 15.6299 22.7476 15.5004 22.484 15.448C22.2203 15.3955 21.9469 15.4225 21.6985 15.5254C21.4501 15.6282 21.2378 15.8025 21.0885 16.026C20.9391 16.2496 20.8594 16.5124 20.8594 16.7812V17.2344H18.1406V16.7812C18.1406 16.5124 18.0609 16.2496 17.9115 16.026C17.7622 15.8025 17.5499 15.6282 17.3015 15.5254C17.0531 15.4225 16.7797 15.3955 16.516 15.448C16.2524 15.5004 16.0101 15.6299 15.82 15.82C15.6299 16.0101 15.5004 16.2524 15.448 16.516C15.3955 16.7797 15.4225 17.0531 15.5254 17.3015C15.6282 17.5499 15.8025 17.7622 16.026 17.9115C16.2496 18.0609 16.5124 18.1406 16.7812 18.1406H17.2344V19.0469C17.2345 19.1364 17.261 19.2238 17.3105 19.2984L18.1406 20.5422V23.125H16.7812V21.7656C16.7813 21.7441 16.7798 21.7226 16.7767 21.7013C16.542 20.0569 15.6489 18.5552 14.7857 17.1025C13.9479 15.6937 13.1562 14.3611 13.1562 13.1562C13.1563 11.4738 13.8246 9.86023 15.0143 8.67054C16.204 7.48086 17.8175 6.8125 19.5 6.8125C21.1825 6.8125 22.796 7.48086 23.9857 8.67054C25.1754 9.86023 25.8438 11.4738 25.8438 13.1562C25.8438 14.3611 25.0521 15.6937 24.2125 17.1025C23.3516 18.5552 22.458 20.0569 22.2233 21.7013V21.7031ZM21.7656 17.2344V16.7812C21.7656 16.6916 21.7922 16.604 21.842 16.5295C21.8918 16.455 21.9625 16.3969 22.0453 16.3626C22.1281 16.3283 22.2193 16.3193 22.3072 16.3368C22.395 16.3543 22.4758 16.3975 22.5392 16.4608C22.6025 16.5242 22.6457 16.605 22.6632 16.6928C22.6807 16.7807 22.6717 16.8719 22.6374 16.9547C22.6031 17.0375 22.545 17.1082 22.4705 17.158C22.396 17.2078 22.3084 17.2344 22.2188 17.2344H21.7656ZM17.2344 16.7812V17.2344H16.7812C16.6916 17.2344 16.604 17.2078 16.5295 17.158C16.455 17.1082 16.3969 17.0375 16.3626 16.9547C16.3283 16.8719 16.3193 16.7807 16.3368 16.6928C16.3543 16.605 16.3975 16.5242 16.4608 16.4608C16.5242 16.3975 16.605 16.3543 16.6928 16.3368C16.7807 16.3193 16.8719 16.3283 16.9547 16.3626C17.0375 16.3969 17.1082 16.455 17.158 16.5295C17.2078 16.604 17.2344 16.6916 17.2344 16.7812Z" fill="white"/>
<path d="M24.9375 12.7031C24.9375 10.0483 22.3968 7.71875 19.5 7.71875V8.625C21.6392 8.625 24.0312 10.3691 24.0312 12.7031H24.9375Z" fill="white"/>
<path d="M24.0312 13.6094H24.9375V14.5156H24.0312V13.6094Z" fill="white"/>
<path d="M17.2344 24.9375H18.1406V25.8438H17.2344V24.9375Z" fill="white"/>
<path d="M19.0469 24.9375H19.9531V25.8438H19.0469V24.9375Z" fill="white"/>
<path d="M20.8594 24.9375H21.7656V25.8438H20.8594V24.9375Z" fill="white"/>
<path d="M27.6562 12.7031H30.375V13.6094H27.6562V12.7031Z" fill="white"/>
<path d="M27.3844 10.9813L29.1969 9.62195L29.7404 10.3466L27.9279 11.706L27.3844 10.9813Z" fill="white"/>
<path d="M27.3844 15.3312L27.9279 14.6065L29.7404 15.9659L29.1969 16.6906L27.3844 15.3312Z" fill="white"/>
<path d="M8.625 12.7031H11.3438V13.6094H8.625V12.7031Z" fill="white"/>
<path d="M9.2594 10.3468L9.80288 9.62216L11.6154 10.9815L11.0719 11.7062L9.2594 10.3468Z" fill="white"/>
<path d="M9.26038 15.9634L11.0729 14.604L11.6164 15.3286L9.80385 16.688L9.26038 15.9634Z" fill="white"/>
</svg>
