<svg width="40" height="40" viewBox="0 0 40 40" fill="none" xmlns="http://www.w3.org/2000/svg">
<rect width="40" height="40" fill="#373842"/>
<path d="M16.5 18.25C17.9477 18.25 19.125 17.0727 19.125 15.625L19.1241 14.2849L18.7413 8.15863C18.6962 7.43894 18.096 6.875 17.375 6.875C16.654 6.875 16.0538 7.43894 16.0087 8.15863L15.667 13.63C15.6583 13.7674 15.5436 13.875 15.4062 13.875C15.2689 13.875 15.1542 13.7674 15.1455 13.63L14.8038 8.15863C14.7587 7.43894 14.1585 6.875 13.4375 6.875C12.7165 6.875 12.1163 7.43894 12.0712 8.15863L11.7295 13.63C11.7207 13.7674 11.6061 13.875 11.4688 13.875C11.3314 13.875 11.2168 13.7674 11.208 13.63L10.8663 8.15863C10.8212 7.43894 10.221 6.875 9.5 6.875C8.779 6.875 8.17875 7.43894 8.13369 8.15863L7.75 14.3125V15.625C7.75 17.0727 8.92731 18.25 10.375 18.25H11.6875V21.3125C10.9639 21.3125 10.375 21.9014 10.375 22.625C10.375 23.1824 10.7254 23.6562 11.2163 23.8465L10.6519 30.031C10.5688 30.8189 10.8252 31.6086 11.3554 32.1979C11.8861 32.7873 12.6448 33.125 13.4375 33.125C14.2302 33.125 14.9889 32.7873 15.5191 32.1979C16.0494 31.6086 16.3062 30.8189 16.2235 30.0371L15.6582 23.8461C16.1496 23.6562 16.5 23.1824 16.5 22.625C16.5 21.9014 15.9111 21.3125 15.1875 21.3125V18.25H16.5ZM8.625 15.625L8.62413 14.3396L9.00694 8.21331C9.02313 7.95344 9.23969 7.75 9.5 7.75C9.76031 7.75 9.97687 7.95344 9.99306 8.21331L10.3347 13.6851C10.3724 14.2823 10.8702 14.75 11.4688 14.75C12.0673 14.75 12.5651 14.2823 12.6027 13.6847L12.9444 8.21288C12.9606 7.95344 13.1772 7.75 13.4375 7.75C13.6978 7.75 13.9144 7.95344 13.9306 8.21331L14.2723 13.6851C14.3099 14.2823 14.8077 14.75 15.4062 14.75C16.0048 14.75 16.5026 14.2823 16.5402 13.6847L16.8819 8.21288C16.8981 7.95344 17.1147 7.75 17.375 7.75C17.6353 7.75 17.8519 7.95344 17.8681 8.21331L18.25 14.3125V15.625C18.25 16.5901 17.4651 17.375 16.5 17.375H10.375C9.40987 17.375 8.625 16.5901 8.625 15.625ZM14.8686 31.6126C14.5041 32.0177 13.9826 32.25 13.4375 32.25C12.8924 32.25 12.3709 32.0177 12.0064 31.6126C11.642 31.2079 11.4657 30.6645 11.5234 30.1168L12.0869 23.9375H14.7881L15.3529 30.1229C15.4097 30.6645 15.233 31.2079 14.8686 31.6126ZM15.625 22.625C15.625 22.8661 15.429 23.0625 15.1875 23.0625H11.6875C11.446 23.0625 11.25 22.8661 11.25 22.625C11.25 22.3839 11.446 22.1875 11.6875 22.1875H15.1875C15.429 22.1875 15.625 22.3839 15.625 22.625ZM14.3125 21.3125H12.5625V18.25H14.3125V21.3125Z" fill="white"/>
<path d="M22.3642 11.7877L21.1891 17.193C20.9682 18.2115 21.5864 19.2068 22.5974 19.4597C22.9015 19.5358 23.2231 19.5358 23.5271 19.4597L24.8125 19.1386V21.3125C24.0889 21.3125 23.5 21.9014 23.5 22.625C23.5 23.1824 23.8504 23.6562 24.3413 23.8465L23.7769 30.031C23.6938 30.8189 23.9502 31.6086 24.4804 32.1979C25.0111 32.7873 25.7697 33.125 26.5625 33.125C27.3552 33.125 28.1139 32.7873 28.6441 32.1979C29.1744 31.6086 29.4312 30.8189 29.3485 30.0371L28.7832 23.8461C29.2746 23.6562 29.625 23.1824 29.625 22.625C29.625 21.9014 29.0361 21.3125 28.3125 21.3125V19.1386L29.5979 19.4597C29.7501 19.4977 29.9063 19.5166 30.0629 19.5166C30.2196 19.5166 30.3757 19.4977 30.528 19.4597C31.5391 19.2068 32.1572 18.2115 31.9363 17.193L30.7612 11.7877C30.2874 9.61069 28.7828 7.78719 26.7353 6.91044C26.6259 6.86319 26.5004 6.86319 26.391 6.91044C24.3431 7.78763 22.8381 9.61112 22.3642 11.7877ZM27.9936 31.6126C27.6291 32.0177 27.1076 32.25 26.5625 32.25C26.0174 32.25 25.4959 32.0177 25.1314 31.6126C24.767 31.2079 24.5907 30.6645 24.6484 30.1168L25.2119 23.9375H27.9131L28.4779 30.1229C28.5347 30.6645 28.358 31.2079 27.9936 31.6126ZM28.75 22.625C28.75 22.8661 28.554 23.0625 28.3125 23.0625H24.8125C24.571 23.0625 24.375 22.8661 24.375 22.625C24.375 22.3839 24.571 22.1875 24.8125 22.1875H28.3125C28.554 22.1875 28.75 22.3839 28.75 22.625ZM27.4375 21.3125H25.6875V18.9198L26.1941 18.7929C26.4352 18.7326 26.6898 18.7326 26.9309 18.7929L27.4375 18.9198V21.3125ZM26.5625 7.79156C28.2622 8.58431 29.5056 10.1344 29.9054 11.9736L31.0806 17.3789C31.2009 17.9324 30.8649 18.4731 30.3158 18.6105C30.15 18.6521 29.9759 18.6521 29.8101 18.6105L28.1935 18.2063L27.5766 16.0472C27.4309 15.541 26.9619 15.1875 26.4356 15.1875C25.782 15.1875 25.25 15.7195 25.25 16.3731V16.5H26.125V16.3731C26.125 16.2016 26.2641 16.0625 26.4356 16.0625C26.5734 16.0625 26.6968 16.1552 26.7344 16.2878L27.2126 17.9617L27.1431 17.9442C26.9532 17.8969 26.7581 17.8729 26.5629 17.8729C26.3678 17.8729 26.1722 17.8965 25.9828 17.9442L23.3158 18.6109C23.15 18.6525 22.9759 18.6525 22.8101 18.6109C22.261 18.4736 21.925 17.9324 22.0453 17.3794L23.2204 11.9741C23.6194 10.1344 24.8628 8.58431 26.5625 7.79156Z" fill="white"/>
</svg>
