<svg width="30" height="30" viewBox="0 0 30 30" fill="none" xmlns="http://www.w3.org/2000/svg">
<g clip-path="url(#clip0)">
<path d="M0.09487 2.75256L2.09563 6.25369C2.16312 6.372 2.27608 6.45759 2.40817 6.49072L4.27478 6.95737L10.6768 13.3594L11.3842 12.6523L4.88196 6.15019C4.81797 6.086 4.73773 6.04053 4.64987 6.01851L2.85631 5.56852L1.15286 2.5859L2.61331 1.12545L5.59717 2.83054L6.04736 4.62411C6.06917 4.71217 6.11485 4.79262 6.17884 4.85661L12.6811 11.3589L13.3883 10.6515L6.98622 4.24943L6.51957 2.38385C6.48644 2.25155 6.40085 2.13838 6.28254 2.07069L2.78121 0.0701359C2.58594 -0.0409717 2.34027 -0.00805089 2.18102 0.150586L0.180464 2.15135C0.0195637 2.30957 -0.0154146 2.55566 0.09487 2.75256Z" fill="white"/>
<path d="M20.8895 9.85757L9.88594 20.8613L9.17855 20.1539L20.1823 9.15039L20.8895 9.85757Z" fill="white"/>
<path d="M7.96004 21.2506C7.86951 21.1 7.70696 21.0081 7.53125 21.0081H4.53032C4.35481 21.0081 4.19206 21.1 4.10173 21.2506L2.60116 23.7514C2.5059 23.9098 2.5059 24.108 2.60116 24.2666L4.10173 26.7674C4.19206 26.9178 4.35481 27.0099 4.53032 27.0099H7.53125C7.70696 27.0099 7.86951 26.9178 7.96004 26.7674L9.4604 24.2666C9.55567 24.108 9.55567 23.9098 9.4604 23.7514L7.96004 21.2506ZM7.24833 26.0096H4.81344L3.61306 24.009L4.81344 22.0082H7.24833L8.44871 24.009L7.24833 26.0096Z" fill="white"/>
<path d="M24.0367 12.0049C27.3401 12.0161 30.0273 9.34701 30.0384 6.04362C30.04 5.54075 29.9783 5.03995 29.8546 4.55251C29.788 4.28442 29.5166 4.12125 29.2485 4.18792C29.1604 4.20993 29.0802 4.2554 29.016 4.31939L25.9025 7.43081L23.4322 6.60759L22.6084 4.13792L25.7218 1.02382C25.9171 0.828356 25.9169 0.5117 25.7214 0.316439C25.657 0.252038 25.576 0.20636 25.4873 0.18455C22.2837 -0.62674 19.0292 1.3125 18.218 4.51589C18.0947 5.00188 18.0332 5.50145 18.0348 6.00288C18.0361 6.39669 18.0766 6.78927 18.1564 7.17486L7.20266 18.1284C6.81707 18.0488 6.42449 18.0082 6.03088 18.0068C2.71597 18.0068 0.0288086 20.694 0.0288086 24.0089C0.0288086 27.3236 2.71597 30.0107 6.03088 30.0107C9.3456 30.0107 12.0328 27.3236 12.0328 24.0089C12.0315 23.6151 11.9908 23.2225 11.9112 22.8369L14.5335 20.2145L15.6804 21.3614C15.8758 21.5567 16.1923 21.5567 16.3878 21.3614L16.6378 21.1112C16.8571 20.8933 17.2116 20.8933 17.4309 21.1112C17.6501 21.3297 17.6505 21.6845 17.432 21.9036C17.4318 21.9038 17.4314 21.9042 17.4309 21.9046L17.1809 22.1546C16.9857 22.3499 16.9857 22.6665 17.1809 22.8618L23.1474 28.8283C24.7167 30.4119 27.2726 30.4235 28.8563 28.8542C30.4398 27.2849 30.4513 24.7288 28.882 23.1453C28.8736 23.1367 28.8649 23.128 28.8563 23.1194L22.8898 17.1531C22.6946 16.9579 22.3779 16.9579 22.1826 17.1531L21.9327 17.4031C21.7131 17.6212 21.3588 17.6212 21.1393 17.4031C20.9203 17.1846 20.9197 16.8299 21.1382 16.611C21.1386 16.6106 21.1391 16.6103 21.1393 16.6099L21.3895 16.3597C21.5847 16.1645 21.5847 15.8478 21.3895 15.6526L20.2426 14.5057L22.8649 11.8833C23.2505 11.963 23.6431 12.0037 24.0367 12.0049ZM26.0019 29.0106C25.6385 29.0099 25.2782 28.9443 24.9381 28.8165L28.8444 24.9101C29.4339 26.4781 28.6407 28.227 27.0726 28.8165C26.7304 28.9451 26.3677 29.011 26.0019 29.0106ZM20.3356 16.0112C19.7817 16.6719 19.8685 17.6566 20.5292 18.2103C21.1098 18.6969 21.9561 18.6965 22.5361 18.2089L28.1491 23.8268C28.21 23.8879 28.267 23.9523 28.3222 24.0177L24.0458 28.2941C23.9801 28.2392 23.9157 28.1822 23.8546 28.1211L18.2373 22.5034C18.7912 21.8427 18.7044 20.8579 18.0437 20.3043C17.463 19.8174 16.6166 19.8181 16.0365 20.3055L15.2364 19.5053L19.5352 15.2129L20.3356 16.0112ZM22.3553 10.9807L11.0089 22.3248C10.8844 22.449 10.8344 22.6295 10.8768 22.8001C11.563 25.4948 9.93467 28.2357 7.23969 28.9217C4.54492 29.6079 1.80406 27.9795 1.11787 25.2845C0.431882 22.5898 2.06023 19.8489 4.7552 19.1627C5.57041 18.9553 6.42449 18.9553 7.23969 19.1627C7.41027 19.2045 7.5903 19.1545 7.71499 19.0308L19.0587 7.68657C19.1829 7.56229 19.2329 7.38184 19.1901 7.21148C18.5087 4.54819 20.1152 1.83676 22.7785 1.15509C23.2818 1.0265 23.8023 0.977117 24.3208 1.00942L21.6825 3.64884C21.5485 3.78258 21.5016 3.98072 21.5615 4.16035L22.5616 7.16148C22.6116 7.31065 22.7289 7.42793 22.8783 7.47752L25.8794 8.4779C26.0589 8.53777 26.257 8.49107 26.3909 8.35733L29.0293 5.71894C29.0353 5.81441 29.0384 5.90885 29.0384 6.00288C29.0524 8.75114 26.836 10.9904 24.0877 11.0046C23.6628 11.0066 23.2394 10.9544 22.8279 10.849C22.6573 10.8064 22.4769 10.8562 22.3526 10.9805H22.3553V10.9807Z" fill="white"/>
<path d="M25.8914 25.1557L25.184 25.8631L20.1826 20.8616L20.8897 20.1542L25.8914 25.1557Z" fill="white"/>
</g>
<defs>
<clipPath id="clip0">
<rect width="30" height="30" fill="white"/>
</clipPath>
</defs>
</svg>
