<svg width="26" height="426" viewBox="0 0 26 426" fill="none" xmlns="http://www.w3.org/2000/svg">
<line x1="13.5" y1="426" x2="13.5" stroke="#FDAA46"/>
<circle cx="12.5" cy="115.5" r="12.5" fill="white"/>
<path d="M26 310.5C26 317.404 20.4036 323 13.5 323C6.59644 323 1 317.404 1 310.5C1 303.596 6.59644 298 13.5 298C20.4036 298 26 303.596 26 310.5Z" fill="#FDAA46"/>
<line x1="13.5" x2="13.5" y2="213" stroke="white"/>
<path d="M14.332 121H12.7256V114.547C12.7256 113.777 12.7438 113.166 12.7803 112.715C12.6755 112.824 12.5456 112.945 12.3906 113.077C12.2402 113.209 11.7298 113.629 10.8594 114.335L10.0527 113.316L12.9922 111.006H14.332V121Z" fill="#373842"/>
<path d="M17.3896 315H10.6152V313.783L13.1924 311.192C13.9535 310.413 14.457 309.862 14.7031 309.538C14.9538 309.21 15.1361 308.902 15.25 308.615C15.3639 308.328 15.4209 308.021 15.4209 307.692C15.4209 307.241 15.2842 306.886 15.0107 306.626C14.7419 306.366 14.3682 306.236 13.8896 306.236C13.5068 306.236 13.1354 306.307 12.7754 306.448C12.4199 306.59 12.0075 306.845 11.5381 307.214L10.6699 306.154C11.2259 305.685 11.766 305.352 12.29 305.156C12.8141 304.96 13.3724 304.862 13.9648 304.862C14.8945 304.862 15.6396 305.106 16.2002 305.594C16.7607 306.077 17.041 306.729 17.041 307.549C17.041 308 16.959 308.428 16.7949 308.834C16.6354 309.24 16.387 309.659 16.0498 310.092C15.7171 310.52 15.1611 311.101 14.3818 311.835L12.6455 313.517V313.585H17.3896V315Z" fill="#373842"/>
</svg>
