<svg width="33" height="33" viewBox="0 0 33 33" fill="none" xmlns="http://www.w3.org/2000/svg">
<path d="M6.47349 13.0813L9.8151 9.73972C10.0728 9.48205 10.2148 9.13936 10.2148 8.77491C10.2148 8.41045 10.0728 8.06777 9.8151 7.81002L9.23723 7.23215C8.7052 6.70012 7.83962 6.70012 7.30753 7.23215L3.96591 10.5738C3.43389 11.1058 3.43389 11.9714 3.96591 12.5035L4.54378 13.0813C4.8098 13.3473 5.15923 13.4804 5.50867 13.4804C5.85804 13.4804 6.20747 13.3473 6.47349 13.0813ZM4.57569 11.8938C4.37988 11.698 4.37988 11.3793 4.57569 11.1835L7.9173 7.84192C8.01517 7.74398 8.14379 7.69505 8.27241 7.69505C8.40104 7.69505 8.52966 7.74398 8.62753 7.84192L9.2054 8.41979C9.30025 8.51464 9.35249 8.64075 9.35249 8.77491C9.35249 8.90906 9.30025 9.03517 9.2054 9.13002L5.86379 12.4716C5.66805 12.6676 5.34937 12.6675 5.15356 12.4716L4.57569 11.8938Z" fill="white"/>
<path d="M32.975 16.6484L32.5114 15.3452C31.9829 13.8595 31.1298 12.4798 30.0376 11.3412C30.2076 10.2094 29.8443 9.04952 29.0617 8.267C28.2797 7.48513 27.1215 7.12161 25.9904 7.29076L24.8745 6.17476L25.2874 5.7618C25.4558 5.59344 25.4558 5.32046 25.2874 5.1521L23.2377 3.10247C23.0694 2.93411 22.7963 2.93411 22.6281 3.10247L18.8783 6.85215C18.7099 7.02051 18.7099 7.29349 18.8783 7.46185L20.928 9.51156C21.0088 9.5924 21.1184 9.63781 21.2328 9.63781C21.3471 9.63781 21.4568 9.5924 21.5376 9.51156L21.9506 9.0986L23.0665 10.2145C22.999 10.6663 23.0178 11.1221 23.113 11.5569L18.6069 16.0629L12.276 9.73187C12.7893 9.03831 12.7339 8.05323 12.1058 7.42513L8.46627 3.78561C8.13135 3.45068 7.68612 3.26623 7.21252 3.26623C6.73891 3.26623 6.29362 3.45068 5.95877 3.78561L0.519378 9.22514C0.184456 9.56006 0 10.0054 0 10.4789C0 10.9525 0.184456 11.3978 0.519378 11.7326L4.15891 15.3722C4.50461 15.7179 4.9586 15.8907 5.41273 15.8907C5.72646 15.8907 6.03932 15.8062 6.31726 15.6411L8.57025 16.0632L9.79403 18.1864C9.85691 18.2955 9.9644 18.3717 10.0882 18.3948L12.4979 18.8461L13.7137 20.9561L7.68699 26.9828C6.99609 27.6737 7.00054 28.8024 7.69697 29.4988C8.04677 29.8486 8.5055 30.0236 8.9633 30.0236C9.4165 30.0236 9.86862 29.8518 10.2124 29.5081L17.0341 22.6864L17.6487 23.753C17.7116 23.8622 17.8192 23.9383 17.943 23.9615L20.3525 24.4121L21.5756 26.5359C21.6385 26.6451 21.7461 26.7213 21.8699 26.7445L24.2796 27.1951L25.5034 29.3189C25.5662 29.4281 25.6737 29.5042 25.7975 29.5275L28.4016 30.0154C28.428 30.0203 28.4546 30.0228 28.4809 30.0228C28.5923 30.0228 28.7005 29.9796 28.7818 29.9005L30.3246 28.3979C30.4071 28.3175 30.4541 28.2072 30.4548 28.0919C30.4556 27.9766 30.4101 27.8658 30.3285 27.7842L21.1323 18.5882L25.5583 14.1623C26.0569 14.303 26.5898 14.341 27.117 14.2617C28.2555 15.3539 29.6352 16.207 31.121 16.7355L32.4243 17.1991C32.4714 17.2159 32.5203 17.2241 32.5687 17.2241C32.6812 17.2241 32.7914 17.18 32.8737 17.0978C32.9913 16.9801 33.0308 16.8052 32.975 16.6484ZM21.2328 8.59697L19.7929 7.15697L22.9328 4.01698L24.3728 5.45691L21.2328 8.59697ZM4.76861 14.7625L1.12908 11.123C0.956984 10.9509 0.862277 10.7222 0.862277 10.4789C0.862277 10.2356 0.957056 10.0069 1.12908 9.83484L6.56854 4.39545C6.74057 4.22343 6.96928 4.12865 7.21259 4.12865C7.4559 4.12865 7.68461 4.22343 7.85664 4.39545L11.4962 8.03498C11.8513 8.39009 11.8513 8.96789 11.4962 9.32308L6.05491 14.7642C5.69958 15.1175 5.12315 15.1172 4.76861 14.7625ZM13.1459 18.2438C13.083 18.1347 12.9755 18.0585 12.8517 18.0353L10.442 17.5839L9.21825 15.4608C9.15537 15.3516 9.04788 15.2755 8.92414 15.2523L7.1237 14.915L11.6817 10.357L17.9974 16.6727L14.3451 20.3249L13.1459 18.2438ZM29.4098 28.0852L28.3403 29.1269L26.1512 28.7167L24.9274 26.5928C24.8646 26.4836 24.7571 26.4075 24.6332 26.3843L22.2236 25.9337L21.0005 23.81C20.9377 23.7008 20.8301 23.6245 20.7062 23.6013L18.2966 23.1507L17.6653 22.0553L20.5226 19.198L29.4098 28.0852ZM9.60261 28.8986C9.24792 29.2534 8.66653 29.2491 8.30668 28.8893C7.94646 28.5291 7.94193 27.9475 8.29669 27.5928L23.4355 12.454C23.5946 12.76 23.7983 13.0414 24.0429 13.286C24.2411 13.4841 24.4636 13.6552 24.7036 13.7978L9.60261 28.8986ZM31.41 15.9232C29.9727 15.4118 28.6428 14.5714 27.5641 13.4928C27.4824 13.4111 27.3724 13.3665 27.2593 13.3665C27.2289 13.3665 27.1983 13.3697 27.168 13.3763C26.2475 13.5756 25.2838 13.3074 24.6526 12.6762C24.0214 12.0449 23.7531 11.0811 23.9526 10.1609C23.9837 10.0176 23.9398 9.86833 23.8361 9.76464L22.5783 8.50686L24.2828 6.80243L25.5406 8.0602C25.6442 8.16382 25.7933 8.20794 25.9368 8.17668C26.8569 7.97728 27.8209 8.24538 28.4521 8.87671C29.0835 9.50804 29.3518 10.4718 29.1522 11.392C29.1211 11.5353 29.165 11.6846 29.2687 11.7883C30.3474 12.867 31.1879 14.1969 31.699 15.6342L31.8586 16.0826L31.41 15.9232Z" fill="white"/>
</svg>
