<svg width="12" height="12" viewBox="0 0 12 12" fill="none" xmlns="http://www.w3.org/2000/svg">
<path d="M5.99982 6.01538C2.83749 6.01538 0.264648 8.58824 0.264648 11.7506C0.264648 11.8882 0.376368 11.9999 0.514012 11.9999C0.651656 11.9999 0.763375 11.8882 0.763375 11.7506C0.763375 8.86302 3.11231 6.51408 5.99984 6.51408C8.88738 6.51408 11.2363 8.86302 11.2363 11.7506C11.2363 11.8882 11.348 11.9999 11.4857 11.9999C11.6233 11.9999 11.735 11.8882 11.735 11.7506C11.735 8.58773 9.16216 6.01538 5.99982 6.01538Z" fill="#373842"/>
<path d="M6.00023 0C4.48813 0 3.25732 1.23031 3.25732 2.7429C3.25732 4.2555 4.48815 5.48581 6.00023 5.48581C7.51231 5.48581 8.74313 4.2555 8.74313 2.7429C8.74313 1.23031 7.51233 0 6.00023 0ZM6.00023 4.98711C4.76293 4.98711 3.75603 3.98021 3.75603 2.7429C3.75603 1.5056 4.76293 0.498704 6.00023 0.498704C7.23753 0.498704 8.24443 1.5056 8.24443 2.7429C8.24443 3.98021 7.23753 4.98711 6.00023 4.98711Z" fill="#373842"/>
</svg>
